%TF.GenerationSoftware,KiCad,Pcbnew,8.0.6*%
%TF.CreationDate,2025-12-05T01:10:29-07:00*%
%TF.ProjectId,pt_thrifty,70745f74-6872-4696-9674-792e6b696361,rev?*%
%TF.SameCoordinates,Original*%
%TF.FileFunction,Legend,Top*%
%TF.FilePolarity,Positive*%
%FSLAX46Y46*%
G04 Gerber Fmt 4.6, Leading zero omitted, Abs format (unit mm)*
G04 Created by KiCad (PCBNEW 8.0.6) date 2025-12-05 01:10:29*
%MOMM*%
%LPD*%
G01*
G04 APERTURE LIST*
%ADD10C,0.100000*%
%ADD11C,0.150000*%
%ADD12C,0.120000*%
%ADD13C,0.127000*%
%ADD14C,0.200000*%
%ADD15C,0.152400*%
G04 APERTURE END LIST*
D10*
X127889000Y-70548500D02*
X134620000Y-70548500D01*
X134620000Y-74231500D01*
X127889000Y-74231500D01*
X127889000Y-70548500D01*
G36*
X127889000Y-70548500D02*
G01*
X134620000Y-70548500D01*
X134620000Y-74231500D01*
X127889000Y-74231500D01*
X127889000Y-70548500D01*
G37*
D11*
X150005951Y-71751659D02*
X150272618Y-72132612D01*
X150463094Y-71751659D02*
X150463094Y-72551659D01*
X150463094Y-72551659D02*
X150158332Y-72551659D01*
X150158332Y-72551659D02*
X150082142Y-72513564D01*
X150082142Y-72513564D02*
X150044047Y-72475469D01*
X150044047Y-72475469D02*
X150005951Y-72399278D01*
X150005951Y-72399278D02*
X150005951Y-72284993D01*
X150005951Y-72284993D02*
X150044047Y-72208802D01*
X150044047Y-72208802D02*
X150082142Y-72170707D01*
X150082142Y-72170707D02*
X150158332Y-72132612D01*
X150158332Y-72132612D02*
X150463094Y-72132612D01*
X149358332Y-71789755D02*
X149434523Y-71751659D01*
X149434523Y-71751659D02*
X149586904Y-71751659D01*
X149586904Y-71751659D02*
X149663094Y-71789755D01*
X149663094Y-71789755D02*
X149701190Y-71865945D01*
X149701190Y-71865945D02*
X149701190Y-72170707D01*
X149701190Y-72170707D02*
X149663094Y-72246897D01*
X149663094Y-72246897D02*
X149586904Y-72284993D01*
X149586904Y-72284993D02*
X149434523Y-72284993D01*
X149434523Y-72284993D02*
X149358332Y-72246897D01*
X149358332Y-72246897D02*
X149320237Y-72170707D01*
X149320237Y-72170707D02*
X149320237Y-72094516D01*
X149320237Y-72094516D02*
X149701190Y-72018326D01*
X149053571Y-72284993D02*
X148863095Y-71751659D01*
X148863095Y-71751659D02*
X148672618Y-72284993D01*
X148405952Y-72475469D02*
X148367856Y-72513564D01*
X148367856Y-72513564D02*
X148291666Y-72551659D01*
X148291666Y-72551659D02*
X148101190Y-72551659D01*
X148101190Y-72551659D02*
X148024999Y-72513564D01*
X148024999Y-72513564D02*
X147986904Y-72475469D01*
X147986904Y-72475469D02*
X147948809Y-72399278D01*
X147948809Y-72399278D02*
X147948809Y-72323088D01*
X147948809Y-72323088D02*
X147986904Y-72208802D01*
X147986904Y-72208802D02*
X148444047Y-71751659D01*
X148444047Y-71751659D02*
X147948809Y-71751659D01*
X150596428Y-71073228D02*
X150672619Y-71111323D01*
X150672619Y-71111323D02*
X150825000Y-71111323D01*
X150825000Y-71111323D02*
X150901190Y-71073228D01*
X150901190Y-71073228D02*
X150977381Y-70997038D01*
X150977381Y-70997038D02*
X151015476Y-70920847D01*
X151015476Y-70920847D02*
X151015476Y-70768466D01*
X151015476Y-70768466D02*
X150977381Y-70692276D01*
X150977381Y-70692276D02*
X150901190Y-70616085D01*
X150901190Y-70616085D02*
X150825000Y-70577990D01*
X150825000Y-70577990D02*
X150672619Y-70577990D01*
X150672619Y-70577990D02*
X150596428Y-70616085D01*
X150748809Y-71377990D02*
X150939285Y-71339895D01*
X150939285Y-71339895D02*
X151129762Y-71225609D01*
X151129762Y-71225609D02*
X151244047Y-71035133D01*
X151244047Y-71035133D02*
X151282143Y-70844657D01*
X151282143Y-70844657D02*
X151244047Y-70654180D01*
X151244047Y-70654180D02*
X151129762Y-70463704D01*
X151129762Y-70463704D02*
X150939285Y-70349419D01*
X150939285Y-70349419D02*
X150748809Y-70311323D01*
X150748809Y-70311323D02*
X150558333Y-70349419D01*
X150558333Y-70349419D02*
X150367857Y-70463704D01*
X150367857Y-70463704D02*
X150253571Y-70654180D01*
X150253571Y-70654180D02*
X150215476Y-70844657D01*
X150215476Y-70844657D02*
X150253571Y-71035133D01*
X150253571Y-71035133D02*
X150367857Y-71225609D01*
X150367857Y-71225609D02*
X150558333Y-71339895D01*
X150558333Y-71339895D02*
X150748809Y-71377990D01*
X149910714Y-71187514D02*
X149872618Y-71225609D01*
X149872618Y-71225609D02*
X149796428Y-71263704D01*
X149796428Y-71263704D02*
X149605952Y-71263704D01*
X149605952Y-71263704D02*
X149529761Y-71225609D01*
X149529761Y-71225609D02*
X149491666Y-71187514D01*
X149491666Y-71187514D02*
X149453571Y-71111323D01*
X149453571Y-71111323D02*
X149453571Y-71035133D01*
X149453571Y-71035133D02*
X149491666Y-70920847D01*
X149491666Y-70920847D02*
X149948809Y-70463704D01*
X149948809Y-70463704D02*
X149453571Y-70463704D01*
X148958332Y-71263704D02*
X148882142Y-71263704D01*
X148882142Y-71263704D02*
X148805951Y-71225609D01*
X148805951Y-71225609D02*
X148767856Y-71187514D01*
X148767856Y-71187514D02*
X148729761Y-71111323D01*
X148729761Y-71111323D02*
X148691666Y-70958942D01*
X148691666Y-70958942D02*
X148691666Y-70768466D01*
X148691666Y-70768466D02*
X148729761Y-70616085D01*
X148729761Y-70616085D02*
X148767856Y-70539895D01*
X148767856Y-70539895D02*
X148805951Y-70501800D01*
X148805951Y-70501800D02*
X148882142Y-70463704D01*
X148882142Y-70463704D02*
X148958332Y-70463704D01*
X148958332Y-70463704D02*
X149034523Y-70501800D01*
X149034523Y-70501800D02*
X149072618Y-70539895D01*
X149072618Y-70539895D02*
X149110713Y-70616085D01*
X149110713Y-70616085D02*
X149148809Y-70768466D01*
X149148809Y-70768466D02*
X149148809Y-70958942D01*
X149148809Y-70958942D02*
X149110713Y-71111323D01*
X149110713Y-71111323D02*
X149072618Y-71187514D01*
X149072618Y-71187514D02*
X149034523Y-71225609D01*
X149034523Y-71225609D02*
X148958332Y-71263704D01*
X148386904Y-71187514D02*
X148348808Y-71225609D01*
X148348808Y-71225609D02*
X148272618Y-71263704D01*
X148272618Y-71263704D02*
X148082142Y-71263704D01*
X148082142Y-71263704D02*
X148005951Y-71225609D01*
X148005951Y-71225609D02*
X147967856Y-71187514D01*
X147967856Y-71187514D02*
X147929761Y-71111323D01*
X147929761Y-71111323D02*
X147929761Y-71035133D01*
X147929761Y-71035133D02*
X147967856Y-70920847D01*
X147967856Y-70920847D02*
X148424999Y-70463704D01*
X148424999Y-70463704D02*
X147929761Y-70463704D01*
X147205951Y-71263704D02*
X147586903Y-71263704D01*
X147586903Y-71263704D02*
X147624999Y-70882752D01*
X147624999Y-70882752D02*
X147586903Y-70920847D01*
X147586903Y-70920847D02*
X147510713Y-70958942D01*
X147510713Y-70958942D02*
X147320237Y-70958942D01*
X147320237Y-70958942D02*
X147244046Y-70920847D01*
X147244046Y-70920847D02*
X147205951Y-70882752D01*
X147205951Y-70882752D02*
X147167856Y-70806561D01*
X147167856Y-70806561D02*
X147167856Y-70616085D01*
X147167856Y-70616085D02*
X147205951Y-70539895D01*
X147205951Y-70539895D02*
X147244046Y-70501800D01*
X147244046Y-70501800D02*
X147320237Y-70463704D01*
X147320237Y-70463704D02*
X147510713Y-70463704D01*
X147510713Y-70463704D02*
X147586903Y-70501800D01*
X147586903Y-70501800D02*
X147624999Y-70539895D01*
X152110839Y-73130704D02*
X152110839Y-73930704D01*
X152110839Y-73930704D02*
X151806077Y-73930704D01*
X151806077Y-73930704D02*
X151729887Y-73892609D01*
X151729887Y-73892609D02*
X151691792Y-73854514D01*
X151691792Y-73854514D02*
X151653696Y-73778323D01*
X151653696Y-73778323D02*
X151653696Y-73664038D01*
X151653696Y-73664038D02*
X151691792Y-73587847D01*
X151691792Y-73587847D02*
X151729887Y-73549752D01*
X151729887Y-73549752D02*
X151806077Y-73511657D01*
X151806077Y-73511657D02*
X152110839Y-73511657D01*
X151425125Y-73930704D02*
X150967982Y-73930704D01*
X151196554Y-73130704D02*
X151196554Y-73930704D01*
X150701315Y-73435466D02*
X150091792Y-73435466D01*
X149825125Y-73930704D02*
X149367982Y-73930704D01*
X149596554Y-73130704D02*
X149596554Y-73930704D01*
X149101315Y-73130704D02*
X149101315Y-73930704D01*
X148758458Y-73130704D02*
X148758458Y-73549752D01*
X148758458Y-73549752D02*
X148796553Y-73625942D01*
X148796553Y-73625942D02*
X148872744Y-73664038D01*
X148872744Y-73664038D02*
X148987030Y-73664038D01*
X148987030Y-73664038D02*
X149063220Y-73625942D01*
X149063220Y-73625942D02*
X149101315Y-73587847D01*
X148377505Y-73130704D02*
X148377505Y-73664038D01*
X148377505Y-73511657D02*
X148339410Y-73587847D01*
X148339410Y-73587847D02*
X148301315Y-73625942D01*
X148301315Y-73625942D02*
X148225124Y-73664038D01*
X148225124Y-73664038D02*
X148148934Y-73664038D01*
X147882267Y-73130704D02*
X147882267Y-73664038D01*
X147882267Y-73930704D02*
X147920363Y-73892609D01*
X147920363Y-73892609D02*
X147882267Y-73854514D01*
X147882267Y-73854514D02*
X147844172Y-73892609D01*
X147844172Y-73892609D02*
X147882267Y-73930704D01*
X147882267Y-73930704D02*
X147882267Y-73854514D01*
X147615601Y-73664038D02*
X147310839Y-73664038D01*
X147501315Y-73130704D02*
X147501315Y-73816419D01*
X147501315Y-73816419D02*
X147463220Y-73892609D01*
X147463220Y-73892609D02*
X147387030Y-73930704D01*
X147387030Y-73930704D02*
X147310839Y-73930704D01*
X147158458Y-73664038D02*
X146853696Y-73664038D01*
X147044172Y-73930704D02*
X147044172Y-73244990D01*
X147044172Y-73244990D02*
X147006077Y-73168800D01*
X147006077Y-73168800D02*
X146929887Y-73130704D01*
X146929887Y-73130704D02*
X146853696Y-73130704D01*
X146663220Y-73664038D02*
X146472744Y-73130704D01*
X146282267Y-73664038D02*
X146472744Y-73130704D01*
X146472744Y-73130704D02*
X146548934Y-72940228D01*
X146548934Y-72940228D02*
X146587029Y-72902133D01*
X146587029Y-72902133D02*
X146663220Y-72864038D01*
X149653666Y-98514819D02*
X149653666Y-99229104D01*
X149653666Y-99229104D02*
X149606047Y-99371961D01*
X149606047Y-99371961D02*
X149510809Y-99467200D01*
X149510809Y-99467200D02*
X149367952Y-99514819D01*
X149367952Y-99514819D02*
X149272714Y-99514819D01*
X150653666Y-99514819D02*
X150082238Y-99514819D01*
X150367952Y-99514819D02*
X150367952Y-98514819D01*
X150367952Y-98514819D02*
X150272714Y-98657676D01*
X150272714Y-98657676D02*
X150177476Y-98752914D01*
X150177476Y-98752914D02*
X150082238Y-98800533D01*
X141129104Y-92081332D02*
X141167200Y-92119428D01*
X141167200Y-92119428D02*
X141205295Y-92233713D01*
X141205295Y-92233713D02*
X141205295Y-92309904D01*
X141205295Y-92309904D02*
X141167200Y-92424190D01*
X141167200Y-92424190D02*
X141091009Y-92500380D01*
X141091009Y-92500380D02*
X141014819Y-92538475D01*
X141014819Y-92538475D02*
X140862438Y-92576571D01*
X140862438Y-92576571D02*
X140748152Y-92576571D01*
X140748152Y-92576571D02*
X140595771Y-92538475D01*
X140595771Y-92538475D02*
X140519580Y-92500380D01*
X140519580Y-92500380D02*
X140443390Y-92424190D01*
X140443390Y-92424190D02*
X140405295Y-92309904D01*
X140405295Y-92309904D02*
X140405295Y-92233713D01*
X140405295Y-92233713D02*
X140443390Y-92119428D01*
X140443390Y-92119428D02*
X140481485Y-92081332D01*
X140405295Y-91395618D02*
X140405295Y-91547999D01*
X140405295Y-91547999D02*
X140443390Y-91624190D01*
X140443390Y-91624190D02*
X140481485Y-91662285D01*
X140481485Y-91662285D02*
X140595771Y-91738475D01*
X140595771Y-91738475D02*
X140748152Y-91776571D01*
X140748152Y-91776571D02*
X141052914Y-91776571D01*
X141052914Y-91776571D02*
X141129104Y-91738475D01*
X141129104Y-91738475D02*
X141167200Y-91700380D01*
X141167200Y-91700380D02*
X141205295Y-91624190D01*
X141205295Y-91624190D02*
X141205295Y-91471809D01*
X141205295Y-91471809D02*
X141167200Y-91395618D01*
X141167200Y-91395618D02*
X141129104Y-91357523D01*
X141129104Y-91357523D02*
X141052914Y-91319428D01*
X141052914Y-91319428D02*
X140862438Y-91319428D01*
X140862438Y-91319428D02*
X140786247Y-91357523D01*
X140786247Y-91357523D02*
X140748152Y-91395618D01*
X140748152Y-91395618D02*
X140710057Y-91471809D01*
X140710057Y-91471809D02*
X140710057Y-91624190D01*
X140710057Y-91624190D02*
X140748152Y-91700380D01*
X140748152Y-91700380D02*
X140786247Y-91738475D01*
X140786247Y-91738475D02*
X140862438Y-91776571D01*
X136760295Y-87509332D02*
X136379342Y-87775999D01*
X136760295Y-87966475D02*
X135960295Y-87966475D01*
X135960295Y-87966475D02*
X135960295Y-87661713D01*
X135960295Y-87661713D02*
X135998390Y-87585523D01*
X135998390Y-87585523D02*
X136036485Y-87547428D01*
X136036485Y-87547428D02*
X136112676Y-87509332D01*
X136112676Y-87509332D02*
X136226961Y-87509332D01*
X136226961Y-87509332D02*
X136303152Y-87547428D01*
X136303152Y-87547428D02*
X136341247Y-87585523D01*
X136341247Y-87585523D02*
X136379342Y-87661713D01*
X136379342Y-87661713D02*
X136379342Y-87966475D01*
X136303152Y-87052190D02*
X136265057Y-87128380D01*
X136265057Y-87128380D02*
X136226961Y-87166475D01*
X136226961Y-87166475D02*
X136150771Y-87204571D01*
X136150771Y-87204571D02*
X136112676Y-87204571D01*
X136112676Y-87204571D02*
X136036485Y-87166475D01*
X136036485Y-87166475D02*
X135998390Y-87128380D01*
X135998390Y-87128380D02*
X135960295Y-87052190D01*
X135960295Y-87052190D02*
X135960295Y-86899809D01*
X135960295Y-86899809D02*
X135998390Y-86823618D01*
X135998390Y-86823618D02*
X136036485Y-86785523D01*
X136036485Y-86785523D02*
X136112676Y-86747428D01*
X136112676Y-86747428D02*
X136150771Y-86747428D01*
X136150771Y-86747428D02*
X136226961Y-86785523D01*
X136226961Y-86785523D02*
X136265057Y-86823618D01*
X136265057Y-86823618D02*
X136303152Y-86899809D01*
X136303152Y-86899809D02*
X136303152Y-87052190D01*
X136303152Y-87052190D02*
X136341247Y-87128380D01*
X136341247Y-87128380D02*
X136379342Y-87166475D01*
X136379342Y-87166475D02*
X136455533Y-87204571D01*
X136455533Y-87204571D02*
X136607914Y-87204571D01*
X136607914Y-87204571D02*
X136684104Y-87166475D01*
X136684104Y-87166475D02*
X136722200Y-87128380D01*
X136722200Y-87128380D02*
X136760295Y-87052190D01*
X136760295Y-87052190D02*
X136760295Y-86899809D01*
X136760295Y-86899809D02*
X136722200Y-86823618D01*
X136722200Y-86823618D02*
X136684104Y-86785523D01*
X136684104Y-86785523D02*
X136607914Y-86747428D01*
X136607914Y-86747428D02*
X136455533Y-86747428D01*
X136455533Y-86747428D02*
X136379342Y-86785523D01*
X136379342Y-86785523D02*
X136341247Y-86823618D01*
X136341247Y-86823618D02*
X136303152Y-86899809D01*
X136684104Y-85350332D02*
X136722200Y-85388428D01*
X136722200Y-85388428D02*
X136760295Y-85502713D01*
X136760295Y-85502713D02*
X136760295Y-85578904D01*
X136760295Y-85578904D02*
X136722200Y-85693190D01*
X136722200Y-85693190D02*
X136646009Y-85769380D01*
X136646009Y-85769380D02*
X136569819Y-85807475D01*
X136569819Y-85807475D02*
X136417438Y-85845571D01*
X136417438Y-85845571D02*
X136303152Y-85845571D01*
X136303152Y-85845571D02*
X136150771Y-85807475D01*
X136150771Y-85807475D02*
X136074580Y-85769380D01*
X136074580Y-85769380D02*
X135998390Y-85693190D01*
X135998390Y-85693190D02*
X135960295Y-85578904D01*
X135960295Y-85578904D02*
X135960295Y-85502713D01*
X135960295Y-85502713D02*
X135998390Y-85388428D01*
X135998390Y-85388428D02*
X136036485Y-85350332D01*
X136226961Y-84664618D02*
X136760295Y-84664618D01*
X135922200Y-84855094D02*
X136493628Y-85045571D01*
X136493628Y-85045571D02*
X136493628Y-84550332D01*
X134220295Y-81540332D02*
X133839342Y-81806999D01*
X134220295Y-81997475D02*
X133420295Y-81997475D01*
X133420295Y-81997475D02*
X133420295Y-81692713D01*
X133420295Y-81692713D02*
X133458390Y-81616523D01*
X133458390Y-81616523D02*
X133496485Y-81578428D01*
X133496485Y-81578428D02*
X133572676Y-81540332D01*
X133572676Y-81540332D02*
X133686961Y-81540332D01*
X133686961Y-81540332D02*
X133763152Y-81578428D01*
X133763152Y-81578428D02*
X133801247Y-81616523D01*
X133801247Y-81616523D02*
X133839342Y-81692713D01*
X133839342Y-81692713D02*
X133839342Y-81997475D01*
X134220295Y-80778428D02*
X134220295Y-81235571D01*
X134220295Y-81006999D02*
X133420295Y-81006999D01*
X133420295Y-81006999D02*
X133534580Y-81083190D01*
X133534580Y-81083190D02*
X133610771Y-81159380D01*
X133610771Y-81159380D02*
X133648866Y-81235571D01*
X129206666Y-98514819D02*
X129206666Y-99229104D01*
X129206666Y-99229104D02*
X129159047Y-99371961D01*
X129159047Y-99371961D02*
X129063809Y-99467200D01*
X129063809Y-99467200D02*
X128920952Y-99514819D01*
X128920952Y-99514819D02*
X128825714Y-99514819D01*
X129635238Y-98610057D02*
X129682857Y-98562438D01*
X129682857Y-98562438D02*
X129778095Y-98514819D01*
X129778095Y-98514819D02*
X130016190Y-98514819D01*
X130016190Y-98514819D02*
X130111428Y-98562438D01*
X130111428Y-98562438D02*
X130159047Y-98610057D01*
X130159047Y-98610057D02*
X130206666Y-98705295D01*
X130206666Y-98705295D02*
X130206666Y-98800533D01*
X130206666Y-98800533D02*
X130159047Y-98943390D01*
X130159047Y-98943390D02*
X129587619Y-99514819D01*
X129587619Y-99514819D02*
X130206666Y-99514819D01*
X140328667Y-89821104D02*
X140290571Y-89859200D01*
X140290571Y-89859200D02*
X140176286Y-89897295D01*
X140176286Y-89897295D02*
X140100095Y-89897295D01*
X140100095Y-89897295D02*
X139985809Y-89859200D01*
X139985809Y-89859200D02*
X139909619Y-89783009D01*
X139909619Y-89783009D02*
X139871524Y-89706819D01*
X139871524Y-89706819D02*
X139833428Y-89554438D01*
X139833428Y-89554438D02*
X139833428Y-89440152D01*
X139833428Y-89440152D02*
X139871524Y-89287771D01*
X139871524Y-89287771D02*
X139909619Y-89211580D01*
X139909619Y-89211580D02*
X139985809Y-89135390D01*
X139985809Y-89135390D02*
X140100095Y-89097295D01*
X140100095Y-89097295D02*
X140176286Y-89097295D01*
X140176286Y-89097295D02*
X140290571Y-89135390D01*
X140290571Y-89135390D02*
X140328667Y-89173485D01*
X141052476Y-89097295D02*
X140671524Y-89097295D01*
X140671524Y-89097295D02*
X140633428Y-89478247D01*
X140633428Y-89478247D02*
X140671524Y-89440152D01*
X140671524Y-89440152D02*
X140747714Y-89402057D01*
X140747714Y-89402057D02*
X140938190Y-89402057D01*
X140938190Y-89402057D02*
X141014381Y-89440152D01*
X141014381Y-89440152D02*
X141052476Y-89478247D01*
X141052476Y-89478247D02*
X141090571Y-89554438D01*
X141090571Y-89554438D02*
X141090571Y-89744914D01*
X141090571Y-89744914D02*
X141052476Y-89821104D01*
X141052476Y-89821104D02*
X141014381Y-89859200D01*
X141014381Y-89859200D02*
X140938190Y-89897295D01*
X140938190Y-89897295D02*
X140747714Y-89897295D01*
X140747714Y-89897295D02*
X140671524Y-89859200D01*
X140671524Y-89859200D02*
X140633428Y-89821104D01*
X140113104Y-85223332D02*
X140151200Y-85261428D01*
X140151200Y-85261428D02*
X140189295Y-85375713D01*
X140189295Y-85375713D02*
X140189295Y-85451904D01*
X140189295Y-85451904D02*
X140151200Y-85566190D01*
X140151200Y-85566190D02*
X140075009Y-85642380D01*
X140075009Y-85642380D02*
X139998819Y-85680475D01*
X139998819Y-85680475D02*
X139846438Y-85718571D01*
X139846438Y-85718571D02*
X139732152Y-85718571D01*
X139732152Y-85718571D02*
X139579771Y-85680475D01*
X139579771Y-85680475D02*
X139503580Y-85642380D01*
X139503580Y-85642380D02*
X139427390Y-85566190D01*
X139427390Y-85566190D02*
X139389295Y-85451904D01*
X139389295Y-85451904D02*
X139389295Y-85375713D01*
X139389295Y-85375713D02*
X139427390Y-85261428D01*
X139427390Y-85261428D02*
X139465485Y-85223332D01*
X140189295Y-84461428D02*
X140189295Y-84918571D01*
X140189295Y-84689999D02*
X139389295Y-84689999D01*
X139389295Y-84689999D02*
X139503580Y-84766190D01*
X139503580Y-84766190D02*
X139579771Y-84842380D01*
X139579771Y-84842380D02*
X139617866Y-84918571D01*
X133969166Y-98514819D02*
X133969166Y-99229104D01*
X133969166Y-99229104D02*
X133921547Y-99371961D01*
X133921547Y-99371961D02*
X133826309Y-99467200D01*
X133826309Y-99467200D02*
X133683452Y-99514819D01*
X133683452Y-99514819D02*
X133588214Y-99514819D01*
X134350119Y-98514819D02*
X134969166Y-98514819D01*
X134969166Y-98514819D02*
X134635833Y-98895771D01*
X134635833Y-98895771D02*
X134778690Y-98895771D01*
X134778690Y-98895771D02*
X134873928Y-98943390D01*
X134873928Y-98943390D02*
X134921547Y-98991009D01*
X134921547Y-98991009D02*
X134969166Y-99086247D01*
X134969166Y-99086247D02*
X134969166Y-99324342D01*
X134969166Y-99324342D02*
X134921547Y-99419580D01*
X134921547Y-99419580D02*
X134873928Y-99467200D01*
X134873928Y-99467200D02*
X134778690Y-99514819D01*
X134778690Y-99514819D02*
X134492976Y-99514819D01*
X134492976Y-99514819D02*
X134397738Y-99467200D01*
X134397738Y-99467200D02*
X134350119Y-99419580D01*
X138169761Y-99422295D02*
X137788809Y-99422295D01*
X137788809Y-99422295D02*
X137788809Y-98622295D01*
X138436428Y-99003247D02*
X138703094Y-99003247D01*
X138817380Y-99422295D02*
X138436428Y-99422295D01*
X138436428Y-99422295D02*
X138436428Y-98622295D01*
X138436428Y-98622295D02*
X138817380Y-98622295D01*
X139160238Y-99422295D02*
X139160238Y-98622295D01*
X139160238Y-98622295D02*
X139350714Y-98622295D01*
X139350714Y-98622295D02*
X139465000Y-98660390D01*
X139465000Y-98660390D02*
X139541190Y-98736580D01*
X139541190Y-98736580D02*
X139579285Y-98812771D01*
X139579285Y-98812771D02*
X139617381Y-98965152D01*
X139617381Y-98965152D02*
X139617381Y-99079438D01*
X139617381Y-99079438D02*
X139579285Y-99231819D01*
X139579285Y-99231819D02*
X139541190Y-99308009D01*
X139541190Y-99308009D02*
X139465000Y-99384200D01*
X139465000Y-99384200D02*
X139350714Y-99422295D01*
X139350714Y-99422295D02*
X139160238Y-99422295D01*
X140379285Y-99422295D02*
X139922142Y-99422295D01*
X140150714Y-99422295D02*
X140150714Y-98622295D01*
X140150714Y-98622295D02*
X140074523Y-98736580D01*
X140074523Y-98736580D02*
X139998333Y-98812771D01*
X139998333Y-98812771D02*
X139922142Y-98850866D01*
X139986104Y-92081332D02*
X140024200Y-92119428D01*
X140024200Y-92119428D02*
X140062295Y-92233713D01*
X140062295Y-92233713D02*
X140062295Y-92309904D01*
X140062295Y-92309904D02*
X140024200Y-92424190D01*
X140024200Y-92424190D02*
X139948009Y-92500380D01*
X139948009Y-92500380D02*
X139871819Y-92538475D01*
X139871819Y-92538475D02*
X139719438Y-92576571D01*
X139719438Y-92576571D02*
X139605152Y-92576571D01*
X139605152Y-92576571D02*
X139452771Y-92538475D01*
X139452771Y-92538475D02*
X139376580Y-92500380D01*
X139376580Y-92500380D02*
X139300390Y-92424190D01*
X139300390Y-92424190D02*
X139262295Y-92309904D01*
X139262295Y-92309904D02*
X139262295Y-92233713D01*
X139262295Y-92233713D02*
X139300390Y-92119428D01*
X139300390Y-92119428D02*
X139338485Y-92081332D01*
X139338485Y-91776571D02*
X139300390Y-91738475D01*
X139300390Y-91738475D02*
X139262295Y-91662285D01*
X139262295Y-91662285D02*
X139262295Y-91471809D01*
X139262295Y-91471809D02*
X139300390Y-91395618D01*
X139300390Y-91395618D02*
X139338485Y-91357523D01*
X139338485Y-91357523D02*
X139414676Y-91319428D01*
X139414676Y-91319428D02*
X139490866Y-91319428D01*
X139490866Y-91319428D02*
X139605152Y-91357523D01*
X139605152Y-91357523D02*
X140062295Y-91814666D01*
X140062295Y-91814666D02*
X140062295Y-91319428D01*
X135363295Y-81540332D02*
X134982342Y-81806999D01*
X135363295Y-81997475D02*
X134563295Y-81997475D01*
X134563295Y-81997475D02*
X134563295Y-81692713D01*
X134563295Y-81692713D02*
X134601390Y-81616523D01*
X134601390Y-81616523D02*
X134639485Y-81578428D01*
X134639485Y-81578428D02*
X134715676Y-81540332D01*
X134715676Y-81540332D02*
X134829961Y-81540332D01*
X134829961Y-81540332D02*
X134906152Y-81578428D01*
X134906152Y-81578428D02*
X134944247Y-81616523D01*
X134944247Y-81616523D02*
X134982342Y-81692713D01*
X134982342Y-81692713D02*
X134982342Y-81997475D01*
X134563295Y-81273666D02*
X134563295Y-80778428D01*
X134563295Y-80778428D02*
X134868057Y-81045094D01*
X134868057Y-81045094D02*
X134868057Y-80930809D01*
X134868057Y-80930809D02*
X134906152Y-80854618D01*
X134906152Y-80854618D02*
X134944247Y-80816523D01*
X134944247Y-80816523D02*
X135020438Y-80778428D01*
X135020438Y-80778428D02*
X135210914Y-80778428D01*
X135210914Y-80778428D02*
X135287104Y-80816523D01*
X135287104Y-80816523D02*
X135325200Y-80854618D01*
X135325200Y-80854618D02*
X135363295Y-80930809D01*
X135363295Y-80930809D02*
X135363295Y-81159380D01*
X135363295Y-81159380D02*
X135325200Y-81235571D01*
X135325200Y-81235571D02*
X135287104Y-81273666D01*
X143999295Y-82937332D02*
X143618342Y-83203999D01*
X143999295Y-83394475D02*
X143199295Y-83394475D01*
X143199295Y-83394475D02*
X143199295Y-83089713D01*
X143199295Y-83089713D02*
X143237390Y-83013523D01*
X143237390Y-83013523D02*
X143275485Y-82975428D01*
X143275485Y-82975428D02*
X143351676Y-82937332D01*
X143351676Y-82937332D02*
X143465961Y-82937332D01*
X143465961Y-82937332D02*
X143542152Y-82975428D01*
X143542152Y-82975428D02*
X143580247Y-83013523D01*
X143580247Y-83013523D02*
X143618342Y-83089713D01*
X143618342Y-83089713D02*
X143618342Y-83394475D01*
X143199295Y-82251618D02*
X143199295Y-82403999D01*
X143199295Y-82403999D02*
X143237390Y-82480190D01*
X143237390Y-82480190D02*
X143275485Y-82518285D01*
X143275485Y-82518285D02*
X143389771Y-82594475D01*
X143389771Y-82594475D02*
X143542152Y-82632571D01*
X143542152Y-82632571D02*
X143846914Y-82632571D01*
X143846914Y-82632571D02*
X143923104Y-82594475D01*
X143923104Y-82594475D02*
X143961200Y-82556380D01*
X143961200Y-82556380D02*
X143999295Y-82480190D01*
X143999295Y-82480190D02*
X143999295Y-82327809D01*
X143999295Y-82327809D02*
X143961200Y-82251618D01*
X143961200Y-82251618D02*
X143923104Y-82213523D01*
X143923104Y-82213523D02*
X143846914Y-82175428D01*
X143846914Y-82175428D02*
X143656438Y-82175428D01*
X143656438Y-82175428D02*
X143580247Y-82213523D01*
X143580247Y-82213523D02*
X143542152Y-82251618D01*
X143542152Y-82251618D02*
X143504057Y-82327809D01*
X143504057Y-82327809D02*
X143504057Y-82480190D01*
X143504057Y-82480190D02*
X143542152Y-82556380D01*
X143542152Y-82556380D02*
X143580247Y-82594475D01*
X143580247Y-82594475D02*
X143656438Y-82632571D01*
X141332295Y-94367332D02*
X140951342Y-94633999D01*
X141332295Y-94824475D02*
X140532295Y-94824475D01*
X140532295Y-94824475D02*
X140532295Y-94519713D01*
X140532295Y-94519713D02*
X140570390Y-94443523D01*
X140570390Y-94443523D02*
X140608485Y-94405428D01*
X140608485Y-94405428D02*
X140684676Y-94367332D01*
X140684676Y-94367332D02*
X140798961Y-94367332D01*
X140798961Y-94367332D02*
X140875152Y-94405428D01*
X140875152Y-94405428D02*
X140913247Y-94443523D01*
X140913247Y-94443523D02*
X140951342Y-94519713D01*
X140951342Y-94519713D02*
X140951342Y-94824475D01*
X140532295Y-94100666D02*
X140532295Y-93567332D01*
X140532295Y-93567332D02*
X141332295Y-93910190D01*
X143872295Y-79381332D02*
X143491342Y-79647999D01*
X143872295Y-79838475D02*
X143072295Y-79838475D01*
X143072295Y-79838475D02*
X143072295Y-79533713D01*
X143072295Y-79533713D02*
X143110390Y-79457523D01*
X143110390Y-79457523D02*
X143148485Y-79419428D01*
X143148485Y-79419428D02*
X143224676Y-79381332D01*
X143224676Y-79381332D02*
X143338961Y-79381332D01*
X143338961Y-79381332D02*
X143415152Y-79419428D01*
X143415152Y-79419428D02*
X143453247Y-79457523D01*
X143453247Y-79457523D02*
X143491342Y-79533713D01*
X143491342Y-79533713D02*
X143491342Y-79838475D01*
X143072295Y-78657523D02*
X143072295Y-79038475D01*
X143072295Y-79038475D02*
X143453247Y-79076571D01*
X143453247Y-79076571D02*
X143415152Y-79038475D01*
X143415152Y-79038475D02*
X143377057Y-78962285D01*
X143377057Y-78962285D02*
X143377057Y-78771809D01*
X143377057Y-78771809D02*
X143415152Y-78695618D01*
X143415152Y-78695618D02*
X143453247Y-78657523D01*
X143453247Y-78657523D02*
X143529438Y-78619428D01*
X143529438Y-78619428D02*
X143719914Y-78619428D01*
X143719914Y-78619428D02*
X143796104Y-78657523D01*
X143796104Y-78657523D02*
X143834200Y-78695618D01*
X143834200Y-78695618D02*
X143872295Y-78771809D01*
X143872295Y-78771809D02*
X143872295Y-78962285D01*
X143872295Y-78962285D02*
X143834200Y-79038475D01*
X143834200Y-79038475D02*
X143796104Y-79076571D01*
X140455667Y-78010104D02*
X140417571Y-78048200D01*
X140417571Y-78048200D02*
X140303286Y-78086295D01*
X140303286Y-78086295D02*
X140227095Y-78086295D01*
X140227095Y-78086295D02*
X140112809Y-78048200D01*
X140112809Y-78048200D02*
X140036619Y-77972009D01*
X140036619Y-77972009D02*
X139998524Y-77895819D01*
X139998524Y-77895819D02*
X139960428Y-77743438D01*
X139960428Y-77743438D02*
X139960428Y-77629152D01*
X139960428Y-77629152D02*
X139998524Y-77476771D01*
X139998524Y-77476771D02*
X140036619Y-77400580D01*
X140036619Y-77400580D02*
X140112809Y-77324390D01*
X140112809Y-77324390D02*
X140227095Y-77286295D01*
X140227095Y-77286295D02*
X140303286Y-77286295D01*
X140303286Y-77286295D02*
X140417571Y-77324390D01*
X140417571Y-77324390D02*
X140455667Y-77362485D01*
X140722333Y-77286295D02*
X141217571Y-77286295D01*
X141217571Y-77286295D02*
X140950905Y-77591057D01*
X140950905Y-77591057D02*
X141065190Y-77591057D01*
X141065190Y-77591057D02*
X141141381Y-77629152D01*
X141141381Y-77629152D02*
X141179476Y-77667247D01*
X141179476Y-77667247D02*
X141217571Y-77743438D01*
X141217571Y-77743438D02*
X141217571Y-77933914D01*
X141217571Y-77933914D02*
X141179476Y-78010104D01*
X141179476Y-78010104D02*
X141141381Y-78048200D01*
X141141381Y-78048200D02*
X141065190Y-78086295D01*
X141065190Y-78086295D02*
X140836619Y-78086295D01*
X140836619Y-78086295D02*
X140760428Y-78048200D01*
X140760428Y-78048200D02*
X140722333Y-78010104D01*
X141909667Y-72065800D02*
X141795381Y-72027704D01*
X141795381Y-72027704D02*
X141604905Y-72027704D01*
X141604905Y-72027704D02*
X141528714Y-72065800D01*
X141528714Y-72065800D02*
X141490619Y-72103895D01*
X141490619Y-72103895D02*
X141452524Y-72180085D01*
X141452524Y-72180085D02*
X141452524Y-72256276D01*
X141452524Y-72256276D02*
X141490619Y-72332466D01*
X141490619Y-72332466D02*
X141528714Y-72370561D01*
X141528714Y-72370561D02*
X141604905Y-72408657D01*
X141604905Y-72408657D02*
X141757286Y-72446752D01*
X141757286Y-72446752D02*
X141833476Y-72484847D01*
X141833476Y-72484847D02*
X141871571Y-72522942D01*
X141871571Y-72522942D02*
X141909667Y-72599133D01*
X141909667Y-72599133D02*
X141909667Y-72675323D01*
X141909667Y-72675323D02*
X141871571Y-72751514D01*
X141871571Y-72751514D02*
X141833476Y-72789609D01*
X141833476Y-72789609D02*
X141757286Y-72827704D01*
X141757286Y-72827704D02*
X141566809Y-72827704D01*
X141566809Y-72827704D02*
X141452524Y-72789609D01*
X141185857Y-72827704D02*
X140995381Y-72027704D01*
X140995381Y-72027704D02*
X140843000Y-72599133D01*
X140843000Y-72599133D02*
X140690619Y-72027704D01*
X140690619Y-72027704D02*
X140500143Y-72827704D01*
X139776333Y-72027704D02*
X140233476Y-72027704D01*
X140004904Y-72027704D02*
X140004904Y-72827704D01*
X140004904Y-72827704D02*
X140081095Y-72713419D01*
X140081095Y-72713419D02*
X140157285Y-72637228D01*
X140157285Y-72637228D02*
X140233476Y-72599133D01*
X134220295Y-78238332D02*
X133839342Y-78504999D01*
X134220295Y-78695475D02*
X133420295Y-78695475D01*
X133420295Y-78695475D02*
X133420295Y-78390713D01*
X133420295Y-78390713D02*
X133458390Y-78314523D01*
X133458390Y-78314523D02*
X133496485Y-78276428D01*
X133496485Y-78276428D02*
X133572676Y-78238332D01*
X133572676Y-78238332D02*
X133686961Y-78238332D01*
X133686961Y-78238332D02*
X133763152Y-78276428D01*
X133763152Y-78276428D02*
X133801247Y-78314523D01*
X133801247Y-78314523D02*
X133839342Y-78390713D01*
X133839342Y-78390713D02*
X133839342Y-78695475D01*
X133496485Y-77933571D02*
X133458390Y-77895475D01*
X133458390Y-77895475D02*
X133420295Y-77819285D01*
X133420295Y-77819285D02*
X133420295Y-77628809D01*
X133420295Y-77628809D02*
X133458390Y-77552618D01*
X133458390Y-77552618D02*
X133496485Y-77514523D01*
X133496485Y-77514523D02*
X133572676Y-77476428D01*
X133572676Y-77476428D02*
X133648866Y-77476428D01*
X133648866Y-77476428D02*
X133763152Y-77514523D01*
X133763152Y-77514523D02*
X134220295Y-77971666D01*
X134220295Y-77971666D02*
X134220295Y-77476428D01*
X136760295Y-90811332D02*
X136379342Y-91077999D01*
X136760295Y-91268475D02*
X135960295Y-91268475D01*
X135960295Y-91268475D02*
X135960295Y-90963713D01*
X135960295Y-90963713D02*
X135998390Y-90887523D01*
X135998390Y-90887523D02*
X136036485Y-90849428D01*
X136036485Y-90849428D02*
X136112676Y-90811332D01*
X136112676Y-90811332D02*
X136226961Y-90811332D01*
X136226961Y-90811332D02*
X136303152Y-90849428D01*
X136303152Y-90849428D02*
X136341247Y-90887523D01*
X136341247Y-90887523D02*
X136379342Y-90963713D01*
X136379342Y-90963713D02*
X136379342Y-91268475D01*
X136760295Y-90430380D02*
X136760295Y-90277999D01*
X136760295Y-90277999D02*
X136722200Y-90201809D01*
X136722200Y-90201809D02*
X136684104Y-90163713D01*
X136684104Y-90163713D02*
X136569819Y-90087523D01*
X136569819Y-90087523D02*
X136417438Y-90049428D01*
X136417438Y-90049428D02*
X136112676Y-90049428D01*
X136112676Y-90049428D02*
X136036485Y-90087523D01*
X136036485Y-90087523D02*
X135998390Y-90125618D01*
X135998390Y-90125618D02*
X135960295Y-90201809D01*
X135960295Y-90201809D02*
X135960295Y-90354190D01*
X135960295Y-90354190D02*
X135998390Y-90430380D01*
X135998390Y-90430380D02*
X136036485Y-90468475D01*
X136036485Y-90468475D02*
X136112676Y-90506571D01*
X136112676Y-90506571D02*
X136303152Y-90506571D01*
X136303152Y-90506571D02*
X136379342Y-90468475D01*
X136379342Y-90468475D02*
X136417438Y-90430380D01*
X136417438Y-90430380D02*
X136455533Y-90354190D01*
X136455533Y-90354190D02*
X136455533Y-90201809D01*
X136455533Y-90201809D02*
X136417438Y-90125618D01*
X136417438Y-90125618D02*
X136379342Y-90087523D01*
X136379342Y-90087523D02*
X136303152Y-90049428D01*
X135363295Y-78238332D02*
X134982342Y-78504999D01*
X135363295Y-78695475D02*
X134563295Y-78695475D01*
X134563295Y-78695475D02*
X134563295Y-78390713D01*
X134563295Y-78390713D02*
X134601390Y-78314523D01*
X134601390Y-78314523D02*
X134639485Y-78276428D01*
X134639485Y-78276428D02*
X134715676Y-78238332D01*
X134715676Y-78238332D02*
X134829961Y-78238332D01*
X134829961Y-78238332D02*
X134906152Y-78276428D01*
X134906152Y-78276428D02*
X134944247Y-78314523D01*
X134944247Y-78314523D02*
X134982342Y-78390713D01*
X134982342Y-78390713D02*
X134982342Y-78695475D01*
X134829961Y-77552618D02*
X135363295Y-77552618D01*
X134525200Y-77743094D02*
X135096628Y-77933571D01*
X135096628Y-77933571D02*
X135096628Y-77438332D01*
X142113095Y-84036819D02*
X142113095Y-84846342D01*
X142113095Y-84846342D02*
X142160714Y-84941580D01*
X142160714Y-84941580D02*
X142208333Y-84989200D01*
X142208333Y-84989200D02*
X142303571Y-85036819D01*
X142303571Y-85036819D02*
X142494047Y-85036819D01*
X142494047Y-85036819D02*
X142589285Y-84989200D01*
X142589285Y-84989200D02*
X142636904Y-84941580D01*
X142636904Y-84941580D02*
X142684523Y-84846342D01*
X142684523Y-84846342D02*
X142684523Y-84036819D01*
X143113095Y-84132057D02*
X143160714Y-84084438D01*
X143160714Y-84084438D02*
X143255952Y-84036819D01*
X143255952Y-84036819D02*
X143494047Y-84036819D01*
X143494047Y-84036819D02*
X143589285Y-84084438D01*
X143589285Y-84084438D02*
X143636904Y-84132057D01*
X143636904Y-84132057D02*
X143684523Y-84227295D01*
X143684523Y-84227295D02*
X143684523Y-84322533D01*
X143684523Y-84322533D02*
X143636904Y-84465390D01*
X143636904Y-84465390D02*
X143065476Y-85036819D01*
X143065476Y-85036819D02*
X143684523Y-85036819D01*
D12*
%TO.C,J1*%
X148720500Y-95250000D02*
X148720500Y-74870000D01*
X148720500Y-97850000D02*
X148720500Y-96520000D01*
X150050500Y-97850000D02*
X148720500Y-97850000D01*
X151380500Y-74870000D02*
X148720500Y-74870000D01*
X151380500Y-95250000D02*
X148720500Y-95250000D01*
X151380500Y-95250000D02*
X151380500Y-74870000D01*
%TO.C,C6*%
X144524000Y-92088580D02*
X144524000Y-91807420D01*
X145544000Y-92088580D02*
X145544000Y-91807420D01*
%TO.C,R8*%
X133843500Y-87138742D02*
X133843500Y-87613258D01*
X134888500Y-87138742D02*
X134888500Y-87613258D01*
%TO.C,C4*%
X133856000Y-84214580D02*
X133856000Y-83933420D01*
X134876000Y-84214580D02*
X134876000Y-83933420D01*
%TO.C,R1*%
X135621500Y-82533258D02*
X135621500Y-82058742D01*
X136666500Y-82533258D02*
X136666500Y-82058742D01*
%TO.C,J2*%
X128464000Y-95250000D02*
X128464000Y-74870000D01*
X128464000Y-97850000D02*
X128464000Y-96520000D01*
X129794000Y-97850000D02*
X128464000Y-97850000D01*
X131124000Y-74870000D02*
X128464000Y-74870000D01*
X131124000Y-95250000D02*
X128464000Y-95250000D01*
X131124000Y-95250000D02*
X131124000Y-74870000D01*
%TO.C,C5*%
X144258420Y-88771000D02*
X144539580Y-88771000D01*
X144258420Y-89791000D02*
X144539580Y-89791000D01*
%TO.C,C1*%
X144460500Y-86500580D02*
X144460500Y-86219420D01*
X145480500Y-86500580D02*
X145480500Y-86219420D01*
D13*
%TO.C,J3*%
X135620500Y-84250000D02*
X135620500Y-93130000D01*
X135620500Y-95800000D02*
X135620500Y-99750000D01*
X135620500Y-99750000D02*
X140300500Y-99750000D01*
X141620500Y-84250000D02*
X135620500Y-84250000D01*
X141620500Y-85430000D02*
X141620500Y-84250000D01*
X141620500Y-93750000D02*
X141620500Y-88070000D01*
X142420500Y-93750000D02*
X141620500Y-93750000D01*
X142420500Y-94930000D02*
X142420500Y-93750000D01*
D14*
X144720500Y-99150000D02*
G75*
G02*
X144520500Y-99150000I-100000J0D01*
G01*
X144520500Y-99150000D02*
G75*
G02*
X144720500Y-99150000I100000J0D01*
G01*
D15*
%TO.C,LED1*%
X145798750Y-99745800D02*
X146682250Y-99745800D01*
X146682250Y-98882200D02*
X145798750Y-98882200D01*
D12*
%TO.C,C2*%
X142619000Y-92088580D02*
X142619000Y-91807420D01*
X143639000Y-92088580D02*
X143639000Y-91807420D01*
%TO.C,R3*%
X137399500Y-82533258D02*
X137399500Y-82058742D01*
X138444500Y-82533258D02*
X138444500Y-82058742D01*
%TO.C,R6*%
X144448000Y-82566742D02*
X144448000Y-83041258D01*
X145493000Y-82566742D02*
X145493000Y-83041258D01*
%TO.C,R7*%
X144448000Y-96282742D02*
X144448000Y-96757258D01*
X145493000Y-96282742D02*
X145493000Y-96757258D01*
%TO.C,R5*%
X144448000Y-79010742D02*
X144448000Y-79485258D01*
X145493000Y-79010742D02*
X145493000Y-79485258D01*
%TO.C,C3*%
X140575420Y-78484000D02*
X140856580Y-78484000D01*
X140575420Y-79504000D02*
X140856580Y-79504000D01*
D15*
%TO.C,SW1*%
X139040799Y-70510400D02*
X139040799Y-71358760D01*
X139040799Y-73421240D02*
X139040799Y-74269600D01*
X139040799Y-74269600D02*
X145289199Y-74269600D01*
X145289199Y-70510400D02*
X139040799Y-70510400D01*
X145289199Y-71358760D02*
X145289199Y-70510400D01*
X145289199Y-74269600D02*
X145289199Y-73421240D01*
X138051399Y-72390000D02*
G75*
G02*
X137797399Y-72390000I-127000J0D01*
G01*
X137797399Y-72390000D02*
G75*
G02*
X138051399Y-72390000I127000J0D01*
G01*
D12*
%TO.C,R2*%
X135621500Y-79231258D02*
X135621500Y-78756742D01*
X136666500Y-79231258D02*
X136666500Y-78756742D01*
%TO.C,R9*%
X133843500Y-90440742D02*
X133843500Y-90915258D01*
X134888500Y-90440742D02*
X134888500Y-90915258D01*
%TO.C,R4*%
X137399500Y-79231258D02*
X137399500Y-78756742D01*
X138444500Y-79231258D02*
X138444500Y-78756742D01*
%TO.C,U2*%
X140975500Y-80228000D02*
X140175500Y-80228000D01*
X140975500Y-80228000D02*
X141775500Y-80228000D01*
X140975500Y-83348000D02*
X140175500Y-83348000D01*
X140975500Y-83348000D02*
X141775500Y-83348000D01*
X142515500Y-83628000D02*
X142035500Y-83628000D01*
X142275500Y-83298000D01*
X142515500Y-83628000D01*
G36*
X142515500Y-83628000D02*
G01*
X142035500Y-83628000D01*
X142275500Y-83298000D01*
X142515500Y-83628000D01*
G37*
%TD*%
M02*
