%TF.GenerationSoftware,KiCad,Pcbnew,8.0.6*%
%TF.CreationDate,2025-12-05T01:10:33-07:00*%
%TF.ProjectId,pt_thrifty,70745f74-6872-4696-9674-792e6b696361,rev?*%
%TF.SameCoordinates,Original*%
%TF.FileFunction,Drillmap*%
%TF.FilePolarity,Positive*%
%FSLAX45Y45*%
G04 Gerber Fmt 4.5, Leading zero omitted, Abs format (unit mm)*
G04 Created by KiCad (PCBNEW 8.0.6) date 2025-12-05 01:10:33*
%MOMM*%
%LPD*%
G01*
G04 APERTURE LIST*
%ADD10C,0.050000*%
%ADD11C,0.200000*%
%ADD12C,0.190000*%
G04 APERTURE END LIST*
D10*
X12719050Y-6870700D02*
X15259050Y-6870700D01*
X15259050Y-10033000D01*
X12719050Y-10033000D01*
X12719050Y-6870700D01*
D11*
D12*
X13767050Y-8730000D02*
X13957050Y-8920000D01*
X13957050Y-8730000D02*
X13767050Y-8920000D01*
X13767050Y-9430000D02*
X13957050Y-9620000D01*
X13957050Y-9430000D02*
X13767050Y-9620000D01*
D11*
X12977327Y-10346984D02*
X12977327Y-10146984D01*
X12977327Y-10146984D02*
X13024946Y-10146984D01*
X13024946Y-10146984D02*
X13053517Y-10156508D01*
X13053517Y-10156508D02*
X13072565Y-10175555D01*
X13072565Y-10175555D02*
X13082089Y-10194603D01*
X13082089Y-10194603D02*
X13091612Y-10232698D01*
X13091612Y-10232698D02*
X13091612Y-10261270D01*
X13091612Y-10261270D02*
X13082089Y-10299365D01*
X13082089Y-10299365D02*
X13072565Y-10318412D01*
X13072565Y-10318412D02*
X13053517Y-10337460D01*
X13053517Y-10337460D02*
X13024946Y-10346984D01*
X13024946Y-10346984D02*
X12977327Y-10346984D01*
X13177327Y-10346984D02*
X13177327Y-10213650D01*
X13177327Y-10251746D02*
X13186851Y-10232698D01*
X13186851Y-10232698D02*
X13196374Y-10223174D01*
X13196374Y-10223174D02*
X13215422Y-10213650D01*
X13215422Y-10213650D02*
X13234470Y-10213650D01*
X13301136Y-10346984D02*
X13301136Y-10213650D01*
X13301136Y-10146984D02*
X13291612Y-10156508D01*
X13291612Y-10156508D02*
X13301136Y-10166031D01*
X13301136Y-10166031D02*
X13310660Y-10156508D01*
X13310660Y-10156508D02*
X13301136Y-10146984D01*
X13301136Y-10146984D02*
X13301136Y-10166031D01*
X13424946Y-10346984D02*
X13405898Y-10337460D01*
X13405898Y-10337460D02*
X13396374Y-10318412D01*
X13396374Y-10318412D02*
X13396374Y-10146984D01*
X13529708Y-10346984D02*
X13510660Y-10337460D01*
X13510660Y-10337460D02*
X13501136Y-10318412D01*
X13501136Y-10318412D02*
X13501136Y-10146984D01*
X13758279Y-10346984D02*
X13758279Y-10146984D01*
X13758279Y-10146984D02*
X13824946Y-10289841D01*
X13824946Y-10289841D02*
X13891612Y-10146984D01*
X13891612Y-10146984D02*
X13891612Y-10346984D01*
X14072565Y-10346984D02*
X14072565Y-10242222D01*
X14072565Y-10242222D02*
X14063041Y-10223174D01*
X14063041Y-10223174D02*
X14043993Y-10213650D01*
X14043993Y-10213650D02*
X14005898Y-10213650D01*
X14005898Y-10213650D02*
X13986851Y-10223174D01*
X14072565Y-10337460D02*
X14053517Y-10346984D01*
X14053517Y-10346984D02*
X14005898Y-10346984D01*
X14005898Y-10346984D02*
X13986851Y-10337460D01*
X13986851Y-10337460D02*
X13977327Y-10318412D01*
X13977327Y-10318412D02*
X13977327Y-10299365D01*
X13977327Y-10299365D02*
X13986851Y-10280317D01*
X13986851Y-10280317D02*
X14005898Y-10270793D01*
X14005898Y-10270793D02*
X14053517Y-10270793D01*
X14053517Y-10270793D02*
X14072565Y-10261270D01*
X14167803Y-10213650D02*
X14167803Y-10413650D01*
X14167803Y-10223174D02*
X14186851Y-10213650D01*
X14186851Y-10213650D02*
X14224946Y-10213650D01*
X14224946Y-10213650D02*
X14243993Y-10223174D01*
X14243993Y-10223174D02*
X14253517Y-10232698D01*
X14253517Y-10232698D02*
X14263041Y-10251746D01*
X14263041Y-10251746D02*
X14263041Y-10308889D01*
X14263041Y-10308889D02*
X14253517Y-10327936D01*
X14253517Y-10327936D02*
X14243993Y-10337460D01*
X14243993Y-10337460D02*
X14224946Y-10346984D01*
X14224946Y-10346984D02*
X14186851Y-10346984D01*
X14186851Y-10346984D02*
X14167803Y-10337460D01*
X14348755Y-10327936D02*
X14358279Y-10337460D01*
X14358279Y-10337460D02*
X14348755Y-10346984D01*
X14348755Y-10346984D02*
X14339232Y-10337460D01*
X14339232Y-10337460D02*
X14348755Y-10327936D01*
X14348755Y-10327936D02*
X14348755Y-10346984D01*
X14348755Y-10223174D02*
X14358279Y-10232698D01*
X14358279Y-10232698D02*
X14348755Y-10242222D01*
X14348755Y-10242222D02*
X14339232Y-10232698D01*
X14339232Y-10232698D02*
X14348755Y-10223174D01*
X14348755Y-10223174D02*
X14348755Y-10242222D01*
D12*
X12526550Y-10580500D02*
X12716550Y-10770500D01*
X12716550Y-10580500D02*
X12526550Y-10770500D01*
D11*
X13082089Y-10766984D02*
X12967803Y-10766984D01*
X13024946Y-10766984D02*
X13024946Y-10566984D01*
X13024946Y-10566984D02*
X13005898Y-10595555D01*
X13005898Y-10595555D02*
X12986851Y-10614603D01*
X12986851Y-10614603D02*
X12967803Y-10624127D01*
X13167803Y-10747936D02*
X13177327Y-10757460D01*
X13177327Y-10757460D02*
X13167803Y-10766984D01*
X13167803Y-10766984D02*
X13158279Y-10757460D01*
X13158279Y-10757460D02*
X13167803Y-10747936D01*
X13167803Y-10747936D02*
X13167803Y-10766984D01*
X13272565Y-10766984D02*
X13310660Y-10766984D01*
X13310660Y-10766984D02*
X13329708Y-10757460D01*
X13329708Y-10757460D02*
X13339232Y-10747936D01*
X13339232Y-10747936D02*
X13358279Y-10719365D01*
X13358279Y-10719365D02*
X13367803Y-10681270D01*
X13367803Y-10681270D02*
X13367803Y-10605079D01*
X13367803Y-10605079D02*
X13358279Y-10586031D01*
X13358279Y-10586031D02*
X13348755Y-10576508D01*
X13348755Y-10576508D02*
X13329708Y-10566984D01*
X13329708Y-10566984D02*
X13291612Y-10566984D01*
X13291612Y-10566984D02*
X13272565Y-10576508D01*
X13272565Y-10576508D02*
X13263041Y-10586031D01*
X13263041Y-10586031D02*
X13253517Y-10605079D01*
X13253517Y-10605079D02*
X13253517Y-10652698D01*
X13253517Y-10652698D02*
X13263041Y-10671746D01*
X13263041Y-10671746D02*
X13272565Y-10681270D01*
X13272565Y-10681270D02*
X13291612Y-10690793D01*
X13291612Y-10690793D02*
X13329708Y-10690793D01*
X13329708Y-10690793D02*
X13348755Y-10681270D01*
X13348755Y-10681270D02*
X13358279Y-10671746D01*
X13358279Y-10671746D02*
X13367803Y-10652698D01*
X13491612Y-10566984D02*
X13510660Y-10566984D01*
X13510660Y-10566984D02*
X13529708Y-10576508D01*
X13529708Y-10576508D02*
X13539232Y-10586031D01*
X13539232Y-10586031D02*
X13548755Y-10605079D01*
X13548755Y-10605079D02*
X13558279Y-10643174D01*
X13558279Y-10643174D02*
X13558279Y-10690793D01*
X13558279Y-10690793D02*
X13548755Y-10728889D01*
X13548755Y-10728889D02*
X13539232Y-10747936D01*
X13539232Y-10747936D02*
X13529708Y-10757460D01*
X13529708Y-10757460D02*
X13510660Y-10766984D01*
X13510660Y-10766984D02*
X13491612Y-10766984D01*
X13491612Y-10766984D02*
X13472565Y-10757460D01*
X13472565Y-10757460D02*
X13463041Y-10747936D01*
X13463041Y-10747936D02*
X13453517Y-10728889D01*
X13453517Y-10728889D02*
X13443993Y-10690793D01*
X13443993Y-10690793D02*
X13443993Y-10643174D01*
X13443993Y-10643174D02*
X13453517Y-10605079D01*
X13453517Y-10605079D02*
X13463041Y-10586031D01*
X13463041Y-10586031D02*
X13472565Y-10576508D01*
X13472565Y-10576508D02*
X13491612Y-10566984D01*
X13682089Y-10566984D02*
X13701136Y-10566984D01*
X13701136Y-10566984D02*
X13720184Y-10576508D01*
X13720184Y-10576508D02*
X13729708Y-10586031D01*
X13729708Y-10586031D02*
X13739232Y-10605079D01*
X13739232Y-10605079D02*
X13748755Y-10643174D01*
X13748755Y-10643174D02*
X13748755Y-10690793D01*
X13748755Y-10690793D02*
X13739232Y-10728889D01*
X13739232Y-10728889D02*
X13729708Y-10747936D01*
X13729708Y-10747936D02*
X13720184Y-10757460D01*
X13720184Y-10757460D02*
X13701136Y-10766984D01*
X13701136Y-10766984D02*
X13682089Y-10766984D01*
X13682089Y-10766984D02*
X13663041Y-10757460D01*
X13663041Y-10757460D02*
X13653517Y-10747936D01*
X13653517Y-10747936D02*
X13643993Y-10728889D01*
X13643993Y-10728889D02*
X13634470Y-10690793D01*
X13634470Y-10690793D02*
X13634470Y-10643174D01*
X13634470Y-10643174D02*
X13643993Y-10605079D01*
X13643993Y-10605079D02*
X13653517Y-10586031D01*
X13653517Y-10586031D02*
X13663041Y-10576508D01*
X13663041Y-10576508D02*
X13682089Y-10566984D01*
X13834470Y-10766984D02*
X13834470Y-10633650D01*
X13834470Y-10652698D02*
X13843993Y-10643174D01*
X13843993Y-10643174D02*
X13863041Y-10633650D01*
X13863041Y-10633650D02*
X13891613Y-10633650D01*
X13891613Y-10633650D02*
X13910660Y-10643174D01*
X13910660Y-10643174D02*
X13920184Y-10662222D01*
X13920184Y-10662222D02*
X13920184Y-10766984D01*
X13920184Y-10662222D02*
X13929708Y-10643174D01*
X13929708Y-10643174D02*
X13948755Y-10633650D01*
X13948755Y-10633650D02*
X13977327Y-10633650D01*
X13977327Y-10633650D02*
X13996374Y-10643174D01*
X13996374Y-10643174D02*
X14005898Y-10662222D01*
X14005898Y-10662222D02*
X14005898Y-10766984D01*
X14101136Y-10766984D02*
X14101136Y-10633650D01*
X14101136Y-10652698D02*
X14110660Y-10643174D01*
X14110660Y-10643174D02*
X14129708Y-10633650D01*
X14129708Y-10633650D02*
X14158279Y-10633650D01*
X14158279Y-10633650D02*
X14177327Y-10643174D01*
X14177327Y-10643174D02*
X14186851Y-10662222D01*
X14186851Y-10662222D02*
X14186851Y-10766984D01*
X14186851Y-10662222D02*
X14196374Y-10643174D01*
X14196374Y-10643174D02*
X14215422Y-10633650D01*
X14215422Y-10633650D02*
X14243993Y-10633650D01*
X14243993Y-10633650D02*
X14263041Y-10643174D01*
X14263041Y-10643174D02*
X14272565Y-10662222D01*
X14272565Y-10662222D02*
X14272565Y-10766984D01*
X14663041Y-10557460D02*
X14491613Y-10814603D01*
X14920184Y-10566984D02*
X14939232Y-10566984D01*
X14939232Y-10566984D02*
X14958279Y-10576508D01*
X14958279Y-10576508D02*
X14967803Y-10586031D01*
X14967803Y-10586031D02*
X14977327Y-10605079D01*
X14977327Y-10605079D02*
X14986851Y-10643174D01*
X14986851Y-10643174D02*
X14986851Y-10690793D01*
X14986851Y-10690793D02*
X14977327Y-10728889D01*
X14977327Y-10728889D02*
X14967803Y-10747936D01*
X14967803Y-10747936D02*
X14958279Y-10757460D01*
X14958279Y-10757460D02*
X14939232Y-10766984D01*
X14939232Y-10766984D02*
X14920184Y-10766984D01*
X14920184Y-10766984D02*
X14901136Y-10757460D01*
X14901136Y-10757460D02*
X14891613Y-10747936D01*
X14891613Y-10747936D02*
X14882089Y-10728889D01*
X14882089Y-10728889D02*
X14872565Y-10690793D01*
X14872565Y-10690793D02*
X14872565Y-10643174D01*
X14872565Y-10643174D02*
X14882089Y-10605079D01*
X14882089Y-10605079D02*
X14891613Y-10586031D01*
X14891613Y-10586031D02*
X14901136Y-10576508D01*
X14901136Y-10576508D02*
X14920184Y-10566984D01*
X15072565Y-10747936D02*
X15082089Y-10757460D01*
X15082089Y-10757460D02*
X15072565Y-10766984D01*
X15072565Y-10766984D02*
X15063041Y-10757460D01*
X15063041Y-10757460D02*
X15072565Y-10747936D01*
X15072565Y-10747936D02*
X15072565Y-10766984D01*
X15205898Y-10566984D02*
X15224946Y-10566984D01*
X15224946Y-10566984D02*
X15243994Y-10576508D01*
X15243994Y-10576508D02*
X15253517Y-10586031D01*
X15253517Y-10586031D02*
X15263041Y-10605079D01*
X15263041Y-10605079D02*
X15272565Y-10643174D01*
X15272565Y-10643174D02*
X15272565Y-10690793D01*
X15272565Y-10690793D02*
X15263041Y-10728889D01*
X15263041Y-10728889D02*
X15253517Y-10747936D01*
X15253517Y-10747936D02*
X15243994Y-10757460D01*
X15243994Y-10757460D02*
X15224946Y-10766984D01*
X15224946Y-10766984D02*
X15205898Y-10766984D01*
X15205898Y-10766984D02*
X15186851Y-10757460D01*
X15186851Y-10757460D02*
X15177327Y-10747936D01*
X15177327Y-10747936D02*
X15167803Y-10728889D01*
X15167803Y-10728889D02*
X15158279Y-10690793D01*
X15158279Y-10690793D02*
X15158279Y-10643174D01*
X15158279Y-10643174D02*
X15167803Y-10605079D01*
X15167803Y-10605079D02*
X15177327Y-10586031D01*
X15177327Y-10586031D02*
X15186851Y-10576508D01*
X15186851Y-10576508D02*
X15205898Y-10566984D01*
X15339232Y-10566984D02*
X15472565Y-10566984D01*
X15472565Y-10566984D02*
X15386851Y-10766984D01*
X15634470Y-10633650D02*
X15634470Y-10766984D01*
X15586851Y-10557460D02*
X15539232Y-10700317D01*
X15539232Y-10700317D02*
X15663041Y-10700317D01*
X15767803Y-10652698D02*
X15748756Y-10643174D01*
X15748756Y-10643174D02*
X15739232Y-10633650D01*
X15739232Y-10633650D02*
X15729708Y-10614603D01*
X15729708Y-10614603D02*
X15729708Y-10605079D01*
X15729708Y-10605079D02*
X15739232Y-10586031D01*
X15739232Y-10586031D02*
X15748756Y-10576508D01*
X15748756Y-10576508D02*
X15767803Y-10566984D01*
X15767803Y-10566984D02*
X15805898Y-10566984D01*
X15805898Y-10566984D02*
X15824946Y-10576508D01*
X15824946Y-10576508D02*
X15834470Y-10586031D01*
X15834470Y-10586031D02*
X15843994Y-10605079D01*
X15843994Y-10605079D02*
X15843994Y-10614603D01*
X15843994Y-10614603D02*
X15834470Y-10633650D01*
X15834470Y-10633650D02*
X15824946Y-10643174D01*
X15824946Y-10643174D02*
X15805898Y-10652698D01*
X15805898Y-10652698D02*
X15767803Y-10652698D01*
X15767803Y-10652698D02*
X15748756Y-10662222D01*
X15748756Y-10662222D02*
X15739232Y-10671746D01*
X15739232Y-10671746D02*
X15729708Y-10690793D01*
X15729708Y-10690793D02*
X15729708Y-10728889D01*
X15729708Y-10728889D02*
X15739232Y-10747936D01*
X15739232Y-10747936D02*
X15748756Y-10757460D01*
X15748756Y-10757460D02*
X15767803Y-10766984D01*
X15767803Y-10766984D02*
X15805898Y-10766984D01*
X15805898Y-10766984D02*
X15824946Y-10757460D01*
X15824946Y-10757460D02*
X15834470Y-10747936D01*
X15834470Y-10747936D02*
X15843994Y-10728889D01*
X15843994Y-10728889D02*
X15843994Y-10690793D01*
X15843994Y-10690793D02*
X15834470Y-10671746D01*
X15834470Y-10671746D02*
X15824946Y-10662222D01*
X15824946Y-10662222D02*
X15805898Y-10652698D01*
X15920184Y-10566984D02*
X15920184Y-10605079D01*
X15996375Y-10566984D02*
X15996375Y-10605079D01*
X16291613Y-10843174D02*
X16282089Y-10833650D01*
X16282089Y-10833650D02*
X16263041Y-10805079D01*
X16263041Y-10805079D02*
X16253518Y-10786031D01*
X16253518Y-10786031D02*
X16243994Y-10757460D01*
X16243994Y-10757460D02*
X16234470Y-10709841D01*
X16234470Y-10709841D02*
X16234470Y-10671746D01*
X16234470Y-10671746D02*
X16243994Y-10624127D01*
X16243994Y-10624127D02*
X16253518Y-10595555D01*
X16253518Y-10595555D02*
X16263041Y-10576508D01*
X16263041Y-10576508D02*
X16282089Y-10547936D01*
X16282089Y-10547936D02*
X16291613Y-10538412D01*
X16358279Y-10586031D02*
X16367803Y-10576508D01*
X16367803Y-10576508D02*
X16386851Y-10566984D01*
X16386851Y-10566984D02*
X16434470Y-10566984D01*
X16434470Y-10566984D02*
X16453518Y-10576508D01*
X16453518Y-10576508D02*
X16463041Y-10586031D01*
X16463041Y-10586031D02*
X16472565Y-10605079D01*
X16472565Y-10605079D02*
X16472565Y-10624127D01*
X16472565Y-10624127D02*
X16463041Y-10652698D01*
X16463041Y-10652698D02*
X16348756Y-10766984D01*
X16348756Y-10766984D02*
X16472565Y-10766984D01*
X16710660Y-10766984D02*
X16710660Y-10566984D01*
X16796375Y-10766984D02*
X16796375Y-10662222D01*
X16796375Y-10662222D02*
X16786851Y-10643174D01*
X16786851Y-10643174D02*
X16767803Y-10633650D01*
X16767803Y-10633650D02*
X16739232Y-10633650D01*
X16739232Y-10633650D02*
X16720184Y-10643174D01*
X16720184Y-10643174D02*
X16710660Y-10652698D01*
X16920184Y-10766984D02*
X16901137Y-10757460D01*
X16901137Y-10757460D02*
X16891613Y-10747936D01*
X16891613Y-10747936D02*
X16882089Y-10728889D01*
X16882089Y-10728889D02*
X16882089Y-10671746D01*
X16882089Y-10671746D02*
X16891613Y-10652698D01*
X16891613Y-10652698D02*
X16901137Y-10643174D01*
X16901137Y-10643174D02*
X16920184Y-10633650D01*
X16920184Y-10633650D02*
X16948756Y-10633650D01*
X16948756Y-10633650D02*
X16967803Y-10643174D01*
X16967803Y-10643174D02*
X16977327Y-10652698D01*
X16977327Y-10652698D02*
X16986851Y-10671746D01*
X16986851Y-10671746D02*
X16986851Y-10728889D01*
X16986851Y-10728889D02*
X16977327Y-10747936D01*
X16977327Y-10747936D02*
X16967803Y-10757460D01*
X16967803Y-10757460D02*
X16948756Y-10766984D01*
X16948756Y-10766984D02*
X16920184Y-10766984D01*
X17101137Y-10766984D02*
X17082089Y-10757460D01*
X17082089Y-10757460D02*
X17072565Y-10738412D01*
X17072565Y-10738412D02*
X17072565Y-10566984D01*
X17253518Y-10757460D02*
X17234470Y-10766984D01*
X17234470Y-10766984D02*
X17196375Y-10766984D01*
X17196375Y-10766984D02*
X17177327Y-10757460D01*
X17177327Y-10757460D02*
X17167803Y-10738412D01*
X17167803Y-10738412D02*
X17167803Y-10662222D01*
X17167803Y-10662222D02*
X17177327Y-10643174D01*
X17177327Y-10643174D02*
X17196375Y-10633650D01*
X17196375Y-10633650D02*
X17234470Y-10633650D01*
X17234470Y-10633650D02*
X17253518Y-10643174D01*
X17253518Y-10643174D02*
X17263042Y-10662222D01*
X17263042Y-10662222D02*
X17263042Y-10681270D01*
X17263042Y-10681270D02*
X17167803Y-10700317D01*
X17339232Y-10757460D02*
X17358280Y-10766984D01*
X17358280Y-10766984D02*
X17396375Y-10766984D01*
X17396375Y-10766984D02*
X17415423Y-10757460D01*
X17415423Y-10757460D02*
X17424946Y-10738412D01*
X17424946Y-10738412D02*
X17424946Y-10728889D01*
X17424946Y-10728889D02*
X17415423Y-10709841D01*
X17415423Y-10709841D02*
X17396375Y-10700317D01*
X17396375Y-10700317D02*
X17367803Y-10700317D01*
X17367803Y-10700317D02*
X17348756Y-10690793D01*
X17348756Y-10690793D02*
X17339232Y-10671746D01*
X17339232Y-10671746D02*
X17339232Y-10662222D01*
X17339232Y-10662222D02*
X17348756Y-10643174D01*
X17348756Y-10643174D02*
X17367803Y-10633650D01*
X17367803Y-10633650D02*
X17396375Y-10633650D01*
X17396375Y-10633650D02*
X17415423Y-10643174D01*
X17491613Y-10843174D02*
X17501137Y-10833650D01*
X17501137Y-10833650D02*
X17520184Y-10805079D01*
X17520184Y-10805079D02*
X17529708Y-10786031D01*
X17529708Y-10786031D02*
X17539232Y-10757460D01*
X17539232Y-10757460D02*
X17548756Y-10709841D01*
X17548756Y-10709841D02*
X17548756Y-10671746D01*
X17548756Y-10671746D02*
X17539232Y-10624127D01*
X17539232Y-10624127D02*
X17529708Y-10595555D01*
X17529708Y-10595555D02*
X17520184Y-10576508D01*
X17520184Y-10576508D02*
X17501137Y-10547936D01*
X17501137Y-10547936D02*
X17491613Y-10538412D01*
X17853518Y-10843174D02*
X17843994Y-10833650D01*
X17843994Y-10833650D02*
X17824946Y-10805079D01*
X17824946Y-10805079D02*
X17815423Y-10786031D01*
X17815423Y-10786031D02*
X17805899Y-10757460D01*
X17805899Y-10757460D02*
X17796375Y-10709841D01*
X17796375Y-10709841D02*
X17796375Y-10671746D01*
X17796375Y-10671746D02*
X17805899Y-10624127D01*
X17805899Y-10624127D02*
X17815423Y-10595555D01*
X17815423Y-10595555D02*
X17824946Y-10576508D01*
X17824946Y-10576508D02*
X17843994Y-10547936D01*
X17843994Y-10547936D02*
X17853518Y-10538412D01*
X17929708Y-10633650D02*
X17929708Y-10766984D01*
X17929708Y-10652698D02*
X17939232Y-10643174D01*
X17939232Y-10643174D02*
X17958280Y-10633650D01*
X17958280Y-10633650D02*
X17986851Y-10633650D01*
X17986851Y-10633650D02*
X18005899Y-10643174D01*
X18005899Y-10643174D02*
X18015423Y-10662222D01*
X18015423Y-10662222D02*
X18015423Y-10766984D01*
X18139232Y-10766984D02*
X18120184Y-10757460D01*
X18120184Y-10757460D02*
X18110661Y-10747936D01*
X18110661Y-10747936D02*
X18101137Y-10728889D01*
X18101137Y-10728889D02*
X18101137Y-10671746D01*
X18101137Y-10671746D02*
X18110661Y-10652698D01*
X18110661Y-10652698D02*
X18120184Y-10643174D01*
X18120184Y-10643174D02*
X18139232Y-10633650D01*
X18139232Y-10633650D02*
X18167804Y-10633650D01*
X18167804Y-10633650D02*
X18186851Y-10643174D01*
X18186851Y-10643174D02*
X18196375Y-10652698D01*
X18196375Y-10652698D02*
X18205899Y-10671746D01*
X18205899Y-10671746D02*
X18205899Y-10728889D01*
X18205899Y-10728889D02*
X18196375Y-10747936D01*
X18196375Y-10747936D02*
X18186851Y-10757460D01*
X18186851Y-10757460D02*
X18167804Y-10766984D01*
X18167804Y-10766984D02*
X18139232Y-10766984D01*
X18263042Y-10633650D02*
X18339232Y-10633650D01*
X18291613Y-10566984D02*
X18291613Y-10738412D01*
X18291613Y-10738412D02*
X18301137Y-10757460D01*
X18301137Y-10757460D02*
X18320184Y-10766984D01*
X18320184Y-10766984D02*
X18339232Y-10766984D01*
X18558280Y-10633650D02*
X18558280Y-10833650D01*
X18558280Y-10643174D02*
X18577327Y-10633650D01*
X18577327Y-10633650D02*
X18615423Y-10633650D01*
X18615423Y-10633650D02*
X18634470Y-10643174D01*
X18634470Y-10643174D02*
X18643994Y-10652698D01*
X18643994Y-10652698D02*
X18653518Y-10671746D01*
X18653518Y-10671746D02*
X18653518Y-10728889D01*
X18653518Y-10728889D02*
X18643994Y-10747936D01*
X18643994Y-10747936D02*
X18634470Y-10757460D01*
X18634470Y-10757460D02*
X18615423Y-10766984D01*
X18615423Y-10766984D02*
X18577327Y-10766984D01*
X18577327Y-10766984D02*
X18558280Y-10757460D01*
X18767804Y-10766984D02*
X18748756Y-10757460D01*
X18748756Y-10757460D02*
X18739232Y-10738412D01*
X18739232Y-10738412D02*
X18739232Y-10566984D01*
X18929708Y-10766984D02*
X18929708Y-10662222D01*
X18929708Y-10662222D02*
X18920185Y-10643174D01*
X18920185Y-10643174D02*
X18901137Y-10633650D01*
X18901137Y-10633650D02*
X18863042Y-10633650D01*
X18863042Y-10633650D02*
X18843994Y-10643174D01*
X18929708Y-10757460D02*
X18910661Y-10766984D01*
X18910661Y-10766984D02*
X18863042Y-10766984D01*
X18863042Y-10766984D02*
X18843994Y-10757460D01*
X18843994Y-10757460D02*
X18834470Y-10738412D01*
X18834470Y-10738412D02*
X18834470Y-10719365D01*
X18834470Y-10719365D02*
X18843994Y-10700317D01*
X18843994Y-10700317D02*
X18863042Y-10690793D01*
X18863042Y-10690793D02*
X18910661Y-10690793D01*
X18910661Y-10690793D02*
X18929708Y-10681270D01*
X18996375Y-10633650D02*
X19072565Y-10633650D01*
X19024946Y-10566984D02*
X19024946Y-10738412D01*
X19024946Y-10738412D02*
X19034470Y-10757460D01*
X19034470Y-10757460D02*
X19053518Y-10766984D01*
X19053518Y-10766984D02*
X19072565Y-10766984D01*
X19215423Y-10757460D02*
X19196375Y-10766984D01*
X19196375Y-10766984D02*
X19158280Y-10766984D01*
X19158280Y-10766984D02*
X19139232Y-10757460D01*
X19139232Y-10757460D02*
X19129708Y-10738412D01*
X19129708Y-10738412D02*
X19129708Y-10662222D01*
X19129708Y-10662222D02*
X19139232Y-10643174D01*
X19139232Y-10643174D02*
X19158280Y-10633650D01*
X19158280Y-10633650D02*
X19196375Y-10633650D01*
X19196375Y-10633650D02*
X19215423Y-10643174D01*
X19215423Y-10643174D02*
X19224946Y-10662222D01*
X19224946Y-10662222D02*
X19224946Y-10681270D01*
X19224946Y-10681270D02*
X19129708Y-10700317D01*
X19396375Y-10766984D02*
X19396375Y-10566984D01*
X19396375Y-10757460D02*
X19377327Y-10766984D01*
X19377327Y-10766984D02*
X19339232Y-10766984D01*
X19339232Y-10766984D02*
X19320185Y-10757460D01*
X19320185Y-10757460D02*
X19310661Y-10747936D01*
X19310661Y-10747936D02*
X19301137Y-10728889D01*
X19301137Y-10728889D02*
X19301137Y-10671746D01*
X19301137Y-10671746D02*
X19310661Y-10652698D01*
X19310661Y-10652698D02*
X19320185Y-10643174D01*
X19320185Y-10643174D02*
X19339232Y-10633650D01*
X19339232Y-10633650D02*
X19377327Y-10633650D01*
X19377327Y-10633650D02*
X19396375Y-10643174D01*
X19472566Y-10843174D02*
X19482089Y-10833650D01*
X19482089Y-10833650D02*
X19501137Y-10805079D01*
X19501137Y-10805079D02*
X19510661Y-10786031D01*
X19510661Y-10786031D02*
X19520185Y-10757460D01*
X19520185Y-10757460D02*
X19529708Y-10709841D01*
X19529708Y-10709841D02*
X19529708Y-10671746D01*
X19529708Y-10671746D02*
X19520185Y-10624127D01*
X19520185Y-10624127D02*
X19510661Y-10595555D01*
X19510661Y-10595555D02*
X19501137Y-10576508D01*
X19501137Y-10576508D02*
X19482089Y-10547936D01*
X19482089Y-10547936D02*
X19472566Y-10538412D01*
M02*
