%TF.GenerationSoftware,KiCad,Pcbnew,8.0.6*%
%TF.CreationDate,2025-12-05T01:10:29-07:00*%
%TF.ProjectId,pt_thrifty,70745f74-6872-4696-9674-792e6b696361,rev?*%
%TF.SameCoordinates,Original*%
%TF.FileFunction,Copper,L1,Top*%
%TF.FilePolarity,Positive*%
%FSLAX46Y46*%
G04 Gerber Fmt 4.6, Leading zero omitted, Abs format (unit mm)*
G04 Created by KiCad (PCBNEW 8.0.6) date 2025-12-05 01:10:29*
%MOMM*%
%LPD*%
G01*
G04 APERTURE LIST*
G04 Aperture macros list*
%AMRoundRect*
0 Rectangle with rounded corners*
0 $1 Rounding radius*
0 $2 $3 $4 $5 $6 $7 $8 $9 X,Y pos of 4 corners*
0 Add a 4 corners polygon primitive as box body*
4,1,4,$2,$3,$4,$5,$6,$7,$8,$9,$2,$3,0*
0 Add four circle primitives for the rounded corners*
1,1,$1+$1,$2,$3*
1,1,$1+$1,$4,$5*
1,1,$1+$1,$6,$7*
1,1,$1+$1,$8,$9*
0 Add four rect primitives between the rounded corners*
20,1,$1+$1,$2,$3,$4,$5,0*
20,1,$1+$1,$4,$5,$6,$7,0*
20,1,$1+$1,$6,$7,$8,$9,0*
20,1,$1+$1,$8,$9,$2,$3,0*%
G04 Aperture macros list end*
%TA.AperFunction,ComponentPad*%
%ADD10C,2.100000*%
%TD*%
%TA.AperFunction,ComponentPad*%
%ADD11C,1.750000*%
%TD*%
%TA.AperFunction,ComponentPad*%
%ADD12R,1.700000X1.700000*%
%TD*%
%TA.AperFunction,ComponentPad*%
%ADD13O,1.700000X1.700000*%
%TD*%
%TA.AperFunction,SMDPad,CuDef*%
%ADD14RoundRect,0.225000X0.250000X-0.225000X0.250000X0.225000X-0.250000X0.225000X-0.250000X-0.225000X0*%
%TD*%
%TA.AperFunction,SMDPad,CuDef*%
%ADD15RoundRect,0.200000X-0.275000X0.200000X-0.275000X-0.200000X0.275000X-0.200000X0.275000X0.200000X0*%
%TD*%
%TA.AperFunction,SMDPad,CuDef*%
%ADD16RoundRect,0.200000X0.275000X-0.200000X0.275000X0.200000X-0.275000X0.200000X-0.275000X-0.200000X0*%
%TD*%
%TA.AperFunction,SMDPad,CuDef*%
%ADD17RoundRect,0.225000X-0.225000X-0.250000X0.225000X-0.250000X0.225000X0.250000X-0.225000X0.250000X0*%
%TD*%
%TA.AperFunction,SMDPad,CuDef*%
%ADD18R,3.000000X2.000000*%
%TD*%
%TA.AperFunction,SMDPad,CuDef*%
%ADD19R,0.660400X0.609600*%
%TD*%
%TA.AperFunction,SMDPad,CuDef*%
%ADD20R,0.889000X1.397000*%
%TD*%
%TA.AperFunction,SMDPad,CuDef*%
%ADD21RoundRect,0.150000X0.512500X0.150000X-0.512500X0.150000X-0.512500X-0.150000X0.512500X-0.150000X0*%
%TD*%
%TA.AperFunction,ComponentPad*%
%ADD22C,1.700000*%
%TD*%
%TA.AperFunction,Conductor*%
%ADD23C,0.508000*%
%TD*%
%TA.AperFunction,Conductor*%
%ADD24C,0.152400*%
%TD*%
G04 APERTURE END LIST*
D10*
%TO.P,SW2,SH,B*%
%TO.N,GND*%
X143414999Y-73000400D03*
X136404999Y-73000400D03*
D11*
%TO.P,SW2,1,1*%
X142164999Y-70510400D03*
%TO.P,SW2,2,2*%
%TO.N,/KEYA*%
X137664999Y-70510400D03*
%TD*%
D12*
%TO.P,J1,1,Pin_1*%
%TO.N,Net-(J1-Pin_1)*%
X150050500Y-96520000D03*
D13*
%TO.P,J1,2,Pin_2*%
%TO.N,Net-(J1-Pin_2)*%
X150050500Y-93980000D03*
%TO.P,J1,3,Pin_3*%
%TO.N,/BLINK*%
X150050500Y-91440000D03*
%TO.P,J1,4,Pin_4*%
%TO.N,Net-(J1-Pin_4)*%
X150050500Y-88900000D03*
%TO.P,J1,5,Pin_5*%
%TO.N,Net-(J1-Pin_5)*%
X150050500Y-86360000D03*
%TO.P,J1,6,Pin_6*%
%TO.N,Net-(J1-Pin_6)*%
X150050500Y-83820000D03*
%TO.P,J1,7,Pin_7*%
%TO.N,Net-(J1-Pin_7)*%
X150050500Y-81280000D03*
%TO.P,J1,8,Pin_8*%
%TO.N,Net-(J1-Pin_8)*%
X150050500Y-78740000D03*
%TO.P,J1,9,Pin_9*%
%TO.N,Net-(J1-Pin_9)*%
X150050500Y-76200000D03*
%TD*%
D14*
%TO.P,C6,1*%
%TO.N,/IN_OUT_R*%
X145034000Y-92723000D03*
%TO.P,C6,2*%
%TO.N,Net-(C5-Pad2)*%
X145034000Y-91173000D03*
%TD*%
D15*
%TO.P,R8,1*%
%TO.N,Net-(U1-GPIO28)*%
X134366000Y-86551000D03*
%TO.P,R8,2*%
%TO.N,Net-(J2-Pin_5)*%
X134366000Y-88201000D03*
%TD*%
D14*
%TO.P,C4,1*%
%TO.N,+3.3V*%
X134366000Y-84849000D03*
%TO.P,C4,2*%
%TO.N,GND*%
X134366000Y-83299000D03*
%TD*%
D16*
%TO.P,R1,1*%
%TO.N,+3.3V*%
X136144000Y-83121000D03*
%TO.P,R1,2*%
%TO.N,/IN*%
X136144000Y-81471000D03*
%TD*%
D12*
%TO.P,J2,1,Pin_1*%
%TO.N,/VBUS*%
X129794000Y-96520000D03*
D13*
%TO.P,J2,2,Pin_2*%
%TO.N,GND*%
X129794000Y-93980000D03*
%TO.P,J2,3,Pin_3*%
%TO.N,+3.3V*%
X129794000Y-91440000D03*
%TO.P,J2,4,Pin_4*%
%TO.N,Net-(J2-Pin_4)*%
X129794000Y-88900000D03*
%TO.P,J2,5,Pin_5*%
%TO.N,Net-(J2-Pin_5)*%
X129794000Y-86360000D03*
%TO.P,J2,6,Pin_6*%
%TO.N,/DETECT*%
X129794000Y-83820000D03*
%TO.P,J2,7,Pin_7*%
%TO.N,Net-(J2-Pin_7)*%
X129794000Y-81280000D03*
%TO.P,J2,8,Pin_8*%
%TO.N,Net-(J2-Pin_8)*%
X129794000Y-78740000D03*
%TO.P,J2,9,Pin_9*%
%TO.N,Net-(J2-Pin_9)*%
X129794000Y-76200000D03*
%TD*%
D17*
%TO.P,C5,1*%
%TO.N,/IN_OUT_L*%
X143624000Y-89281000D03*
%TO.P,C5,2*%
%TO.N,Net-(C5-Pad2)*%
X145174000Y-89281000D03*
%TD*%
D14*
%TO.P,C1,1*%
%TO.N,/IN_OUT_L*%
X144970500Y-87135000D03*
%TO.P,C1,2*%
%TO.N,/IN*%
X144970500Y-85585000D03*
%TD*%
D18*
%TO.P,J3,1*%
%TO.N,GND*%
X142120500Y-99150000D03*
%TO.P,J3,2*%
%TO.N,/IN_OUT_L*%
X142120500Y-86750000D03*
%TO.P,J3,3*%
%TO.N,/IN_OUT_R*%
X135120500Y-94450000D03*
%TO.P,J3,4*%
%TO.N,/DETECT*%
X142120500Y-96250000D03*
%TD*%
D19*
%TO.P,LED1,1*%
%TO.N,GND*%
X145161000Y-99314000D03*
%TO.P,LED1,2*%
%TO.N,Net-(LED1-Pad2)*%
X147320000Y-99314000D03*
%TD*%
D14*
%TO.P,C2,1*%
%TO.N,/IN_OUT_R*%
X143129000Y-92723000D03*
%TO.P,C2,2*%
%TO.N,/IN*%
X143129000Y-91173000D03*
%TD*%
D16*
%TO.P,R3,1*%
%TO.N,+3.3V*%
X137922000Y-83121000D03*
%TO.P,R3,2*%
%TO.N,/VREF*%
X137922000Y-81471000D03*
%TD*%
D15*
%TO.P,R6,1*%
%TO.N,/nLTC_TX*%
X144970500Y-81979000D03*
%TO.P,R6,2*%
%TO.N,Net-(C5-Pad2)*%
X144970500Y-83629000D03*
%TD*%
%TO.P,R7,1*%
%TO.N,/BLINK*%
X144970500Y-95695000D03*
%TO.P,R7,2*%
%TO.N,Net-(LED1-Pad2)*%
X144970500Y-97345000D03*
%TD*%
%TO.P,R5,1*%
%TO.N,/LTC_TX*%
X144970500Y-78423000D03*
%TO.P,R5,2*%
%TO.N,Net-(C5-Pad2)*%
X144970500Y-80073000D03*
%TD*%
D17*
%TO.P,C3,1*%
%TO.N,/VREF*%
X139941000Y-78994000D03*
%TO.P,C3,2*%
%TO.N,GND*%
X141491000Y-78994000D03*
%TD*%
D20*
%TO.P,SW1,1,1*%
%TO.N,/KEYA*%
X138914998Y-72390000D03*
%TO.P,SW1,2,2*%
%TO.N,GND*%
X145415000Y-72390000D03*
%TD*%
D16*
%TO.P,R2,1*%
%TO.N,/IN*%
X136144000Y-79819000D03*
%TO.P,R2,2*%
%TO.N,/AMP_CS*%
X136144000Y-78169000D03*
%TD*%
D15*
%TO.P,R9,1*%
%TO.N,Net-(U1-GPIO29)*%
X134366000Y-89853000D03*
%TO.P,R9,2*%
%TO.N,Net-(J2-Pin_4)*%
X134366000Y-91503000D03*
%TD*%
D16*
%TO.P,R4,1*%
%TO.N,/VREF*%
X137922000Y-79819000D03*
%TO.P,R4,2*%
%TO.N,/AMP_CS*%
X137922000Y-78169000D03*
%TD*%
D21*
%TO.P,U2,1,VOUT*%
%TO.N,/LTX_RX*%
X142113000Y-82738000D03*
%TO.P,U2,2,VSS*%
%TO.N,GND*%
X142113000Y-81788000D03*
%TO.P,U2,3,VIN+*%
%TO.N,/IN*%
X142113000Y-80838000D03*
%TO.P,U2,4,VIN-*%
%TO.N,/VREF*%
X139838000Y-80838000D03*
%TO.P,U2,5,\u002ACS*%
%TO.N,/AMP_CS*%
X139838000Y-81788000D03*
%TO.P,U2,6,VDD*%
%TO.N,+3.3V*%
X139838000Y-82738000D03*
%TD*%
D22*
%TO.P,U1,1,GPIO0*%
%TO.N,Net-(J1-Pin_1)*%
X147510500Y-96520000D03*
%TO.P,U1,2,GPIO1*%
%TO.N,Net-(J1-Pin_2)*%
X147510500Y-93980000D03*
%TO.P,U1,3,GPIO2*%
%TO.N,/BLINK*%
X147510500Y-91440000D03*
%TO.P,U1,4,GPIO3*%
%TO.N,Net-(J1-Pin_4)*%
X147510500Y-88900000D03*
%TO.P,U1,5,GPIO4*%
%TO.N,Net-(J1-Pin_5)*%
X147510500Y-86360000D03*
%TO.P,U1,6,GPIO5*%
%TO.N,Net-(J1-Pin_6)*%
X147510500Y-83820000D03*
%TO.P,U1,7,GPIO6*%
%TO.N,Net-(J1-Pin_7)*%
X147510500Y-81280000D03*
%TO.P,U1,8,GPIO7*%
%TO.N,Net-(J1-Pin_8)*%
X147510500Y-78740000D03*
%TO.P,U1,9,GPIO8*%
%TO.N,Net-(J1-Pin_9)*%
X147510500Y-76200000D03*
%TO.P,U1,10,GPIO14*%
%TO.N,Net-(J2-Pin_9)*%
X132270500Y-76200000D03*
%TO.P,U1,11,GPIO15*%
%TO.N,Net-(J2-Pin_8)*%
X132270500Y-78740000D03*
%TO.P,U1,12,GPIO26*%
%TO.N,Net-(J2-Pin_7)*%
X132270500Y-81280000D03*
%TO.P,U1,13,GPIO27*%
%TO.N,/DETECT*%
X132270500Y-83820000D03*
%TO.P,U1,14,GPIO28*%
%TO.N,Net-(U1-GPIO28)*%
X132270500Y-86360000D03*
%TO.P,U1,15,GPIO29*%
%TO.N,Net-(U1-GPIO29)*%
X132270500Y-88900000D03*
%TO.P,U1,16,3V3*%
%TO.N,+3.3V*%
X132270500Y-91440000D03*
%TO.P,U1,17,GND*%
%TO.N,GND*%
X132270500Y-93980000D03*
%TO.P,U1,18,5V*%
%TO.N,/VBUS*%
X132270500Y-96520000D03*
%TO.P,U1,19,GPIO9*%
%TO.N,/LTC_TX*%
X144970500Y-76210000D03*
%TO.P,U1,20,GPIO10*%
%TO.N,/nLTC_TX*%
X142430500Y-76210000D03*
%TO.P,U1,21,GPIO11*%
%TO.N,/LTX_RX*%
X139890500Y-76210000D03*
%TO.P,U1,22,GPIO12*%
%TO.N,/KEYA*%
X137350500Y-76210000D03*
%TO.P,U1,23,GPIO13*%
%TO.N,/AMP_CS*%
X134810500Y-76210000D03*
%TD*%
D23*
%TO.N,GND*%
X144804600Y-73000400D02*
X145415000Y-72390000D01*
X143414999Y-73000400D02*
X144804600Y-73000400D01*
X128421600Y-73000400D02*
X128333500Y-73088500D01*
X136404999Y-73000400D02*
X128421600Y-73000400D01*
X128333500Y-73088500D02*
X132218400Y-69203600D01*
X128016000Y-73406000D02*
X128333500Y-73088500D01*
X140335000Y-70485000D02*
X142240000Y-70485000D01*
X138083174Y-69215000D02*
X139065000Y-69215000D01*
X138071774Y-69203600D02*
X138083174Y-69215000D01*
X132218400Y-69203600D02*
X138071774Y-69203600D01*
X139065000Y-69215000D02*
X140335000Y-70485000D01*
X128016000Y-93980000D02*
X128016000Y-73406000D01*
D24*
%TO.N,/KEYA*%
X138914998Y-71659998D02*
X138914998Y-72390000D01*
X137740000Y-70485000D02*
X138914998Y-71659998D01*
D23*
%TO.N,GND*%
X143510000Y-70485000D02*
X142041000Y-70485000D01*
X145415000Y-72390000D02*
X143510000Y-70485000D01*
X142041000Y-71700000D02*
X142041000Y-70485000D01*
X138634100Y-75106900D02*
X142041000Y-71700000D01*
X138634100Y-76912100D02*
X139319000Y-77597000D01*
X140509500Y-77597000D02*
X141491000Y-78578500D01*
X138634100Y-75106900D02*
X138634100Y-76912100D01*
X139319000Y-77597000D02*
X140509500Y-77597000D01*
X141491000Y-78578500D02*
X141491000Y-78994000D01*
D24*
%TO.N,/KEYA*%
X137350500Y-74866500D02*
X137350500Y-76210000D01*
X138914998Y-73302002D02*
X137350500Y-74866500D01*
X138914998Y-72390000D02*
X138914998Y-73302002D01*
D23*
%TO.N,GND*%
X129730500Y-93980000D02*
X128016000Y-93980000D01*
X143230600Y-79984600D02*
X142240000Y-78994000D01*
X128360000Y-99150000D02*
X142120500Y-99150000D01*
X144907000Y-99314000D02*
X142284500Y-99314000D01*
X128016000Y-82550000D02*
X133617000Y-82550000D01*
X132270500Y-93980000D02*
X129730500Y-93980000D01*
X142284500Y-99314000D02*
X142120500Y-99150000D01*
X128016000Y-93980000D02*
X128016000Y-98806000D01*
X142240000Y-78994000D02*
X141491000Y-78994000D01*
X128016000Y-98806000D02*
X128360000Y-99150000D01*
X141790000Y-81751300D02*
X142784700Y-81751300D01*
X143230600Y-81305400D02*
X143230600Y-79984600D01*
X133617000Y-82550000D02*
X134366000Y-83299000D01*
X142784700Y-81751300D02*
X143230600Y-81305400D01*
D24*
%TO.N,Net-(J1-Pin_9)*%
X147510500Y-76200000D02*
X150050500Y-76200000D01*
%TO.N,Net-(J1-Pin_8)*%
X150050500Y-78740000D02*
X147510500Y-78740000D01*
%TO.N,Net-(J1-Pin_6)*%
X147510500Y-83820000D02*
X150050500Y-83820000D01*
%TO.N,Net-(J1-Pin_5)*%
X150050500Y-86360000D02*
X147510500Y-86360000D01*
%TO.N,Net-(J1-Pin_2)*%
X147510500Y-93980000D02*
X150050500Y-93980000D01*
%TO.N,Net-(J1-Pin_4)*%
X147510500Y-88900000D02*
X150050500Y-88900000D01*
%TO.N,Net-(J1-Pin_7)*%
X147510500Y-81280000D02*
X150050500Y-81280000D01*
D23*
%TO.N,+3.3V*%
X135636000Y-92710000D02*
X133540500Y-92710000D01*
X139515000Y-82701300D02*
X139801300Y-82701300D01*
X139455000Y-83121000D02*
X136144000Y-83121000D01*
X134366000Y-84849000D02*
X134379000Y-84836000D01*
X136144000Y-83121000D02*
X136652000Y-83121000D01*
X136652000Y-83121000D02*
X136652000Y-91694000D01*
X136652000Y-91694000D02*
X135636000Y-92710000D01*
X133540500Y-92710000D02*
X132270500Y-91440000D01*
X139838000Y-82738000D02*
X139455000Y-83121000D01*
X129730500Y-91440000D02*
X130810000Y-91440000D01*
X130810000Y-91440000D02*
X132270500Y-91440000D01*
X134379000Y-84836000D02*
X136652000Y-84836000D01*
X139801300Y-82701300D02*
X139838000Y-82738000D01*
%TO.N,/VBUS*%
X132270500Y-96520000D02*
X129730500Y-96520000D01*
D24*
%TO.N,Net-(LED1-Pad2)*%
X144970500Y-97345000D02*
X146113000Y-97345000D01*
X146113000Y-97345000D02*
X147320000Y-98552000D01*
X147320000Y-98552000D02*
X147320000Y-99060000D01*
%TO.N,/IN*%
X138430000Y-77470000D02*
X139192000Y-78232000D01*
X140081000Y-85471000D02*
X140970000Y-84582000D01*
X140970000Y-80264000D02*
X140970000Y-80772000D01*
X140081000Y-89789000D02*
X140081000Y-85471000D01*
X136144000Y-79819000D02*
X135826000Y-79819000D01*
X140970000Y-84582000D02*
X143967500Y-84582000D01*
X135636000Y-77470000D02*
X138430000Y-77470000D01*
X143967500Y-84582000D02*
X144970500Y-85585000D01*
X135128000Y-79121000D02*
X135128000Y-77978000D01*
X141452000Y-91160000D02*
X140081000Y-89789000D01*
X140970000Y-80772000D02*
X140970000Y-84582000D01*
X142113000Y-80838000D02*
X141036000Y-80838000D01*
X136144000Y-79819000D02*
X136144000Y-81471000D01*
X141036000Y-80838000D02*
X140970000Y-80772000D01*
X135128000Y-77978000D02*
X135636000Y-77470000D01*
X139192000Y-78232000D02*
X140462000Y-78232000D01*
X140462000Y-78232000D02*
X140716000Y-78486000D01*
X135826000Y-79819000D02*
X135128000Y-79121000D01*
X140716000Y-78486000D02*
X140716000Y-80010000D01*
X140716000Y-80010000D02*
X140970000Y-80264000D01*
X142748000Y-91160000D02*
X141452000Y-91160000D01*
%TO.N,/VREF*%
X139904000Y-80772000D02*
X137922000Y-80772000D01*
X137922000Y-79819000D02*
X137922000Y-81471000D01*
X139941000Y-78994000D02*
X139941000Y-80735000D01*
X139941000Y-80735000D02*
X139904000Y-80772000D01*
%TO.N,/AMP_CS*%
X137922000Y-78169000D02*
X136652000Y-78169000D01*
X139515000Y-81751300D02*
X139228700Y-81751300D01*
X136906000Y-82296000D02*
X136906000Y-78169000D01*
X138684000Y-82296000D02*
X135255000Y-82296000D01*
X135255000Y-82296000D02*
X134810500Y-81851500D01*
X134810500Y-81851500D02*
X134810500Y-76210000D01*
X136398000Y-82296000D02*
X136906000Y-82296000D01*
X136906000Y-78169000D02*
X137922000Y-78169000D01*
X139228700Y-81751300D02*
X138684000Y-82296000D01*
%TO.N,/LTC_TX*%
X144970500Y-78423000D02*
X144970500Y-76210000D01*
%TO.N,/nLTC_TX*%
X144018000Y-77797500D02*
X144018000Y-81280000D01*
X144717000Y-81979000D02*
X144970500Y-81979000D01*
X142430500Y-76210000D02*
X144018000Y-77797500D01*
X144018000Y-81280000D02*
X144717000Y-81979000D01*
%TO.N,/LTX_RX*%
X143713200Y-82092800D02*
X143104700Y-82701300D01*
X140472000Y-76210000D02*
X143713200Y-79451200D01*
X143713200Y-79451200D02*
X143713200Y-82092800D01*
X139890500Y-76210000D02*
X140472000Y-76210000D01*
X143104700Y-82701300D02*
X141790000Y-82701300D01*
%TO.N,/DETECT*%
X134112000Y-96774000D02*
X133350000Y-96012000D01*
X133350000Y-93472000D02*
X132588000Y-92710000D01*
X128715400Y-92139400D02*
X128715400Y-84898600D01*
X132588000Y-92710000D02*
X129286000Y-92710000D01*
X129286000Y-92710000D02*
X128715400Y-92139400D01*
X128715400Y-84898600D02*
X129794000Y-83820000D01*
X133350000Y-96012000D02*
X133350000Y-93472000D01*
X132270500Y-83820000D02*
X129794000Y-83820000D01*
X142120500Y-96250000D02*
X141596500Y-96774000D01*
X141596500Y-96774000D02*
X134112000Y-96774000D01*
%TO.N,/BLINK*%
X146177000Y-93853000D02*
X144970500Y-95059500D01*
X150050500Y-91440000D02*
X147510500Y-91440000D01*
X147510500Y-91440000D02*
X146939000Y-91440000D01*
X144970500Y-95059500D02*
X144970500Y-95695000D01*
X146177000Y-92202000D02*
X146177000Y-93853000D01*
X146939000Y-91440000D02*
X146177000Y-92202000D01*
%TO.N,Net-(J1-Pin_1)*%
X147510500Y-96520000D02*
X150050500Y-96520000D01*
%TO.N,Net-(U1-GPIO28)*%
X132461500Y-86551000D02*
X133858000Y-86551000D01*
X133858000Y-86551000D02*
X134112000Y-86297000D01*
X132270500Y-86360000D02*
X132461500Y-86551000D01*
%TO.N,/IN_OUT_L*%
X142505500Y-87135000D02*
X142120500Y-86750000D01*
X142120500Y-88526500D02*
X142120500Y-86750000D01*
X143624000Y-89281000D02*
X142875000Y-89281000D01*
X142875000Y-89281000D02*
X142120500Y-88526500D01*
X144970500Y-87135000D02*
X142505500Y-87135000D01*
%TO.N,/IN_OUT_R*%
X138049000Y-92710000D02*
X136309000Y-94450000D01*
X143129000Y-92723000D02*
X145034000Y-92723000D01*
X142748000Y-92710000D02*
X138049000Y-92710000D01*
X136309000Y-94450000D02*
X135120500Y-94450000D01*
%TO.N,Net-(J2-Pin_5)*%
X134112000Y-88201000D02*
X133413000Y-88201000D01*
X131064000Y-87630000D02*
X129794000Y-86360000D01*
X132842000Y-87630000D02*
X131064000Y-87630000D01*
X133413000Y-88201000D02*
X132842000Y-87630000D01*
%TO.N,Net-(C5-Pad2)*%
X145351000Y-80073000D02*
X146050000Y-80772000D01*
X145161000Y-91046000D02*
X145021000Y-91186000D01*
X145987000Y-83629000D02*
X146050000Y-83566000D01*
X146050000Y-88646000D02*
X145161000Y-89535000D01*
X144970500Y-80073000D02*
X145351000Y-80073000D01*
X145161000Y-89535000D02*
X145161000Y-91046000D01*
X146050000Y-80772000D02*
X146050000Y-83566000D01*
X144970500Y-83629000D02*
X145987000Y-83629000D01*
X146050000Y-83566000D02*
X146050000Y-88646000D01*
%TO.N,Net-(J2-Pin_8)*%
X129794000Y-78740000D02*
X132270500Y-78740000D01*
%TO.N,Net-(J2-Pin_7)*%
X132270500Y-81280000D02*
X129794000Y-81280000D01*
%TO.N,Net-(J2-Pin_4)*%
X129794000Y-89154000D02*
X129794000Y-88900000D01*
X132588000Y-90170000D02*
X130810000Y-90170000D01*
X133921000Y-91503000D02*
X132588000Y-90170000D01*
X134366000Y-91503000D02*
X133921000Y-91503000D01*
X130810000Y-90170000D02*
X129794000Y-89154000D01*
%TO.N,Net-(U1-GPIO29)*%
X133541000Y-89853000D02*
X134366000Y-89853000D01*
X132270500Y-88900000D02*
X132588000Y-88900000D01*
X132588000Y-88900000D02*
X133541000Y-89853000D01*
%TO.N,Net-(J2-Pin_9)*%
X129794000Y-76200000D02*
X132270500Y-76200000D01*
%TD*%
M02*
