M48
; DRILL file {KiCad 8.0.6} date 2025-12-05T01:10:32-0700
; FORMAT={-:-/ absolute / inch / decimal}
; #@! TF.CreationDate,2025-12-05T01:10:32-07:00
; #@! TF.GenerationSoftware,Kicad,Pcbnew,8.0.6
; #@! TF.FileFunction,Plated,1,2,PTH
FMAT,2
INCH
; #@! TA.AperFunction,Plated,PTH,ComponentDrill
T1C0.0394
; #@! TA.AperFunction,Plated,PTH,ComponentDrill
T2C0.0512
%
G90
G05
T1
X5.11Y-3.0
X5.11Y-3.1
X5.11Y-3.2
X5.11Y-3.3
X5.11Y-3.4
X5.11Y-3.5
X5.11Y-3.6
X5.11Y-3.7
X5.11Y-3.8
X5.2075Y-3.0
X5.2075Y-3.1
X5.2075Y-3.2
X5.2075Y-3.3
X5.2075Y-3.4
X5.2075Y-3.5
X5.2075Y-3.6
X5.2075Y-3.7
X5.2075Y-3.8
X5.3075Y-3.0004
X5.4075Y-3.0004
X5.4199Y-2.776
X5.5075Y-3.0004
X5.597Y-2.776
X5.6075Y-3.0004
X5.7075Y-3.0004
X5.8075Y-3.0
X5.8075Y-3.1
X5.8075Y-3.2
X5.8075Y-3.3
X5.8075Y-3.4
X5.8075Y-3.5
X5.8075Y-3.6
X5.8075Y-3.7
X5.8075Y-3.8
X5.9075Y-3.0
X5.9075Y-3.1
X5.9075Y-3.2
X5.9075Y-3.3
X5.9075Y-3.4
X5.9075Y-3.5
X5.9075Y-3.6
X5.9075Y-3.7
X5.9075Y-3.8
T2
X5.3703Y-2.874
X5.6463Y-2.874
M30
