%TF.GenerationSoftware,KiCad,Pcbnew,8.0.6*%
%TF.CreationDate,2025-12-05T01:10:29-07:00*%
%TF.ProjectId,pt_thrifty,70745f74-6872-4696-9674-792e6b696361,rev?*%
%TF.SameCoordinates,Original*%
%TF.FileFunction,Paste,Top*%
%TF.FilePolarity,Positive*%
%FSLAX46Y46*%
G04 Gerber Fmt 4.6, Leading zero omitted, Abs format (unit mm)*
G04 Created by KiCad (PCBNEW 8.0.6) date 2025-12-05 01:10:29*
%MOMM*%
%LPD*%
G01*
G04 APERTURE LIST*
G04 Aperture macros list*
%AMRoundRect*
0 Rectangle with rounded corners*
0 $1 Rounding radius*
0 $2 $3 $4 $5 $6 $7 $8 $9 X,Y pos of 4 corners*
0 Add a 4 corners polygon primitive as box body*
4,1,4,$2,$3,$4,$5,$6,$7,$8,$9,$2,$3,0*
0 Add four circle primitives for the rounded corners*
1,1,$1+$1,$2,$3*
1,1,$1+$1,$4,$5*
1,1,$1+$1,$6,$7*
1,1,$1+$1,$8,$9*
0 Add four rect primitives between the rounded corners*
20,1,$1+$1,$2,$3,$4,$5,0*
20,1,$1+$1,$4,$5,$6,$7,0*
20,1,$1+$1,$6,$7,$8,$9,0*
20,1,$1+$1,$8,$9,$2,$3,0*%
G04 Aperture macros list end*
%ADD10RoundRect,0.225000X0.250000X-0.225000X0.250000X0.225000X-0.250000X0.225000X-0.250000X-0.225000X0*%
%ADD11RoundRect,0.200000X-0.275000X0.200000X-0.275000X-0.200000X0.275000X-0.200000X0.275000X0.200000X0*%
%ADD12RoundRect,0.200000X0.275000X-0.200000X0.275000X0.200000X-0.275000X0.200000X-0.275000X-0.200000X0*%
%ADD13RoundRect,0.225000X-0.225000X-0.250000X0.225000X-0.250000X0.225000X0.250000X-0.225000X0.250000X0*%
%ADD14R,3.000000X2.000000*%
%ADD15R,0.660400X0.609600*%
%ADD16R,0.889000X1.397000*%
%ADD17RoundRect,0.150000X0.512500X0.150000X-0.512500X0.150000X-0.512500X-0.150000X0.512500X-0.150000X0*%
G04 APERTURE END LIST*
D10*
%TO.C,C6*%
X145034000Y-92723000D03*
X145034000Y-91173000D03*
%TD*%
D11*
%TO.C,R8*%
X134366000Y-86551000D03*
X134366000Y-88201000D03*
%TD*%
D10*
%TO.C,C4*%
X134366000Y-84849000D03*
X134366000Y-83299000D03*
%TD*%
D12*
%TO.C,R1*%
X136144000Y-83121000D03*
X136144000Y-81471000D03*
%TD*%
D13*
%TO.C,C5*%
X143624000Y-89281000D03*
X145174000Y-89281000D03*
%TD*%
D10*
%TO.C,C1*%
X144970500Y-87135000D03*
X144970500Y-85585000D03*
%TD*%
D14*
%TO.C,J3*%
X142120500Y-99150000D03*
X142120500Y-86750000D03*
X135120500Y-94450000D03*
X142120500Y-96250000D03*
%TD*%
D15*
%TO.C,LED1*%
X145161000Y-99314000D03*
X147320000Y-99314000D03*
%TD*%
D10*
%TO.C,C2*%
X143129000Y-92723000D03*
X143129000Y-91173000D03*
%TD*%
D12*
%TO.C,R3*%
X137922000Y-83121000D03*
X137922000Y-81471000D03*
%TD*%
D11*
%TO.C,R6*%
X144970500Y-81979000D03*
X144970500Y-83629000D03*
%TD*%
%TO.C,R7*%
X144970500Y-95695000D03*
X144970500Y-97345000D03*
%TD*%
%TO.C,R5*%
X144970500Y-78423000D03*
X144970500Y-80073000D03*
%TD*%
D13*
%TO.C,C3*%
X139941000Y-78994000D03*
X141491000Y-78994000D03*
%TD*%
D16*
%TO.C,SW1*%
X138914998Y-72390000D03*
X145415000Y-72390000D03*
%TD*%
D12*
%TO.C,R2*%
X136144000Y-79819000D03*
X136144000Y-78169000D03*
%TD*%
D11*
%TO.C,R9*%
X134366000Y-89853000D03*
X134366000Y-91503000D03*
%TD*%
D12*
%TO.C,R4*%
X137922000Y-79819000D03*
X137922000Y-78169000D03*
%TD*%
D17*
%TO.C,U2*%
X142113000Y-82738000D03*
X142113000Y-81788000D03*
X142113000Y-80838000D03*
X139838000Y-80838000D03*
X139838000Y-81788000D03*
X139838000Y-82738000D03*
%TD*%
M02*
