%TF.GenerationSoftware,KiCad,Pcbnew,10.0.5*%
%TF.CreationDate,2026-07-29T19:35:32-06:00*%
%TF.ProjectId,pt_thrifty,70745f74-6872-4696-9674-792e6b696361,rev?*%
%TF.SameCoordinates,Original*%
%TF.FileFunction,Copper,L2,Bot*%
%TF.FilePolarity,Positive*%
%FSLAX46Y46*%
G04 Gerber Fmt 4.6, Leading zero omitted, Abs format (unit mm)*
G04 Created by KiCad (PCBNEW 10.0.5) date 2026-07-29 19:35:32*
%MOMM*%
%LPD*%
G01*
G04 APERTURE LIST*
G04 Aperture macros list*
%AMRoundRect*
0 Rectangle with rounded corners*
0 $1 Rounding radius*
0 $2 $3 $4 $5 $6 $7 $8 $9 X,Y pos of 4 corners*
0 Add a 4 corners polygon primitive as box body*
4,1,4,$2,$3,$4,$5,$6,$7,$8,$9,$2,$3,0*
0 Add four circle primitives for the rounded corners*
1,1,$1+$1,$2,$3*
1,1,$1+$1,$4,$5*
1,1,$1+$1,$6,$7*
1,1,$1+$1,$8,$9*
0 Add four rect primitives between the rounded corners*
20,1,$1+$1,$2,$3,$4,$5,0*
20,1,$1+$1,$4,$5,$6,$7,0*
20,1,$1+$1,$6,$7,$8,$9,0*
20,1,$1+$1,$8,$9,$2,$3,0*%
%AMFreePoly0*
4,1,7,1.050000,-0.975000,-1.050000,-0.975000,-1.050000,0.625000,-0.250000,0.625000,-0.250000,0.975000,1.050000,0.975000,1.050000,-0.975000,1.050000,-0.975000,$1*%
%AMFreePoly1*
4,1,7,0.250000,0.625000,1.050000,0.625000,1.050000,-0.975000,-1.050000,-0.975000,-1.050000,0.975000,0.250000,0.975000,0.250000,0.625000,0.250000,0.625000,$1*%
G04 Aperture macros list end*
%TA.AperFunction,ComponentPad*%
%ADD10C,1.524000*%
%TD*%
%TA.AperFunction,SMDPad,CuDef*%
%ADD11R,0.762000X1.778000*%
%TD*%
%TA.AperFunction,SMDPad,CuDef*%
%ADD12RoundRect,0.135000X0.185000X-0.135000X0.185000X0.135000X-0.185000X0.135000X-0.185000X-0.135000X0*%
%TD*%
%TA.AperFunction,SMDPad,CuDef*%
%ADD13RoundRect,0.135000X-0.185000X0.135000X-0.185000X-0.135000X0.185000X-0.135000X0.185000X0.135000X0*%
%TD*%
%TA.AperFunction,SMDPad,CuDef*%
%ADD14RoundRect,0.200000X0.200000X0.275000X-0.200000X0.275000X-0.200000X-0.275000X0.200000X-0.275000X0*%
%TD*%
%TA.AperFunction,SMDPad,CuDef*%
%ADD15RoundRect,0.218750X0.218750X0.256250X-0.218750X0.256250X-0.218750X-0.256250X0.218750X-0.256250X0*%
%TD*%
%TA.AperFunction,SMDPad,CuDef*%
%ADD16RoundRect,0.225000X-0.250000X0.225000X-0.250000X-0.225000X0.250000X-0.225000X0.250000X0.225000X0*%
%TD*%
%TA.AperFunction,ComponentPad*%
%ADD17R,1.700000X1.700000*%
%TD*%
%TA.AperFunction,ComponentPad*%
%ADD18C,1.700000*%
%TD*%
%TA.AperFunction,ComponentPad*%
%ADD19R,1.000000X1.000000*%
%TD*%
%TA.AperFunction,ComponentPad*%
%ADD20C,2.100000*%
%TD*%
%TA.AperFunction,ComponentPad*%
%ADD21C,1.750000*%
%TD*%
%TA.AperFunction,SMDPad,CuDef*%
%ADD22RoundRect,0.200000X-0.275000X0.200000X-0.275000X-0.200000X0.275000X-0.200000X0.275000X0.200000X0*%
%TD*%
%TA.AperFunction,SMDPad,CuDef*%
%ADD23RoundRect,0.218750X-0.218750X-0.256250X0.218750X-0.256250X0.218750X0.256250X-0.218750X0.256250X0*%
%TD*%
%TA.AperFunction,SMDPad,CuDef*%
%ADD24RoundRect,0.200000X0.275000X-0.200000X0.275000X0.200000X-0.275000X0.200000X-0.275000X-0.200000X0*%
%TD*%
%TA.AperFunction,SMDPad,CuDef*%
%ADD25RoundRect,0.200000X-0.200000X-0.275000X0.200000X-0.275000X0.200000X0.275000X-0.200000X0.275000X0*%
%TD*%
%TA.AperFunction,ComponentPad*%
%ADD26RoundRect,0.250000X-0.625000X0.350000X-0.625000X-0.350000X0.625000X-0.350000X0.625000X0.350000X0*%
%TD*%
%TA.AperFunction,ComponentPad*%
%ADD27O,1.750000X1.200000*%
%TD*%
%TA.AperFunction,SMDPad,CuDef*%
%ADD28RoundRect,0.150000X-0.150000X0.512500X-0.150000X-0.512500X0.150000X-0.512500X0.150000X0.512500X0*%
%TD*%
%TA.AperFunction,SMDPad,CuDef*%
%ADD29RoundRect,0.075000X-0.475000X0.075000X-0.475000X-0.075000X0.475000X-0.075000X0.475000X0.075000X0*%
%TD*%
%TA.AperFunction,SMDPad,CuDef*%
%ADD30FreePoly0,270.000000*%
%TD*%
%TA.AperFunction,SMDPad,CuDef*%
%ADD31FreePoly1,270.000000*%
%TD*%
%TA.AperFunction,SMDPad,CuDef*%
%ADD32RoundRect,0.225000X0.250000X-0.225000X0.250000X0.225000X-0.250000X0.225000X-0.250000X-0.225000X0*%
%TD*%
%TA.AperFunction,SMDPad,CuDef*%
%ADD33RoundRect,0.225000X0.225000X0.250000X-0.225000X0.250000X-0.225000X-0.250000X0.225000X-0.250000X0*%
%TD*%
%TA.AperFunction,ViaPad*%
%ADD34C,0.508000*%
%TD*%
%TA.AperFunction,Conductor*%
%ADD35C,0.152400*%
%TD*%
%TA.AperFunction,Conductor*%
%ADD36C,0.508000*%
%TD*%
%TA.AperFunction,Conductor*%
%ADD37C,0.254000*%
%TD*%
%TA.AperFunction,Conductor*%
%ADD38C,0.101600*%
%TD*%
%TA.AperFunction,Conductor*%
%ADD39C,0.304800*%
%TD*%
G04 APERTURE END LIST*
D10*
%TO.P,DI4,18,F_18*%
%TO.N,/time-bar/SF_ROW5*%
X157606700Y-83820000D03*
%TO.P,DI4,17,H_17*%
%TO.N,/time-bar/SF_ROW8*%
X160146700Y-83820000D03*
%TO.P,DI4,16,COM1_16*%
%TO.N,/time-bar/SF_COM2*%
X162686700Y-83820000D03*
%TO.P,DI4,15,J_15*%
%TO.N,/time-bar/SF_ROW9*%
X165226700Y-83820000D03*
%TO.P,DI4,14,K_14*%
%TO.N,/time-bar/SF_ROW10*%
X167766700Y-83820000D03*
%TO.P,DI4,13,G1_13*%
%TO.N,/time-bar/SF_ROW6*%
X170306700Y-83820000D03*
%TO.P,DI4,12,A_12*%
%TO.N,/time-bar/SF_ROW0*%
X172846700Y-83820000D03*
%TO.P,DI4,11,COM2_11*%
%TO.N,/time-bar/SF_COM3*%
X175386700Y-83820000D03*
%TO.P,DI4,10,B_10*%
%TO.N,/time-bar/SF_ROW1*%
X177926700Y-83820000D03*
%TO.P,DI4,9,C_9*%
%TO.N,/time-bar/SF_ROW2*%
X177926700Y-99060000D03*
%TO.P,DI4,8,DP_8*%
%TO.N,/time-bar/SF_ROW14*%
X175386700Y-99060000D03*
%TO.P,DI4,7,D_7*%
%TO.N,/time-bar/SF_ROW3*%
X172846700Y-99060000D03*
%TO.P,DI4,6,G2_6*%
%TO.N,/time-bar/SF_ROW7*%
X170306700Y-99060000D03*
%TO.P,DI4,5,N_5*%
%TO.N,/time-bar/SF_ROW13*%
X167766700Y-99060000D03*
%TO.P,DI4,4,M_4*%
%TO.N,/time-bar/SF_ROW12*%
X165226700Y-99060000D03*
%TO.P,DI4,3,NC_3*%
%TO.N,unconnected-(DI4-NC-Pad3)*%
X162686700Y-99060000D03*
%TO.P,DI4,2,L_2*%
%TO.N,/time-bar/SF_ROW11*%
X160146700Y-99060000D03*
%TO.P,DI4,1,E_1*%
%TO.N,/time-bar/SF_ROW4*%
X157606700Y-99060000D03*
%TD*%
D11*
%TO.P,U4,1,VSS_1*%
%TO.N,GND*%
X163144200Y-96354900D03*
%TO.P,U4,2,COM0/AD_2*%
%TO.N,/time-bar/SF_COM0*%
X161874200Y-96354900D03*
%TO.P,U4,3,COM1/KS0_3*%
%TO.N,/time-bar/SF_COM1*%
X160604200Y-96354900D03*
%TO.P,U4,4,COM2/KS1_4*%
%TO.N,/time-bar/SF_COM2*%
X159334200Y-96354900D03*
%TO.P,U4,5,COM3/KS2_5*%
%TO.N,/time-bar/SF_COM3*%
X158064200Y-96354900D03*
%TO.P,U4,6,COM4_6*%
%TO.N,Net-(U4-COM4)*%
X156794200Y-96354900D03*
%TO.P,U4,7,COM5_7*%
%TO.N,Net-(U4-COM5)*%
X155524200Y-96354900D03*
%TO.P,U4,8,COM6_8*%
%TO.N,Net-(U4-COM6)*%
X154254200Y-96354900D03*
%TO.P,U4,9,COM7_9*%
%TO.N,Net-(U4-COM7)*%
X152984200Y-96354900D03*
%TO.P,U4,10,ROW15/K13/INT_10*%
%TO.N,unconnected-(U4-ROW15{slash}K13{slash}INT-Pad10)*%
X151688800Y-96342200D03*
%TO.P,U4,11,ROW14/K12_11*%
%TO.N,/time-bar/SF_ROW14*%
X150418800Y-96342200D03*
%TO.P,U4,12,ROW13/K11_12*%
%TO.N,/time-bar/SF_ROW13*%
X149148800Y-96342200D03*
%TO.P,U4,13,ROW12/K10_13*%
%TO.N,/time-bar/SF_ROW12*%
X147878800Y-96342200D03*
%TO.P,U4,14,ROW11/K9_14*%
%TO.N,/time-bar/SF_ROW11*%
X146608800Y-96342200D03*
%TO.P,U4,15,ROW10/K8_15*%
%TO.N,/time-bar/SF_ROW10*%
X146685000Y-86525100D03*
%TO.P,U4,16,ROW9/K7_16*%
%TO.N,/time-bar/SF_ROW9*%
X147955000Y-86525100D03*
%TO.P,U4,17,ROW8/K6_17*%
%TO.N,/time-bar/SF_ROW8*%
X149225000Y-86525100D03*
%TO.P,U4,18,ROW7/K5_18*%
%TO.N,/time-bar/SF_ROW7*%
X150495000Y-86525100D03*
%TO.P,U4,19,ROW6/K4_19*%
%TO.N,/time-bar/SF_ROW6*%
X151765000Y-86525100D03*
%TO.P,U4,20,ROW5/K3_20*%
%TO.N,/time-bar/SF_ROW5*%
X152984200Y-86525100D03*
%TO.P,U4,21,ROW4/K2_21*%
%TO.N,/time-bar/SF_ROW4*%
X154254200Y-86525100D03*
%TO.P,U4,22,ROW3/K1_22*%
%TO.N,/time-bar/SF_ROW3*%
X155524200Y-86525100D03*
%TO.P,U4,23,ROW2/A0_23*%
%TO.N,/time-bar/SF_ROW2*%
X156845000Y-86525100D03*
%TO.P,U4,24,ROW1/A1_24*%
%TO.N,/time-bar/SF_ROW1*%
X158064200Y-86525100D03*
%TO.P,U4,25,ROW0/A2_25*%
%TO.N,/time-bar/SF_ROW0*%
X159334200Y-86525100D03*
%TO.P,U4,26,SCL_26*%
%TO.N,/I2C1_SCLK*%
X160604200Y-86525100D03*
%TO.P,U4,27,SDA_27*%
%TO.N,/I2C1_SDA*%
X161874200Y-86525100D03*
%TO.P,U4,28,VDD_28*%
%TO.N,+3.3V*%
X163144200Y-86525100D03*
%TD*%
D12*
%TO.P,R24,2*%
%TO.N,/time-bar/SF_COM0*%
X165481000Y-93724000D03*
%TO.P,R24,1*%
%TO.N,Net-(U4-COM4)*%
X165481000Y-94744000D03*
%TD*%
D13*
%TO.P,R25,1*%
%TO.N,Net-(U4-COM5)*%
X155448000Y-98423000D03*
%TO.P,R25,2*%
%TO.N,/time-bar/SF_COM1*%
X155448000Y-99443000D03*
%TD*%
D14*
%TO.P,R32,1*%
%TO.N,/time-bar/SF_ROW2*%
X170180000Y-93980000D03*
%TO.P,R32,2*%
%TO.N,Net-(D1-K)*%
X168530000Y-93980000D03*
%TD*%
D15*
%TO.P,D1,1,K_1*%
%TO.N,Net-(D1-K)*%
X167094500Y-92202000D03*
%TO.P,D1,2,A_2*%
%TO.N,/time-bar/SF_COM0*%
X165519500Y-92202000D03*
%TD*%
D14*
%TO.P,R31,2*%
%TO.N,Net-(D1-K)*%
X168530000Y-92202000D03*
%TO.P,R31,1*%
%TO.N,/time-bar/SF_ROW1*%
X170180000Y-92202000D03*
%TD*%
D16*
%TO.P,C7,2*%
%TO.N,GND*%
X166307000Y-89929000D03*
%TO.P,C7,1*%
%TO.N,+3.3V*%
X166307000Y-88379000D03*
%TD*%
D14*
%TO.P,R30,1*%
%TO.N,/time-bar/SF_ROW0*%
X170180000Y-89916000D03*
%TO.P,R30,2*%
%TO.N,Net-(D1-K)*%
X168530000Y-89916000D03*
%TD*%
D10*
%TO.P,DI3,1,E_1*%
%TO.N,/time-bar/SF_ROW4*%
X132206700Y-99060000D03*
%TO.P,DI3,2,L_2*%
%TO.N,/time-bar/SF_ROW11*%
X134746700Y-99060000D03*
%TO.P,DI3,3,NC_3*%
%TO.N,unconnected-(DI3-NC-Pad3)*%
X137286700Y-99060000D03*
%TO.P,DI3,4,M_4*%
%TO.N,/time-bar/SF_ROW12*%
X139826700Y-99060000D03*
%TO.P,DI3,5,N_5*%
%TO.N,/time-bar/SF_ROW13*%
X142366700Y-99060000D03*
%TO.P,DI3,6,G2_6*%
%TO.N,/time-bar/SF_ROW7*%
X144906700Y-99060000D03*
%TO.P,DI3,7,D_7*%
%TO.N,/time-bar/SF_ROW3*%
X147446700Y-99060000D03*
%TO.P,DI3,8,DP_8*%
%TO.N,/time-bar/SF_ROW14*%
X149986700Y-99060000D03*
%TO.P,DI3,9,C_9*%
%TO.N,/time-bar/SF_ROW2*%
X152526700Y-99060000D03*
%TO.P,DI3,10,B_10*%
%TO.N,/time-bar/SF_ROW1*%
X152526700Y-83820000D03*
%TO.P,DI3,11,COM2_11*%
%TO.N,/time-bar/SF_COM1*%
X149986700Y-83820000D03*
%TO.P,DI3,12,A_12*%
%TO.N,/time-bar/SF_ROW0*%
X147446700Y-83820000D03*
%TO.P,DI3,13,G1_13*%
%TO.N,/time-bar/SF_ROW6*%
X144906700Y-83820000D03*
%TO.P,DI3,14,K_14*%
%TO.N,/time-bar/SF_ROW10*%
X142366700Y-83820000D03*
%TO.P,DI3,15,J_15*%
%TO.N,/time-bar/SF_ROW9*%
X139826700Y-83820000D03*
%TO.P,DI3,16,COM1_16*%
%TO.N,/time-bar/SF_COM0*%
X137286700Y-83820000D03*
%TO.P,DI3,17,H_17*%
%TO.N,/time-bar/SF_ROW8*%
X134746700Y-83820000D03*
%TO.P,DI3,18,F_18*%
%TO.N,/time-bar/SF_ROW5*%
X132206700Y-83820000D03*
%TD*%
D17*
%TO.P,J5,1,Pin_1_1*%
%TO.N,+3.3V*%
X183006700Y-99060000D03*
D18*
%TO.P,J5,2,Pin_2_2*%
%TO.N,GND*%
X185546700Y-99060000D03*
%TO.P,J5,3,Pin_3_3*%
%TO.N,/I2C1_SDA*%
X188086700Y-99060000D03*
%TO.P,J5,4,Pin_4_4*%
%TO.N,/I2C1_SCLK*%
X190626700Y-99060000D03*
%TD*%
D10*
%TO.P,DI2,1,E_1*%
%TO.N,/time-bar/HM_ROW4*%
X127126700Y-83820000D03*
%TO.P,DI2,2,L_2*%
%TO.N,/time-bar/HM_ROW11*%
X124586700Y-83820000D03*
%TO.P,DI2,3,NC_3*%
%TO.N,unconnected-(DI2-NC-Pad3)*%
X122046700Y-83820000D03*
%TO.P,DI2,4,M_4*%
%TO.N,/time-bar/HM_ROW12*%
X119506700Y-83820000D03*
%TO.P,DI2,5,N_5*%
%TO.N,/time-bar/HM_ROW13*%
X116966700Y-83820000D03*
%TO.P,DI2,6,G2_6*%
%TO.N,/time-bar/HM_ROW7*%
X114426700Y-83820000D03*
%TO.P,DI2,7,D_7*%
%TO.N,/time-bar/HM_ROW3*%
X111886700Y-83820000D03*
%TO.P,DI2,8,DP_8*%
%TO.N,/time-bar/HM_ROW14*%
X109346700Y-83820000D03*
%TO.P,DI2,9,C_9*%
%TO.N,/time-bar/HM_ROW2*%
X106806700Y-83820000D03*
%TO.P,DI2,10,B_10*%
%TO.N,/time-bar/HM_ROW1*%
X106806700Y-99060000D03*
%TO.P,DI2,11,COM2_11*%
%TO.N,/time-bar/HM_COM1*%
X109346700Y-99060000D03*
%TO.P,DI2,12,A_12*%
%TO.N,/time-bar/HM_ROW0*%
X111886700Y-99060000D03*
%TO.P,DI2,13,G1_13*%
%TO.N,/time-bar/HM_ROW6*%
X114426700Y-99060000D03*
%TO.P,DI2,14,K_14*%
%TO.N,/time-bar/HM_ROW10*%
X116966700Y-99060000D03*
%TO.P,DI2,15,J_15*%
%TO.N,/time-bar/HM_ROW9*%
X119506700Y-99060000D03*
%TO.P,DI2,16,COM1_16*%
%TO.N,/time-bar/HM_COM0*%
X122046700Y-99060000D03*
%TO.P,DI2,17,H_17*%
%TO.N,/time-bar/HM_ROW8*%
X124586700Y-99060000D03*
%TO.P,DI2,18,F_18*%
%TO.N,/time-bar/HM_ROW5*%
X127126700Y-99060000D03*
%TD*%
D17*
%TO.P,J1,1,Pin_1_1*%
%TO.N,Net-(J1-Pin_1)*%
X223520000Y-78740000D03*
D18*
%TO.P,J1,2,Pin_2_2*%
%TO.N,Net-(J1-Pin_2)*%
X220980000Y-78740000D03*
%TO.P,J1,3,Pin_3_3*%
%TO.N,/BLINK*%
X218440000Y-78740000D03*
%TO.P,J1,4,Pin_4_4*%
%TO.N,Net-(J1-Pin_4)*%
X215900000Y-78740000D03*
%TO.P,J1,5,Pin_5_5*%
%TO.N,/SPI0_DC*%
X213360000Y-78740000D03*
%TO.P,J1,6,Pin_6_6*%
%TO.N,/SPI0_CSn*%
X210820000Y-78740000D03*
%TO.P,J1,7,Pin_7_7*%
%TO.N,/SPI0_SCK*%
X208280000Y-78740000D03*
%TO.P,J1,8,Pin_8_8*%
%TO.N,/SPI0_TX*%
X205740000Y-78740000D03*
%TO.P,J1,9,Pin_9_9*%
%TO.N,/AMP_nEN1*%
X203200000Y-78740000D03*
%TD*%
D19*
%TO.P,TP1,1,1_1*%
%TO.N,/OUTPUT*%
X207010000Y-86360000D03*
%TD*%
D10*
%TO.P,DI1,1,E_1*%
%TO.N,/time-bar/HM_ROW4*%
X101726700Y-83820000D03*
%TO.P,DI1,2,L_2*%
%TO.N,/time-bar/HM_ROW11*%
X99186700Y-83820000D03*
%TO.P,DI1,3,NC_3*%
%TO.N,unconnected-(DI1-NC-Pad3)*%
X96646700Y-83820000D03*
%TO.P,DI1,4,M_4*%
%TO.N,/time-bar/HM_ROW12*%
X94106700Y-83820000D03*
%TO.P,DI1,5,N_5*%
%TO.N,/time-bar/HM_ROW13*%
X91566700Y-83820000D03*
%TO.P,DI1,6,G2_6*%
%TO.N,/time-bar/HM_ROW7*%
X89026700Y-83820000D03*
%TO.P,DI1,7,D_7*%
%TO.N,/time-bar/HM_ROW3*%
X86486700Y-83820000D03*
%TO.P,DI1,8,DP_8*%
%TO.N,/time-bar/HM_ROW14*%
X83946700Y-83820000D03*
%TO.P,DI1,9,C_9*%
%TO.N,/time-bar/HM_ROW2*%
X81406700Y-83820000D03*
%TO.P,DI1,10,B_10*%
%TO.N,/time-bar/HM_ROW1*%
X81406700Y-99060000D03*
%TO.P,DI1,11,COM2_11*%
%TO.N,/time-bar/HM_COM3*%
X83946700Y-99060000D03*
%TO.P,DI1,12,A_12*%
%TO.N,/time-bar/HM_ROW0*%
X86486700Y-99060000D03*
%TO.P,DI1,13,G1_13*%
%TO.N,/time-bar/HM_ROW6*%
X89026700Y-99060000D03*
%TO.P,DI1,14,K_14*%
%TO.N,/time-bar/HM_ROW10*%
X91566700Y-99060000D03*
%TO.P,DI1,15,J_15*%
%TO.N,/time-bar/HM_ROW9*%
X94106700Y-99060000D03*
%TO.P,DI1,16,COM1_16*%
%TO.N,/time-bar/HM_COM2*%
X96646700Y-99060000D03*
%TO.P,DI1,17,H_17*%
%TO.N,/time-bar/HM_ROW8*%
X99186700Y-99060000D03*
%TO.P,DI1,18,F_18*%
%TO.N,/time-bar/HM_ROW5*%
X101726700Y-99060000D03*
%TD*%
D17*
%TO.P,J2,1,Pin_1_1*%
%TO.N,/VBUS*%
X223520000Y-101600000D03*
D18*
%TO.P,J2,2,Pin_2_2*%
%TO.N,GND*%
X220980000Y-101600000D03*
%TO.P,J2,3,Pin_3_3*%
%TO.N,+3.3V*%
X218440000Y-101600000D03*
%TO.P,J2,4,Pin_4_4*%
%TO.N,/ROT_SW*%
X215900000Y-101600000D03*
%TO.P,J2,5,Pin_5_5*%
%TO.N,/CLAP_SW*%
X213360000Y-101600000D03*
%TO.P,J2,6,Pin_6_6*%
%TO.N,/DETECT*%
X210820000Y-101600000D03*
%TO.P,J2,7,Pin_7_7*%
%TO.N,/SPI0_RST*%
X208280000Y-101600000D03*
%TO.P,J2,8,Pin_8_8*%
%TO.N,/I2C1_SCLK*%
X205740000Y-101600000D03*
%TO.P,J2,9,Pin_9_9*%
%TO.N,/I2C1_SDA*%
X203200000Y-101600000D03*
%TD*%
D20*
%TO.P,SW1,*%
%TO.N,*%
X200226500Y-87915000D03*
X200226500Y-94925000D03*
D21*
%TO.P,SW1,1,1_1*%
%TO.N,GND*%
X197736500Y-89165000D03*
%TO.P,SW1,2,2_2*%
%TO.N,/KEYA*%
X197736500Y-93665000D03*
%TD*%
D12*
%TO.P,R21,1*%
%TO.N,Net-(U5-COM5)*%
X104267000Y-84457000D03*
%TO.P,R21,2*%
%TO.N,/time-bar/HM_COM1*%
X104267000Y-83437000D03*
%TD*%
D14*
%TO.P,R93,1*%
%TO.N,+3.3V*%
X210140000Y-94227000D03*
%TO.P,R93,2*%
%TO.N,Net-(J99-Pin_9)*%
X208490000Y-94227000D03*
%TD*%
D18*
%TO.P,U1,1,GPIO0_1*%
%TO.N,Net-(J1-Pin_1)*%
X223520000Y-83820000D03*
%TO.P,U1,2,GPIO1_2*%
%TO.N,Net-(J1-Pin_2)*%
X220980000Y-83820000D03*
%TO.P,U1,3,GPIO2_3*%
%TO.N,/BLINK*%
X218440000Y-83820000D03*
%TO.P,U1,4,GPIO3_4*%
%TO.N,Net-(J1-Pin_4)*%
X215900000Y-83820000D03*
%TO.P,U1,5,GPIO4_5*%
%TO.N,/SPI0_DC*%
X213360000Y-83820000D03*
%TO.P,U1,6,GPIO5_6*%
%TO.N,/SPI0_CSn*%
X210820000Y-83820000D03*
%TO.P,U1,7,GPIO6_7*%
%TO.N,/SPI0_SCK*%
X208280000Y-83820000D03*
%TO.P,U1,8,GPIO7_8*%
%TO.N,/SPI0_TX*%
X205740000Y-83820000D03*
%TO.P,U1,9,GPIO8_9*%
%TO.N,/AMP_nEN1*%
X203200000Y-83820000D03*
%TO.P,U1,10,GPIO14_10*%
%TO.N,/I2C1_SDA*%
X203200000Y-99060000D03*
%TO.P,U1,11,GPIO15_11*%
%TO.N,/I2C1_SCLK*%
X205740000Y-99060000D03*
%TO.P,U1,12,GPIO26_12*%
%TO.N,/SPI0_RST*%
X208280000Y-99060000D03*
%TO.P,U1,13,GPIO27_13*%
%TO.N,/DETECT*%
X210820000Y-99060000D03*
%TO.P,U1,14,GPIO28_14*%
%TO.N,/CLAP_SW*%
X213360000Y-99060000D03*
%TO.P,U1,15,GPIO29_15*%
%TO.N,/ROT_SW*%
X215900000Y-99060000D03*
%TO.P,U1,16,3V3_16*%
%TO.N,+3.3V*%
X218440000Y-99060000D03*
%TO.P,U1,17,GND_17*%
%TO.N,GND*%
X220980000Y-99060000D03*
%TO.P,U1,18,5V_18*%
%TO.N,/VBUS*%
X223520000Y-99060000D03*
%TO.P,U1,19,GPIO9_19*%
%TO.N,/LTC_TX*%
X203210000Y-86360000D03*
%TO.P,U1,20,GPIO10_20*%
%TO.N,/nLTC_TX*%
X203210000Y-88900000D03*
%TO.P,U1,21,GPIO11_21*%
%TO.N,/LTX_RX*%
X203210000Y-91440000D03*
%TO.P,U1,22,GPIO12_22*%
%TO.N,/KEYA*%
X203210000Y-93980000D03*
%TO.P,U1,23,GPIO13_23*%
%TO.N,/AMP_nEN0*%
X203210000Y-96520000D03*
%TD*%
D14*
%TO.P,R94,1*%
%TO.N,Net-(J99-Pin_9)*%
X207092000Y-94227000D03*
%TO.P,R94,2*%
%TO.N,GND*%
X205442000Y-94227000D03*
%TD*%
D22*
%TO.P,R84,1*%
%TO.N,/sony_mi/VBAT*%
X226314000Y-86043000D03*
%TO.P,R84,2*%
%TO.N,/VBUS*%
X226314000Y-87693000D03*
%TD*%
D20*
%TO.P,SW2,*%
%TO.N,*%
X68530000Y-95611200D03*
X68530000Y-102621200D03*
D21*
%TO.P,SW2,1,1_1*%
%TO.N,GND*%
X66040000Y-96861200D03*
%TO.P,SW2,2,2_2*%
%TO.N,Net-(R15-Pad2)*%
X66040000Y-101361200D03*
%TD*%
D23*
%TO.P,D2,1,K_1*%
%TO.N,Net-(D2-K)*%
X91440300Y-90678000D03*
%TO.P,D2,2,A_2*%
%TO.N,/time-bar/HM_COM0*%
X93015300Y-90678000D03*
%TD*%
D24*
%TO.P,R90,1*%
%TO.N,/VBUS*%
X222377000Y-97218000D03*
%TO.P,R90,2*%
%TO.N,/sony_mi/PWR_UNREG*%
X222377000Y-95568000D03*
%TD*%
D14*
%TO.P,R82,1*%
%TO.N,/VBUS*%
X227393000Y-89408000D03*
%TO.P,R82,2*%
%TO.N,Net-(U80-V_{DD})*%
X225743000Y-89408000D03*
%TD*%
%TO.P,R17,1*%
%TO.N,/ROT_SW*%
X72942077Y-80518000D03*
%TO.P,R17,2*%
%TO.N,Net-(R17-Pad2)*%
X71292077Y-80518000D03*
%TD*%
D25*
%TO.P,R33,1*%
%TO.N,/time-bar/HM_ROW0*%
X88354800Y-92964000D03*
%TO.P,R33,2*%
%TO.N,Net-(D2-K)*%
X90004800Y-92964000D03*
%TD*%
D14*
%TO.P,R95,1*%
%TO.N,+3.3V*%
X210140000Y-92703000D03*
%TO.P,R95,2*%
%TO.N,Net-(J99-Pin_8)*%
X208490000Y-92703000D03*
%TD*%
D25*
%TO.P,R81,1*%
%TO.N,GND*%
X220917000Y-89662000D03*
%TO.P,R81,2*%
%TO.N,Net-(U80-PROG)*%
X222567000Y-89662000D03*
%TD*%
D17*
%TO.P,J4,1,Pin_1_1*%
%TO.N,GND*%
X222250000Y-81280000D03*
D18*
%TO.P,J4,2,Pin_2_2*%
%TO.N,+3.3V*%
X219710000Y-81280000D03*
%TO.P,J4,3,Pin_3_3*%
%TO.N,/SPI0_SCK*%
X217170000Y-81280000D03*
%TO.P,J4,4,Pin_4_4*%
%TO.N,/SPI0_TX*%
X214630000Y-81280000D03*
%TO.P,J4,5,Pin_5_5*%
%TO.N,/SPI0_RST*%
X212090000Y-81280000D03*
%TO.P,J4,6,Pin_6_6*%
%TO.N,/SPI0_DC*%
X209550000Y-81280000D03*
%TO.P,J4,7,Pin_7_7*%
%TO.N,/SPI0_CSn*%
X207010000Y-81280000D03*
%TO.P,J4,8,Pin_8_8*%
%TO.N,GND*%
X204470000Y-81280000D03*
%TD*%
D14*
%TO.P,R28,1*%
%TO.N,/I2C1_SDA*%
X90487000Y-95758000D03*
%TO.P,R28,2*%
%TO.N,+3.3V*%
X88837000Y-95758000D03*
%TD*%
D20*
%TO.P,SW3,*%
%TO.N,*%
X68530000Y-80284000D03*
X68530000Y-87294000D03*
D21*
%TO.P,SW3,1,1_1*%
%TO.N,GND*%
X66040000Y-81534000D03*
%TO.P,SW3,2,2_2*%
%TO.N,Net-(R17-Pad2)*%
X66040000Y-86034000D03*
%TD*%
D25*
%TO.P,R99,1*%
%TO.N,GND*%
X205423000Y-87884000D03*
%TO.P,R99,2*%
%TO.N,Net-(J99-Pin_4)*%
X207073000Y-87884000D03*
%TD*%
D24*
%TO.P,R83,1*%
%TO.N,/sony_mi/PWR_UNREG*%
X221036100Y-93188511D03*
%TO.P,R83,2*%
%TO.N,Net-(U80-V_{DD})*%
X221036100Y-91538511D03*
%TD*%
D12*
%TO.P,R22,1*%
%TO.N,Net-(U5-COM6)*%
X105283000Y-84965000D03*
%TO.P,R22,2*%
%TO.N,/time-bar/HM_COM2*%
X105283000Y-83945000D03*
%TD*%
D24*
%TO.P,R91,1*%
%TO.N,+3.3V*%
X208541000Y-97364000D03*
%TO.P,R91,2*%
%TO.N,Net-(J99-Pin_10)*%
X208541000Y-95714000D03*
%TD*%
D25*
%TO.P,R97,1*%
%TO.N,/OUTPUT*%
X205423000Y-90932000D03*
%TO.P,R97,2*%
%TO.N,Net-(J99-Pin_7)*%
X207073000Y-90932000D03*
%TD*%
D26*
%TO.P,J81,1,Pin_1_1*%
%TO.N,/sony_mi/VBAT*%
X198586000Y-81042000D03*
D27*
%TO.P,J81,2,Pin_2_2*%
%TO.N,GND*%
X198586000Y-83042000D03*
%TD*%
D17*
%TO.P,J6,1,Pin_1_1*%
%TO.N,/CLAP_SW*%
X73660000Y-104140000D03*
D18*
%TO.P,J6,2,Pin_2_2*%
%TO.N,GND*%
X76200000Y-104140000D03*
%TD*%
D14*
%TO.P,R92,1*%
%TO.N,Net-(J99-Pin_10)*%
X207092000Y-95751000D03*
%TO.P,R92,2*%
%TO.N,GND*%
X205442000Y-95751000D03*
%TD*%
%TO.P,R29,1*%
%TO.N,/I2C1_SCLK*%
X90487000Y-97282000D03*
%TO.P,R29,2*%
%TO.N,+3.3V*%
X88837000Y-97282000D03*
%TD*%
D28*
%TO.P,U80,1,STAT_1*%
%TO.N,unconnected-(U80-STAT-Pad1)*%
X222570000Y-85730500D03*
%TO.P,U80,2,V_{SS}_2*%
%TO.N,GND*%
X223520000Y-85730500D03*
%TO.P,U80,3,V_{BAT}_3*%
%TO.N,/sony_mi/VBAT*%
X224470000Y-85730500D03*
%TO.P,U80,4,V_{DD}_4*%
%TO.N,Net-(U80-V_{DD})*%
X224470000Y-88005500D03*
%TO.P,U80,5,PROG_5*%
%TO.N,Net-(U80-PROG)*%
X222570000Y-88005500D03*
%TD*%
D14*
%TO.P,R96,1*%
%TO.N,Net-(J99-Pin_8)*%
X207092000Y-92703000D03*
%TO.P,R96,2*%
%TO.N,GND*%
X205442000Y-92703000D03*
%TD*%
%TO.P,R18,1*%
%TO.N,/CLAP_SW*%
X72942077Y-82550000D03*
%TO.P,R18,2*%
%TO.N,Net-(R17-Pad2)*%
X71292077Y-82550000D03*
%TD*%
%TO.P,R15,1*%
%TO.N,/KEYA*%
X72948900Y-101092000D03*
%TO.P,R15,2*%
%TO.N,Net-(R15-Pad2)*%
X71298900Y-101092000D03*
%TD*%
D16*
%TO.P,C82,1*%
%TO.N,GND*%
X226314000Y-83045000D03*
%TO.P,C82,2*%
%TO.N,/sony_mi/VBAT*%
X226314000Y-84595000D03*
%TD*%
D25*
%TO.P,R98,1*%
%TO.N,/OUTPUT*%
X205423000Y-89408000D03*
%TO.P,R98,2*%
%TO.N,Net-(J99-Pin_6)*%
X207073000Y-89408000D03*
%TD*%
D13*
%TO.P,R26,1*%
%TO.N,Net-(U4-COM6)*%
X154305000Y-98042000D03*
%TO.P,R26,2*%
%TO.N,/time-bar/SF_COM2*%
X154305000Y-99062000D03*
%TD*%
D29*
%TO.P,J99,1,Pin_1_1*%
%TO.N,GND*%
X214108000Y-89444000D03*
%TO.P,J99,2,Pin_2_2*%
%TO.N,/sony_mi/PWR_UNREG*%
X214108000Y-89944000D03*
%TO.P,J99,3,Pin_3_3*%
%TO.N,GND*%
X214108000Y-90444000D03*
%TO.P,J99,4,Pin_4_4*%
%TO.N,Net-(J99-Pin_4)*%
X214108000Y-90944000D03*
%TO.P,J99,5,Pin_5_5*%
%TO.N,GND*%
X214108000Y-91444000D03*
%TO.P,J99,6,Pin_6_6*%
%TO.N,Net-(J99-Pin_6)*%
X214108000Y-91944000D03*
%TO.P,J99,7,Pin_7_7*%
%TO.N,Net-(J99-Pin_7)*%
X214108000Y-92444000D03*
%TO.P,J99,8,Pin_8_8*%
%TO.N,Net-(J99-Pin_8)*%
X214108000Y-92944000D03*
%TO.P,J99,9,Pin_9_9*%
%TO.N,Net-(J99-Pin_9)*%
X214108000Y-93444000D03*
%TO.P,J99,10,Pin_10_10*%
%TO.N,Net-(J99-Pin_10)*%
X214108000Y-93944000D03*
D30*
%TO.P,J99,MP*%
%TO.N,N/C*%
X215233000Y-87194000D03*
D31*
X215233000Y-96194000D03*
%TD*%
D25*
%TO.P,R34,1*%
%TO.N,/time-bar/HM_ROW1*%
X88227800Y-90678000D03*
%TO.P,R34,2*%
%TO.N,Net-(D2-K)*%
X89877800Y-90678000D03*
%TD*%
D32*
%TO.P,C8,1*%
%TO.N,+3.3V*%
X92227800Y-94628000D03*
%TO.P,C8,2*%
%TO.N,GND*%
X92227800Y-93078000D03*
%TD*%
D13*
%TO.P,R20,1*%
%TO.N,Net-(U5-COM4)*%
X93091000Y-88009000D03*
%TO.P,R20,2*%
%TO.N,/time-bar/HM_COM0*%
X93091000Y-89029000D03*
%TD*%
D14*
%TO.P,R16,1*%
%TO.N,/CLAP_SW*%
X72948900Y-99060000D03*
%TO.P,R16,2*%
%TO.N,Net-(R15-Pad2)*%
X71298900Y-99060000D03*
%TD*%
D33*
%TO.P,C81,1*%
%TO.N,GND*%
X226073000Y-90932000D03*
%TO.P,C81,2*%
%TO.N,Net-(U80-V_{DD})*%
X224523000Y-90932000D03*
%TD*%
D11*
%TO.P,U5,1,VSS_1*%
%TO.N,GND*%
X96291400Y-86512400D03*
%TO.P,U5,2,COM0/AD_2*%
%TO.N,/time-bar/HM_COM0*%
X97561400Y-86512400D03*
%TO.P,U5,3,COM1/KS0_3*%
%TO.N,/time-bar/HM_COM1*%
X98831400Y-86512400D03*
%TO.P,U5,4,COM2/KS1_4*%
%TO.N,/time-bar/HM_COM2*%
X100101400Y-86512400D03*
%TO.P,U5,5,COM3/KS2_5*%
%TO.N,/time-bar/HM_COM3*%
X101371400Y-86512400D03*
%TO.P,U5,6,COM4_6*%
%TO.N,Net-(U5-COM4)*%
X102641400Y-86512400D03*
%TO.P,U5,7,COM5_7*%
%TO.N,Net-(U5-COM5)*%
X103911400Y-86512400D03*
%TO.P,U5,8,COM6_8*%
%TO.N,Net-(U5-COM6)*%
X105181400Y-86512400D03*
%TO.P,U5,9,COM7_9*%
%TO.N,Net-(U5-COM7)*%
X106451400Y-86512400D03*
%TO.P,U5,10,ROW15/K13/INT_10*%
%TO.N,unconnected-(U5-ROW15{slash}K13{slash}INT-Pad10)*%
X107746800Y-86525100D03*
%TO.P,U5,11,ROW14/K12_11*%
%TO.N,/time-bar/HM_ROW14*%
X109016800Y-86525100D03*
%TO.P,U5,12,ROW13/K11_12*%
%TO.N,/time-bar/HM_ROW13*%
X110286800Y-86525100D03*
%TO.P,U5,13,ROW12/K10_13*%
%TO.N,/time-bar/HM_ROW12*%
X111556800Y-86525100D03*
%TO.P,U5,14,ROW11/K9_14*%
%TO.N,/time-bar/HM_ROW11*%
X112826800Y-86525100D03*
%TO.P,U5,15,ROW10/K8_15*%
%TO.N,/time-bar/HM_ROW10*%
X112750600Y-96342200D03*
%TO.P,U5,16,ROW9/K7_16*%
%TO.N,/time-bar/HM_ROW9*%
X111480600Y-96342200D03*
%TO.P,U5,17,ROW8/K6_17*%
%TO.N,/time-bar/HM_ROW8*%
X110210600Y-96342200D03*
%TO.P,U5,18,ROW7/K5_18*%
%TO.N,/time-bar/HM_ROW7*%
X108940600Y-96342200D03*
%TO.P,U5,19,ROW6/K4_19*%
%TO.N,/time-bar/HM_ROW6*%
X107670600Y-96342200D03*
%TO.P,U5,20,ROW5/K3_20*%
%TO.N,/time-bar/HM_ROW5*%
X106451400Y-96342200D03*
%TO.P,U5,21,ROW4/K2_21*%
%TO.N,/time-bar/HM_ROW4*%
X105181400Y-96342200D03*
%TO.P,U5,22,ROW3/K1_22*%
%TO.N,/time-bar/HM_ROW3*%
X103911400Y-96342200D03*
%TO.P,U5,23,ROW2/A0_23*%
%TO.N,/time-bar/HM_ROW2*%
X102590600Y-96342200D03*
%TO.P,U5,24,ROW1/A1_24*%
%TO.N,/time-bar/HM_ROW1*%
X101371400Y-96342200D03*
%TO.P,U5,25,ROW0/A2_25*%
%TO.N,/time-bar/HM_ROW0*%
X100101400Y-96342200D03*
%TO.P,U5,26,SCL_26*%
%TO.N,/I2C1_SCLK*%
X98831400Y-96342200D03*
%TO.P,U5,27,SDA_27*%
%TO.N,/I2C1_SDA*%
X97561400Y-96342200D03*
%TO.P,U5,28,VDD_28*%
%TO.N,+3.3V*%
X96291400Y-96342200D03*
%TD*%
D25*
%TO.P,R35,1*%
%TO.N,/time-bar/HM_ROW2*%
X88227800Y-88900000D03*
%TO.P,R35,2*%
%TO.N,Net-(D2-K)*%
X89877800Y-88900000D03*
%TD*%
D34*
%TO.N,Net-(U5-COM4)*%
X102616000Y-88900000D03*
X96647000Y-89662000D03*
%TO.N,Net-(U5-COM7)*%
X105664000Y-88773000D03*
%TO.N,Net-(U4-COM4)*%
X156845000Y-94107000D03*
X162687000Y-93218000D03*
%TO.N,Net-(U4-COM7)*%
X154305000Y-94488000D03*
%TO.N,/time-bar/HM_ROW1*%
X87630000Y-91948000D03*
%TO.N,/time-bar/HM_ROW0*%
X87693350Y-94297350D03*
%TO.N,GND*%
X166307000Y-96266000D03*
%TO.N,/time-bar/SF_ROW0*%
X171196000Y-89154000D03*
%TO.N,/time-bar/SF_ROW1*%
X170180000Y-90932000D03*
%TO.N,/time-bar/HM_ROW9*%
X116903350Y-101828600D03*
%TO.N,/time-bar/HM_ROW4*%
X107568700Y-89662000D03*
%TO.N,/time-bar/HM_ROW3*%
X89280700Y-81026000D03*
%TO.N,/time-bar/HM_ROW0*%
X99313700Y-93980000D03*
%TO.N,/time-bar/HM_ROW12*%
X117220700Y-81280000D03*
%TO.N,/time-bar/HM_ROW7*%
X92392350Y-80543400D03*
%TO.N,/time-bar/HM_ROW1*%
X100202700Y-93472000D03*
%TO.N,/time-bar/HM_ROW2*%
X91820700Y-82042000D03*
%TO.N,/time-bar/HM_ROW13*%
X117094000Y-89408000D03*
%TO.N,/time-bar/HM_ROW12*%
X119634000Y-88874600D03*
%TO.N,/time-bar/HM_COM3*%
X101346000Y-88646000D03*
%TO.N,GND*%
X92227500Y-86614000D03*
%TO.N,/time-bar/HM_ROW2*%
X106934000Y-88138000D03*
%TO.N,/time-bar/HM_ROW7*%
X113728350Y-89979650D03*
%TO.N,/time-bar/HM_ROW11*%
X123062700Y-81788000D03*
%TO.N,/time-bar/HM_ROW6*%
X91820700Y-101600000D03*
%TO.N,/time-bar/HM_ROW3*%
X106298700Y-90144600D03*
%TO.N,/time-bar/HM_ROW13*%
X114299700Y-80797400D03*
%TO.N,/I2C1_SDA*%
X97662700Y-92202000D03*
%TO.N,/time-bar/HM_ROW10*%
X94868700Y-102108000D03*
%TO.N,/time-bar/HM_COM0*%
X100710700Y-92456000D03*
%TO.N,/I2C1_SCLK*%
X98932700Y-91694000D03*
%TO.N,/time-bar/HM_COM2*%
X101980700Y-94234000D03*
%TO.N,/time-bar/HM_COM1*%
X101218700Y-93472000D03*
%TO.N,/time-bar/HM_ROW0*%
X88518700Y-101092000D03*
%TO.N,/time-bar/SF_COM1*%
X158242000Y-89408000D03*
%TO.N,/time-bar/SF_COM3*%
X157988000Y-94742000D03*
%TO.N,/time-bar/SF_ROW0*%
X160020000Y-88900000D03*
%TO.N,/time-bar/SF_ROW1*%
X159258000Y-89408000D03*
%TO.N,/time-bar/SF_COM2*%
X157480000Y-88646000D03*
%TO.N,/time-bar/SF_ROW2*%
X167640000Y-100838000D03*
%TO.N,/time-bar/SF_COM0*%
X158750000Y-90424000D03*
%TO.N,/time-bar/SF_ROW13*%
X142366700Y-93472000D03*
%TO.N,/time-bar/SF_ROW4*%
X151892000Y-93218000D03*
%TO.N,/time-bar/SF_ROW11*%
X136398000Y-101092000D03*
%TO.N,/time-bar/SF_ROW12*%
X139826700Y-94005400D03*
X142240000Y-101600000D03*
%TO.N,/time-bar/SF_ROW13*%
X145161000Y-102082600D03*
%TO.N,/time-bar/SF_ROW3*%
X153162000Y-92735400D03*
%TO.N,/time-bar/SF_ROW9*%
X142557350Y-81051400D03*
%TO.N,/time-bar/SF_ROW7*%
X167068350Y-102336600D03*
X145732350Y-92900350D03*
%TO.N,/time-bar/SF_ROW10*%
X164592000Y-80772000D03*
%TO.N,/I2C1_SCLK*%
X160528000Y-90170000D03*
%TO.N,/time-bar/SF_ROW2*%
X152526700Y-94742000D03*
%TO.N,/time-bar/SF_ROW3*%
X170180000Y-101854000D03*
%TO.N,/time-bar/SF_ROW6*%
X167640000Y-81280000D03*
%TO.N,/I2C1_SDA*%
X161798000Y-90678000D03*
%TO.N,/time-bar/SF_ROW0*%
X170942000Y-81788000D03*
%TO.N,+3.3V*%
X212242100Y-93136011D03*
%TO.N,GND*%
X225806000Y-93472000D03*
%TO.N,/ROT_SW*%
X78866700Y-78740000D03*
X192150700Y-96520000D03*
%TO.N,/CLAP_SW*%
X79559794Y-79546406D03*
X191516000Y-97282000D03*
%TO.N,/SPI0_RST*%
X212705777Y-85725000D03*
%TO.N,/I2C1_SCLK*%
X190626700Y-94513400D03*
%TO.N,/KEYA*%
X198812098Y-92651013D03*
%TO.N,/sony_mi/VBAT*%
X225044000Y-83312000D03*
%TO.N,/sony_mi/PWR_UNREG*%
X220980000Y-94996000D03*
X212724700Y-90170000D03*
%TD*%
%TO.N,/I2C1_SDA*%
D35*
X190118700Y-95123000D02*
X190118700Y-93726000D01*
X192786000Y-95758000D02*
X192151000Y-95123000D01*
X193345548Y-97256600D02*
X192786000Y-96697052D01*
X198983300Y-97256600D02*
X193345548Y-97256600D01*
X192786000Y-96697052D02*
X192786000Y-95758000D01*
X192151000Y-95123000D02*
X190118700Y-95123000D01*
X201022211Y-99295511D02*
X198983300Y-97256600D01*
X203352100Y-99295511D02*
X201022211Y-99295511D01*
%TO.N,/I2C1_SCLK*%
X204978000Y-99060000D02*
X205740000Y-99060000D01*
X203708000Y-97790000D02*
X204978000Y-99060000D01*
X199947752Y-97790000D02*
X203708000Y-97790000D01*
X199109552Y-96951800D02*
X199947752Y-97790000D01*
X193471800Y-96951800D02*
X199109552Y-96951800D01*
X193090800Y-96570800D02*
X193471800Y-96951800D01*
X193090800Y-95631748D02*
X193090800Y-96570800D01*
X190626700Y-94513400D02*
X191972452Y-94513400D01*
X161290000Y-84836000D02*
X160604200Y-85521800D01*
X186562700Y-84836000D02*
X161290000Y-84836000D01*
X190626700Y-94513400D02*
X190626700Y-88900000D01*
X191972452Y-94513400D02*
X193090800Y-95631748D01*
X190626700Y-88900000D02*
X186562700Y-84836000D01*
X160604200Y-85521800D02*
X160604200Y-86525100D01*
%TO.N,Net-(U5-COM4)*%
X102616000Y-86537800D02*
X102641400Y-86512400D01*
X102616000Y-88900000D02*
X102616000Y-86537800D01*
X94994000Y-88009000D02*
X96647000Y-89662000D01*
X93091000Y-88009000D02*
X94994000Y-88009000D01*
%TO.N,/time-bar/HM_COM0*%
X93091000Y-90602300D02*
X93015300Y-90678000D01*
X93091000Y-89029000D02*
X93091000Y-90602300D01*
%TO.N,/time-bar/HM_COM2*%
X100101400Y-85445600D02*
X100101400Y-86512400D01*
X100253800Y-85293200D02*
X100101400Y-85445600D01*
X102311200Y-85267800D02*
X100253800Y-85267800D01*
X100253800Y-85267800D02*
X100253800Y-85293200D01*
X102336974Y-85242026D02*
X102311200Y-85267800D01*
X103634000Y-83945000D02*
X102336974Y-85242026D01*
X105283000Y-83945000D02*
X103634000Y-83945000D01*
%TO.N,/time-bar/HM_COM1*%
X98831400Y-85191600D02*
X98831400Y-86512400D01*
X99060000Y-84963000D02*
X98831400Y-85191600D01*
X101981000Y-84963000D02*
X99060000Y-84963000D01*
X102133400Y-84810600D02*
X101981000Y-84963000D01*
X103507000Y-83437000D02*
X102717300Y-84226700D01*
X104267000Y-83437000D02*
X103507000Y-83437000D01*
X102717300Y-84226700D02*
X102717300Y-84230320D01*
X102717300Y-84230320D02*
X102137020Y-84810600D01*
X102137020Y-84810600D02*
X102133400Y-84810600D01*
%TO.N,Net-(U5-COM5)*%
X104267000Y-85217000D02*
X104267000Y-84457000D01*
X103911400Y-85572600D02*
X104267000Y-85217000D01*
X103911400Y-86512400D02*
X103911400Y-85572600D01*
%TO.N,Net-(U5-COM6)*%
X105181400Y-85066600D02*
X105283000Y-84965000D01*
X105181400Y-86512400D02*
X105181400Y-85066600D01*
%TO.N,Net-(U5-COM7)*%
X106451400Y-87985600D02*
X105664000Y-88773000D01*
X106451400Y-86512400D02*
X106451400Y-87985600D01*
%TO.N,/time-bar/HM_COM3*%
X101371400Y-86512400D02*
X101383800Y-86512400D01*
X101383800Y-86512400D02*
X101396500Y-86525100D01*
X101346000Y-86537800D02*
X101371400Y-86512400D01*
X101346000Y-88646000D02*
X101346000Y-86537800D01*
%TO.N,Net-(U4-COM4)*%
X156845000Y-94107000D02*
X156794200Y-94157800D01*
X156794200Y-94157800D02*
X156794200Y-96354900D01*
X162687000Y-93726000D02*
X162687000Y-93218000D01*
X163705000Y-94744000D02*
X162687000Y-93726000D01*
X165481000Y-94744000D02*
X163705000Y-94744000D01*
%TO.N,/time-bar/SF_COM0*%
X165481000Y-92240500D02*
X165519500Y-92202000D01*
X165481000Y-93724000D02*
X165481000Y-92240500D01*
%TO.N,Net-(U4-COM7)*%
X152984200Y-95046800D02*
X152984200Y-96354900D01*
X153543000Y-94488000D02*
X152984200Y-95046800D01*
X154305000Y-94488000D02*
X153543000Y-94488000D01*
%TO.N,/time-bar/SF_COM2*%
X159334200Y-97612200D02*
X159334200Y-96354900D01*
X155775950Y-98933000D02*
X157045950Y-97663000D01*
X157045950Y-97663000D02*
X159283400Y-97663000D01*
X154434000Y-98933000D02*
X155775950Y-98933000D01*
X154305000Y-99062000D02*
X154434000Y-98933000D01*
X159283400Y-97663000D02*
X159334200Y-97612200D01*
%TO.N,/time-bar/SF_COM1*%
X160604200Y-97713800D02*
X160604200Y-96354900D01*
X160274000Y-98044000D02*
X160604200Y-97713800D01*
X156210000Y-98933000D02*
X157099000Y-98044000D01*
X155954000Y-99443000D02*
X156210000Y-99187000D01*
X156210000Y-99187000D02*
X156210000Y-98933000D01*
X157099000Y-98044000D02*
X160274000Y-98044000D01*
X155448000Y-99443000D02*
X155954000Y-99443000D01*
%TO.N,Net-(U4-COM6)*%
X154254200Y-96354900D02*
X154254200Y-98245200D01*
%TO.N,/time-bar/HM_COM0*%
X97583200Y-90678000D02*
X97586500Y-90681300D01*
X93015300Y-90678000D02*
X97583200Y-90678000D01*
%TO.N,/time-bar/HM_ROW4*%
X105179600Y-96340400D02*
X105181400Y-96342200D01*
X105179600Y-92305100D02*
X105179600Y-96340400D01*
X107568700Y-89916000D02*
X105179600Y-92305100D01*
X107568700Y-89662000D02*
X107568700Y-89916000D01*
%TO.N,+3.3V*%
D36*
X183006700Y-97536000D02*
X183006700Y-101600000D01*
X175260000Y-95250000D02*
X180720700Y-95250000D01*
X180720700Y-95250000D02*
X183006700Y-97536000D01*
X173228000Y-93218000D02*
X175260000Y-95250000D01*
X171945000Y-88379000D02*
X173228000Y-89662000D01*
X173228000Y-89662000D02*
X173228000Y-93218000D01*
%TO.N,/time-bar/HM_ROW0*%
D35*
X88354800Y-93635900D02*
X88354800Y-92964000D01*
X87693350Y-94297350D02*
X88354800Y-93635900D01*
%TO.N,/time-bar/HM_ROW1*%
X88227800Y-91350200D02*
X87630000Y-91948000D01*
X88227800Y-90678000D02*
X88227800Y-91350200D01*
%TO.N,+3.3V*%
D36*
X88837000Y-95313000D02*
X88837000Y-95758000D01*
X89522000Y-94628000D02*
X88837000Y-95313000D01*
X92227800Y-94628000D02*
X89522000Y-94628000D01*
X180802689Y-103804011D02*
X183006700Y-101600000D01*
X78327377Y-103092677D02*
X79038712Y-103804011D01*
X78327377Y-97694623D02*
X78327377Y-103092677D01*
X80264000Y-95758000D02*
X78327377Y-97694623D01*
X79038712Y-103804011D02*
X180802689Y-103804011D01*
X88837000Y-95758000D02*
X80264000Y-95758000D01*
%TO.N,/time-bar/HM_ROW2*%
D35*
X88354500Y-88900000D02*
X88354500Y-87032200D01*
X90296700Y-85090000D02*
X88354500Y-87032200D01*
X91820700Y-82042000D02*
X90296700Y-83566000D01*
X90296700Y-83566000D02*
X90296700Y-85090000D01*
%TO.N,+3.3V*%
D36*
X93230700Y-94628000D02*
X92227800Y-94628000D01*
X94957600Y-96354900D02*
X93230700Y-94628000D01*
X96316500Y-96354900D02*
X94957600Y-96354900D01*
%TO.N,/I2C1_SDA*%
D35*
X93599000Y-97536000D02*
X97028000Y-97536000D01*
X97028000Y-97536000D02*
X97561400Y-97002600D01*
X91821000Y-95758000D02*
X93599000Y-97536000D01*
X97561400Y-97002600D02*
X97561400Y-96342200D01*
X90487000Y-95758000D02*
X91821000Y-95758000D01*
%TO.N,/I2C1_SCLK*%
X98831400Y-97256600D02*
X98831400Y-96342200D01*
X91617800Y-97840800D02*
X98247200Y-97840800D01*
X91059000Y-97282000D02*
X91617800Y-97840800D01*
X98247200Y-97840800D02*
X98831400Y-97256600D01*
X90487000Y-97282000D02*
X91059000Y-97282000D01*
%TO.N,GND*%
D36*
X96189800Y-86614000D02*
X96291400Y-86512400D01*
X92227500Y-86614000D02*
X96189800Y-86614000D01*
%TO.N,/time-bar/SF_COM0*%
D35*
X161877500Y-92202000D02*
X161874200Y-92198700D01*
X165519500Y-92202000D02*
X161877500Y-92202000D01*
%TO.N,+3.3V*%
D36*
X165964100Y-86525100D02*
X163144200Y-86525100D01*
X166307000Y-86868000D02*
X165964100Y-86525100D01*
%TO.N,GND*%
X166307000Y-96266000D02*
X163233100Y-96266000D01*
%TO.N,/time-bar/SF_ROW2*%
D35*
X169164000Y-97790000D02*
X170180000Y-96774000D01*
%TO.N,/time-bar/SF_ROW0*%
X170434000Y-89916000D02*
X171196000Y-89154000D01*
X170180000Y-89916000D02*
X170434000Y-89916000D01*
%TO.N,/time-bar/SF_ROW1*%
X170180000Y-90932000D02*
X170180000Y-92202000D01*
%TO.N,Net-(D1-K)*%
X168530000Y-93980000D02*
X168530000Y-92202000D01*
%TO.N,GND*%
D37*
X166307000Y-96266000D02*
X166307000Y-89929000D01*
%TO.N,Net-(D1-K)*%
D35*
X167094500Y-92202000D02*
X168530000Y-92202000D01*
%TO.N,/time-bar/SF_ROW2*%
X170180000Y-93980000D02*
X170180000Y-96774000D01*
%TO.N,+3.3V*%
D36*
X166307000Y-88379000D02*
X166307000Y-86868000D01*
%TO.N,Net-(D1-K)*%
D35*
X168530000Y-92202000D02*
X168530000Y-89916000D01*
%TO.N,+3.3V*%
D36*
X166307000Y-88379000D02*
X171882000Y-88379000D01*
%TO.N,/time-bar/SF_ROW0*%
D35*
X159334200Y-88214200D02*
X159334200Y-86525100D01*
X160020000Y-88900000D02*
X159334200Y-88214200D01*
%TO.N,/time-bar/SF_ROW4*%
X154281100Y-86552000D02*
X154254200Y-86525100D01*
X154281100Y-90574900D02*
X154281100Y-86552000D01*
X151892000Y-92964000D02*
X154281100Y-90574900D01*
X151892000Y-93218000D02*
X151892000Y-92964000D01*
%TO.N,/I2C1_SDA*%
X162534600Y-85407500D02*
X161874200Y-86067900D01*
X161874200Y-86067900D02*
X161874200Y-86525100D01*
X186372200Y-85407500D02*
X162534600Y-85407500D01*
X190118700Y-89154000D02*
X186372200Y-85407500D01*
X190118700Y-93726000D02*
X190118700Y-89154000D01*
%TO.N,/I2C1_SCLK*%
X98806000Y-91820700D02*
X98806000Y-96304400D01*
X98932700Y-91694000D02*
X98806000Y-91820700D01*
X98806000Y-96304400D02*
X98856500Y-96354900D01*
%TO.N,+3.3V*%
D36*
X88900000Y-95695000D02*
X88837000Y-95758000D01*
X88837000Y-95758000D02*
X88837000Y-97282000D01*
%TO.N,/time-bar/HM_ROW4*%
D35*
X103378000Y-82296000D02*
X101854000Y-83820000D01*
%TO.N,/time-bar/HM_ROW6*%
X113284000Y-97790000D02*
X108076700Y-97790000D01*
X107695700Y-97409000D02*
X107695700Y-96354900D01*
%TO.N,/time-bar/HM_ROW9*%
X111505700Y-94361000D02*
X111505700Y-96354900D01*
%TO.N,/time-bar/HM_ROW12*%
X111581900Y-88087200D02*
X111581900Y-86537800D01*
%TO.N,/time-bar/HM_ROW1*%
X101472700Y-97790000D02*
X101396500Y-97713800D01*
%TO.N,/time-bar/HM_ROW6*%
X114554000Y-99060000D02*
X113284000Y-97790000D01*
%TO.N,/time-bar/HM_ROW8*%
X118998700Y-93218000D02*
X110870700Y-93218000D01*
%TO.N,/time-bar/HM_ROW0*%
X109982000Y-101092000D02*
X112014000Y-99060000D01*
%TO.N,/time-bar/HM_ROW1*%
X103758700Y-99060000D02*
X102488700Y-97790000D01*
%TO.N,/time-bar/HM_ROW10*%
X117094000Y-94996000D02*
X116332000Y-94234000D01*
%TO.N,/time-bar/HM_ROW13*%
X114274300Y-80772000D02*
X94742000Y-80772000D01*
%TO.N,/time-bar/HM_COM1*%
X98856500Y-89585800D02*
X98856500Y-86525100D01*
%TO.N,/time-bar/HM_ROW12*%
X112394700Y-88900000D02*
X111581900Y-88087200D01*
%TO.N,/time-bar/HM_ROW8*%
X124714000Y-98933300D02*
X118998700Y-93218000D01*
%TO.N,/time-bar/HM_COM0*%
X100710700Y-92456000D02*
X98932700Y-90678000D01*
%TO.N,/time-bar/HM_ROW12*%
X96774000Y-81280000D02*
X94234000Y-83820000D01*
%TO.N,/time-bar/HM_ROW6*%
X91820700Y-101600000D02*
X112014000Y-101600000D01*
%TO.N,/time-bar/HM_ROW3*%
X86614000Y-83692700D02*
X86614000Y-83820000D01*
%TO.N,/time-bar/HM_ROW10*%
X94868700Y-102108000D02*
X114046000Y-102108000D01*
X117094000Y-99060000D02*
X117094000Y-94996000D01*
%TO.N,/time-bar/HM_ROW1*%
X101396500Y-94665800D02*
X101396500Y-96354900D01*
%TO.N,/time-bar/HM_ROW9*%
X119634000Y-99060000D02*
X119634000Y-95123300D01*
%TO.N,/time-bar/HM_ROW0*%
X88518700Y-101092000D02*
X109982000Y-101092000D01*
%TO.N,/time-bar/HM_ROW9*%
X116903350Y-101790650D02*
X119634000Y-99060000D01*
%TO.N,/I2C1_SDA*%
X97586500Y-96354900D02*
X97586500Y-92278200D01*
%TO.N,/time-bar/HM_COM2*%
X100126500Y-86525100D02*
X100126500Y-88569800D01*
%TO.N,/time-bar/HM_ROW4*%
X127254000Y-83820000D02*
X125730000Y-82296000D01*
%TO.N,/time-bar/HM_ROW13*%
X114299700Y-80797400D02*
X114274300Y-80772000D01*
%TO.N,/time-bar/HM_COM0*%
X98932700Y-90678000D02*
X97589800Y-90678000D01*
%TO.N,/time-bar/HM_ROW2*%
X106934000Y-88138000D02*
X106934000Y-88772700D01*
%TO.N,GND*%
D36*
X96227600Y-86614000D02*
X96316500Y-86525100D01*
%TO.N,/time-bar/HM_ROW5*%
D35*
X101854000Y-99060000D02*
X103378000Y-100584000D01*
%TO.N,/time-bar/HM_ROW1*%
X100202700Y-93472000D02*
X101396500Y-94665800D01*
%TO.N,/time-bar/HM_ROW6*%
X112014000Y-101600000D02*
X114554000Y-99060000D01*
%TO.N,/time-bar/HM_ROW11*%
X101346000Y-81788000D02*
X99314000Y-83820000D01*
%TO.N,/time-bar/HM_ROW5*%
X106476500Y-97104200D02*
X106476500Y-96354900D01*
%TO.N,/time-bar/HM_ROW11*%
X112851900Y-87833200D02*
X112851900Y-86537800D01*
%TO.N,GND*%
D37*
X92227500Y-86614000D02*
X92227500Y-92951000D01*
%TO.N,/time-bar/HM_ROW11*%
D35*
X124714000Y-84836000D02*
X121158000Y-88392000D01*
%TO.N,/time-bar/HM_ROW8*%
X110235700Y-93853000D02*
X110235700Y-96354900D01*
%TO.N,/time-bar/HM_ROW1*%
X106934000Y-99060000D02*
X103758700Y-99060000D01*
%TO.N,/time-bar/HM_ROW12*%
X119634000Y-88874600D02*
X119608600Y-88900000D01*
%TO.N,Net-(D2-K)*%
X90004500Y-90678000D02*
X90004500Y-92964000D01*
%TO.N,/time-bar/HM_ROW2*%
X106934000Y-88772700D02*
X102615700Y-93091000D01*
%TO.N,/time-bar/HM_ROW8*%
X110870700Y-93218000D02*
X110235700Y-93853000D01*
%TO.N,/time-bar/HM_ROW0*%
X99313700Y-94107000D02*
X100126500Y-94919800D01*
%TO.N,/time-bar/HM_ROW7*%
X110870700Y-91186000D02*
X108965700Y-93091000D01*
%TO.N,/time-bar/HM_ROW13*%
X94742000Y-80772000D02*
X91694000Y-83820000D01*
%TO.N,Net-(D2-K)*%
X91440000Y-90678000D02*
X90004500Y-90678000D01*
%TO.N,/time-bar/HM_ROW5*%
X103378000Y-100584000D02*
X107314700Y-100584000D01*
%TO.N,/time-bar/HM_ROW14*%
X109041900Y-86537800D02*
X109041900Y-84252100D01*
%TO.N,/time-bar/HM_COM1*%
X101218700Y-93472000D02*
X101218700Y-91948000D01*
%TO.N,/time-bar/HM_ROW7*%
X108965700Y-93091000D02*
X108965700Y-96354900D01*
%TO.N,/time-bar/HM_ROW13*%
X110311900Y-88798400D02*
X110311900Y-86537800D01*
%TO.N,/time-bar/HM_ROW9*%
X116903350Y-101828600D02*
X116903350Y-101790650D01*
%TO.N,/time-bar/HM_ROW12*%
X117220700Y-81280000D02*
X96774000Y-81280000D01*
%TO.N,/time-bar/HM_ROW9*%
X119634000Y-95123300D02*
X118236700Y-93726000D01*
%TO.N,/time-bar/HM_ROW14*%
X109041900Y-84252100D02*
X109474000Y-83820000D01*
%TO.N,/time-bar/HM_ROW3*%
X106298700Y-90170000D02*
X103936500Y-92532200D01*
%TO.N,/time-bar/HM_ROW7*%
X92392350Y-80543400D02*
X92392350Y-80581650D01*
%TO.N,/time-bar/HM_ROW6*%
X108076700Y-97790000D02*
X107695700Y-97409000D01*
%TO.N,/time-bar/HM_COM1*%
X101218700Y-91948000D02*
X98856500Y-89585800D01*
%TO.N,Net-(D2-K)*%
X90004500Y-88900000D02*
X90004500Y-90678000D01*
%TO.N,/time-bar/HM_ROW8*%
X124714000Y-99060000D02*
X124714000Y-98933300D01*
%TO.N,/time-bar/HM_ROW3*%
X89280700Y-81026000D02*
X86614000Y-83692700D01*
%TO.N,/time-bar/HM_ROW5*%
X108076700Y-99822000D02*
X108076700Y-98552000D01*
%TO.N,/time-bar/HM_ROW10*%
X116332000Y-94234000D02*
X113156700Y-94234000D01*
%TO.N,/time-bar/HM_ROW7*%
X113728350Y-89979650D02*
X112522000Y-91186000D01*
X92392350Y-80581650D02*
X89154000Y-83820000D01*
%TO.N,/time-bar/HM_ROW1*%
X102488700Y-97790000D02*
X101472700Y-97790000D01*
%TO.N,/time-bar/HM_COM2*%
X100126500Y-88569800D02*
X101980700Y-90424000D01*
%TO.N,/time-bar/HM_ROW9*%
X118236700Y-93726000D02*
X112140700Y-93726000D01*
%TO.N,/time-bar/HM_ROW11*%
X113410700Y-88392000D02*
X112851900Y-87833200D01*
%TO.N,/time-bar/HM_ROW12*%
X119608600Y-88900000D02*
X112394700Y-88900000D01*
%TO.N,/I2C1_SDA*%
X97586500Y-92278200D02*
X97662700Y-92202000D01*
%TO.N,/time-bar/HM_ROW1*%
X101396500Y-97713800D02*
X101396500Y-96354900D01*
%TO.N,/time-bar/HM_ROW13*%
X117094000Y-89408000D02*
X110921500Y-89408000D01*
%TO.N,/time-bar/HM_ROW5*%
X106476500Y-96951800D02*
X106476500Y-96354900D01*
%TO.N,/time-bar/HM_ROW2*%
X102615700Y-93091000D02*
X102615700Y-96354900D01*
%TO.N,/time-bar/HM_ROW0*%
X99313700Y-93980000D02*
X99313700Y-94107000D01*
%TO.N,/time-bar/HM_COM0*%
X97589800Y-90678000D02*
X97586500Y-90681300D01*
%TO.N,/time-bar/HM_ROW10*%
X112775700Y-94615000D02*
X112775700Y-96354900D01*
X114046000Y-102108000D02*
X117094000Y-99060000D01*
X113156700Y-94234000D02*
X112775700Y-94615000D01*
%TO.N,/time-bar/HM_ROW13*%
X110921500Y-89408000D02*
X110311900Y-88798400D01*
%TO.N,/time-bar/HM_ROW11*%
X124714000Y-83820000D02*
X124714000Y-84836000D01*
%TO.N,/time-bar/HM_COM0*%
X97586500Y-86525100D02*
X97586500Y-90681300D01*
%TO.N,/time-bar/HM_ROW7*%
X112522000Y-91186000D02*
X110870700Y-91186000D01*
%TO.N,/time-bar/HM_ROW11*%
X123062700Y-81788000D02*
X101346000Y-81788000D01*
%TO.N,/time-bar/HM_ROW5*%
X108076700Y-98552000D02*
X106476500Y-96951800D01*
%TO.N,/time-bar/HM_ROW3*%
X106298700Y-90144600D02*
X106298700Y-90170000D01*
%TO.N,/time-bar/HM_ROW11*%
X121158000Y-88392000D02*
X113410700Y-88392000D01*
%TO.N,/time-bar/HM_ROW5*%
X107314700Y-100584000D02*
X108076700Y-99822000D01*
%TO.N,/time-bar/HM_COM2*%
X101980700Y-90424000D02*
X101980700Y-94234000D01*
%TO.N,/time-bar/HM_ROW3*%
X103936500Y-92532200D02*
X103936500Y-96354900D01*
%TO.N,/time-bar/HM_ROW0*%
X100126500Y-94919800D02*
X100126500Y-96354900D01*
%TO.N,/time-bar/HM_ROW4*%
X125730000Y-82296000D02*
X103378000Y-82296000D01*
%TO.N,/time-bar/HM_ROW9*%
X112140700Y-93726000D02*
X111505700Y-94361000D01*
%TO.N,/time-bar/SF_ROW12*%
X162686700Y-101600000D02*
X165226700Y-99060000D01*
X142240000Y-101600000D02*
X162686700Y-101600000D01*
%TO.N,/time-bar/SF_COM0*%
X161874200Y-96354900D02*
X161874200Y-92198700D01*
%TO.N,/I2C1_SDA*%
X161874200Y-86525100D02*
X161874200Y-90601800D01*
X161874200Y-90601800D02*
X161798000Y-90678000D01*
%TO.N,/time-bar/SF_ROW14*%
X150418800Y-98627900D02*
X149986700Y-99060000D01*
X150418800Y-96342200D02*
X150418800Y-98627900D01*
%TO.N,/time-bar/SF_ROW11*%
X134746700Y-99060000D02*
X134746700Y-98044000D01*
X138302700Y-94488000D02*
X146050000Y-94488000D01*
X134746700Y-98044000D02*
X138302700Y-94488000D01*
X146608800Y-95046800D02*
X146608800Y-96342200D01*
X146050000Y-94488000D02*
X146608800Y-95046800D01*
%TO.N,/time-bar/SF_ROW7*%
X150495000Y-89789000D02*
X150495000Y-86525100D01*
X148590000Y-91694000D02*
X150495000Y-89789000D01*
X145732350Y-92900350D02*
X146938700Y-91694000D01*
X146938700Y-91694000D02*
X148590000Y-91694000D01*
%TO.N,/time-bar/SF_ROW3*%
X153162000Y-92710000D02*
X155524200Y-90347800D01*
X155524200Y-90347800D02*
X155524200Y-86525100D01*
X153162000Y-92735400D02*
X153162000Y-92710000D01*
%TO.N,/time-bar/SF_COM2*%
X157480000Y-92456000D02*
X157480000Y-88646000D01*
X159334200Y-96354900D02*
X159334200Y-94310200D01*
X159334200Y-94310200D02*
X157480000Y-92456000D01*
%TO.N,/time-bar/SF_ROW7*%
X167068350Y-102298350D02*
X170306700Y-99060000D01*
X167068350Y-102336600D02*
X167068350Y-102298350D01*
%TO.N,/time-bar/SF_ROW12*%
X147066000Y-93980000D02*
X147878800Y-94792800D01*
X139826700Y-94005400D02*
X139852100Y-93980000D01*
X139852100Y-93980000D02*
X147066000Y-93980000D01*
X147878800Y-94792800D02*
X147878800Y-96342200D01*
%TO.N,/time-bar/SF_ROW13*%
X145161000Y-102082600D02*
X145186400Y-102108000D01*
X164718700Y-102108000D02*
X167766700Y-99060000D01*
X145186400Y-102108000D02*
X164718700Y-102108000D01*
%TO.N,/time-bar/SF_ROW10*%
X145414700Y-80772000D02*
X142366700Y-83820000D01*
X164592000Y-80772000D02*
X145414700Y-80772000D01*
%TO.N,/time-bar/SF_ROW9*%
X139826700Y-87756700D02*
X141224000Y-89154000D01*
%TO.N,/time-bar/SF_ROW3*%
X172846700Y-99187300D02*
X172846700Y-99060000D01*
%TO.N,/time-bar/SF_ROW9*%
X147320000Y-89154000D02*
X147955000Y-88519000D01*
X141224000Y-89154000D02*
X147320000Y-89154000D01*
X147955000Y-88519000D02*
X147955000Y-86525100D01*
X139826700Y-83820000D02*
X139826700Y-87756700D01*
%TO.N,/time-bar/SF_ROW3*%
X170180000Y-101854000D02*
X172846700Y-99187300D01*
%TO.N,/time-bar/SF_ROW2*%
X156845000Y-89789000D02*
X156845000Y-86525100D01*
X152526700Y-94742000D02*
X152526700Y-94107300D01*
X152526700Y-94107300D02*
X156845000Y-89789000D01*
%TO.N,/time-bar/SF_ROW8*%
X134746700Y-83946700D02*
X140462000Y-89662000D01*
X148590000Y-89662000D02*
X149225000Y-89027000D01*
X140462000Y-89662000D02*
X148590000Y-89662000D01*
X134746700Y-83820000D02*
X134746700Y-83946700D01*
X149225000Y-89027000D02*
X149225000Y-86525100D01*
%TO.N,/time-bar/SF_ROW1*%
X159258000Y-89408000D02*
X158064200Y-88214200D01*
X158064200Y-88214200D02*
X158064200Y-86525100D01*
%TO.N,/time-bar/SF_ROW9*%
X142557350Y-81089350D02*
X139826700Y-83820000D01*
X142557350Y-81051400D02*
X142557350Y-81089350D01*
%TO.N,/time-bar/SF_ROW10*%
X146685000Y-88265000D02*
X146685000Y-86525100D01*
X146304000Y-88646000D02*
X146685000Y-88265000D01*
X142366700Y-87884000D02*
X143128700Y-88646000D01*
X143128700Y-88646000D02*
X146304000Y-88646000D01*
%TO.N,/time-bar/SF_COM0*%
X160528000Y-92202000D02*
X161870900Y-92202000D01*
%TO.N,/time-bar/SF_ROW10*%
X142366700Y-83820000D02*
X142366700Y-87884000D01*
%TO.N,/time-bar/SF_COM0*%
X158750000Y-90424000D02*
X160528000Y-92202000D01*
X161870900Y-92202000D02*
X161874200Y-92198700D01*
%TO.N,/time-bar/SF_ROW13*%
X148539200Y-93472000D02*
X149148800Y-94081600D01*
X142366700Y-93472000D02*
X148539200Y-93472000D01*
X149148800Y-94081600D02*
X149148800Y-96342200D01*
%TO.N,/time-bar/SF_ROW11*%
X158114700Y-101092000D02*
X160146700Y-99060000D01*
X136398000Y-101092000D02*
X158114700Y-101092000D01*
%TO.N,/time-bar/SF_ROW5*%
X151384000Y-84328000D02*
X152984200Y-85928200D01*
X157606700Y-83820000D02*
X156082700Y-82296000D01*
X156082700Y-82296000D02*
X152146000Y-82296000D01*
X152984200Y-85928200D02*
X152984200Y-86525100D01*
X152146000Y-82296000D02*
X151384000Y-83058000D01*
X151384000Y-83058000D02*
X151384000Y-84328000D01*
%TO.N,/time-bar/SF_ROW0*%
X149478700Y-81788000D02*
X147446700Y-83820000D01*
X170942000Y-81788000D02*
X149478700Y-81788000D01*
%TO.N,/time-bar/SF_COM1*%
X158242000Y-89408000D02*
X158242000Y-90932000D01*
X158242000Y-90932000D02*
X160604200Y-93294200D01*
X160604200Y-93294200D02*
X160604200Y-96354900D01*
%TO.N,/time-bar/SF_ROW1*%
X152526700Y-83820000D02*
X155702000Y-83820000D01*
X158064200Y-85166200D02*
X158064200Y-86525100D01*
X156972000Y-85090000D02*
X157988000Y-85090000D01*
X157988000Y-85090000D02*
X158064200Y-85166200D01*
X155702000Y-83820000D02*
X156972000Y-85090000D01*
%TO.N,/I2C1_SCLK*%
X160604200Y-86525100D02*
X160604200Y-90093800D01*
X160604200Y-90093800D02*
X160528000Y-90170000D01*
%TO.N,/time-bar/SF_COM3*%
X157988000Y-94742000D02*
X158064200Y-94818200D01*
X158064200Y-94818200D02*
X158064200Y-96354900D01*
%TO.N,/time-bar/SF_ROW2*%
X169164000Y-99314000D02*
X167640000Y-100838000D01*
X169164000Y-97790000D02*
X169164000Y-99314000D01*
%TO.N,/time-bar/SF_ROW6*%
X151384000Y-85090000D02*
X151765000Y-85471000D01*
X144906700Y-83820000D02*
X146176700Y-85090000D01*
X146176700Y-85090000D02*
X151384000Y-85090000D01*
X151765000Y-85471000D02*
X151765000Y-86525100D01*
%TO.N,/time-bar/SF_ROW5*%
X152984200Y-85775800D02*
X152984200Y-86525100D01*
%TO.N,/time-bar/SF_ROW6*%
X167640000Y-81280000D02*
X147446700Y-81280000D01*
X147446700Y-81280000D02*
X144906700Y-83820000D01*
%TO.N,/time-bar/SF_ROW4*%
X133730700Y-100584000D02*
X156082700Y-100584000D01*
X132206700Y-99060000D02*
X133730700Y-100584000D01*
X156082700Y-100584000D02*
X157606700Y-99060000D01*
%TO.N,+3.3V*%
D36*
X218115889Y-101600000D02*
X218440000Y-101924111D01*
D35*
X208534000Y-97345000D02*
X206819000Y-97345000D01*
X206248000Y-96774000D02*
X206248000Y-93726000D01*
X212242100Y-93136011D02*
X212242100Y-93116100D01*
D36*
X216540790Y-103499210D02*
X218440000Y-101600000D01*
D35*
X206502000Y-93472000D02*
X210182082Y-93472000D01*
D36*
X183006700Y-101600000D02*
X191262000Y-101600000D01*
X219710000Y-97790000D02*
X218440000Y-99060000D01*
X199390000Y-102870000D02*
X200019210Y-103499210D01*
D35*
X211836000Y-92710000D02*
X210182082Y-92710000D01*
D36*
X192532000Y-102870000D02*
X199390000Y-102870000D01*
X219710000Y-81280000D02*
X219710000Y-97790000D01*
X200019210Y-103499210D02*
X216540790Y-103499210D01*
D35*
X210182082Y-92710000D02*
X210182082Y-94234000D01*
X206248000Y-93726000D02*
X206502000Y-93472000D01*
D36*
X219845100Y-81280000D02*
X219862100Y-81297000D01*
X191262000Y-101600000D02*
X192532000Y-102870000D01*
D35*
X206819000Y-97345000D02*
X206248000Y-96774000D01*
D36*
X218440000Y-101924111D02*
X218440000Y-99060000D01*
X219862100Y-81297000D02*
X219862100Y-81706011D01*
D35*
X212242100Y-93116100D02*
X211836000Y-92710000D01*
%TO.N,GND*%
D36*
X222250000Y-81280000D02*
X222250000Y-77978000D01*
X226060000Y-92710000D02*
X226060000Y-93218000D01*
X226314000Y-86868000D02*
X227228100Y-86868000D01*
D35*
X205484082Y-92710000D02*
X205421482Y-92772600D01*
X215245000Y-90444000D02*
X215265000Y-90424000D01*
D36*
X225298000Y-88015122D02*
X225298000Y-86868000D01*
X223520000Y-86868000D02*
X225298000Y-86868000D01*
D38*
X204470000Y-88900000D02*
X204470000Y-92772600D01*
D36*
X223520000Y-85730500D02*
X223520000Y-86868000D01*
X225782278Y-88499400D02*
X225298000Y-88015122D01*
X225316600Y-86849400D02*
X226295400Y-86849400D01*
X227228100Y-86868000D02*
X227482100Y-86614000D01*
X223520000Y-86868000D02*
X221742000Y-86868000D01*
D35*
X214249000Y-88900000D02*
X210870800Y-85521800D01*
D36*
X226073000Y-92697000D02*
X226073000Y-90932000D01*
X221742000Y-86868000D02*
X220917000Y-87693000D01*
X199425055Y-85125055D02*
X199679055Y-84871055D01*
X198586000Y-84286000D02*
X199425055Y-85125055D01*
D35*
X215265000Y-89154000D02*
X215011000Y-88900000D01*
D36*
X226073000Y-90932000D02*
X226568000Y-90437000D01*
X227469100Y-83045000D02*
X226314000Y-83045000D01*
X222250000Y-77978000D02*
X221488000Y-77216000D01*
X199679055Y-84871055D02*
X202954100Y-81596011D01*
X227482100Y-82702100D02*
X227482100Y-83058000D01*
X226568000Y-88646000D02*
X226421400Y-88499400D01*
D35*
X215265000Y-90424000D02*
X215265000Y-89408000D01*
X214880000Y-91444000D02*
X215265000Y-91059000D01*
D38*
X205423000Y-87947000D02*
X204470000Y-88900000D01*
D35*
X215011000Y-88900000D02*
X214249000Y-88900000D01*
X208725000Y-85521800D02*
X205028800Y-85521800D01*
X215229000Y-89444000D02*
X215265000Y-89408000D01*
D38*
X205423000Y-87884000D02*
X205385800Y-87846800D01*
D36*
X205232000Y-77216000D02*
X204470000Y-77978000D01*
X220917000Y-87693000D02*
X220917000Y-89662000D01*
D35*
X205028800Y-85521800D02*
X204470000Y-84963000D01*
X210870800Y-85521800D02*
X208725000Y-85521800D01*
X215265000Y-91059000D02*
X215265000Y-90424000D01*
X205677000Y-94234000D02*
X205677000Y-92710000D01*
X214108000Y-91444000D02*
X214880000Y-91444000D01*
D36*
X225298000Y-86868000D02*
X225316600Y-86849400D01*
D35*
X214108000Y-89444000D02*
X215229000Y-89444000D01*
D36*
X221488000Y-77216000D02*
X205232000Y-77216000D01*
X197649100Y-89311011D02*
X197649100Y-86901011D01*
D38*
X205423000Y-87884000D02*
X205423000Y-87947000D01*
D35*
X214108000Y-90444000D02*
X215245000Y-90444000D01*
D36*
X197649100Y-86901011D02*
X199425055Y-85125055D01*
X227482100Y-83058000D02*
X227469100Y-83045000D01*
D35*
X201346300Y-92772600D02*
X197738700Y-89165000D01*
D36*
X226568000Y-90437000D02*
X226568000Y-88646000D01*
X198586000Y-83042000D02*
X198586000Y-84286000D01*
X226060000Y-92710000D02*
X226073000Y-92697000D01*
X226421400Y-88499400D02*
X225782278Y-88499400D01*
D35*
X204470000Y-92772600D02*
X201346300Y-92772600D01*
D36*
X222402100Y-81706011D02*
X226486011Y-81706011D01*
D35*
X204470000Y-84963000D02*
X204470000Y-81280000D01*
D36*
X226060000Y-93218000D02*
X225806000Y-93472000D01*
X226486011Y-81706011D02*
X227482100Y-82702100D01*
D35*
X205421482Y-92772600D02*
X204470000Y-92772600D01*
D36*
X204470000Y-77978000D02*
X204470000Y-81280000D01*
X202954100Y-81596011D02*
X204605100Y-81596011D01*
X227482100Y-86614000D02*
X227482100Y-83058000D01*
X226295400Y-86849400D02*
X226314000Y-86868000D01*
D35*
X215265000Y-89408000D02*
X215265000Y-89154000D01*
%TO.N,/OUTPUT*%
X206248000Y-88583000D02*
X205423000Y-89408000D01*
X207010000Y-86360000D02*
X206248000Y-87122000D01*
X206248000Y-87122000D02*
X206248000Y-88583000D01*
X205423000Y-90932000D02*
X205423000Y-89408000D01*
%TO.N,/SPI0_DC*%
D37*
X209685100Y-81596011D02*
X210639089Y-82550000D01*
X210639089Y-82550000D02*
X212006589Y-82550000D01*
X212006589Y-82550000D02*
X213512100Y-84055511D01*
%TO.N,/SPI0_CSn*%
X207145100Y-81596011D02*
X207145100Y-82069323D01*
X207625777Y-82550000D02*
X209466589Y-82550000D01*
X209466589Y-82550000D02*
X210972100Y-84055511D01*
X207145100Y-82069323D02*
X207625777Y-82550000D01*
%TO.N,/SPI0_SCK*%
D35*
X208280000Y-78740000D02*
X209550000Y-80010000D01*
X215900000Y-80010000D02*
X217170000Y-81280000D01*
X209550000Y-80010000D02*
X215900000Y-80010000D01*
%TO.N,/SPI0_TX*%
X207053589Y-85217000D02*
X214229777Y-85217000D01*
X214229777Y-85217000D02*
X214630000Y-84816777D01*
X205892100Y-84055511D02*
X207053589Y-85217000D01*
X214630000Y-81280000D02*
X214782100Y-81432100D01*
X214630000Y-84816777D02*
X214630000Y-81280000D01*
%TO.N,/VBUS*%
D36*
X223520000Y-99060000D02*
X222377000Y-97917000D01*
X227393000Y-89408000D02*
X227393000Y-99251000D01*
X225044000Y-101600000D02*
X223520000Y-101600000D01*
X227393000Y-88297000D02*
X226789000Y-87693000D01*
X226789000Y-87693000D02*
X226314000Y-87693000D01*
X227393000Y-99251000D02*
X225044000Y-101600000D01*
X222377000Y-97917000D02*
X222377000Y-97218000D01*
X227393000Y-89408000D02*
X227393000Y-88297000D01*
%TO.N,/ROT_SW*%
D38*
X192532000Y-99822000D02*
X199751777Y-99822000D01*
X200431788Y-100502011D02*
X214845600Y-100502011D01*
D37*
X77088700Y-80518000D02*
X78866700Y-78740000D01*
D38*
X192278000Y-97684790D02*
X192278000Y-99568000D01*
X192278000Y-99568000D02*
X192532000Y-99822000D01*
X199751777Y-99822000D02*
X200431788Y-100502011D01*
X214845600Y-100502011D02*
X216052100Y-99295511D01*
D37*
X72942077Y-80518000D02*
X77088700Y-80518000D01*
D38*
X192150700Y-97557490D02*
X192278000Y-97684790D01*
X192150700Y-96520000D02*
X192150700Y-97557490D01*
%TO.N,/CLAP_SW*%
X212242100Y-103042011D02*
X213512100Y-101772011D01*
X191770000Y-97536000D02*
X191770000Y-99568000D01*
X199770700Y-100330000D02*
X202482711Y-103042011D01*
X202482711Y-103042011D02*
X212242100Y-103042011D01*
D39*
X72117077Y-99822000D02*
X72117077Y-102362000D01*
X79343377Y-79762823D02*
X79343377Y-92595700D01*
X72948900Y-99060000D02*
X72879077Y-99060000D01*
X72948900Y-98990177D02*
X72948900Y-99060000D01*
X79559794Y-79546406D02*
X79343377Y-79762823D01*
X72879077Y-99060000D02*
X72117077Y-99822000D01*
X77451077Y-94488000D02*
X72948900Y-98990177D01*
X72117077Y-102362000D02*
X73660000Y-103904923D01*
D37*
X72942077Y-82550000D02*
X79343377Y-82550000D01*
D38*
X192532000Y-100330000D02*
X199770700Y-100330000D01*
X191770000Y-99568000D02*
X192532000Y-100330000D01*
D39*
X73660000Y-103904923D02*
X73660000Y-104140000D01*
X79343377Y-92595700D02*
X77451077Y-94488000D01*
D38*
X191516000Y-97282000D02*
X191770000Y-97536000D01*
%TO.N,/SPI0_RST*%
D37*
X216408000Y-97790000D02*
X209550000Y-97790000D01*
X212705777Y-85725000D02*
X217043000Y-85725000D01*
X217043000Y-85725000D02*
X218059000Y-86741000D01*
X209550000Y-97790000D02*
X208280000Y-99060000D01*
X218059000Y-96139000D02*
X216408000Y-97790000D01*
X218059000Y-86741000D02*
X218059000Y-96139000D01*
%TO.N,/I2C1_SCLK*%
D35*
X205740000Y-99060000D02*
X205892100Y-99212100D01*
X205892100Y-99212100D02*
X205892100Y-99295511D01*
%TO.N,/I2C1_SDA*%
X190118700Y-93726000D02*
X190118700Y-95123300D01*
X190118700Y-95123300D02*
X188086700Y-97155300D01*
X188086700Y-97155300D02*
X188086700Y-99060000D01*
%TO.N,/KEYA*%
D39*
X80105377Y-93357700D02*
X74129600Y-99333477D01*
X195580000Y-86360000D02*
X192532000Y-86360000D01*
X198812098Y-92651013D02*
X198812098Y-92640098D01*
X198812098Y-92640098D02*
X196342000Y-90170000D01*
X196342000Y-87122000D02*
X195580000Y-86360000D01*
X192532000Y-86360000D02*
X184576011Y-78404011D01*
X83134634Y-78409366D02*
X80105377Y-81438623D01*
X80105377Y-81438623D02*
X80105377Y-93357700D01*
X184576011Y-78404011D02*
X84333355Y-78404011D01*
X196342000Y-90170000D02*
X196342000Y-87122000D01*
X74129600Y-99333477D02*
X74129600Y-99911300D01*
X84328000Y-78409366D02*
X83134634Y-78409366D01*
X74129600Y-99911300D02*
X72948900Y-101092000D01*
%TO.N,Net-(J99-Pin_9)*%
D35*
X207327000Y-94234000D02*
X208725000Y-94234000D01*
X208532082Y-94234000D02*
X208788000Y-94234000D01*
X208788000Y-94234000D02*
X209804000Y-95250000D01*
X212880000Y-93444000D02*
X214057200Y-93444000D01*
X209804000Y-95250000D02*
X211074000Y-95250000D01*
X211074000Y-95250000D02*
X212880000Y-93444000D01*
%TO.N,/sony_mi/VBAT*%
D36*
X224470000Y-85730500D02*
X224470000Y-85222500D01*
X226314000Y-84595000D02*
X226314000Y-86043000D01*
X225044000Y-84648500D02*
X225097500Y-84595000D01*
X225044000Y-84648500D02*
X225044000Y-83312000D01*
X225097500Y-84595000D02*
X226314000Y-84595000D01*
X224470000Y-85222500D02*
X225044000Y-84648500D01*
%TO.N,Net-(R15-Pad2)*%
D39*
X68341200Y-99060000D02*
X66040000Y-101361200D01*
X71298900Y-99060000D02*
X71298900Y-101092000D01*
X71298900Y-99060000D02*
X68341200Y-99060000D01*
%TO.N,/sony_mi/PWR_UNREG*%
D37*
X214052000Y-89944000D02*
X214080000Y-89916000D01*
D35*
X214080000Y-89916000D02*
X214108000Y-89944000D01*
D36*
X222377000Y-95568000D02*
X221805000Y-94996000D01*
D37*
X212724700Y-90170000D02*
X212950700Y-89944000D01*
X212950700Y-89944000D02*
X214052000Y-89944000D01*
D36*
X220980000Y-94996000D02*
X220980000Y-93244611D01*
X221805000Y-94996000D02*
X220980000Y-94996000D01*
X220980000Y-93244611D02*
X221036100Y-93188511D01*
%TO.N,Net-(U80-V_{DD})*%
X224470000Y-88005500D02*
X224470000Y-89408000D01*
X224589500Y-88125000D02*
X224470000Y-88005500D01*
X224589500Y-88178500D02*
X224589500Y-88125000D01*
X224470000Y-89408000D02*
X224470000Y-89984000D01*
D37*
X225743000Y-89408000D02*
X224470000Y-89408000D01*
D36*
X224470000Y-89984000D02*
X224523000Y-90037000D01*
X224523000Y-90932000D02*
X221642611Y-90932000D01*
X224523000Y-90037000D02*
X224523000Y-90932000D01*
X221642611Y-90932000D02*
X221036100Y-91538511D01*
%TO.N,Net-(R17-Pad2)*%
D39*
X71292077Y-82550000D02*
X69524000Y-82550000D01*
X71298900Y-80524823D02*
X71287744Y-80513667D01*
X69524000Y-82550000D02*
X66040000Y-86034000D01*
X71292077Y-82550000D02*
X71298900Y-82543177D01*
X71292077Y-80518000D02*
X71292077Y-82550000D01*
X71298900Y-82543177D02*
X71298900Y-80524823D01*
%TO.N,Net-(J99-Pin_8)*%
D35*
X211836000Y-91948000D02*
X212832000Y-92944000D01*
X212832000Y-92944000D02*
X214057200Y-92944000D01*
X208725000Y-92710000D02*
X208725000Y-92652674D01*
X207327000Y-92710000D02*
X208725000Y-92710000D01*
X208532082Y-92710000D02*
X208788000Y-92710000D01*
X208788000Y-92710000D02*
X209550000Y-91948000D01*
X209550000Y-91948000D02*
X211836000Y-91948000D01*
%TO.N,Net-(U80-PROG)*%
D36*
X222567000Y-88008500D02*
X222570000Y-88005500D01*
X222567000Y-89662000D02*
X222567000Y-88008500D01*
%TO.N,Net-(J99-Pin_4)*%
D35*
X209550000Y-87884000D02*
X207073000Y-87884000D01*
X212610000Y-90944000D02*
X209550000Y-87884000D01*
X214108000Y-90944000D02*
X212610000Y-90944000D01*
%TO.N,Net-(J99-Pin_10)*%
X214108000Y-93944000D02*
X213142000Y-93944000D01*
X207134082Y-95758000D02*
X208532082Y-95758000D01*
X213142000Y-93944000D02*
X211391000Y-95695000D01*
X211391000Y-95695000D02*
X208534000Y-95695000D01*
%TO.N,Net-(J99-Pin_7)*%
X211328000Y-90932000D02*
X212852000Y-92456000D01*
X214096000Y-92456000D02*
X214108000Y-92444000D01*
X207073000Y-90932000D02*
X211328000Y-90932000D01*
X212852000Y-92456000D02*
X214096000Y-92456000D01*
%TO.N,Net-(J99-Pin_6)*%
X212848000Y-91944000D02*
X210312000Y-89408000D01*
X210312000Y-89408000D02*
X207073000Y-89408000D01*
X207073000Y-89408000D02*
X207073000Y-89345000D01*
X214108000Y-91944000D02*
X212848000Y-91944000D01*
%TO.N,GND*%
D36*
X163233100Y-96266000D02*
X163144200Y-96354900D01*
%TO.N,Net-(U4-COM5)*%
D35*
X155524200Y-98346800D02*
X155448000Y-98423000D01*
X155524200Y-96354900D02*
X155524200Y-98346800D01*
%TD*%
M02*
