%TF.GenerationSoftware,KiCad,Pcbnew,10.0.5*%
%TF.CreationDate,2026-07-29T19:35:32-06:00*%
%TF.ProjectId,pt_thrifty,70745f74-6872-4696-9674-792e6b696361,rev?*%
%TF.SameCoordinates,Original*%
%TF.FileFunction,Paste,Top*%
%TF.FilePolarity,Positive*%
%FSLAX46Y46*%
G04 Gerber Fmt 4.6, Leading zero omitted, Abs format (unit mm)*
G04 Created by KiCad (PCBNEW 10.0.5) date 2026-07-29 19:35:32*
%MOMM*%
%LPD*%
G01*
G04 APERTURE LIST*
G04 Aperture macros list*
%AMRoundRect*
0 Rectangle with rounded corners*
0 $1 Rounding radius*
0 $2 $3 $4 $5 $6 $7 $8 $9 X,Y pos of 4 corners*
0 Add a 4 corners polygon primitive as box body*
4,1,4,$2,$3,$4,$5,$6,$7,$8,$9,$2,$3,0*
0 Add four circle primitives for the rounded corners*
1,1,$1+$1,$2,$3*
1,1,$1+$1,$4,$5*
1,1,$1+$1,$6,$7*
1,1,$1+$1,$8,$9*
0 Add four rect primitives between the rounded corners*
20,1,$1+$1,$2,$3,$4,$5,0*
20,1,$1+$1,$4,$5,$6,$7,0*
20,1,$1+$1,$6,$7,$8,$9,0*
20,1,$1+$1,$8,$9,$2,$3,0*%
G04 Aperture macros list end*
%ADD10RoundRect,0.200000X0.200000X0.275000X-0.200000X0.275000X-0.200000X-0.275000X0.200000X-0.275000X0*%
%ADD11RoundRect,0.135000X0.185000X-0.135000X0.185000X0.135000X-0.185000X0.135000X-0.185000X-0.135000X0*%
%ADD12RoundRect,0.225000X0.225000X0.250000X-0.225000X0.250000X-0.225000X-0.250000X0.225000X-0.250000X0*%
%ADD13RoundRect,0.200000X-0.275000X0.200000X-0.275000X-0.200000X0.275000X-0.200000X0.275000X0.200000X0*%
%ADD14RoundRect,0.150000X-0.512500X-0.150000X0.512500X-0.150000X0.512500X0.150000X-0.512500X0.150000X0*%
%ADD15RoundRect,0.200000X0.275000X-0.200000X0.275000X0.200000X-0.275000X0.200000X-0.275000X-0.200000X0*%
%ADD16RoundRect,0.200000X-0.200000X-0.275000X0.200000X-0.275000X0.200000X0.275000X-0.200000X0.275000X0*%
%ADD17RoundRect,0.225000X-0.250000X0.225000X-0.250000X-0.225000X0.250000X-0.225000X0.250000X0.225000X0*%
%ADD18R,2.000000X3.000000*%
%ADD19R,0.609600X0.660400*%
%ADD20RoundRect,0.225000X-0.225000X-0.250000X0.225000X-0.250000X0.225000X0.250000X-0.225000X0.250000X0*%
%ADD21RoundRect,0.135000X-0.185000X0.135000X-0.185000X-0.135000X0.185000X-0.135000X0.185000X0.135000X0*%
G04 APERTURE END LIST*
D10*
%TO.C,R6*%
X205022777Y-97282000D03*
X206672777Y-97282000D03*
%TD*%
%TO.C,R5*%
X208070777Y-97282000D03*
X209720777Y-97282000D03*
%TD*%
D11*
%TO.C,R27*%
X165481000Y-94744000D03*
X165481000Y-93724000D03*
%TD*%
D12*
%TO.C,C4*%
X214769777Y-97035000D03*
X213219777Y-97035000D03*
%TD*%
D13*
%TO.C,R10*%
X206654100Y-89009011D03*
X206654100Y-90659011D03*
%TD*%
%TO.C,R8*%
X205085777Y-85916000D03*
X205085777Y-87566000D03*
%TD*%
D14*
%TO.C,U2*%
X207377277Y-92268000D03*
X207377277Y-93218000D03*
X207377277Y-94168000D03*
X209652277Y-94168000D03*
X209652277Y-93218000D03*
X209652277Y-92268000D03*
%TD*%
D15*
%TO.C,R9*%
X205078777Y-90614000D03*
X205078777Y-88964000D03*
%TD*%
D16*
%TO.C,R2*%
X219278100Y-86532011D03*
X220928100Y-86532011D03*
%TD*%
%TO.C,R7*%
X223799777Y-86353000D03*
X225449777Y-86353000D03*
%TD*%
D17*
%TO.C,C3*%
X211480100Y-95409011D03*
X211480100Y-96959011D03*
%TD*%
D18*
%TO.C,J3*%
X227436100Y-89326011D03*
X215036100Y-89326011D03*
X222736100Y-96326011D03*
X224536100Y-89326011D03*
%TD*%
D19*
%TO.C,LED1*%
X227482100Y-86405011D03*
X227482100Y-84246011D03*
%TD*%
D15*
%TO.C,R13*%
X211226100Y-87357011D03*
X211226100Y-85707011D03*
%TD*%
D10*
%TO.C,R3*%
X209720777Y-95758000D03*
X208070777Y-95758000D03*
%TD*%
D15*
%TO.C,R14*%
X209702100Y-87357011D03*
X209702100Y-85707011D03*
%TD*%
D12*
%TO.C,C1*%
X215531777Y-86621000D03*
X213981777Y-86621000D03*
%TD*%
D14*
%TO.C,U3*%
X208564600Y-88839000D03*
X208564600Y-89789000D03*
X208564600Y-90739000D03*
X210839600Y-90739000D03*
X210839600Y-89789000D03*
X210839600Y-88839000D03*
%TD*%
D10*
%TO.C,R4*%
X206672777Y-95758000D03*
X205022777Y-95758000D03*
%TD*%
D15*
%TO.C,R12*%
X211480100Y-93961011D03*
X211480100Y-92311011D03*
%TD*%
D13*
%TO.C,R11*%
X205085777Y-92057011D03*
X205085777Y-93707011D03*
%TD*%
D20*
%TO.C,C5*%
X216515100Y-97028000D03*
X218065100Y-97028000D03*
%TD*%
D12*
%TO.C,C2*%
X220865777Y-88399000D03*
X219315777Y-88399000D03*
%TD*%
D13*
%TO.C,R1*%
X217563100Y-86469011D03*
X217563100Y-88119011D03*
%TD*%
D21*
%TO.C,R23*%
X93091000Y-88009000D03*
X93091000Y-89029000D03*
%TD*%
M02*
