%TF.GenerationSoftware,KiCad,Pcbnew,10.0.5*%
%TF.CreationDate,2026-07-29T19:35:32-06:00*%
%TF.ProjectId,pt_thrifty,70745f74-6872-4696-9674-792e6b696361,rev?*%
%TF.SameCoordinates,Original*%
%TF.FileFunction,Copper,L1,Top*%
%TF.FilePolarity,Positive*%
%FSLAX46Y46*%
G04 Gerber Fmt 4.6, Leading zero omitted, Abs format (unit mm)*
G04 Created by KiCad (PCBNEW 10.0.5) date 2026-07-29 19:35:32*
%MOMM*%
%LPD*%
G01*
G04 APERTURE LIST*
G04 Aperture macros list*
%AMRoundRect*
0 Rectangle with rounded corners*
0 $1 Rounding radius*
0 $2 $3 $4 $5 $6 $7 $8 $9 X,Y pos of 4 corners*
0 Add a 4 corners polygon primitive as box body*
4,1,4,$2,$3,$4,$5,$6,$7,$8,$9,$2,$3,0*
0 Add four circle primitives for the rounded corners*
1,1,$1+$1,$2,$3*
1,1,$1+$1,$4,$5*
1,1,$1+$1,$6,$7*
1,1,$1+$1,$8,$9*
0 Add four rect primitives between the rounded corners*
20,1,$1+$1,$2,$3,$4,$5,0*
20,1,$1+$1,$4,$5,$6,$7,0*
20,1,$1+$1,$6,$7,$8,$9,0*
20,1,$1+$1,$8,$9,$2,$3,0*%
G04 Aperture macros list end*
%TA.AperFunction,SMDPad,CuDef*%
%ADD10RoundRect,0.200000X0.200000X0.275000X-0.200000X0.275000X-0.200000X-0.275000X0.200000X-0.275000X0*%
%TD*%
%TA.AperFunction,ComponentPad*%
%ADD11C,1.524000*%
%TD*%
%TA.AperFunction,SMDPad,CuDef*%
%ADD12RoundRect,0.135000X0.185000X-0.135000X0.185000X0.135000X-0.185000X0.135000X-0.185000X-0.135000X0*%
%TD*%
%TA.AperFunction,ComponentPad*%
%ADD13R,1.700000X1.700000*%
%TD*%
%TA.AperFunction,ComponentPad*%
%ADD14C,1.700000*%
%TD*%
%TA.AperFunction,SMDPad,CuDef*%
%ADD15RoundRect,0.225000X0.225000X0.250000X-0.225000X0.250000X-0.225000X-0.250000X0.225000X-0.250000X0*%
%TD*%
%TA.AperFunction,SMDPad,CuDef*%
%ADD16RoundRect,0.200000X-0.275000X0.200000X-0.275000X-0.200000X0.275000X-0.200000X0.275000X0.200000X0*%
%TD*%
%TA.AperFunction,SMDPad,CuDef*%
%ADD17RoundRect,0.150000X-0.512500X-0.150000X0.512500X-0.150000X0.512500X0.150000X-0.512500X0.150000X0*%
%TD*%
%TA.AperFunction,SMDPad,CuDef*%
%ADD18RoundRect,0.200000X0.275000X-0.200000X0.275000X0.200000X-0.275000X0.200000X-0.275000X-0.200000X0*%
%TD*%
%TA.AperFunction,SMDPad,CuDef*%
%ADD19RoundRect,0.200000X-0.200000X-0.275000X0.200000X-0.275000X0.200000X0.275000X-0.200000X0.275000X0*%
%TD*%
%TA.AperFunction,SMDPad,CuDef*%
%ADD20RoundRect,0.225000X-0.250000X0.225000X-0.250000X-0.225000X0.250000X-0.225000X0.250000X0.225000X0*%
%TD*%
%TA.AperFunction,SMDPad,CuDef*%
%ADD21R,2.000000X3.000000*%
%TD*%
%TA.AperFunction,SMDPad,CuDef*%
%ADD22R,0.609600X0.660400*%
%TD*%
%TA.AperFunction,ComponentPad*%
%ADD23R,1.000000X1.000000*%
%TD*%
%TA.AperFunction,SMDPad,CuDef*%
%ADD24RoundRect,0.225000X-0.225000X-0.250000X0.225000X-0.250000X0.225000X0.250000X-0.225000X0.250000X0*%
%TD*%
%TA.AperFunction,ComponentPad*%
%ADD25C,2.100000*%
%TD*%
%TA.AperFunction,ComponentPad*%
%ADD26C,1.750000*%
%TD*%
%TA.AperFunction,ComponentPad*%
%ADD27RoundRect,0.250000X-0.625000X0.350000X-0.625000X-0.350000X0.625000X-0.350000X0.625000X0.350000X0*%
%TD*%
%TA.AperFunction,ComponentPad*%
%ADD28O,1.750000X1.200000*%
%TD*%
%TA.AperFunction,SMDPad,CuDef*%
%ADD29RoundRect,0.135000X-0.185000X0.135000X-0.185000X-0.135000X0.185000X-0.135000X0.185000X0.135000X0*%
%TD*%
%TA.AperFunction,ViaPad*%
%ADD30C,0.508000*%
%TD*%
%TA.AperFunction,Conductor*%
%ADD31C,0.152400*%
%TD*%
%TA.AperFunction,Conductor*%
%ADD32C,0.508000*%
%TD*%
%TA.AperFunction,Conductor*%
%ADD33C,0.254000*%
%TD*%
%TA.AperFunction,Conductor*%
%ADD34C,0.304800*%
%TD*%
%TA.AperFunction,Conductor*%
%ADD35C,0.101600*%
%TD*%
G04 APERTURE END LIST*
D10*
%TO.P,R6,2*%
%TO.N,GND*%
X205022777Y-97282000D03*
%TO.P,R6,1*%
%TO.N,/VREF*%
X206672777Y-97282000D03*
%TD*%
%TO.P,R5,2*%
%TO.N,/VREF*%
X208070777Y-97282000D03*
%TO.P,R5,1*%
%TO.N,+3.3V*%
X209720777Y-97282000D03*
%TD*%
D11*
%TO.P,DI4,18,F_18*%
%TO.N,/time-bar/SF_ROW5*%
X157606700Y-83820000D03*
%TO.P,DI4,17,H_17*%
%TO.N,/time-bar/SF_ROW8*%
X160146700Y-83820000D03*
%TO.P,DI4,16,COM1_16*%
%TO.N,/time-bar/SF_COM2*%
X162686700Y-83820000D03*
%TO.P,DI4,15,J_15*%
%TO.N,/time-bar/SF_ROW9*%
X165226700Y-83820000D03*
%TO.P,DI4,14,K_14*%
%TO.N,/time-bar/SF_ROW10*%
X167766700Y-83820000D03*
%TO.P,DI4,13,G1_13*%
%TO.N,/time-bar/SF_ROW6*%
X170306700Y-83820000D03*
%TO.P,DI4,12,A_12*%
%TO.N,/time-bar/SF_ROW0*%
X172846700Y-83820000D03*
%TO.P,DI4,11,COM2_11*%
%TO.N,/time-bar/SF_COM3*%
X175386700Y-83820000D03*
%TO.P,DI4,10,B_10*%
%TO.N,/time-bar/SF_ROW1*%
X177926700Y-83820000D03*
%TO.P,DI4,9,C_9*%
%TO.N,/time-bar/SF_ROW2*%
X177926700Y-99060000D03*
%TO.P,DI4,8,DP_8*%
%TO.N,/time-bar/SF_ROW14*%
X175386700Y-99060000D03*
%TO.P,DI4,7,D_7*%
%TO.N,/time-bar/SF_ROW3*%
X172846700Y-99060000D03*
%TO.P,DI4,6,G2_6*%
%TO.N,/time-bar/SF_ROW7*%
X170306700Y-99060000D03*
%TO.P,DI4,5,N_5*%
%TO.N,/time-bar/SF_ROW13*%
X167766700Y-99060000D03*
%TO.P,DI4,4,M_4*%
%TO.N,/time-bar/SF_ROW12*%
X165226700Y-99060000D03*
%TO.P,DI4,3,NC_3*%
%TO.N,unconnected-(DI4-NC-Pad3)*%
X162686700Y-99060000D03*
%TO.P,DI4,2,L_2*%
%TO.N,/time-bar/SF_ROW11*%
X160146700Y-99060000D03*
%TO.P,DI4,1,E_1*%
%TO.N,/time-bar/SF_ROW4*%
X157606700Y-99060000D03*
%TD*%
D12*
%TO.P,R27,1*%
%TO.N,Net-(U4-COM7)*%
X165481000Y-94744000D03*
%TO.P,R27,2*%
%TO.N,/time-bar/SF_COM3*%
X165481000Y-93724000D03*
%TD*%
D11*
%TO.P,DI3,1,E_1*%
%TO.N,/time-bar/SF_ROW4*%
X132206700Y-99060000D03*
%TO.P,DI3,2,L_2*%
%TO.N,/time-bar/SF_ROW11*%
X134746700Y-99060000D03*
%TO.P,DI3,3,NC_3*%
%TO.N,unconnected-(DI3-NC-Pad3)*%
X137286700Y-99060000D03*
%TO.P,DI3,4,M_4*%
%TO.N,/time-bar/SF_ROW12*%
X139826700Y-99060000D03*
%TO.P,DI3,5,N_5*%
%TO.N,/time-bar/SF_ROW13*%
X142366700Y-99060000D03*
%TO.P,DI3,6,G2_6*%
%TO.N,/time-bar/SF_ROW7*%
X144906700Y-99060000D03*
%TO.P,DI3,7,D_7*%
%TO.N,/time-bar/SF_ROW3*%
X147446700Y-99060000D03*
%TO.P,DI3,8,DP_8*%
%TO.N,/time-bar/SF_ROW14*%
X149986700Y-99060000D03*
%TO.P,DI3,9,C_9*%
%TO.N,/time-bar/SF_ROW2*%
X152526700Y-99060000D03*
%TO.P,DI3,10,B_10*%
%TO.N,/time-bar/SF_ROW1*%
X152526700Y-83820000D03*
%TO.P,DI3,11,COM2_11*%
%TO.N,/time-bar/SF_COM1*%
X149986700Y-83820000D03*
%TO.P,DI3,12,A_12*%
%TO.N,/time-bar/SF_ROW0*%
X147446700Y-83820000D03*
%TO.P,DI3,13,G1_13*%
%TO.N,/time-bar/SF_ROW6*%
X144906700Y-83820000D03*
%TO.P,DI3,14,K_14*%
%TO.N,/time-bar/SF_ROW10*%
X142366700Y-83820000D03*
%TO.P,DI3,15,J_15*%
%TO.N,/time-bar/SF_ROW9*%
X139826700Y-83820000D03*
%TO.P,DI3,16,COM1_16*%
%TO.N,/time-bar/SF_COM0*%
X137286700Y-83820000D03*
%TO.P,DI3,17,H_17*%
%TO.N,/time-bar/SF_ROW8*%
X134746700Y-83820000D03*
%TO.P,DI3,18,F_18*%
%TO.N,/time-bar/SF_ROW5*%
X132206700Y-83820000D03*
%TD*%
D13*
%TO.P,J5,1,Pin_1_1*%
%TO.N,+3.3V*%
X183006700Y-99060000D03*
D14*
%TO.P,J5,2,Pin_2_2*%
%TO.N,GND*%
X185546700Y-99060000D03*
%TO.P,J5,3,Pin_3_3*%
%TO.N,/I2C1_SDA*%
X188086700Y-99060000D03*
%TO.P,J5,4,Pin_4_4*%
%TO.N,/I2C1_SCLK*%
X190626700Y-99060000D03*
%TD*%
D15*
%TO.P,C4,1*%
%TO.N,+3.3V*%
X214769777Y-97035000D03*
%TO.P,C4,2*%
%TO.N,GND*%
X213219777Y-97035000D03*
%TD*%
D16*
%TO.P,R10,1*%
%TO.N,Net-(R10-Pad1)*%
X206654100Y-89009011D03*
%TO.P,R10,2*%
%TO.N,Net-(U3-VIN+)*%
X206654100Y-90659011D03*
%TD*%
%TO.P,R8,1*%
%TO.N,/LTC_TX*%
X205085777Y-85916000D03*
%TO.P,R8,2*%
%TO.N,Net-(R10-Pad1)*%
X205085777Y-87566000D03*
%TD*%
D11*
%TO.P,DI2,1,E_1*%
%TO.N,/time-bar/HM_ROW4*%
X127126700Y-83820000D03*
%TO.P,DI2,2,L_2*%
%TO.N,/time-bar/HM_ROW11*%
X124586700Y-83820000D03*
%TO.P,DI2,3,NC_3*%
%TO.N,unconnected-(DI2-NC-Pad3)*%
X122046700Y-83820000D03*
%TO.P,DI2,4,M_4*%
%TO.N,/time-bar/HM_ROW12*%
X119506700Y-83820000D03*
%TO.P,DI2,5,N_5*%
%TO.N,/time-bar/HM_ROW13*%
X116966700Y-83820000D03*
%TO.P,DI2,6,G2_6*%
%TO.N,/time-bar/HM_ROW7*%
X114426700Y-83820000D03*
%TO.P,DI2,7,D_7*%
%TO.N,/time-bar/HM_ROW3*%
X111886700Y-83820000D03*
%TO.P,DI2,8,DP_8*%
%TO.N,/time-bar/HM_ROW14*%
X109346700Y-83820000D03*
%TO.P,DI2,9,C_9*%
%TO.N,/time-bar/HM_ROW2*%
X106806700Y-83820000D03*
%TO.P,DI2,10,B_10*%
%TO.N,/time-bar/HM_ROW1*%
X106806700Y-99060000D03*
%TO.P,DI2,11,COM2_11*%
%TO.N,/time-bar/HM_COM1*%
X109346700Y-99060000D03*
%TO.P,DI2,12,A_12*%
%TO.N,/time-bar/HM_ROW0*%
X111886700Y-99060000D03*
%TO.P,DI2,13,G1_13*%
%TO.N,/time-bar/HM_ROW6*%
X114426700Y-99060000D03*
%TO.P,DI2,14,K_14*%
%TO.N,/time-bar/HM_ROW10*%
X116966700Y-99060000D03*
%TO.P,DI2,15,J_15*%
%TO.N,/time-bar/HM_ROW9*%
X119506700Y-99060000D03*
%TO.P,DI2,16,COM1_16*%
%TO.N,/time-bar/HM_COM0*%
X122046700Y-99060000D03*
%TO.P,DI2,17,H_17*%
%TO.N,/time-bar/HM_ROW8*%
X124586700Y-99060000D03*
%TO.P,DI2,18,F_18*%
%TO.N,/time-bar/HM_ROW5*%
X127126700Y-99060000D03*
%TD*%
D17*
%TO.P,U2,1,VOUT_1*%
%TO.N,/LTX_RX*%
X207377277Y-92268000D03*
%TO.P,U2,2,VSS_2*%
%TO.N,GND*%
X207377277Y-93218000D03*
%TO.P,U2,3,VIN+_3*%
%TO.N,/IN*%
X207377277Y-94168000D03*
%TO.P,U2,4,VIN-_4*%
%TO.N,/VREF*%
X209652277Y-94168000D03*
%TO.P,U2,5,\u002ACS_5*%
%TO.N,/AMP_nEN0*%
X209652277Y-93218000D03*
%TO.P,U2,6,VDD_6*%
%TO.N,+3.3V*%
X209652277Y-92268000D03*
%TD*%
D18*
%TO.P,R9,1*%
%TO.N,/nLTC_TX*%
X205078777Y-90614000D03*
%TO.P,R9,2*%
%TO.N,Net-(R10-Pad1)*%
X205078777Y-88964000D03*
%TD*%
D19*
%TO.P,R2,1*%
%TO.N,/OUTPUT*%
X219278100Y-86532011D03*
%TO.P,R2,2*%
%TO.N,/IN_OUT_R*%
X220928100Y-86532011D03*
%TD*%
%TO.P,R7,1*%
%TO.N,/BLINK*%
X223799777Y-86353000D03*
%TO.P,R7,2*%
%TO.N,Net-(LED1-Pad2)*%
X225449777Y-86353000D03*
%TD*%
D13*
%TO.P,J1,1,Pin_1_1*%
%TO.N,Net-(J1-Pin_1)*%
X223520000Y-78740000D03*
D14*
%TO.P,J1,2,Pin_2_2*%
%TO.N,Net-(J1-Pin_2)*%
X220980000Y-78740000D03*
%TO.P,J1,3,Pin_3_3*%
%TO.N,/BLINK*%
X218440000Y-78740000D03*
%TO.P,J1,4,Pin_4_4*%
%TO.N,Net-(J1-Pin_4)*%
X215900000Y-78740000D03*
%TO.P,J1,5,Pin_5_5*%
%TO.N,/SPI0_DC*%
X213360000Y-78740000D03*
%TO.P,J1,6,Pin_6_6*%
%TO.N,/SPI0_CSn*%
X210820000Y-78740000D03*
%TO.P,J1,7,Pin_7_7*%
%TO.N,/SPI0_SCK*%
X208280000Y-78740000D03*
%TO.P,J1,8,Pin_8_8*%
%TO.N,/SPI0_TX*%
X205740000Y-78740000D03*
%TO.P,J1,9,Pin_9_9*%
%TO.N,/AMP_nEN1*%
X203200000Y-78740000D03*
%TD*%
D20*
%TO.P,C3,1*%
%TO.N,/VREF*%
X211480100Y-95409011D03*
%TO.P,C3,2*%
%TO.N,GND*%
X211480100Y-96959011D03*
%TD*%
D21*
%TO.P,J3,1*%
%TO.N,GND*%
X227436100Y-89326011D03*
%TO.P,J3,2*%
%TO.N,/IN_OUT_L*%
X215036100Y-89326011D03*
%TO.P,J3,3*%
%TO.N,/IN_OUT_R*%
X222736100Y-96326011D03*
%TO.P,J3,4*%
%TO.N,/DETECT*%
X224536100Y-89326011D03*
%TD*%
D22*
%TO.P,LED1,1*%
%TO.N,GND*%
X227482100Y-86405011D03*
%TO.P,LED1,2*%
%TO.N,Net-(LED1-Pad2)*%
X227482100Y-84246011D03*
%TD*%
D18*
%TO.P,R13,1*%
%TO.N,Net-(U3-VIN-)*%
X211226100Y-87357011D03*
%TO.P,R13,2*%
%TO.N,/OUTPUT*%
X211226100Y-85707011D03*
%TD*%
D10*
%TO.P,R3,1*%
%TO.N,+3.3V*%
X209720777Y-95758000D03*
%TO.P,R3,2*%
%TO.N,/IN*%
X208070777Y-95758000D03*
%TD*%
D18*
%TO.P,R14,1*%
%TO.N,Net-(U3-\u002ACS)*%
X209702100Y-87357011D03*
%TO.P,R14,2*%
%TO.N,/AMP_nEN1*%
X209702100Y-85707011D03*
%TD*%
D15*
%TO.P,C1,1*%
%TO.N,/IN_OUT_L*%
X215531777Y-86621000D03*
%TO.P,C1,2*%
%TO.N,/IN*%
X213981777Y-86621000D03*
%TD*%
D23*
%TO.P,TP1,1,1_1*%
%TO.N,/OUTPUT*%
X207010000Y-86360000D03*
%TD*%
D17*
%TO.P,U3,1,VOUT_1*%
%TO.N,/OUTPUT*%
X208564600Y-88839000D03*
%TO.P,U3,2,VSS_2*%
%TO.N,GND*%
X208564600Y-89789000D03*
%TO.P,U3,3,VIN+_3*%
%TO.N,Net-(U3-VIN+)*%
X208564600Y-90739000D03*
%TO.P,U3,4,VIN-_4*%
%TO.N,Net-(U3-VIN-)*%
X210839600Y-90739000D03*
%TO.P,U3,5,\u002ACS_5*%
%TO.N,Net-(U3-\u002ACS)*%
X210839600Y-89789000D03*
%TO.P,U3,6,VDD_6*%
%TO.N,+3.3V*%
X210839600Y-88839000D03*
%TD*%
D10*
%TO.P,R4,1*%
%TO.N,/IN*%
X206672777Y-95758000D03*
%TO.P,R4,2*%
%TO.N,GND*%
X205022777Y-95758000D03*
%TD*%
D18*
%TO.P,R12,1*%
%TO.N,/VREF*%
X211480100Y-93961011D03*
%TO.P,R12,2*%
%TO.N,Net-(U3-VIN-)*%
X211480100Y-92311011D03*
%TD*%
D16*
%TO.P,R11,1*%
%TO.N,Net-(U3-VIN+)*%
X205085777Y-92057011D03*
%TO.P,R11,2*%
%TO.N,GND*%
X205085777Y-93707011D03*
%TD*%
D24*
%TO.P,C5,1*%
%TO.N,GND*%
X216515100Y-97028000D03*
%TO.P,C5,2*%
%TO.N,+3.3V*%
X218065100Y-97028000D03*
%TD*%
D15*
%TO.P,C2,1*%
%TO.N,/IN_OUT_R*%
X220865777Y-88399000D03*
%TO.P,C2,2*%
%TO.N,/IN*%
X219315777Y-88399000D03*
%TD*%
D11*
%TO.P,DI1,1,E_1*%
%TO.N,/time-bar/HM_ROW4*%
X101726700Y-83820000D03*
%TO.P,DI1,2,L_2*%
%TO.N,/time-bar/HM_ROW11*%
X99186700Y-83820000D03*
%TO.P,DI1,3,NC_3*%
%TO.N,unconnected-(DI1-NC-Pad3)*%
X96646700Y-83820000D03*
%TO.P,DI1,4,M_4*%
%TO.N,/time-bar/HM_ROW12*%
X94106700Y-83820000D03*
%TO.P,DI1,5,N_5*%
%TO.N,/time-bar/HM_ROW13*%
X91566700Y-83820000D03*
%TO.P,DI1,6,G2_6*%
%TO.N,/time-bar/HM_ROW7*%
X89026700Y-83820000D03*
%TO.P,DI1,7,D_7*%
%TO.N,/time-bar/HM_ROW3*%
X86486700Y-83820000D03*
%TO.P,DI1,8,DP_8*%
%TO.N,/time-bar/HM_ROW14*%
X83946700Y-83820000D03*
%TO.P,DI1,9,C_9*%
%TO.N,/time-bar/HM_ROW2*%
X81406700Y-83820000D03*
%TO.P,DI1,10,B_10*%
%TO.N,/time-bar/HM_ROW1*%
X81406700Y-99060000D03*
%TO.P,DI1,11,COM2_11*%
%TO.N,/time-bar/HM_COM3*%
X83946700Y-99060000D03*
%TO.P,DI1,12,A_12*%
%TO.N,/time-bar/HM_ROW0*%
X86486700Y-99060000D03*
%TO.P,DI1,13,G1_13*%
%TO.N,/time-bar/HM_ROW6*%
X89026700Y-99060000D03*
%TO.P,DI1,14,K_14*%
%TO.N,/time-bar/HM_ROW10*%
X91566700Y-99060000D03*
%TO.P,DI1,15,J_15*%
%TO.N,/time-bar/HM_ROW9*%
X94106700Y-99060000D03*
%TO.P,DI1,16,COM1_16*%
%TO.N,/time-bar/HM_COM2*%
X96646700Y-99060000D03*
%TO.P,DI1,17,H_17*%
%TO.N,/time-bar/HM_ROW8*%
X99186700Y-99060000D03*
%TO.P,DI1,18,F_18*%
%TO.N,/time-bar/HM_ROW5*%
X101726700Y-99060000D03*
%TD*%
D16*
%TO.P,R1,1*%
%TO.N,/OUTPUT*%
X217563100Y-86469011D03*
%TO.P,R1,2*%
%TO.N,/IN_OUT_L*%
X217563100Y-88119011D03*
%TD*%
D13*
%TO.P,J2,1,Pin_1_1*%
%TO.N,/VBUS*%
X223520000Y-101600000D03*
D14*
%TO.P,J2,2,Pin_2_2*%
%TO.N,GND*%
X220980000Y-101600000D03*
%TO.P,J2,3,Pin_3_3*%
%TO.N,+3.3V*%
X218440000Y-101600000D03*
%TO.P,J2,4,Pin_4_4*%
%TO.N,/ROT_SW*%
X215900000Y-101600000D03*
%TO.P,J2,5,Pin_5_5*%
%TO.N,/CLAP_SW*%
X213360000Y-101600000D03*
%TO.P,J2,6,Pin_6_6*%
%TO.N,/DETECT*%
X210820000Y-101600000D03*
%TO.P,J2,7,Pin_7_7*%
%TO.N,/SPI0_RST*%
X208280000Y-101600000D03*
%TO.P,J2,8,Pin_8_8*%
%TO.N,/I2C1_SCLK*%
X205740000Y-101600000D03*
%TO.P,J2,9,Pin_9_9*%
%TO.N,/I2C1_SDA*%
X203200000Y-101600000D03*
%TD*%
D25*
%TO.P,SW1,*%
%TO.N,*%
X200226500Y-87915000D03*
X200226500Y-94925000D03*
D26*
%TO.P,SW1,1,1_1*%
%TO.N,GND*%
X197736500Y-89165000D03*
%TO.P,SW1,2,2_2*%
%TO.N,/KEYA*%
X197736500Y-93665000D03*
%TD*%
D14*
%TO.P,U1,1,GPIO0_1*%
%TO.N,Net-(J1-Pin_1)*%
X223520000Y-83820000D03*
%TO.P,U1,2,GPIO1_2*%
%TO.N,Net-(J1-Pin_2)*%
X220980000Y-83820000D03*
%TO.P,U1,3,GPIO2_3*%
%TO.N,/BLINK*%
X218440000Y-83820000D03*
%TO.P,U1,4,GPIO3_4*%
%TO.N,Net-(J1-Pin_4)*%
X215900000Y-83820000D03*
%TO.P,U1,5,GPIO4_5*%
%TO.N,/SPI0_DC*%
X213360000Y-83820000D03*
%TO.P,U1,6,GPIO5_6*%
%TO.N,/SPI0_CSn*%
X210820000Y-83820000D03*
%TO.P,U1,7,GPIO6_7*%
%TO.N,/SPI0_SCK*%
X208280000Y-83820000D03*
%TO.P,U1,8,GPIO7_8*%
%TO.N,/SPI0_TX*%
X205740000Y-83820000D03*
%TO.P,U1,9,GPIO8_9*%
%TO.N,/AMP_nEN1*%
X203200000Y-83820000D03*
%TO.P,U1,10,GPIO14_10*%
%TO.N,/I2C1_SDA*%
X203200000Y-99060000D03*
%TO.P,U1,11,GPIO15_11*%
%TO.N,/I2C1_SCLK*%
X205740000Y-99060000D03*
%TO.P,U1,12,GPIO26_12*%
%TO.N,/SPI0_RST*%
X208280000Y-99060000D03*
%TO.P,U1,13,GPIO27_13*%
%TO.N,/DETECT*%
X210820000Y-99060000D03*
%TO.P,U1,14,GPIO28_14*%
%TO.N,/CLAP_SW*%
X213360000Y-99060000D03*
%TO.P,U1,15,GPIO29_15*%
%TO.N,/ROT_SW*%
X215900000Y-99060000D03*
%TO.P,U1,16,3V3_16*%
%TO.N,+3.3V*%
X218440000Y-99060000D03*
%TO.P,U1,17,GND_17*%
%TO.N,GND*%
X220980000Y-99060000D03*
%TO.P,U1,18,5V_18*%
%TO.N,/VBUS*%
X223520000Y-99060000D03*
%TO.P,U1,19,GPIO9_19*%
%TO.N,/LTC_TX*%
X203210000Y-86360000D03*
%TO.P,U1,20,GPIO10_20*%
%TO.N,/nLTC_TX*%
X203210000Y-88900000D03*
%TO.P,U1,21,GPIO11_21*%
%TO.N,/LTX_RX*%
X203210000Y-91440000D03*
%TO.P,U1,22,GPIO12_22*%
%TO.N,/KEYA*%
X203210000Y-93980000D03*
%TO.P,U1,23,GPIO13_23*%
%TO.N,/AMP_nEN0*%
X203210000Y-96520000D03*
%TD*%
D25*
%TO.P,SW2,*%
%TO.N,*%
X68530000Y-95611200D03*
X68530000Y-102621200D03*
D26*
%TO.P,SW2,1,1_1*%
%TO.N,GND*%
X66040000Y-96861200D03*
%TO.P,SW2,2,2_2*%
%TO.N,Net-(R15-Pad2)*%
X66040000Y-101361200D03*
%TD*%
D13*
%TO.P,J4,1,Pin_1_1*%
%TO.N,GND*%
X222250000Y-81280000D03*
D14*
%TO.P,J4,2,Pin_2_2*%
%TO.N,+3.3V*%
X219710000Y-81280000D03*
%TO.P,J4,3,Pin_3_3*%
%TO.N,/SPI0_SCK*%
X217170000Y-81280000D03*
%TO.P,J4,4,Pin_4_4*%
%TO.N,/SPI0_TX*%
X214630000Y-81280000D03*
%TO.P,J4,5,Pin_5_5*%
%TO.N,/SPI0_RST*%
X212090000Y-81280000D03*
%TO.P,J4,6,Pin_6_6*%
%TO.N,/SPI0_DC*%
X209550000Y-81280000D03*
%TO.P,J4,7,Pin_7_7*%
%TO.N,/SPI0_CSn*%
X207010000Y-81280000D03*
%TO.P,J4,8,Pin_8_8*%
%TO.N,GND*%
X204470000Y-81280000D03*
%TD*%
D25*
%TO.P,SW3,*%
%TO.N,*%
X68530000Y-80284000D03*
X68530000Y-87294000D03*
D26*
%TO.P,SW3,1,1_1*%
%TO.N,GND*%
X66040000Y-81534000D03*
%TO.P,SW3,2,2_2*%
%TO.N,Net-(R17-Pad2)*%
X66040000Y-86034000D03*
%TD*%
D27*
%TO.P,J81,1,Pin_1_1*%
%TO.N,/sony_mi/VBAT*%
X198586000Y-81042000D03*
D28*
%TO.P,J81,2,Pin_2_2*%
%TO.N,GND*%
X198586000Y-83042000D03*
%TD*%
D13*
%TO.P,J6,1,Pin_1_1*%
%TO.N,/CLAP_SW*%
X73660000Y-104140000D03*
D14*
%TO.P,J6,2,Pin_2_2*%
%TO.N,GND*%
X76200000Y-104140000D03*
%TD*%
D29*
%TO.P,R23,1*%
%TO.N,Net-(U5-COM7)*%
X93091000Y-88009000D03*
%TO.P,R23,2*%
%TO.N,/time-bar/HM_COM3*%
X93091000Y-89029000D03*
%TD*%
D30*
%TO.N,Net-(U5-COM4)*%
X102616000Y-88900000D03*
X96647000Y-89662000D03*
%TO.N,Net-(U5-COM7)*%
X105664000Y-88773000D03*
%TO.N,Net-(U4-COM4)*%
X156845000Y-94107000D03*
X162687000Y-93218000D03*
%TO.N,Net-(U4-COM7)*%
X154305000Y-94488000D03*
%TO.N,/time-bar/HM_ROW1*%
X87630000Y-91948000D03*
%TO.N,/time-bar/HM_ROW0*%
X87693350Y-94297350D03*
%TO.N,GND*%
X166307000Y-96266000D03*
%TO.N,/time-bar/SF_ROW0*%
X171196000Y-89154000D03*
%TO.N,/time-bar/SF_ROW1*%
X170180000Y-90932000D03*
%TO.N,/time-bar/HM_ROW9*%
X116903350Y-101828600D03*
%TO.N,/time-bar/HM_ROW4*%
X107568700Y-89662000D03*
%TO.N,/time-bar/HM_ROW3*%
X89280700Y-81026000D03*
%TO.N,/time-bar/HM_ROW0*%
X99313700Y-93980000D03*
%TO.N,/time-bar/HM_ROW12*%
X117220700Y-81280000D03*
%TO.N,/time-bar/HM_ROW7*%
X92392350Y-80543400D03*
%TO.N,/time-bar/HM_ROW1*%
X100202700Y-93472000D03*
%TO.N,/time-bar/HM_ROW2*%
X91820700Y-82042000D03*
%TO.N,/time-bar/HM_ROW13*%
X117094000Y-89408000D03*
%TO.N,/time-bar/HM_ROW12*%
X119634000Y-88874600D03*
%TO.N,/time-bar/HM_COM3*%
X101346000Y-88646000D03*
%TO.N,GND*%
X92227500Y-86614000D03*
%TO.N,/time-bar/HM_ROW2*%
X106934000Y-88138000D03*
%TO.N,/time-bar/HM_ROW7*%
X113728350Y-89979650D03*
%TO.N,/time-bar/HM_ROW11*%
X123062700Y-81788000D03*
%TO.N,/time-bar/HM_ROW6*%
X91820700Y-101600000D03*
%TO.N,/time-bar/HM_ROW3*%
X106298700Y-90144600D03*
%TO.N,/time-bar/HM_ROW13*%
X114299700Y-80797400D03*
%TO.N,/I2C1_SDA*%
X97662700Y-92202000D03*
%TO.N,/time-bar/HM_ROW10*%
X94868700Y-102108000D03*
%TO.N,/time-bar/HM_COM0*%
X100710700Y-92456000D03*
%TO.N,/I2C1_SCLK*%
X98932700Y-91694000D03*
%TO.N,/time-bar/HM_COM2*%
X101980700Y-94234000D03*
%TO.N,/time-bar/HM_COM1*%
X101218700Y-93472000D03*
%TO.N,/time-bar/HM_ROW0*%
X88518700Y-101092000D03*
%TO.N,/time-bar/SF_COM1*%
X158242000Y-89408000D03*
%TO.N,/time-bar/SF_COM3*%
X157988000Y-94742000D03*
%TO.N,/time-bar/SF_ROW0*%
X160020000Y-88900000D03*
%TO.N,/time-bar/SF_ROW1*%
X159258000Y-89408000D03*
%TO.N,/time-bar/SF_COM2*%
X157480000Y-88646000D03*
%TO.N,/time-bar/SF_ROW2*%
X167640000Y-100838000D03*
%TO.N,/time-bar/SF_COM0*%
X158750000Y-90424000D03*
%TO.N,/time-bar/SF_ROW13*%
X142366700Y-93472000D03*
%TO.N,/time-bar/SF_ROW4*%
X151892000Y-93218000D03*
%TO.N,/time-bar/SF_ROW11*%
X136398000Y-101092000D03*
%TO.N,/time-bar/SF_ROW12*%
X139826700Y-94005400D03*
X142240000Y-101600000D03*
%TO.N,/time-bar/SF_ROW13*%
X145161000Y-102082600D03*
%TO.N,/time-bar/SF_ROW3*%
X153162000Y-92735400D03*
%TO.N,/time-bar/SF_ROW9*%
X142557350Y-81051400D03*
%TO.N,/time-bar/SF_ROW7*%
X167068350Y-102336600D03*
X145732350Y-92900350D03*
%TO.N,/time-bar/SF_ROW10*%
X164592000Y-80772000D03*
%TO.N,/I2C1_SCLK*%
X160528000Y-90170000D03*
%TO.N,/time-bar/SF_ROW2*%
X152526700Y-94742000D03*
%TO.N,/time-bar/SF_ROW3*%
X170180000Y-101854000D03*
%TO.N,/time-bar/SF_ROW6*%
X167640000Y-81280000D03*
%TO.N,/I2C1_SDA*%
X161798000Y-90678000D03*
%TO.N,/time-bar/SF_ROW0*%
X170942000Y-81788000D03*
%TO.N,+3.3V*%
X212242100Y-93136011D03*
%TO.N,GND*%
X225806000Y-93472000D03*
%TO.N,/ROT_SW*%
X78866700Y-78740000D03*
X192150700Y-96520000D03*
%TO.N,/CLAP_SW*%
X79559794Y-79546406D03*
X191516000Y-97282000D03*
%TO.N,/SPI0_RST*%
X212705777Y-85725000D03*
%TO.N,/I2C1_SCLK*%
X190626700Y-94513400D03*
%TO.N,/KEYA*%
X198812098Y-92651013D03*
%TO.N,/sony_mi/VBAT*%
X225044000Y-83312000D03*
%TO.N,/sony_mi/PWR_UNREG*%
X220980000Y-94996000D03*
X212724700Y-90170000D03*
%TD*%
%TO.N,/I2C1_SCLK*%
D31*
X190626700Y-94513400D02*
X190626700Y-99060000D01*
%TO.N,Net-(U5-COM4)*%
X101854000Y-89662000D02*
X96647000Y-89662000D01*
X102616000Y-88900000D02*
X101854000Y-89662000D01*
%TO.N,/time-bar/HM_COM3*%
X96139000Y-88646000D02*
X101346000Y-88646000D01*
X94107000Y-90678000D02*
X96139000Y-88646000D01*
X93091000Y-90678000D02*
X94107000Y-90678000D01*
X93091000Y-89029000D02*
X93091000Y-90678000D01*
X93091000Y-90678000D02*
X87122000Y-90678000D01*
%TO.N,Net-(U5-COM7)*%
X105664000Y-88773000D02*
X104900000Y-88009000D01*
X104900000Y-88009000D02*
X93091000Y-88009000D01*
%TO.N,/time-bar/HM_COM3*%
X84074000Y-99822000D02*
X84074000Y-99060000D01*
X83312000Y-100584000D02*
X84074000Y-99822000D01*
X80898700Y-100584000D02*
X83312000Y-100584000D01*
X80137000Y-99822300D02*
X80898700Y-100584000D01*
X80137000Y-97663000D02*
X80137000Y-99822300D01*
X87122000Y-90678000D02*
X80137000Y-97663000D01*
%TO.N,Net-(U4-COM4)*%
X157734000Y-93218000D02*
X156845000Y-94107000D01*
X162687000Y-93218000D02*
X157734000Y-93218000D01*
%TO.N,/time-bar/SF_COM3*%
X158496000Y-94234000D02*
X157988000Y-94742000D01*
X162687000Y-94234000D02*
X158496000Y-94234000D01*
X164719000Y-92202000D02*
X162687000Y-94234000D01*
X165608000Y-92202000D02*
X164719000Y-92202000D01*
%TO.N,Net-(U4-COM7)*%
X155168600Y-95224600D02*
X154432000Y-94488000D01*
X165000400Y-95224600D02*
X155168600Y-95224600D01*
X154432000Y-94488000D02*
X154305000Y-94488000D01*
X165481000Y-94744000D02*
X165000400Y-95224600D01*
%TO.N,/time-bar/SF_COM3*%
X165481000Y-93724000D02*
X165481000Y-92329000D01*
X165481000Y-92329000D02*
X165608000Y-92202000D01*
%TO.N,GND*%
D32*
X185546700Y-97662700D02*
X185546700Y-99060000D01*
X184658000Y-96774000D02*
X185546700Y-97662700D01*
X166815000Y-96774000D02*
X184658000Y-96774000D01*
X166307000Y-96266000D02*
X166815000Y-96774000D01*
%TO.N,/time-bar/HM_ROW1*%
D31*
X97408700Y-93472000D02*
X100202700Y-93472000D01*
X95884700Y-91948000D02*
X97408700Y-93472000D01*
X87630000Y-91948000D02*
X95884700Y-91948000D01*
X81534000Y-98044000D02*
X87630000Y-91948000D01*
X81534000Y-99060000D02*
X81534000Y-98044000D01*
%TO.N,/time-bar/HM_ROW0*%
X87693350Y-94297350D02*
X86740700Y-95250000D01*
X95122700Y-92964000D02*
X96138700Y-93980000D01*
%TO.N,GND*%
D32*
X76200000Y-97790000D02*
X76200000Y-98678700D01*
X87884000Y-86106000D02*
X76200000Y-97790000D01*
X91719500Y-86106000D02*
X87884000Y-86106000D01*
%TO.N,/time-bar/SF_ROW0*%
D31*
X172720000Y-83946700D02*
X172846700Y-83820000D01*
X172720000Y-87630000D02*
X172720000Y-83946700D01*
X163322000Y-88900000D02*
X164338000Y-89916000D01*
X164338000Y-89916000D02*
X170434000Y-89916000D01*
X170434000Y-89916000D02*
X172720000Y-87630000D01*
X160020000Y-88900000D02*
X163322000Y-88900000D01*
%TO.N,/time-bar/SF_ROW1*%
X177926700Y-83947300D02*
X177926700Y-83820000D01*
X170942000Y-90932000D02*
X177926700Y-83947300D01*
X170180000Y-90932000D02*
X170942000Y-90932000D01*
X163576000Y-90932000D02*
X162052000Y-89408000D01*
X162052000Y-89408000D02*
X159258000Y-89408000D01*
X170180000Y-90932000D02*
X163576000Y-90932000D01*
%TO.N,/time-bar/SF_COM3*%
X171958000Y-92202000D02*
X165608000Y-92202000D01*
%TO.N,/I2C1_SDA*%
X98119900Y-92659200D02*
X97662700Y-92202000D01*
X99110800Y-92659200D02*
X98119900Y-92659200D01*
X99822000Y-91948000D02*
X99110800Y-92659200D01*
X160528000Y-91948000D02*
X99822000Y-91948000D01*
X161798000Y-90678000D02*
X160528000Y-91948000D01*
%TO.N,/I2C1_SCLK*%
X99694700Y-90932000D02*
X98932700Y-91694000D01*
X159766000Y-90932000D02*
X99694700Y-90932000D01*
X160528000Y-90170000D02*
X159766000Y-90932000D01*
%TO.N,GND*%
D32*
X92227500Y-86614000D02*
X91719500Y-86106000D01*
%TO.N,/time-bar/HM_COM1*%
D31*
X106552700Y-93472000D02*
X109474000Y-96393300D01*
%TO.N,/time-bar/HM_COM2*%
X100710700Y-94234000D02*
X96774000Y-98170700D01*
%TO.N,/time-bar/HM_ROW3*%
X112014000Y-88900000D02*
X112014000Y-83820000D01*
%TO.N,/time-bar/HM_COM0*%
X122174000Y-95885300D02*
X122174000Y-99060000D01*
%TO.N,/time-bar/HM_ROW8*%
X126238000Y-97536000D02*
X124714000Y-99060000D01*
%TO.N,/time-bar/HM_ROW4*%
X101854000Y-83947300D02*
X101854000Y-83820000D01*
%TO.N,/time-bar/HM_ROW12*%
X119634000Y-83693300D02*
X119634000Y-83820000D01*
%TO.N,/time-bar/HM_COM1*%
X101218700Y-93472000D02*
X106552700Y-93472000D01*
%TO.N,/time-bar/HM_ROW14*%
X81280000Y-81534000D02*
X80136700Y-82677300D01*
%TO.N,/time-bar/HM_ROW9*%
X116903350Y-101828600D02*
X97129300Y-101828600D01*
%TO.N,/time-bar/HM_ROW6*%
X91820700Y-101600000D02*
X89280700Y-99060000D01*
%TO.N,/time-bar/HM_ROW8*%
X99314000Y-99060000D02*
X101600000Y-101346000D01*
%TO.N,/time-bar/HM_ROW2*%
X83312000Y-82042000D02*
X81534000Y-83820000D01*
%TO.N,/time-bar/HM_ROW0*%
X95122700Y-92964000D02*
X89026700Y-92964000D01*
%TO.N,/time-bar/HM_COM2*%
X101980700Y-94234000D02*
X100710700Y-94234000D01*
%TO.N,/time-bar/HM_ROW8*%
X127888700Y-97536000D02*
X126238000Y-97536000D01*
%TO.N,/time-bar/HM_ROW6*%
X89280700Y-99060000D02*
X89154000Y-99060000D01*
%TO.N,/time-bar/HM_ROW7*%
X113728350Y-89979650D02*
X114554000Y-89154000D01*
X111912100Y-80543400D02*
X114554000Y-83185300D01*
%TO.N,/time-bar/HM_ROW0*%
X89026700Y-92964000D02*
X87693350Y-94297350D01*
%TO.N,/time-bar/HM_ROW3*%
X89280700Y-81026000D02*
X109346700Y-81026000D01*
%TO.N,/time-bar/HM_ROW7*%
X92392350Y-80543400D02*
X111912100Y-80543400D01*
%TO.N,/time-bar/HM_ROW0*%
X99313700Y-93980000D02*
X96138700Y-93980000D01*
%TO.N,/time-bar/HM_ROW11*%
X124714000Y-83439300D02*
X124714000Y-83820000D01*
%TO.N,/time-bar/HM_ROW10*%
X91820700Y-99060000D02*
X91694000Y-99060000D01*
%TO.N,/time-bar/HM_ROW2*%
X105156000Y-82042000D02*
X106934000Y-83820000D01*
%TO.N,/time-bar/HM_ROW8*%
X127762000Y-101346000D02*
X128650700Y-100457300D01*
%TO.N,/time-bar/HM_ROW2*%
X92964000Y-82042000D02*
X95630700Y-82042000D01*
%TO.N,/time-bar/HM_ROW3*%
X106298700Y-90144600D02*
X106298700Y-90170000D01*
%TO.N,/time-bar/HM_ROW14*%
X109474000Y-83756650D02*
X107251350Y-81534000D01*
%TO.N,/time-bar/HM_ROW13*%
X117094000Y-83693300D02*
X117094000Y-83820000D01*
%TO.N,/time-bar/HM_ROW5*%
X103632000Y-100838000D02*
X125476000Y-100838000D01*
%TO.N,/time-bar/HM_ROW9*%
X97129300Y-101828600D02*
X94360700Y-99060000D01*
%TO.N,/time-bar/HM_ROW2*%
X91820700Y-82042000D02*
X83312000Y-82042000D01*
%TO.N,/time-bar/HM_ROW0*%
X86614000Y-99187300D02*
X86614000Y-99060000D01*
X86740700Y-95250000D02*
X86740700Y-98933300D01*
%TO.N,/time-bar/HM_COM2*%
X96774000Y-98170700D02*
X96774000Y-99060000D01*
%TO.N,/time-bar/HM_ROW14*%
X107251350Y-81534000D02*
X81280000Y-81534000D01*
%TO.N,/time-bar/HM_ROW10*%
X94868700Y-102108000D02*
X91820700Y-99060000D01*
%TO.N,/time-bar/HM_ROW13*%
X114299700Y-80899000D02*
X117094000Y-83693300D01*
%TO.N,/time-bar/HM_ROW14*%
X81026000Y-85344000D02*
X82550000Y-85344000D01*
%TO.N,/time-bar/HM_ROW7*%
X114554000Y-89154000D02*
X114554000Y-83820000D01*
%TO.N,/time-bar/HM_ROW2*%
X106934000Y-88138000D02*
X106934000Y-83820000D01*
%TO.N,/time-bar/HM_ROW12*%
X117220700Y-81280000D02*
X119634000Y-83693300D01*
%TO.N,/time-bar/HM_ROW9*%
X94360700Y-99060000D02*
X94234000Y-99060000D01*
%TO.N,/time-bar/HM_ROW14*%
X82550000Y-85344000D02*
X84074000Y-83820000D01*
%TO.N,/time-bar/HM_ROW5*%
X125476000Y-100838000D02*
X127254000Y-99060000D01*
%TO.N,/time-bar/HM_ROW3*%
X110744000Y-90170000D02*
X112014000Y-88900000D01*
%TO.N,/time-bar/HM_COM0*%
X100964700Y-92710000D02*
X118998700Y-92710000D01*
%TO.N,/time-bar/HM_ROW7*%
X114554000Y-83185300D02*
X114554000Y-83820000D01*
%TO.N,/time-bar/HM_ROW0*%
X88518700Y-101092000D02*
X86614000Y-99187300D01*
%TO.N,/time-bar/HM_ROW14*%
X109474000Y-83820000D02*
X109474000Y-83756650D01*
%TO.N,/time-bar/HM_COM0*%
X100710700Y-92456000D02*
X100964700Y-92710000D01*
%TO.N,/time-bar/HM_ROW2*%
X95630700Y-82042000D02*
X105156000Y-82042000D01*
%TO.N,/time-bar/HM_ROW14*%
X80136700Y-84454700D02*
X81026000Y-85344000D01*
%TO.N,/time-bar/HM_ROW13*%
X114299700Y-80797400D02*
X114299700Y-80899000D01*
%TO.N,/time-bar/HM_ROW14*%
X80136700Y-82677300D02*
X80136700Y-84454700D01*
%TO.N,/time-bar/HM_ROW8*%
X101600000Y-101346000D02*
X127762000Y-101346000D01*
%TO.N,/time-bar/HM_ROW5*%
X101854000Y-99060000D02*
X103632000Y-100838000D01*
%TO.N,/time-bar/HM_COM0*%
X118998700Y-92710000D02*
X122174000Y-95885300D01*
%TO.N,/time-bar/HM_ROW3*%
X112014000Y-83693300D02*
X112014000Y-83820000D01*
%TO.N,/time-bar/HM_ROW13*%
X117094000Y-89408000D02*
X117094000Y-83820000D01*
%TO.N,/time-bar/HM_ROW4*%
X107568700Y-89662000D02*
X101854000Y-83947300D01*
%TO.N,/time-bar/HM_ROW3*%
X109346700Y-81026000D02*
X112014000Y-83693300D01*
%TO.N,/time-bar/HM_ROW0*%
X86740700Y-98933300D02*
X86614000Y-99060000D01*
%TO.N,/time-bar/HM_ROW2*%
X92964000Y-82042000D02*
X91820700Y-82042000D01*
%TO.N,/time-bar/HM_COM1*%
X109474000Y-96393300D02*
X109474000Y-99060000D01*
%TO.N,/time-bar/HM_ROW11*%
X123062700Y-81788000D02*
X124714000Y-83439300D01*
%TO.N,/time-bar/HM_ROW12*%
X119634000Y-88874600D02*
X119634000Y-83820000D01*
%TO.N,/time-bar/HM_ROW8*%
X128650700Y-100457300D02*
X128650700Y-98298000D01*
X128650700Y-98298000D02*
X127888700Y-97536000D01*
%TO.N,/time-bar/HM_ROW3*%
X106298700Y-90170000D02*
X110744000Y-90170000D01*
%TO.N,/time-bar/SF_ROW12*%
X142240000Y-101600000D02*
X139826700Y-99186700D01*
X139826700Y-99186700D02*
X139826700Y-99060000D01*
%TO.N,/time-bar/SF_ROW13*%
X145161000Y-102082600D02*
X145161000Y-101981000D01*
X142366700Y-99186700D02*
X142366700Y-99060000D01*
X145161000Y-101981000D02*
X142366700Y-99186700D01*
%TO.N,/time-bar/SF_ROW4*%
X151892000Y-93218000D02*
X157606700Y-98932700D01*
X157606700Y-98932700D02*
X157606700Y-99060000D01*
%TO.N,/time-bar/SF_ROW12*%
X139826700Y-94005400D02*
X139826700Y-99060000D01*
%TO.N,/time-bar/SF_COM0*%
X158750000Y-90424000D02*
X158496000Y-90170000D01*
X158496000Y-90170000D02*
X140462000Y-90170000D01*
X137286700Y-86994700D02*
X137286700Y-83820000D01*
X140462000Y-90170000D02*
X137286700Y-86994700D01*
%TO.N,/time-bar/SF_ROW7*%
X144906700Y-93726000D02*
X144906700Y-99060000D01*
X145732350Y-92900350D02*
X144906700Y-93726000D01*
%TO.N,/time-bar/SF_ROW3*%
X148716700Y-92710000D02*
X147446700Y-93980000D01*
X147446700Y-93980000D02*
X147446700Y-99060000D01*
X153162000Y-92710000D02*
X148716700Y-92710000D01*
X153162000Y-92735400D02*
X153162000Y-92710000D01*
%TO.N,/time-bar/SF_ROW7*%
X167068350Y-102336600D02*
X147548600Y-102336600D01*
X147548600Y-102336600D02*
X144906700Y-99694700D01*
X144906700Y-99694700D02*
X144906700Y-99060000D01*
%TO.N,/time-bar/SF_ROW3*%
X150114000Y-101854000D02*
X147446700Y-99186700D01*
X170180000Y-101854000D02*
X150114000Y-101854000D01*
X147446700Y-99186700D02*
X147446700Y-99060000D01*
%TO.N,/time-bar/SF_ROW2*%
X152526700Y-94742000D02*
X152526700Y-99060000D01*
%TO.N,/time-bar/SF_ROW11*%
X136398000Y-101092000D02*
X134746700Y-99440700D01*
X134746700Y-99440700D02*
X134746700Y-99060000D01*
%TO.N,/time-bar/SF_ROW9*%
X142557350Y-81051400D02*
X162331400Y-81051400D01*
X162331400Y-81051400D02*
X165100000Y-83820000D01*
X165100000Y-83820000D02*
X165226700Y-83820000D01*
%TO.N,/time-bar/SF_ROW14*%
X178434700Y-97536000D02*
X176910700Y-97536000D01*
X149986700Y-99060000D02*
X149986700Y-99123350D01*
X176910700Y-97536000D02*
X175386700Y-99060000D01*
X178180700Y-101346000D02*
X179324000Y-100202700D01*
X152209350Y-101346000D02*
X178180700Y-101346000D01*
X179324000Y-100202700D02*
X179324000Y-98425300D01*
X179324000Y-98425300D02*
X178434700Y-97536000D01*
X149986700Y-99123350D02*
X152209350Y-101346000D01*
%TO.N,/time-bar/SF_ROW0*%
X170942000Y-81788000D02*
X172846700Y-83692700D01*
X172846700Y-83692700D02*
X172846700Y-83820000D01*
%TO.N,/time-bar/SF_COM3*%
X175386700Y-83058000D02*
X176148700Y-82296000D01*
X175386700Y-83820000D02*
X175386700Y-83058000D01*
X178562000Y-82296000D02*
X179323700Y-83057700D01*
X179323700Y-84836300D02*
X171958000Y-92202000D01*
X176148700Y-82296000D02*
X178562000Y-82296000D01*
X179323700Y-83057700D02*
X179323700Y-84836300D01*
%TO.N,/time-bar/SF_COM1*%
X152908000Y-89408000D02*
X149986700Y-86486700D01*
X158242000Y-89408000D02*
X152908000Y-89408000D01*
X149986700Y-86486700D02*
X149986700Y-83820000D01*
%TO.N,/time-bar/SF_ROW8*%
X160146700Y-83820000D02*
X157860700Y-81534000D01*
X130810000Y-82422700D02*
X130810000Y-84582000D01*
X133222700Y-85344000D02*
X134746700Y-83820000D01*
X157860700Y-81534000D02*
X131698700Y-81534000D01*
X131698700Y-81534000D02*
X130810000Y-82422700D01*
X130810000Y-84582000D02*
X131572000Y-85344000D01*
X131572000Y-85344000D02*
X133222700Y-85344000D01*
%TO.N,/time-bar/SF_ROW5*%
X133984700Y-82042000D02*
X132206700Y-83820000D01*
%TO.N,/time-bar/SF_ROW10*%
X164592000Y-80772000D02*
X167640000Y-83820000D01*
X167640000Y-83820000D02*
X167766700Y-83820000D01*
%TO.N,/time-bar/SF_ROW2*%
X167640000Y-100838000D02*
X176148700Y-100838000D01*
%TO.N,/time-bar/SF_COM2*%
X157480000Y-88646000D02*
X158750000Y-88646000D01*
X158750000Y-88646000D02*
X162686700Y-84709300D01*
X162686700Y-84709300D02*
X162686700Y-83820000D01*
%TO.N,/time-bar/SF_ROW13*%
X142366700Y-93472000D02*
X142366700Y-99060000D01*
%TO.N,/time-bar/SF_ROW6*%
X170180000Y-83820000D02*
X170306700Y-83820000D01*
X167640000Y-81280000D02*
X170180000Y-83820000D01*
%TO.N,/time-bar/SF_ROW5*%
X155828700Y-82042000D02*
X133984700Y-82042000D01*
X157606700Y-83820000D02*
X155828700Y-82042000D01*
%TO.N,/time-bar/SF_ROW2*%
X163830000Y-100838000D02*
X154304700Y-100838000D01*
X166496700Y-100838000D02*
X167640000Y-100838000D01*
X176148700Y-100838000D02*
X177926700Y-99060000D01*
X166496700Y-100838000D02*
X163830000Y-100838000D01*
X154304700Y-100838000D02*
X152526700Y-99060000D01*
%TO.N,+3.3V*%
X209720777Y-95758000D02*
X210566000Y-95758000D01*
D33*
X210844208Y-93136011D02*
X209976197Y-92268000D01*
D31*
X209854800Y-88884011D02*
X210331600Y-88884011D01*
D32*
X212991100Y-93136011D02*
X215036100Y-95181011D01*
D31*
X209854800Y-92065477D02*
X209854800Y-88884011D01*
X213888378Y-94422538D02*
X213888378Y-94123455D01*
D32*
X216954100Y-95181011D02*
X218440000Y-96666911D01*
D31*
X209800511Y-92268000D02*
X209652277Y-92268000D01*
D32*
X214782100Y-96946011D02*
X214782100Y-94927011D01*
D31*
X212223305Y-96087611D02*
X213888378Y-94422538D01*
D32*
X218440000Y-96666911D02*
X218440000Y-101600000D01*
D31*
X210566000Y-95758000D02*
X210895611Y-96087611D01*
D34*
X212242100Y-93136011D02*
X210844208Y-93136011D01*
D31*
X209720777Y-97282000D02*
X209720777Y-95758000D01*
D32*
X215036100Y-95181011D02*
X216954100Y-95181011D01*
D35*
X214795100Y-95207011D02*
X214782100Y-95194011D01*
D32*
X212242100Y-93136011D02*
X212991100Y-93136011D01*
D31*
X210895611Y-96087611D02*
X212223305Y-96087611D01*
%TO.N,GND*%
D35*
X205384100Y-93961011D02*
X205093300Y-93961011D01*
D34*
X207543100Y-89475010D02*
X207902101Y-89834011D01*
X209550000Y-98552000D02*
X210040200Y-98061800D01*
X210040200Y-98061800D02*
X210135415Y-98061800D01*
D32*
X192786000Y-100076000D02*
X192024000Y-100838000D01*
X182244700Y-104140000D02*
X76200000Y-104140000D01*
X76200000Y-104140000D02*
X76200000Y-98678700D01*
X185546700Y-100838000D02*
X182244700Y-104140000D01*
X220980000Y-101600000D02*
X220980000Y-99060000D01*
X220980000Y-103550011D02*
X225958100Y-103550011D01*
D34*
X206012989Y-93707011D02*
X206502000Y-93218000D01*
X203708000Y-92710000D02*
X202438000Y-92710000D01*
X210425577Y-97771638D02*
X210425577Y-97676423D01*
D32*
X66040000Y-93980000D02*
X68326000Y-91694000D01*
X209550000Y-103550011D02*
X209550000Y-98552000D01*
X185546700Y-100838000D02*
X185546700Y-99060000D01*
D34*
X210425577Y-97676423D02*
X211142989Y-96959011D01*
X207902101Y-89834011D02*
X208564600Y-89834011D01*
X201930000Y-92202000D02*
X201930000Y-90170000D01*
D32*
X68326000Y-91694000D02*
X68326000Y-89662000D01*
D34*
X213004100Y-96959011D02*
X214007100Y-97962011D01*
D32*
X192024000Y-100838000D02*
X185546700Y-100838000D01*
X227482100Y-86657511D02*
X227482100Y-89280011D01*
X225806000Y-103397911D02*
X225806000Y-92468056D01*
X225806000Y-92468056D02*
X227436100Y-90837956D01*
D34*
X202438000Y-87630000D02*
X203626011Y-87630000D01*
D32*
X197637100Y-89426412D02*
X197637100Y-88900000D01*
D34*
X202438000Y-92710000D02*
X201930000Y-92202000D01*
D32*
X76154689Y-98724011D02*
X67902811Y-98724011D01*
D34*
X215492100Y-97962011D02*
X216515100Y-96939011D01*
D32*
X196088000Y-90815700D02*
X197738700Y-89165000D01*
X205085777Y-97219000D02*
X205022777Y-97282000D01*
X196591022Y-100076000D02*
X192786000Y-100076000D01*
D34*
X204705011Y-93707011D02*
X203708000Y-92710000D01*
D32*
X70358000Y-87630000D02*
X70358000Y-85852000D01*
D34*
X205625100Y-86786011D02*
X207143300Y-88304211D01*
D32*
X66040000Y-96861200D02*
X66040000Y-93980000D01*
D34*
X204470000Y-86786011D02*
X205625100Y-86786011D01*
X207143300Y-88304211D02*
X207143738Y-88304211D01*
X201930000Y-90170000D02*
X201930000Y-88138000D01*
D32*
X196088000Y-99695300D02*
X196088000Y-90815700D01*
D34*
X210135415Y-98061800D02*
X210425577Y-97771638D01*
X207433900Y-88594811D02*
X207543100Y-88704011D01*
D32*
X220980000Y-103550011D02*
X200065033Y-103550011D01*
X196468700Y-100076000D02*
X196088000Y-99695300D01*
D34*
X206502000Y-93218000D02*
X207377277Y-93218000D01*
X201930000Y-88138000D02*
X202438000Y-87630000D01*
D31*
X205085777Y-93707011D02*
X204705011Y-93707011D01*
D32*
X70358000Y-85852000D02*
X66040000Y-81534000D01*
X200065033Y-103550011D02*
X196591022Y-100076000D01*
D34*
X203626011Y-87630000D02*
X204470000Y-86786011D01*
D32*
X76200000Y-98678700D02*
X76154689Y-98724011D01*
X197738700Y-89165000D02*
X198743700Y-90170000D01*
X227436100Y-90837956D02*
X227436100Y-89326011D01*
D34*
X207543100Y-88704011D02*
X207543100Y-89475010D01*
D31*
X205130100Y-93707011D02*
X205067100Y-93770011D01*
D32*
X198743700Y-90170000D02*
X201930000Y-90170000D01*
X225958100Y-103550011D02*
X225806000Y-103397911D01*
X205085777Y-93707011D02*
X205085777Y-97219000D01*
D35*
X211480100Y-96959011D02*
X211480100Y-97198700D01*
D34*
X207433900Y-88594373D02*
X207433900Y-88594811D01*
D32*
X227482100Y-89280011D02*
X227436100Y-89326011D01*
X220980000Y-103550011D02*
X220980000Y-101600000D01*
D34*
X207143738Y-88304211D02*
X207433900Y-88594373D01*
X205085777Y-93707011D02*
X206012989Y-93707011D01*
D32*
X67902811Y-98724011D02*
X66040000Y-96861200D01*
D34*
X214007100Y-97962011D02*
X215492100Y-97962011D01*
D32*
X68326000Y-89662000D02*
X70358000Y-87630000D01*
D34*
X211142989Y-96959011D02*
X213004100Y-96959011D01*
%TO.N,Net-(R10-Pad1)*%
D35*
X205130100Y-89009011D02*
X205130100Y-87611011D01*
D31*
X205130100Y-87993011D02*
X205130100Y-89009011D01*
X205130100Y-89009011D02*
X206654100Y-89009011D01*
%TO.N,Net-(U3-VIN+)*%
X206654100Y-90659011D02*
X206672777Y-90659011D01*
X206672777Y-90659011D02*
X206752766Y-90739000D01*
X205955100Y-92057011D02*
X206654100Y-91358011D01*
X206654100Y-91358011D02*
X206654100Y-90659011D01*
X205130100Y-92057011D02*
X205955100Y-92057011D01*
X205384100Y-92311011D02*
X205130100Y-92057011D01*
X206752766Y-90739000D02*
X208564600Y-90739000D01*
X208244600Y-90850011D02*
X208244600Y-90596011D01*
%TO.N,/LTC_TX*%
X205130100Y-85961011D02*
X204876100Y-85961011D01*
X203996600Y-85961011D02*
X203362100Y-86595511D01*
X204876100Y-85961011D02*
X203996600Y-85961011D01*
%TO.N,/time-bar/HM_ROW14*%
X80136700Y-82550000D02*
X80136700Y-84353400D01*
%TO.N,/LTX_RX*%
X204709611Y-92939611D02*
X206088500Y-92939611D01*
X203362100Y-91592100D02*
X203210000Y-91440000D01*
X203362100Y-91675511D02*
X203362100Y-91592100D01*
X203210000Y-91440000D02*
X204709611Y-92939611D01*
X206842100Y-92186011D02*
X207548600Y-92186011D01*
X206088500Y-92939611D02*
X206842100Y-92186011D01*
X203362100Y-91675511D02*
X203362100Y-91094011D01*
%TO.N,/IN*%
X218075100Y-91365511D02*
X213757100Y-91365511D01*
X209389700Y-91440000D02*
X209112111Y-91440000D01*
X213258100Y-87089011D02*
X212311011Y-87089011D01*
X213360000Y-87190911D02*
X213258100Y-87089011D01*
X208813100Y-87681511D02*
X209550000Y-88418411D01*
X209550000Y-88418411D02*
X209550000Y-91279700D01*
X209550000Y-91279700D02*
X209389700Y-91440000D01*
X208534000Y-93542111D02*
X207990100Y-94086011D01*
X219446100Y-88698511D02*
X219446100Y-89994511D01*
X206717100Y-95676011D02*
X208115100Y-95676011D01*
X209112111Y-91440000D02*
X208534000Y-92018111D01*
X212311011Y-87089011D02*
X211881011Y-86659011D01*
X213360000Y-90968411D02*
X213360000Y-87190911D01*
X208813100Y-86786011D02*
X208813100Y-87681511D01*
X207548600Y-94086011D02*
X206717100Y-94917511D01*
X213757100Y-91365511D02*
X213360000Y-90968411D01*
X208940100Y-86659011D02*
X208813100Y-86786011D01*
X206717100Y-94917511D02*
X206717100Y-95676011D01*
X211881011Y-86659011D02*
X208940100Y-86659011D01*
X207990100Y-94086011D02*
X207548600Y-94086011D01*
X219446100Y-89994511D02*
X218075100Y-91365511D01*
X213258100Y-87089011D02*
X213871100Y-86476011D01*
X208534000Y-92018111D02*
X208534000Y-93542111D01*
%TO.N,/VREF*%
X211355100Y-94086011D02*
X209823600Y-94086011D01*
D35*
X211480100Y-95409011D02*
X211480100Y-94177411D01*
D31*
X209067100Y-96488063D02*
X209067100Y-95028011D01*
X208070777Y-97282000D02*
X208273163Y-97282000D01*
X207988788Y-97200011D02*
X208070777Y-97282000D01*
X208273163Y-97282000D02*
X209067100Y-96488063D01*
X206717100Y-97200011D02*
X207988788Y-97200011D01*
D35*
X211366100Y-95409011D02*
X211480100Y-95409011D01*
D31*
X209067100Y-95028011D02*
X210134100Y-93961011D01*
X211480100Y-93961011D02*
X211355100Y-94086011D01*
%TO.N,/AMP_nEN0*%
X208673100Y-95071885D02*
X208762300Y-95161085D01*
X208604111Y-96520000D02*
X206064111Y-96520000D01*
X204592188Y-97985600D02*
X204433294Y-97826706D01*
X208673100Y-93911011D02*
X208673100Y-95071885D01*
X209448100Y-93136011D02*
X208673100Y-93911011D01*
X206064111Y-96520000D02*
X205892100Y-96692011D01*
X208762300Y-96361811D02*
X208604111Y-96520000D01*
X209823600Y-93136011D02*
X209448100Y-93136011D01*
X203362100Y-96755511D02*
X204433294Y-97826706D01*
X205892100Y-96692011D02*
X205892100Y-97637900D01*
X208762300Y-95161085D02*
X208762300Y-96361811D01*
X205892100Y-97637900D02*
X205544400Y-97985600D01*
X205544400Y-97985600D02*
X204592188Y-97985600D01*
X203425600Y-96692011D02*
X203362100Y-96755511D01*
%TO.N,/nLTC_TX*%
X203362100Y-89135511D02*
X204885600Y-90659011D01*
D35*
X205130100Y-90903511D02*
X204885600Y-90659011D01*
%TO.N,/OUTPUT*%
D31*
X212267052Y-86614000D02*
X212866055Y-86614000D01*
X211226100Y-85707011D02*
X210578900Y-86354211D01*
X217527589Y-86233000D02*
X217567100Y-86272511D01*
X215885499Y-85852000D02*
X216266499Y-86233000D01*
X208280000Y-86354211D02*
X207015789Y-86354211D01*
X213628055Y-85852000D02*
X215885499Y-85852000D01*
X216266499Y-86233000D02*
X217527589Y-86233000D01*
X212866055Y-86614000D02*
X213628055Y-85852000D01*
X211226100Y-85707011D02*
X211360063Y-85707011D01*
X208280000Y-86354211D02*
X208280000Y-88554400D01*
X208280000Y-88554400D02*
X208564600Y-88839000D01*
D35*
X208564600Y-88884011D02*
X208432100Y-88751511D01*
D31*
X207015789Y-86354211D02*
X207010000Y-86360000D01*
X210578900Y-86354211D02*
X208280000Y-86354211D01*
X217563100Y-86469011D02*
X219148600Y-86469011D01*
X211360063Y-85707011D02*
X212267052Y-86614000D01*
%TO.N,/IN_OUT_R*%
X220996100Y-93397511D02*
X222736100Y-95137511D01*
X221009100Y-88317511D02*
X221009100Y-86412511D01*
X220996100Y-88698511D02*
X220996100Y-93397511D01*
X222736100Y-95137511D02*
X222736100Y-96326011D01*
%TO.N,/BLINK*%
X218440000Y-78740000D02*
X218440000Y-83820000D01*
X223345600Y-86476011D02*
X223981100Y-86476011D01*
X219449350Y-85293761D02*
X219473600Y-85269511D01*
X218592100Y-84055511D02*
X218592100Y-84436511D01*
X219473600Y-85269511D02*
X222139100Y-85269511D01*
X218592100Y-84436511D02*
X219449350Y-85293761D01*
X222139100Y-85269511D02*
X223345600Y-86476011D01*
%TO.N,Net-(LED1-Pad2)*%
X225631100Y-86476011D02*
X225631100Y-85333511D01*
X225631100Y-85333511D02*
X226718600Y-84246011D01*
X226718600Y-84246011D02*
X227482100Y-84246011D01*
%TO.N,Net-(J1-Pin_1)*%
X223520000Y-78740000D02*
X223520000Y-83820000D01*
%TO.N,Net-(J1-Pin_2)*%
X220980000Y-78740000D02*
X220980000Y-83820000D01*
%TO.N,Net-(J1-Pin_4)*%
X216052100Y-78947011D02*
X216042100Y-78937011D01*
X215900000Y-78740000D02*
X215900000Y-83820000D01*
%TO.N,/SPI0_DC*%
X213512100Y-78947011D02*
X213502100Y-78937011D01*
X213360000Y-78740000D02*
X213360000Y-83820000D01*
%TO.N,/SPI0_CSn*%
X210972100Y-78947011D02*
X210962100Y-78937011D01*
X210820000Y-78740000D02*
X210820000Y-83820000D01*
%TO.N,/SPI0_SCK*%
X208432100Y-78947011D02*
X208422100Y-78937011D01*
X208280000Y-78740000D02*
X208280000Y-83820000D01*
%TO.N,/SPI0_TX*%
X205882100Y-84045511D02*
X205892100Y-84055511D01*
X205740000Y-78740000D02*
X205740000Y-83820000D01*
%TO.N,/AMP_nEN1*%
X203352100Y-78947011D02*
X203342100Y-78937011D01*
X208254300Y-85211211D02*
X204507800Y-85211211D01*
X203352100Y-84055511D02*
X203352100Y-78947011D01*
X208750100Y-85707011D02*
X208254300Y-85211211D01*
X209702100Y-85707011D02*
X208750100Y-85707011D01*
X204507800Y-85211211D02*
X203352100Y-84055511D01*
D35*
X209639100Y-85770011D02*
X209702100Y-85707011D01*
%TO.N,/IN_OUT_L*%
D31*
X217567100Y-88123011D02*
X217567100Y-88571511D01*
X216812600Y-89326011D02*
X215036100Y-89326011D01*
X215421100Y-88941011D02*
X215036100Y-89326011D01*
X215421100Y-86476011D02*
X215421100Y-88941011D01*
X217567100Y-88571511D02*
X216812600Y-89326011D01*
X217563100Y-88119011D02*
X217567100Y-88123011D01*
%TO.N,/DETECT*%
X221242889Y-97790000D02*
X222250000Y-98797111D01*
X225044000Y-102616000D02*
X225044000Y-89833911D01*
X225044000Y-89833911D02*
X224536100Y-89326011D01*
X224790000Y-102870000D02*
X225044000Y-102616000D01*
X220218000Y-97790000D02*
X221242889Y-97790000D01*
X219291500Y-102850611D02*
X219710000Y-102432111D01*
X212050700Y-102850611D02*
X219291500Y-102850611D01*
X219710000Y-102432111D02*
X219710000Y-98298000D01*
X219710000Y-98298000D02*
X220218000Y-97790000D01*
X210820000Y-99060000D02*
X210820000Y-101600000D01*
X222250000Y-102870000D02*
X224790000Y-102870000D01*
X210972100Y-101772011D02*
X212050700Y-102850611D01*
X222250000Y-98797111D02*
X222250000Y-102870000D01*
%TO.N,Net-(U3-VIN-)*%
X212242100Y-91287900D02*
X211480100Y-92049900D01*
X211480100Y-92049900D02*
X211480100Y-92311011D01*
X212242100Y-87675011D02*
X211924100Y-87357011D01*
X211159600Y-90850011D02*
X211480100Y-90850011D01*
X212242100Y-90850011D02*
X212242100Y-90678000D01*
X212242100Y-90678000D02*
X212242100Y-87675011D01*
X211480100Y-90850011D02*
X212242100Y-90850011D01*
X212242100Y-90678000D02*
X212242100Y-91287900D01*
X211924100Y-87357011D02*
X211226100Y-87357011D01*
%TO.N,Net-(U3-\u002ACS)*%
X209956100Y-88056011D02*
X209702100Y-87802011D01*
X211480100Y-89834011D02*
X211937300Y-89376811D01*
X209702100Y-87802011D02*
X209702100Y-87357011D01*
X211937300Y-88513211D02*
X211480100Y-88056011D01*
X211937300Y-89376811D02*
X211937300Y-88513211D01*
X211093600Y-89834011D02*
X211480100Y-89834011D01*
X211480100Y-88056011D02*
X209956100Y-88056011D01*
%TO.N,/VBUS*%
D32*
X223520000Y-99060000D02*
X223520000Y-101600000D01*
%TO.N,/ROT_SW*%
D31*
X216306100Y-101772011D02*
X216052100Y-101772011D01*
D34*
X79456689Y-78150011D02*
X78866700Y-78740000D01*
D31*
X215900000Y-99060000D02*
X215900000Y-101600000D01*
X216052100Y-99295511D02*
X216052100Y-98978011D01*
D34*
X183560011Y-78150011D02*
X79456689Y-78150011D01*
X192150700Y-86740700D02*
X183560011Y-78150011D01*
X192150700Y-96520000D02*
X192150700Y-86740700D01*
%TO.N,/CLAP_SW*%
X80448189Y-78658011D02*
X79559794Y-79546406D01*
X183306011Y-78658011D02*
X80448189Y-78658011D01*
D31*
X213360000Y-99060000D02*
X213360000Y-101600000D01*
D34*
X191516000Y-97282000D02*
X191516000Y-86868000D01*
D31*
X213512100Y-99295511D02*
X213703100Y-99104511D01*
D34*
X191516000Y-86868000D02*
X183306011Y-78658011D01*
%TO.N,/SPI0_RST*%
D33*
X212705777Y-85725000D02*
X212225100Y-85244323D01*
D31*
X208280000Y-99060000D02*
X208280000Y-101600000D01*
D33*
X212225100Y-85244323D02*
X212225100Y-81596011D01*
%TO.N,/I2C1_SCLK*%
D31*
X205740000Y-99060000D02*
X205740000Y-101526223D01*
X205740000Y-101526223D02*
X205830777Y-101617000D01*
%TO.N,/I2C1_SDA*%
X203200000Y-99060000D02*
X203200000Y-101526223D01*
X203200000Y-101526223D02*
X203290777Y-101617000D01*
%TO.N,/KEYA*%
X199542100Y-92651013D02*
X200454102Y-92651013D01*
X198812098Y-92651013D02*
X199542100Y-92651013D01*
X198812098Y-92651013D02*
X197637100Y-93826011D01*
X200454102Y-92651013D02*
X202018600Y-94215511D01*
X202018600Y-94215511D02*
X203362100Y-94215511D01*
%TO.N,/sony_mi/VBAT*%
D32*
X225298000Y-83312000D02*
X226568000Y-82042000D01*
X226568000Y-82042000D02*
X226568000Y-78486000D01*
X225044000Y-83312000D02*
X225298000Y-83312000D01*
X198586000Y-79036000D02*
X198586000Y-81042000D01*
X226568000Y-78486000D02*
X225298000Y-77216000D01*
X200406000Y-77216000D02*
X198586000Y-79036000D01*
X225298000Y-77216000D02*
X200406000Y-77216000D01*
%TO.N,/sony_mi/PWR_UNREG*%
X220980000Y-94996000D02*
X220472000Y-94488000D01*
X215392000Y-94488000D02*
X212724700Y-91820700D01*
X212724700Y-91820700D02*
X212724700Y-90170000D01*
X220472000Y-94488000D02*
X215392000Y-94488000D01*
%TD*%
M02*
