M48
; DRILL file KiCad 10.0.5 date 2026-07-29T19:35:35
; FORMAT={-:-/ absolute / metric / decimal}
; #@! TF.CreationDate,2026-07-29T19:35:35-06:00
; #@! TF.GenerationSoftware,Kicad,Pcbnew,10.0.5
; #@! TF.FileFunction,Plated,1,2,PTH
FMAT,2
METRIC
; #@! TA.AperFunction,Plated,PTH,ViaDrill
T1C0.305
; #@! TA.AperFunction,Plated,PTH,ComponentDrill
T2C0.500
; #@! TA.AperFunction,Plated,PTH,ComponentDrill
T3C0.750
; #@! TA.AperFunction,Plated,PTH,ComponentDrill
T4C0.762
; #@! TA.AperFunction,Plated,PTH,ComponentDrill
T5C0.990
; #@! TA.AperFunction,Plated,PTH,ComponentDrill
T6C1.000
; #@! TA.AperFunction,Plated,PTH,ComponentDrill
T7C1.300
%
G90
G05
T1
X78.867Y-78.74
X79.56Y-79.546
X87.63Y-91.948
X87.693Y-94.297
X88.519Y-101.092
X89.281Y-81.026
X91.821Y-82.042
X91.821Y-101.6
X92.227Y-86.614
X92.392Y-80.543
X94.869Y-102.108
X96.647Y-89.662
X97.663Y-92.202
X98.933Y-91.694
X99.314Y-93.98
X100.203Y-93.472
X100.711Y-92.456
X101.219Y-93.472
X101.346Y-88.646
X101.981Y-94.234
X102.616Y-88.9
X105.664Y-88.773
X106.299Y-90.145
X106.934Y-88.138
X107.569Y-89.662
X113.728Y-89.98
X114.3Y-80.797
X116.903Y-101.829
X117.094Y-89.408
X117.221Y-81.28
X119.634Y-88.875
X123.063Y-81.788
X136.398Y-101.092
X139.827Y-94.005
X142.24Y-101.6
X142.367Y-93.472
X142.557Y-81.051
X145.161Y-102.083
X145.732Y-92.9
X151.892Y-93.218
X152.527Y-94.742
X153.162Y-92.735
X154.305Y-94.488
X156.845Y-94.107
X157.48Y-88.646
X157.988Y-94.742
X158.242Y-89.408
X158.75Y-90.424
X159.258Y-89.408
X160.02Y-88.9
X160.528Y-90.17
X161.798Y-90.678
X162.687Y-93.218
X164.592Y-80.772
X166.307Y-96.266
X167.068Y-102.337
X167.64Y-81.28
X167.64Y-100.838
X170.18Y-90.932
X170.18Y-101.854
X170.942Y-81.788
X171.196Y-89.154
X190.627Y-94.513
X191.516Y-97.282
X192.151Y-96.52
X198.812Y-92.651
X212.242Y-93.136
X212.706Y-85.725
X212.725Y-90.17
X220.98Y-94.996
X225.044Y-83.312
X225.806Y-93.472
T2
X207.01Y-86.36
T3
X198.586Y-81.042
X198.586Y-83.042
T4
X81.407Y-83.82
X81.407Y-99.06
X83.947Y-83.82
X83.947Y-99.06
X86.487Y-83.82
X86.487Y-99.06
X89.027Y-83.82
X89.027Y-99.06
X91.567Y-83.82
X91.567Y-99.06
X94.107Y-83.82
X94.107Y-99.06
X96.647Y-83.82
X96.647Y-99.06
X99.187Y-83.82
X99.187Y-99.06
X101.727Y-83.82
X101.727Y-99.06
X106.807Y-83.82
X106.807Y-99.06
X109.347Y-83.82
X109.347Y-99.06
X111.887Y-83.82
X111.887Y-99.06
X114.427Y-83.82
X114.427Y-99.06
X116.967Y-83.82
X116.967Y-99.06
X119.507Y-83.82
X119.507Y-99.06
X122.047Y-83.82
X122.047Y-99.06
X124.587Y-83.82
X124.587Y-99.06
X127.127Y-83.82
X127.127Y-99.06
X132.207Y-83.82
X132.207Y-99.06
X134.747Y-83.82
X134.747Y-99.06
X137.287Y-83.82
X137.287Y-99.06
X139.827Y-83.82
X139.827Y-99.06
X142.367Y-83.82
X142.367Y-99.06
X144.907Y-83.82
X144.907Y-99.06
X147.447Y-83.82
X147.447Y-99.06
X149.987Y-83.82
X149.987Y-99.06
X152.527Y-83.82
X152.527Y-99.06
X157.607Y-83.82
X157.607Y-99.06
X160.147Y-83.82
X160.147Y-99.06
X162.687Y-83.82
X162.687Y-99.06
X165.227Y-83.82
X165.227Y-99.06
X167.767Y-83.82
X167.767Y-99.06
X170.307Y-83.82
X170.307Y-99.06
X172.847Y-83.82
X172.847Y-99.06
X175.387Y-83.82
X175.387Y-99.06
X177.927Y-83.82
X177.927Y-99.06
T5
X66.04Y-81.534
X66.04Y-86.034
X66.04Y-96.861
X66.04Y-101.361
X197.736Y-89.165
X197.736Y-93.665
T6
X73.66Y-104.14
X76.2Y-104.14
X183.007Y-99.06
X185.547Y-99.06
X188.087Y-99.06
X190.627Y-99.06
X203.2Y-78.74
X203.2Y-83.82
X203.2Y-99.06
X203.2Y-101.6
X203.21Y-86.36
X203.21Y-88.9
X203.21Y-91.44
X203.21Y-93.98
X203.21Y-96.52
X204.47Y-81.28
X205.74Y-78.74
X205.74Y-83.82
X205.74Y-99.06
X205.74Y-101.6
X207.01Y-81.28
X208.28Y-78.74
X208.28Y-83.82
X208.28Y-99.06
X208.28Y-101.6
X209.55Y-81.28
X210.82Y-78.74
X210.82Y-83.82
X210.82Y-99.06
X210.82Y-101.6
X212.09Y-81.28
X213.36Y-78.74
X213.36Y-83.82
X213.36Y-99.06
X213.36Y-101.6
X214.63Y-81.28
X215.9Y-78.74
X215.9Y-83.82
X215.9Y-99.06
X215.9Y-101.6
X217.17Y-81.28
X218.44Y-78.74
X218.44Y-83.82
X218.44Y-99.06
X218.44Y-101.6
X219.71Y-81.28
X220.98Y-78.74
X220.98Y-83.82
X220.98Y-99.06
X220.98Y-101.6
X222.25Y-81.28
X223.52Y-78.74
X223.52Y-83.82
X223.52Y-99.06
X223.52Y-101.6
T7
X68.53Y-80.284
X68.53Y-87.294
X68.53Y-95.611
X68.53Y-102.621
X200.226Y-87.915
X200.226Y-94.925
M30
