%TF.GenerationSoftware,KiCad,Pcbnew,10.0.5*%
%TF.CreationDate,2026-07-29T19:35:32-06:00*%
%TF.ProjectId,pt_thrifty,70745f74-6872-4696-9674-792e6b696361,rev?*%
%TF.SameCoordinates,Original*%
%TF.FileFunction,Legend,Top*%
%TF.FilePolarity,Positive*%
%FSLAX46Y46*%
G04 Gerber Fmt 4.6, Leading zero omitted, Abs format (unit mm)*
G04 Created by KiCad (PCBNEW 10.0.5) date 2026-07-29 19:35:32*
%MOMM*%
%LPD*%
G01*
G04 APERTURE LIST*
%ADD10C,0.100000*%
%ADD11C,0.150000*%
%ADD12C,0.240000*%
%ADD13C,0.500000*%
%ADD14C,0.120000*%
%ADD15C,0.127000*%
%ADD16C,0.200000*%
%ADD17C,0.152400*%
G04 APERTURE END LIST*
D10*
X196088000Y-97155000D02*
X200977500Y-97155000D01*
X200977500Y-105918000D01*
X196088000Y-105918000D01*
X196088000Y-97155000D01*
G36*
X196088000Y-97155000D02*
G01*
X200977500Y-97155000D01*
X200977500Y-105918000D01*
X196088000Y-105918000D01*
X196088000Y-97155000D01*
G37*
D11*
X213995713Y-105812295D02*
X213729046Y-105431342D01*
X213538570Y-105812295D02*
X213538570Y-105012295D01*
X213538570Y-105012295D02*
X213843332Y-105012295D01*
X213843332Y-105012295D02*
X213919522Y-105050390D01*
X213919522Y-105050390D02*
X213957617Y-105088485D01*
X213957617Y-105088485D02*
X213995713Y-105164676D01*
X213995713Y-105164676D02*
X213995713Y-105278961D01*
X213995713Y-105278961D02*
X213957617Y-105355152D01*
X213957617Y-105355152D02*
X213919522Y-105393247D01*
X213919522Y-105393247D02*
X213843332Y-105431342D01*
X213843332Y-105431342D02*
X213538570Y-105431342D01*
X214643332Y-105774200D02*
X214567141Y-105812295D01*
X214567141Y-105812295D02*
X214414760Y-105812295D01*
X214414760Y-105812295D02*
X214338570Y-105774200D01*
X214338570Y-105774200D02*
X214300474Y-105698009D01*
X214300474Y-105698009D02*
X214300474Y-105393247D01*
X214300474Y-105393247D02*
X214338570Y-105317057D01*
X214338570Y-105317057D02*
X214414760Y-105278961D01*
X214414760Y-105278961D02*
X214567141Y-105278961D01*
X214567141Y-105278961D02*
X214643332Y-105317057D01*
X214643332Y-105317057D02*
X214681427Y-105393247D01*
X214681427Y-105393247D02*
X214681427Y-105469438D01*
X214681427Y-105469438D02*
X214300474Y-105545628D01*
X214948093Y-105278961D02*
X215138569Y-105812295D01*
X215138569Y-105812295D02*
X215329046Y-105278961D01*
X215557617Y-105012295D02*
X216052855Y-105012295D01*
X216052855Y-105012295D02*
X215786189Y-105317057D01*
X215786189Y-105317057D02*
X215900474Y-105317057D01*
X215900474Y-105317057D02*
X215976665Y-105355152D01*
X215976665Y-105355152D02*
X216014760Y-105393247D01*
X216014760Y-105393247D02*
X216052855Y-105469438D01*
X216052855Y-105469438D02*
X216052855Y-105659914D01*
X216052855Y-105659914D02*
X216014760Y-105736104D01*
X216014760Y-105736104D02*
X215976665Y-105774200D01*
X215976665Y-105774200D02*
X215900474Y-105812295D01*
X215900474Y-105812295D02*
X215671903Y-105812295D01*
X215671903Y-105812295D02*
X215595712Y-105774200D01*
X215595712Y-105774200D02*
X215557617Y-105736104D01*
X217652856Y-105202771D02*
X217576665Y-105164676D01*
X217576665Y-105164676D02*
X217424284Y-105164676D01*
X217424284Y-105164676D02*
X217348094Y-105202771D01*
X217348094Y-105202771D02*
X217271903Y-105278961D01*
X217271903Y-105278961D02*
X217233808Y-105355152D01*
X217233808Y-105355152D02*
X217233808Y-105507533D01*
X217233808Y-105507533D02*
X217271903Y-105583723D01*
X217271903Y-105583723D02*
X217348094Y-105659914D01*
X217348094Y-105659914D02*
X217424284Y-105698009D01*
X217424284Y-105698009D02*
X217576665Y-105698009D01*
X217576665Y-105698009D02*
X217652856Y-105659914D01*
X217500475Y-104898009D02*
X217309999Y-104936104D01*
X217309999Y-104936104D02*
X217119522Y-105050390D01*
X217119522Y-105050390D02*
X217005237Y-105240866D01*
X217005237Y-105240866D02*
X216967141Y-105431342D01*
X216967141Y-105431342D02*
X217005237Y-105621819D01*
X217005237Y-105621819D02*
X217119522Y-105812295D01*
X217119522Y-105812295D02*
X217309999Y-105926580D01*
X217309999Y-105926580D02*
X217500475Y-105964676D01*
X217500475Y-105964676D02*
X217690951Y-105926580D01*
X217690951Y-105926580D02*
X217881427Y-105812295D01*
X217881427Y-105812295D02*
X217995713Y-105621819D01*
X217995713Y-105621819D02*
X218033808Y-105431342D01*
X218033808Y-105431342D02*
X217995713Y-105240866D01*
X217995713Y-105240866D02*
X217881427Y-105050390D01*
X217881427Y-105050390D02*
X217690951Y-104936104D01*
X217690951Y-104936104D02*
X217500475Y-104898009D01*
X218338570Y-105088485D02*
X218376666Y-105050390D01*
X218376666Y-105050390D02*
X218452856Y-105012295D01*
X218452856Y-105012295D02*
X218643332Y-105012295D01*
X218643332Y-105012295D02*
X218719523Y-105050390D01*
X218719523Y-105050390D02*
X218757618Y-105088485D01*
X218757618Y-105088485D02*
X218795713Y-105164676D01*
X218795713Y-105164676D02*
X218795713Y-105240866D01*
X218795713Y-105240866D02*
X218757618Y-105355152D01*
X218757618Y-105355152D02*
X218300475Y-105812295D01*
X218300475Y-105812295D02*
X218795713Y-105812295D01*
X219290952Y-105012295D02*
X219367142Y-105012295D01*
X219367142Y-105012295D02*
X219443333Y-105050390D01*
X219443333Y-105050390D02*
X219481428Y-105088485D01*
X219481428Y-105088485D02*
X219519523Y-105164676D01*
X219519523Y-105164676D02*
X219557618Y-105317057D01*
X219557618Y-105317057D02*
X219557618Y-105507533D01*
X219557618Y-105507533D02*
X219519523Y-105659914D01*
X219519523Y-105659914D02*
X219481428Y-105736104D01*
X219481428Y-105736104D02*
X219443333Y-105774200D01*
X219443333Y-105774200D02*
X219367142Y-105812295D01*
X219367142Y-105812295D02*
X219290952Y-105812295D01*
X219290952Y-105812295D02*
X219214761Y-105774200D01*
X219214761Y-105774200D02*
X219176666Y-105736104D01*
X219176666Y-105736104D02*
X219138571Y-105659914D01*
X219138571Y-105659914D02*
X219100475Y-105507533D01*
X219100475Y-105507533D02*
X219100475Y-105317057D01*
X219100475Y-105317057D02*
X219138571Y-105164676D01*
X219138571Y-105164676D02*
X219176666Y-105088485D01*
X219176666Y-105088485D02*
X219214761Y-105050390D01*
X219214761Y-105050390D02*
X219290952Y-105012295D01*
X219862380Y-105088485D02*
X219900476Y-105050390D01*
X219900476Y-105050390D02*
X219976666Y-105012295D01*
X219976666Y-105012295D02*
X220167142Y-105012295D01*
X220167142Y-105012295D02*
X220243333Y-105050390D01*
X220243333Y-105050390D02*
X220281428Y-105088485D01*
X220281428Y-105088485D02*
X220319523Y-105164676D01*
X220319523Y-105164676D02*
X220319523Y-105240866D01*
X220319523Y-105240866D02*
X220281428Y-105355152D01*
X220281428Y-105355152D02*
X219824285Y-105812295D01*
X219824285Y-105812295D02*
X220319523Y-105812295D01*
X221005238Y-105012295D02*
X220852857Y-105012295D01*
X220852857Y-105012295D02*
X220776666Y-105050390D01*
X220776666Y-105050390D02*
X220738571Y-105088485D01*
X220738571Y-105088485D02*
X220662381Y-105202771D01*
X220662381Y-105202771D02*
X220624285Y-105355152D01*
X220624285Y-105355152D02*
X220624285Y-105659914D01*
X220624285Y-105659914D02*
X220662381Y-105736104D01*
X220662381Y-105736104D02*
X220700476Y-105774200D01*
X220700476Y-105774200D02*
X220776666Y-105812295D01*
X220776666Y-105812295D02*
X220929047Y-105812295D01*
X220929047Y-105812295D02*
X221005238Y-105774200D01*
X221005238Y-105774200D02*
X221043333Y-105736104D01*
X221043333Y-105736104D02*
X221081428Y-105659914D01*
X221081428Y-105659914D02*
X221081428Y-105469438D01*
X221081428Y-105469438D02*
X221043333Y-105393247D01*
X221043333Y-105393247D02*
X221005238Y-105355152D01*
X221005238Y-105355152D02*
X220929047Y-105317057D01*
X220929047Y-105317057D02*
X220776666Y-105317057D01*
X220776666Y-105317057D02*
X220700476Y-105355152D01*
X220700476Y-105355152D02*
X220662381Y-105393247D01*
X220662381Y-105393247D02*
X220624285Y-105469438D01*
X221995714Y-105774200D02*
X222110000Y-105812295D01*
X222110000Y-105812295D02*
X222300476Y-105812295D01*
X222300476Y-105812295D02*
X222376667Y-105774200D01*
X222376667Y-105774200D02*
X222414762Y-105736104D01*
X222414762Y-105736104D02*
X222452857Y-105659914D01*
X222452857Y-105659914D02*
X222452857Y-105583723D01*
X222452857Y-105583723D02*
X222414762Y-105507533D01*
X222414762Y-105507533D02*
X222376667Y-105469438D01*
X222376667Y-105469438D02*
X222300476Y-105431342D01*
X222300476Y-105431342D02*
X222148095Y-105393247D01*
X222148095Y-105393247D02*
X222071905Y-105355152D01*
X222071905Y-105355152D02*
X222033810Y-105317057D01*
X222033810Y-105317057D02*
X221995714Y-105240866D01*
X221995714Y-105240866D02*
X221995714Y-105164676D01*
X221995714Y-105164676D02*
X222033810Y-105088485D01*
X222033810Y-105088485D02*
X222071905Y-105050390D01*
X222071905Y-105050390D02*
X222148095Y-105012295D01*
X222148095Y-105012295D02*
X222338572Y-105012295D01*
X222338572Y-105012295D02*
X222452857Y-105050390D01*
X222795715Y-105736104D02*
X222833810Y-105774200D01*
X222833810Y-105774200D02*
X222795715Y-105812295D01*
X222795715Y-105812295D02*
X222757619Y-105774200D01*
X222757619Y-105774200D02*
X222795715Y-105736104D01*
X222795715Y-105736104D02*
X222795715Y-105812295D01*
X223100476Y-105012295D02*
X223290952Y-105812295D01*
X223290952Y-105812295D02*
X223443333Y-105240866D01*
X223443333Y-105240866D02*
X223595714Y-105812295D01*
X223595714Y-105812295D02*
X223786191Y-105012295D01*
X224205238Y-105812295D02*
X224129048Y-105774200D01*
X224129048Y-105774200D02*
X224090953Y-105736104D01*
X224090953Y-105736104D02*
X224052857Y-105659914D01*
X224052857Y-105659914D02*
X224052857Y-105431342D01*
X224052857Y-105431342D02*
X224090953Y-105355152D01*
X224090953Y-105355152D02*
X224129048Y-105317057D01*
X224129048Y-105317057D02*
X224205238Y-105278961D01*
X224205238Y-105278961D02*
X224319524Y-105278961D01*
X224319524Y-105278961D02*
X224395715Y-105317057D01*
X224395715Y-105317057D02*
X224433810Y-105355152D01*
X224433810Y-105355152D02*
X224471905Y-105431342D01*
X224471905Y-105431342D02*
X224471905Y-105659914D01*
X224471905Y-105659914D02*
X224433810Y-105736104D01*
X224433810Y-105736104D02*
X224395715Y-105774200D01*
X224395715Y-105774200D02*
X224319524Y-105812295D01*
X224319524Y-105812295D02*
X224205238Y-105812295D01*
X224929048Y-105812295D02*
X224852858Y-105774200D01*
X224852858Y-105774200D02*
X224814763Y-105736104D01*
X224814763Y-105736104D02*
X224776667Y-105659914D01*
X224776667Y-105659914D02*
X224776667Y-105431342D01*
X224776667Y-105431342D02*
X224814763Y-105355152D01*
X224814763Y-105355152D02*
X224852858Y-105317057D01*
X224852858Y-105317057D02*
X224929048Y-105278961D01*
X224929048Y-105278961D02*
X225043334Y-105278961D01*
X225043334Y-105278961D02*
X225119525Y-105317057D01*
X225119525Y-105317057D02*
X225157620Y-105355152D01*
X225157620Y-105355152D02*
X225195715Y-105431342D01*
X225195715Y-105431342D02*
X225195715Y-105659914D01*
X225195715Y-105659914D02*
X225157620Y-105736104D01*
X225157620Y-105736104D02*
X225119525Y-105774200D01*
X225119525Y-105774200D02*
X225043334Y-105812295D01*
X225043334Y-105812295D02*
X224929048Y-105812295D01*
X225881430Y-105812295D02*
X225881430Y-105012295D01*
X225881430Y-105774200D02*
X225805239Y-105812295D01*
X225805239Y-105812295D02*
X225652858Y-105812295D01*
X225652858Y-105812295D02*
X225576668Y-105774200D01*
X225576668Y-105774200D02*
X225538573Y-105736104D01*
X225538573Y-105736104D02*
X225500477Y-105659914D01*
X225500477Y-105659914D02*
X225500477Y-105431342D01*
X225500477Y-105431342D02*
X225538573Y-105355152D01*
X225538573Y-105355152D02*
X225576668Y-105317057D01*
X225576668Y-105317057D02*
X225652858Y-105278961D01*
X225652858Y-105278961D02*
X225805239Y-105278961D01*
X225805239Y-105278961D02*
X225881430Y-105317057D01*
D12*
X202627608Y-105758662D02*
X202627608Y-104558662D01*
X202627608Y-104558662D02*
X203084751Y-104558662D01*
X203084751Y-104558662D02*
X203199036Y-104615805D01*
X203199036Y-104615805D02*
X203256179Y-104672948D01*
X203256179Y-104672948D02*
X203313322Y-104787234D01*
X203313322Y-104787234D02*
X203313322Y-104958662D01*
X203313322Y-104958662D02*
X203256179Y-105072948D01*
X203256179Y-105072948D02*
X203199036Y-105130091D01*
X203199036Y-105130091D02*
X203084751Y-105187234D01*
X203084751Y-105187234D02*
X202627608Y-105187234D01*
X203656179Y-104558662D02*
X204341894Y-104558662D01*
X203999036Y-105758662D02*
X203999036Y-104558662D01*
X204741894Y-105301520D02*
X205656180Y-105301520D01*
X206056179Y-104558662D02*
X206741894Y-104558662D01*
X206399036Y-105758662D02*
X206399036Y-104558662D01*
X207141894Y-105758662D02*
X207141894Y-104558662D01*
X207656180Y-105758662D02*
X207656180Y-105130091D01*
X207656180Y-105130091D02*
X207599037Y-105015805D01*
X207599037Y-105015805D02*
X207484751Y-104958662D01*
X207484751Y-104958662D02*
X207313322Y-104958662D01*
X207313322Y-104958662D02*
X207199037Y-105015805D01*
X207199037Y-105015805D02*
X207141894Y-105072948D01*
X208227608Y-105758662D02*
X208227608Y-104958662D01*
X208227608Y-105187234D02*
X208284751Y-105072948D01*
X208284751Y-105072948D02*
X208341894Y-105015805D01*
X208341894Y-105015805D02*
X208456179Y-104958662D01*
X208456179Y-104958662D02*
X208570465Y-104958662D01*
X208970465Y-105758662D02*
X208970465Y-104958662D01*
X208970465Y-104558662D02*
X208913322Y-104615805D01*
X208913322Y-104615805D02*
X208970465Y-104672948D01*
X208970465Y-104672948D02*
X209027608Y-104615805D01*
X209027608Y-104615805D02*
X208970465Y-104558662D01*
X208970465Y-104558662D02*
X208970465Y-104672948D01*
X209370465Y-104958662D02*
X209827608Y-104958662D01*
X209541894Y-105758662D02*
X209541894Y-104730091D01*
X209541894Y-104730091D02*
X209599037Y-104615805D01*
X209599037Y-104615805D02*
X209713322Y-104558662D01*
X209713322Y-104558662D02*
X209827608Y-104558662D01*
X210056179Y-104958662D02*
X210513322Y-104958662D01*
X210227608Y-104558662D02*
X210227608Y-105587234D01*
X210227608Y-105587234D02*
X210284751Y-105701520D01*
X210284751Y-105701520D02*
X210399036Y-105758662D01*
X210399036Y-105758662D02*
X210513322Y-105758662D01*
X210799036Y-104958662D02*
X211084750Y-105758662D01*
X211370465Y-104958662D02*
X211084750Y-105758662D01*
X211084750Y-105758662D02*
X210970465Y-106044377D01*
X210970465Y-106044377D02*
X210913322Y-106101520D01*
X210913322Y-106101520D02*
X210799036Y-106158662D01*
D11*
X90697255Y-105435914D02*
X90697255Y-103635914D01*
X90697255Y-103635914D02*
X91382969Y-103635914D01*
X91382969Y-103635914D02*
X91554398Y-103721628D01*
X91554398Y-103721628D02*
X91640112Y-103807342D01*
X91640112Y-103807342D02*
X91725826Y-103978771D01*
X91725826Y-103978771D02*
X91725826Y-104235914D01*
X91725826Y-104235914D02*
X91640112Y-104407342D01*
X91640112Y-104407342D02*
X91554398Y-104493057D01*
X91554398Y-104493057D02*
X91382969Y-104578771D01*
X91382969Y-104578771D02*
X90697255Y-104578771D01*
X92240112Y-103635914D02*
X93268684Y-103635914D01*
X92754398Y-105435914D02*
X92754398Y-103635914D01*
X93868684Y-104750200D02*
X95240113Y-104750200D01*
X95840112Y-103635914D02*
X96868684Y-103635914D01*
X96354398Y-105435914D02*
X96354398Y-103635914D01*
X97468684Y-105435914D02*
X97468684Y-103635914D01*
X98240113Y-105435914D02*
X98240113Y-104493057D01*
X98240113Y-104493057D02*
X98154398Y-104321628D01*
X98154398Y-104321628D02*
X97982970Y-104235914D01*
X97982970Y-104235914D02*
X97725827Y-104235914D01*
X97725827Y-104235914D02*
X97554398Y-104321628D01*
X97554398Y-104321628D02*
X97468684Y-104407342D01*
X99097255Y-105435914D02*
X99097255Y-104235914D01*
X99097255Y-104578771D02*
X99182969Y-104407342D01*
X99182969Y-104407342D02*
X99268684Y-104321628D01*
X99268684Y-104321628D02*
X99440112Y-104235914D01*
X99440112Y-104235914D02*
X99611541Y-104235914D01*
X100211541Y-105435914D02*
X100211541Y-104235914D01*
X100211541Y-103635914D02*
X100125827Y-103721628D01*
X100125827Y-103721628D02*
X100211541Y-103807342D01*
X100211541Y-103807342D02*
X100297255Y-103721628D01*
X100297255Y-103721628D02*
X100211541Y-103635914D01*
X100211541Y-103635914D02*
X100211541Y-103807342D01*
X100811541Y-104235914D02*
X101497255Y-104235914D01*
X101068684Y-105435914D02*
X101068684Y-103893057D01*
X101068684Y-103893057D02*
X101154398Y-103721628D01*
X101154398Y-103721628D02*
X101325827Y-103635914D01*
X101325827Y-103635914D02*
X101497255Y-103635914D01*
X101840112Y-104235914D02*
X102525826Y-104235914D01*
X102097255Y-103635914D02*
X102097255Y-105178771D01*
X102097255Y-105178771D02*
X102182969Y-105350200D01*
X102182969Y-105350200D02*
X102354398Y-105435914D01*
X102354398Y-105435914D02*
X102525826Y-105435914D01*
X102954397Y-104235914D02*
X103382969Y-105435914D01*
X103811540Y-104235914D02*
X103382969Y-105435914D01*
X103382969Y-105435914D02*
X103211540Y-105864485D01*
X103211540Y-105864485D02*
X103125826Y-105950200D01*
X103125826Y-105950200D02*
X102954397Y-106035914D01*
X104497255Y-104750200D02*
X105868684Y-104750200D01*
X106468683Y-103635914D02*
X107497255Y-103635914D01*
X106982969Y-105435914D02*
X106982969Y-103635914D01*
X108097255Y-105435914D02*
X108097255Y-104235914D01*
X108097255Y-103635914D02*
X108011541Y-103721628D01*
X108011541Y-103721628D02*
X108097255Y-103807342D01*
X108097255Y-103807342D02*
X108182969Y-103721628D01*
X108182969Y-103721628D02*
X108097255Y-103635914D01*
X108097255Y-103635914D02*
X108097255Y-103807342D01*
X108954398Y-105435914D02*
X108954398Y-104235914D01*
X108954398Y-104407342D02*
X109040112Y-104321628D01*
X109040112Y-104321628D02*
X109211541Y-104235914D01*
X109211541Y-104235914D02*
X109468684Y-104235914D01*
X109468684Y-104235914D02*
X109640112Y-104321628D01*
X109640112Y-104321628D02*
X109725827Y-104493057D01*
X109725827Y-104493057D02*
X109725827Y-105435914D01*
X109725827Y-104493057D02*
X109811541Y-104321628D01*
X109811541Y-104321628D02*
X109982969Y-104235914D01*
X109982969Y-104235914D02*
X110240112Y-104235914D01*
X110240112Y-104235914D02*
X110411541Y-104321628D01*
X110411541Y-104321628D02*
X110497255Y-104493057D01*
X110497255Y-104493057D02*
X110497255Y-105435914D01*
X112040112Y-105350200D02*
X111868684Y-105435914D01*
X111868684Y-105435914D02*
X111525827Y-105435914D01*
X111525827Y-105435914D02*
X111354398Y-105350200D01*
X111354398Y-105350200D02*
X111268684Y-105178771D01*
X111268684Y-105178771D02*
X111268684Y-104493057D01*
X111268684Y-104493057D02*
X111354398Y-104321628D01*
X111354398Y-104321628D02*
X111525827Y-104235914D01*
X111525827Y-104235914D02*
X111868684Y-104235914D01*
X111868684Y-104235914D02*
X112040112Y-104321628D01*
X112040112Y-104321628D02*
X112125827Y-104493057D01*
X112125827Y-104493057D02*
X112125827Y-104664485D01*
X112125827Y-104664485D02*
X111268684Y-104835914D01*
X112897255Y-105435914D02*
X112897255Y-103635914D01*
X112897255Y-104321628D02*
X113068684Y-104235914D01*
X113068684Y-104235914D02*
X113411541Y-104235914D01*
X113411541Y-104235914D02*
X113582969Y-104321628D01*
X113582969Y-104321628D02*
X113668684Y-104407342D01*
X113668684Y-104407342D02*
X113754398Y-104578771D01*
X113754398Y-104578771D02*
X113754398Y-105093057D01*
X113754398Y-105093057D02*
X113668684Y-105264485D01*
X113668684Y-105264485D02*
X113582969Y-105350200D01*
X113582969Y-105350200D02*
X113411541Y-105435914D01*
X113411541Y-105435914D02*
X113068684Y-105435914D01*
X113068684Y-105435914D02*
X112897255Y-105350200D01*
X115297255Y-105435914D02*
X115297255Y-104493057D01*
X115297255Y-104493057D02*
X115211540Y-104321628D01*
X115211540Y-104321628D02*
X115040112Y-104235914D01*
X115040112Y-104235914D02*
X114697255Y-104235914D01*
X114697255Y-104235914D02*
X114525826Y-104321628D01*
X115297255Y-105350200D02*
X115125826Y-105435914D01*
X115125826Y-105435914D02*
X114697255Y-105435914D01*
X114697255Y-105435914D02*
X114525826Y-105350200D01*
X114525826Y-105350200D02*
X114440112Y-105178771D01*
X114440112Y-105178771D02*
X114440112Y-105007342D01*
X114440112Y-105007342D02*
X114525826Y-104835914D01*
X114525826Y-104835914D02*
X114697255Y-104750200D01*
X114697255Y-104750200D02*
X115125826Y-104750200D01*
X115125826Y-104750200D02*
X115297255Y-104664485D01*
X116154397Y-105435914D02*
X116154397Y-104235914D01*
X116154397Y-104578771D02*
X116240111Y-104407342D01*
X116240111Y-104407342D02*
X116325826Y-104321628D01*
X116325826Y-104321628D02*
X116497254Y-104235914D01*
X116497254Y-104235914D02*
X116668683Y-104235914D01*
X118382969Y-104235914D02*
X119068683Y-104235914D01*
X118640112Y-105435914D02*
X118640112Y-103893057D01*
X118640112Y-103893057D02*
X118725826Y-103721628D01*
X118725826Y-103721628D02*
X118897255Y-103635914D01*
X118897255Y-103635914D02*
X119068683Y-103635914D01*
X119925826Y-105435914D02*
X119754397Y-105350200D01*
X119754397Y-105350200D02*
X119668683Y-105264485D01*
X119668683Y-105264485D02*
X119582969Y-105093057D01*
X119582969Y-105093057D02*
X119582969Y-104578771D01*
X119582969Y-104578771D02*
X119668683Y-104407342D01*
X119668683Y-104407342D02*
X119754397Y-104321628D01*
X119754397Y-104321628D02*
X119925826Y-104235914D01*
X119925826Y-104235914D02*
X120182969Y-104235914D01*
X120182969Y-104235914D02*
X120354397Y-104321628D01*
X120354397Y-104321628D02*
X120440112Y-104407342D01*
X120440112Y-104407342D02*
X120525826Y-104578771D01*
X120525826Y-104578771D02*
X120525826Y-105093057D01*
X120525826Y-105093057D02*
X120440112Y-105264485D01*
X120440112Y-105264485D02*
X120354397Y-105350200D01*
X120354397Y-105350200D02*
X120182969Y-105435914D01*
X120182969Y-105435914D02*
X119925826Y-105435914D01*
X121297254Y-105435914D02*
X121297254Y-104235914D01*
X121297254Y-104578771D02*
X121382968Y-104407342D01*
X121382968Y-104407342D02*
X121468683Y-104321628D01*
X121468683Y-104321628D02*
X121640111Y-104235914D01*
X121640111Y-104235914D02*
X121811540Y-104235914D01*
X123782969Y-105435914D02*
X123782969Y-103635914D01*
X124811540Y-105435914D02*
X124040112Y-104407342D01*
X124811540Y-103635914D02*
X123782969Y-104664485D01*
X125411540Y-103635914D02*
X125840112Y-105435914D01*
X125840112Y-105435914D02*
X126182969Y-104150200D01*
X126182969Y-104150200D02*
X126525826Y-105435914D01*
X126525826Y-105435914D02*
X126954398Y-103635914D01*
X127554398Y-104921628D02*
X128411541Y-104921628D01*
X127382969Y-105435914D02*
X127982969Y-103635914D01*
X127982969Y-103635914D02*
X128582969Y-105435914D01*
X129182969Y-104750200D02*
X130554398Y-104750200D01*
X132268683Y-103635914D02*
X131411540Y-103635914D01*
X131411540Y-103635914D02*
X131325826Y-104493057D01*
X131325826Y-104493057D02*
X131411540Y-104407342D01*
X131411540Y-104407342D02*
X131582969Y-104321628D01*
X131582969Y-104321628D02*
X132011540Y-104321628D01*
X132011540Y-104321628D02*
X132182969Y-104407342D01*
X132182969Y-104407342D02*
X132268683Y-104493057D01*
X132268683Y-104493057D02*
X132354397Y-104664485D01*
X132354397Y-104664485D02*
X132354397Y-105093057D01*
X132354397Y-105093057D02*
X132268683Y-105264485D01*
X132268683Y-105264485D02*
X132182969Y-105350200D01*
X132182969Y-105350200D02*
X132011540Y-105435914D01*
X132011540Y-105435914D02*
X131582969Y-105435914D01*
X131582969Y-105435914D02*
X131411540Y-105350200D01*
X131411540Y-105350200D02*
X131325826Y-105264485D01*
X133897255Y-104235914D02*
X133897255Y-105435914D01*
X133468683Y-103550200D02*
X133040112Y-104835914D01*
X133040112Y-104835914D02*
X134154397Y-104835914D01*
X135782969Y-105435914D02*
X134754398Y-105435914D01*
X135268683Y-105435914D02*
X135268683Y-103635914D01*
X135268683Y-103635914D02*
X135097255Y-103893057D01*
X135097255Y-103893057D02*
X134925826Y-104064485D01*
X134925826Y-104064485D02*
X134754398Y-104150200D01*
X136382969Y-103635914D02*
X137582969Y-105435914D01*
X137582969Y-103635914D02*
X136382969Y-105435914D01*
X138011541Y-103635914D02*
X138611541Y-105435914D01*
X138611541Y-105435914D02*
X139211541Y-103635914D01*
X140411541Y-104493057D02*
X140668684Y-104578771D01*
X140668684Y-104578771D02*
X140754398Y-104664485D01*
X140754398Y-104664485D02*
X140840112Y-104835914D01*
X140840112Y-104835914D02*
X140840112Y-105093057D01*
X140840112Y-105093057D02*
X140754398Y-105264485D01*
X140754398Y-105264485D02*
X140668684Y-105350200D01*
X140668684Y-105350200D02*
X140497255Y-105435914D01*
X140497255Y-105435914D02*
X139811541Y-105435914D01*
X139811541Y-105435914D02*
X139811541Y-103635914D01*
X139811541Y-103635914D02*
X140411541Y-103635914D01*
X140411541Y-103635914D02*
X140582970Y-103721628D01*
X140582970Y-103721628D02*
X140668684Y-103807342D01*
X140668684Y-103807342D02*
X140754398Y-103978771D01*
X140754398Y-103978771D02*
X140754398Y-104150200D01*
X140754398Y-104150200D02*
X140668684Y-104321628D01*
X140668684Y-104321628D02*
X140582970Y-104407342D01*
X140582970Y-104407342D02*
X140411541Y-104493057D01*
X140411541Y-104493057D02*
X139811541Y-104493057D01*
X141611541Y-105264485D02*
X141697255Y-105350200D01*
X141697255Y-105350200D02*
X141611541Y-105435914D01*
X141611541Y-105435914D02*
X141525827Y-105350200D01*
X141525827Y-105350200D02*
X141611541Y-105264485D01*
X141611541Y-105264485D02*
X141611541Y-105435914D01*
X144868684Y-105435914D02*
X144268684Y-104578771D01*
X143840113Y-105435914D02*
X143840113Y-103635914D01*
X143840113Y-103635914D02*
X144525827Y-103635914D01*
X144525827Y-103635914D02*
X144697256Y-103721628D01*
X144697256Y-103721628D02*
X144782970Y-103807342D01*
X144782970Y-103807342D02*
X144868684Y-103978771D01*
X144868684Y-103978771D02*
X144868684Y-104235914D01*
X144868684Y-104235914D02*
X144782970Y-104407342D01*
X144782970Y-104407342D02*
X144697256Y-104493057D01*
X144697256Y-104493057D02*
X144525827Y-104578771D01*
X144525827Y-104578771D02*
X143840113Y-104578771D01*
X146325827Y-105350200D02*
X146154399Y-105435914D01*
X146154399Y-105435914D02*
X145811542Y-105435914D01*
X145811542Y-105435914D02*
X145640113Y-105350200D01*
X145640113Y-105350200D02*
X145554399Y-105178771D01*
X145554399Y-105178771D02*
X145554399Y-104493057D01*
X145554399Y-104493057D02*
X145640113Y-104321628D01*
X145640113Y-104321628D02*
X145811542Y-104235914D01*
X145811542Y-104235914D02*
X146154399Y-104235914D01*
X146154399Y-104235914D02*
X146325827Y-104321628D01*
X146325827Y-104321628D02*
X146411542Y-104493057D01*
X146411542Y-104493057D02*
X146411542Y-104664485D01*
X146411542Y-104664485D02*
X145554399Y-104835914D01*
X147011541Y-104235914D02*
X147440113Y-105435914D01*
X147440113Y-105435914D02*
X147868684Y-104235914D01*
X148382970Y-103635914D02*
X149497256Y-103635914D01*
X149497256Y-103635914D02*
X148897256Y-104321628D01*
X148897256Y-104321628D02*
X149154399Y-104321628D01*
X149154399Y-104321628D02*
X149325828Y-104407342D01*
X149325828Y-104407342D02*
X149411542Y-104493057D01*
X149411542Y-104493057D02*
X149497256Y-104664485D01*
X149497256Y-104664485D02*
X149497256Y-105093057D01*
X149497256Y-105093057D02*
X149411542Y-105264485D01*
X149411542Y-105264485D02*
X149325828Y-105350200D01*
X149325828Y-105350200D02*
X149154399Y-105435914D01*
X149154399Y-105435914D02*
X148640113Y-105435914D01*
X148640113Y-105435914D02*
X148468685Y-105350200D01*
X148468685Y-105350200D02*
X148382970Y-105264485D01*
X153097257Y-104064485D02*
X152925828Y-103978771D01*
X152925828Y-103978771D02*
X152582971Y-103978771D01*
X152582971Y-103978771D02*
X152411543Y-104064485D01*
X152411543Y-104064485D02*
X152240114Y-104235914D01*
X152240114Y-104235914D02*
X152154400Y-104407342D01*
X152154400Y-104407342D02*
X152154400Y-104750200D01*
X152154400Y-104750200D02*
X152240114Y-104921628D01*
X152240114Y-104921628D02*
X152411543Y-105093057D01*
X152411543Y-105093057D02*
X152582971Y-105178771D01*
X152582971Y-105178771D02*
X152925828Y-105178771D01*
X152925828Y-105178771D02*
X153097257Y-105093057D01*
X152754400Y-103378771D02*
X152325828Y-103464485D01*
X152325828Y-103464485D02*
X151897257Y-103721628D01*
X151897257Y-103721628D02*
X151640114Y-104150200D01*
X151640114Y-104150200D02*
X151554400Y-104578771D01*
X151554400Y-104578771D02*
X151640114Y-105007342D01*
X151640114Y-105007342D02*
X151897257Y-105435914D01*
X151897257Y-105435914D02*
X152325828Y-105693057D01*
X152325828Y-105693057D02*
X152754400Y-105778771D01*
X152754400Y-105778771D02*
X153182971Y-105693057D01*
X153182971Y-105693057D02*
X153611543Y-105435914D01*
X153611543Y-105435914D02*
X153868685Y-105007342D01*
X153868685Y-105007342D02*
X153954400Y-104578771D01*
X153954400Y-104578771D02*
X153868685Y-104150200D01*
X153868685Y-104150200D02*
X153611543Y-103721628D01*
X153611543Y-103721628D02*
X153182971Y-103464485D01*
X153182971Y-103464485D02*
X152754400Y-103378771D01*
X154640114Y-103807342D02*
X154725828Y-103721628D01*
X154725828Y-103721628D02*
X154897257Y-103635914D01*
X154897257Y-103635914D02*
X155325828Y-103635914D01*
X155325828Y-103635914D02*
X155497257Y-103721628D01*
X155497257Y-103721628D02*
X155582971Y-103807342D01*
X155582971Y-103807342D02*
X155668685Y-103978771D01*
X155668685Y-103978771D02*
X155668685Y-104150200D01*
X155668685Y-104150200D02*
X155582971Y-104407342D01*
X155582971Y-104407342D02*
X154554399Y-105435914D01*
X154554399Y-105435914D02*
X155668685Y-105435914D01*
X156782971Y-103635914D02*
X156954400Y-103635914D01*
X156954400Y-103635914D02*
X157125828Y-103721628D01*
X157125828Y-103721628D02*
X157211543Y-103807342D01*
X157211543Y-103807342D02*
X157297257Y-103978771D01*
X157297257Y-103978771D02*
X157382971Y-104321628D01*
X157382971Y-104321628D02*
X157382971Y-104750200D01*
X157382971Y-104750200D02*
X157297257Y-105093057D01*
X157297257Y-105093057D02*
X157211543Y-105264485D01*
X157211543Y-105264485D02*
X157125828Y-105350200D01*
X157125828Y-105350200D02*
X156954400Y-105435914D01*
X156954400Y-105435914D02*
X156782971Y-105435914D01*
X156782971Y-105435914D02*
X156611543Y-105350200D01*
X156611543Y-105350200D02*
X156525828Y-105264485D01*
X156525828Y-105264485D02*
X156440114Y-105093057D01*
X156440114Y-105093057D02*
X156354400Y-104750200D01*
X156354400Y-104750200D02*
X156354400Y-104321628D01*
X156354400Y-104321628D02*
X156440114Y-103978771D01*
X156440114Y-103978771D02*
X156525828Y-103807342D01*
X156525828Y-103807342D02*
X156611543Y-103721628D01*
X156611543Y-103721628D02*
X156782971Y-103635914D01*
X158068686Y-103807342D02*
X158154400Y-103721628D01*
X158154400Y-103721628D02*
X158325829Y-103635914D01*
X158325829Y-103635914D02*
X158754400Y-103635914D01*
X158754400Y-103635914D02*
X158925829Y-103721628D01*
X158925829Y-103721628D02*
X159011543Y-103807342D01*
X159011543Y-103807342D02*
X159097257Y-103978771D01*
X159097257Y-103978771D02*
X159097257Y-104150200D01*
X159097257Y-104150200D02*
X159011543Y-104407342D01*
X159011543Y-104407342D02*
X157982971Y-105435914D01*
X157982971Y-105435914D02*
X159097257Y-105435914D01*
X160640115Y-103635914D02*
X160297257Y-103635914D01*
X160297257Y-103635914D02*
X160125829Y-103721628D01*
X160125829Y-103721628D02*
X160040115Y-103807342D01*
X160040115Y-103807342D02*
X159868686Y-104064485D01*
X159868686Y-104064485D02*
X159782972Y-104407342D01*
X159782972Y-104407342D02*
X159782972Y-105093057D01*
X159782972Y-105093057D02*
X159868686Y-105264485D01*
X159868686Y-105264485D02*
X159954400Y-105350200D01*
X159954400Y-105350200D02*
X160125829Y-105435914D01*
X160125829Y-105435914D02*
X160468686Y-105435914D01*
X160468686Y-105435914D02*
X160640115Y-105350200D01*
X160640115Y-105350200D02*
X160725829Y-105264485D01*
X160725829Y-105264485D02*
X160811543Y-105093057D01*
X160811543Y-105093057D02*
X160811543Y-104664485D01*
X160811543Y-104664485D02*
X160725829Y-104493057D01*
X160725829Y-104493057D02*
X160640115Y-104407342D01*
X160640115Y-104407342D02*
X160468686Y-104321628D01*
X160468686Y-104321628D02*
X160125829Y-104321628D01*
X160125829Y-104321628D02*
X159954400Y-104407342D01*
X159954400Y-104407342D02*
X159868686Y-104493057D01*
X159868686Y-104493057D02*
X159782972Y-104664485D01*
X162868687Y-105350200D02*
X163125830Y-105435914D01*
X163125830Y-105435914D02*
X163554401Y-105435914D01*
X163554401Y-105435914D02*
X163725830Y-105350200D01*
X163725830Y-105350200D02*
X163811544Y-105264485D01*
X163811544Y-105264485D02*
X163897258Y-105093057D01*
X163897258Y-105093057D02*
X163897258Y-104921628D01*
X163897258Y-104921628D02*
X163811544Y-104750200D01*
X163811544Y-104750200D02*
X163725830Y-104664485D01*
X163725830Y-104664485D02*
X163554401Y-104578771D01*
X163554401Y-104578771D02*
X163211544Y-104493057D01*
X163211544Y-104493057D02*
X163040115Y-104407342D01*
X163040115Y-104407342D02*
X162954401Y-104321628D01*
X162954401Y-104321628D02*
X162868687Y-104150200D01*
X162868687Y-104150200D02*
X162868687Y-103978771D01*
X162868687Y-103978771D02*
X162954401Y-103807342D01*
X162954401Y-103807342D02*
X163040115Y-103721628D01*
X163040115Y-103721628D02*
X163211544Y-103635914D01*
X163211544Y-103635914D02*
X163640115Y-103635914D01*
X163640115Y-103635914D02*
X163897258Y-103721628D01*
X164668687Y-105264485D02*
X164754401Y-105350200D01*
X164754401Y-105350200D02*
X164668687Y-105435914D01*
X164668687Y-105435914D02*
X164582973Y-105350200D01*
X164582973Y-105350200D02*
X164668687Y-105264485D01*
X164668687Y-105264485D02*
X164668687Y-105435914D01*
X165354401Y-103635914D02*
X165782973Y-105435914D01*
X165782973Y-105435914D02*
X166125830Y-104150200D01*
X166125830Y-104150200D02*
X166468687Y-105435914D01*
X166468687Y-105435914D02*
X166897259Y-103635914D01*
X167840116Y-105435914D02*
X167668687Y-105350200D01*
X167668687Y-105350200D02*
X167582973Y-105264485D01*
X167582973Y-105264485D02*
X167497259Y-105093057D01*
X167497259Y-105093057D02*
X167497259Y-104578771D01*
X167497259Y-104578771D02*
X167582973Y-104407342D01*
X167582973Y-104407342D02*
X167668687Y-104321628D01*
X167668687Y-104321628D02*
X167840116Y-104235914D01*
X167840116Y-104235914D02*
X168097259Y-104235914D01*
X168097259Y-104235914D02*
X168268687Y-104321628D01*
X168268687Y-104321628D02*
X168354402Y-104407342D01*
X168354402Y-104407342D02*
X168440116Y-104578771D01*
X168440116Y-104578771D02*
X168440116Y-105093057D01*
X168440116Y-105093057D02*
X168354402Y-105264485D01*
X168354402Y-105264485D02*
X168268687Y-105350200D01*
X168268687Y-105350200D02*
X168097259Y-105435914D01*
X168097259Y-105435914D02*
X167840116Y-105435914D01*
X169468687Y-105435914D02*
X169297258Y-105350200D01*
X169297258Y-105350200D02*
X169211544Y-105264485D01*
X169211544Y-105264485D02*
X169125830Y-105093057D01*
X169125830Y-105093057D02*
X169125830Y-104578771D01*
X169125830Y-104578771D02*
X169211544Y-104407342D01*
X169211544Y-104407342D02*
X169297258Y-104321628D01*
X169297258Y-104321628D02*
X169468687Y-104235914D01*
X169468687Y-104235914D02*
X169725830Y-104235914D01*
X169725830Y-104235914D02*
X169897258Y-104321628D01*
X169897258Y-104321628D02*
X169982973Y-104407342D01*
X169982973Y-104407342D02*
X170068687Y-104578771D01*
X170068687Y-104578771D02*
X170068687Y-105093057D01*
X170068687Y-105093057D02*
X169982973Y-105264485D01*
X169982973Y-105264485D02*
X169897258Y-105350200D01*
X169897258Y-105350200D02*
X169725830Y-105435914D01*
X169725830Y-105435914D02*
X169468687Y-105435914D01*
X171611544Y-105435914D02*
X171611544Y-103635914D01*
X171611544Y-105350200D02*
X171440115Y-105435914D01*
X171440115Y-105435914D02*
X171097258Y-105435914D01*
X171097258Y-105435914D02*
X170925829Y-105350200D01*
X170925829Y-105350200D02*
X170840115Y-105264485D01*
X170840115Y-105264485D02*
X170754401Y-105093057D01*
X170754401Y-105093057D02*
X170754401Y-104578771D01*
X170754401Y-104578771D02*
X170840115Y-104407342D01*
X170840115Y-104407342D02*
X170925829Y-104321628D01*
X170925829Y-104321628D02*
X171097258Y-104235914D01*
X171097258Y-104235914D02*
X171440115Y-104235914D01*
X171440115Y-104235914D02*
X171611544Y-104321628D01*
D13*
X82434375Y-92009285D02*
X82434375Y-89609285D01*
X82434375Y-89609285D02*
X83005804Y-89609285D01*
X83005804Y-89609285D02*
X83348661Y-89723571D01*
X83348661Y-89723571D02*
X83577232Y-89952142D01*
X83577232Y-89952142D02*
X83691518Y-90180714D01*
X83691518Y-90180714D02*
X83805804Y-90637857D01*
X83805804Y-90637857D02*
X83805804Y-90980714D01*
X83805804Y-90980714D02*
X83691518Y-91437857D01*
X83691518Y-91437857D02*
X83577232Y-91666428D01*
X83577232Y-91666428D02*
X83348661Y-91895000D01*
X83348661Y-91895000D02*
X83005804Y-92009285D01*
X83005804Y-92009285D02*
X82434375Y-92009285D01*
X84834375Y-92009285D02*
X84834375Y-90409285D01*
X84834375Y-89609285D02*
X84720089Y-89723571D01*
X84720089Y-89723571D02*
X84834375Y-89837857D01*
X84834375Y-89837857D02*
X84948661Y-89723571D01*
X84948661Y-89723571D02*
X84834375Y-89609285D01*
X84834375Y-89609285D02*
X84834375Y-89837857D01*
X85862946Y-91895000D02*
X86091518Y-92009285D01*
X86091518Y-92009285D02*
X86548661Y-92009285D01*
X86548661Y-92009285D02*
X86777232Y-91895000D01*
X86777232Y-91895000D02*
X86891518Y-91666428D01*
X86891518Y-91666428D02*
X86891518Y-91552142D01*
X86891518Y-91552142D02*
X86777232Y-91323571D01*
X86777232Y-91323571D02*
X86548661Y-91209285D01*
X86548661Y-91209285D02*
X86205804Y-91209285D01*
X86205804Y-91209285D02*
X85977232Y-91095000D01*
X85977232Y-91095000D02*
X85862946Y-90866428D01*
X85862946Y-90866428D02*
X85862946Y-90752142D01*
X85862946Y-90752142D02*
X85977232Y-90523571D01*
X85977232Y-90523571D02*
X86205804Y-90409285D01*
X86205804Y-90409285D02*
X86548661Y-90409285D01*
X86548661Y-90409285D02*
X86777232Y-90523571D01*
X87920089Y-90409285D02*
X87920089Y-92809285D01*
X87920089Y-90523571D02*
X88148661Y-90409285D01*
X88148661Y-90409285D02*
X88605803Y-90409285D01*
X88605803Y-90409285D02*
X88834375Y-90523571D01*
X88834375Y-90523571D02*
X88948661Y-90637857D01*
X88948661Y-90637857D02*
X89062946Y-90866428D01*
X89062946Y-90866428D02*
X89062946Y-91552142D01*
X89062946Y-91552142D02*
X88948661Y-91780714D01*
X88948661Y-91780714D02*
X88834375Y-91895000D01*
X88834375Y-91895000D02*
X88605803Y-92009285D01*
X88605803Y-92009285D02*
X88148661Y-92009285D01*
X88148661Y-92009285D02*
X87920089Y-91895000D01*
X90434375Y-92009285D02*
X90205804Y-91895000D01*
X90205804Y-91895000D02*
X90091518Y-91666428D01*
X90091518Y-91666428D02*
X90091518Y-89609285D01*
X92377233Y-92009285D02*
X92377233Y-90752142D01*
X92377233Y-90752142D02*
X92262947Y-90523571D01*
X92262947Y-90523571D02*
X92034375Y-90409285D01*
X92034375Y-90409285D02*
X91577233Y-90409285D01*
X91577233Y-90409285D02*
X91348661Y-90523571D01*
X92377233Y-91895000D02*
X92148661Y-92009285D01*
X92148661Y-92009285D02*
X91577233Y-92009285D01*
X91577233Y-92009285D02*
X91348661Y-91895000D01*
X91348661Y-91895000D02*
X91234375Y-91666428D01*
X91234375Y-91666428D02*
X91234375Y-91437857D01*
X91234375Y-91437857D02*
X91348661Y-91209285D01*
X91348661Y-91209285D02*
X91577233Y-91095000D01*
X91577233Y-91095000D02*
X92148661Y-91095000D01*
X92148661Y-91095000D02*
X92377233Y-90980714D01*
X93291519Y-90409285D02*
X93862947Y-92009285D01*
X94434376Y-90409285D02*
X93862947Y-92009285D01*
X93862947Y-92009285D02*
X93634376Y-92580714D01*
X93634376Y-92580714D02*
X93520090Y-92695000D01*
X93520090Y-92695000D02*
X93291519Y-92809285D01*
X95234375Y-91895000D02*
X95462947Y-92009285D01*
X95462947Y-92009285D02*
X95920090Y-92009285D01*
X95920090Y-92009285D02*
X96148661Y-91895000D01*
X96148661Y-91895000D02*
X96262947Y-91666428D01*
X96262947Y-91666428D02*
X96262947Y-91552142D01*
X96262947Y-91552142D02*
X96148661Y-91323571D01*
X96148661Y-91323571D02*
X95920090Y-91209285D01*
X95920090Y-91209285D02*
X95577233Y-91209285D01*
X95577233Y-91209285D02*
X95348661Y-91095000D01*
X95348661Y-91095000D02*
X95234375Y-90866428D01*
X95234375Y-90866428D02*
X95234375Y-90752142D01*
X95234375Y-90752142D02*
X95348661Y-90523571D01*
X95348661Y-90523571D02*
X95577233Y-90409285D01*
X95577233Y-90409285D02*
X95920090Y-90409285D01*
X95920090Y-90409285D02*
X96148661Y-90523571D01*
X99120089Y-89609285D02*
X99120089Y-91552142D01*
X99120089Y-91552142D02*
X99234375Y-91780714D01*
X99234375Y-91780714D02*
X99348661Y-91895000D01*
X99348661Y-91895000D02*
X99577232Y-92009285D01*
X99577232Y-92009285D02*
X100034375Y-92009285D01*
X100034375Y-92009285D02*
X100262946Y-91895000D01*
X100262946Y-91895000D02*
X100377232Y-91780714D01*
X100377232Y-91780714D02*
X100491518Y-91552142D01*
X100491518Y-91552142D02*
X100491518Y-89609285D01*
X101634375Y-90409285D02*
X101634375Y-92809285D01*
X101634375Y-90523571D02*
X101862947Y-90409285D01*
X101862947Y-90409285D02*
X102320089Y-90409285D01*
X102320089Y-90409285D02*
X102548661Y-90523571D01*
X102548661Y-90523571D02*
X102662947Y-90637857D01*
X102662947Y-90637857D02*
X102777232Y-90866428D01*
X102777232Y-90866428D02*
X102777232Y-91552142D01*
X102777232Y-91552142D02*
X102662947Y-91780714D01*
X102662947Y-91780714D02*
X102548661Y-91895000D01*
X102548661Y-91895000D02*
X102320089Y-92009285D01*
X102320089Y-92009285D02*
X101862947Y-92009285D01*
X101862947Y-92009285D02*
X101634375Y-91895000D01*
X105634375Y-91095000D02*
X107462947Y-91095000D01*
X108491518Y-91895000D02*
X108834376Y-92009285D01*
X108834376Y-92009285D02*
X109405804Y-92009285D01*
X109405804Y-92009285D02*
X109634376Y-91895000D01*
X109634376Y-91895000D02*
X109748661Y-91780714D01*
X109748661Y-91780714D02*
X109862947Y-91552142D01*
X109862947Y-91552142D02*
X109862947Y-91323571D01*
X109862947Y-91323571D02*
X109748661Y-91095000D01*
X109748661Y-91095000D02*
X109634376Y-90980714D01*
X109634376Y-90980714D02*
X109405804Y-90866428D01*
X109405804Y-90866428D02*
X108948661Y-90752142D01*
X108948661Y-90752142D02*
X108720090Y-90637857D01*
X108720090Y-90637857D02*
X108605804Y-90523571D01*
X108605804Y-90523571D02*
X108491518Y-90295000D01*
X108491518Y-90295000D02*
X108491518Y-90066428D01*
X108491518Y-90066428D02*
X108605804Y-89837857D01*
X108605804Y-89837857D02*
X108720090Y-89723571D01*
X108720090Y-89723571D02*
X108948661Y-89609285D01*
X108948661Y-89609285D02*
X109520090Y-89609285D01*
X109520090Y-89609285D02*
X109862947Y-89723571D01*
X110891518Y-92009285D02*
X110891518Y-90409285D01*
X110891518Y-89609285D02*
X110777232Y-89723571D01*
X110777232Y-89723571D02*
X110891518Y-89837857D01*
X110891518Y-89837857D02*
X111005804Y-89723571D01*
X111005804Y-89723571D02*
X110891518Y-89609285D01*
X110891518Y-89609285D02*
X110891518Y-89837857D01*
X113062947Y-92009285D02*
X113062947Y-89609285D01*
X113062947Y-91895000D02*
X112834375Y-92009285D01*
X112834375Y-92009285D02*
X112377232Y-92009285D01*
X112377232Y-92009285D02*
X112148661Y-91895000D01*
X112148661Y-91895000D02*
X112034375Y-91780714D01*
X112034375Y-91780714D02*
X111920089Y-91552142D01*
X111920089Y-91552142D02*
X111920089Y-90866428D01*
X111920089Y-90866428D02*
X112034375Y-90637857D01*
X112034375Y-90637857D02*
X112148661Y-90523571D01*
X112148661Y-90523571D02*
X112377232Y-90409285D01*
X112377232Y-90409285D02*
X112834375Y-90409285D01*
X112834375Y-90409285D02*
X113062947Y-90523571D01*
X115120090Y-91895000D02*
X114891518Y-92009285D01*
X114891518Y-92009285D02*
X114434376Y-92009285D01*
X114434376Y-92009285D02*
X114205804Y-91895000D01*
X114205804Y-91895000D02*
X114091518Y-91666428D01*
X114091518Y-91666428D02*
X114091518Y-90752142D01*
X114091518Y-90752142D02*
X114205804Y-90523571D01*
X114205804Y-90523571D02*
X114434376Y-90409285D01*
X114434376Y-90409285D02*
X114891518Y-90409285D01*
X114891518Y-90409285D02*
X115120090Y-90523571D01*
X115120090Y-90523571D02*
X115234376Y-90752142D01*
X115234376Y-90752142D02*
X115234376Y-90980714D01*
X115234376Y-90980714D02*
X114091518Y-91209285D01*
X116262947Y-91095000D02*
X118091519Y-91095000D01*
X119234376Y-92009285D02*
X119234376Y-89609285D01*
X119234376Y-89609285D02*
X119805805Y-89609285D01*
X119805805Y-89609285D02*
X120148662Y-89723571D01*
X120148662Y-89723571D02*
X120377233Y-89952142D01*
X120377233Y-89952142D02*
X120491519Y-90180714D01*
X120491519Y-90180714D02*
X120605805Y-90637857D01*
X120605805Y-90637857D02*
X120605805Y-90980714D01*
X120605805Y-90980714D02*
X120491519Y-91437857D01*
X120491519Y-91437857D02*
X120377233Y-91666428D01*
X120377233Y-91666428D02*
X120148662Y-91895000D01*
X120148662Y-91895000D02*
X119805805Y-92009285D01*
X119805805Y-92009285D02*
X119234376Y-92009285D01*
X121977233Y-92009285D02*
X121748662Y-91895000D01*
X121748662Y-91895000D02*
X121634376Y-91780714D01*
X121634376Y-91780714D02*
X121520090Y-91552142D01*
X121520090Y-91552142D02*
X121520090Y-90866428D01*
X121520090Y-90866428D02*
X121634376Y-90637857D01*
X121634376Y-90637857D02*
X121748662Y-90523571D01*
X121748662Y-90523571D02*
X121977233Y-90409285D01*
X121977233Y-90409285D02*
X122320090Y-90409285D01*
X122320090Y-90409285D02*
X122548662Y-90523571D01*
X122548662Y-90523571D02*
X122662948Y-90637857D01*
X122662948Y-90637857D02*
X122777233Y-90866428D01*
X122777233Y-90866428D02*
X122777233Y-91552142D01*
X122777233Y-91552142D02*
X122662948Y-91780714D01*
X122662948Y-91780714D02*
X122548662Y-91895000D01*
X122548662Y-91895000D02*
X122320090Y-92009285D01*
X122320090Y-92009285D02*
X121977233Y-92009285D01*
X123577234Y-90409285D02*
X124034377Y-92009285D01*
X124034377Y-92009285D02*
X124491519Y-90866428D01*
X124491519Y-90866428D02*
X124948662Y-92009285D01*
X124948662Y-92009285D02*
X125405805Y-90409285D01*
X126320091Y-90409285D02*
X126320091Y-92009285D01*
X126320091Y-90637857D02*
X126434377Y-90523571D01*
X126434377Y-90523571D02*
X126662948Y-90409285D01*
X126662948Y-90409285D02*
X127005805Y-90409285D01*
X127005805Y-90409285D02*
X127234377Y-90523571D01*
X127234377Y-90523571D02*
X127348663Y-90752142D01*
X127348663Y-90752142D02*
X127348663Y-92009285D01*
X132472375Y-91882285D02*
X132472375Y-89482285D01*
X132472375Y-89482285D02*
X133043804Y-89482285D01*
X133043804Y-89482285D02*
X133386661Y-89596571D01*
X133386661Y-89596571D02*
X133615232Y-89825142D01*
X133615232Y-89825142D02*
X133729518Y-90053714D01*
X133729518Y-90053714D02*
X133843804Y-90510857D01*
X133843804Y-90510857D02*
X133843804Y-90853714D01*
X133843804Y-90853714D02*
X133729518Y-91310857D01*
X133729518Y-91310857D02*
X133615232Y-91539428D01*
X133615232Y-91539428D02*
X133386661Y-91768000D01*
X133386661Y-91768000D02*
X133043804Y-91882285D01*
X133043804Y-91882285D02*
X132472375Y-91882285D01*
X134872375Y-91882285D02*
X134872375Y-90282285D01*
X134872375Y-89482285D02*
X134758089Y-89596571D01*
X134758089Y-89596571D02*
X134872375Y-89710857D01*
X134872375Y-89710857D02*
X134986661Y-89596571D01*
X134986661Y-89596571D02*
X134872375Y-89482285D01*
X134872375Y-89482285D02*
X134872375Y-89710857D01*
X135900946Y-91768000D02*
X136129518Y-91882285D01*
X136129518Y-91882285D02*
X136586661Y-91882285D01*
X136586661Y-91882285D02*
X136815232Y-91768000D01*
X136815232Y-91768000D02*
X136929518Y-91539428D01*
X136929518Y-91539428D02*
X136929518Y-91425142D01*
X136929518Y-91425142D02*
X136815232Y-91196571D01*
X136815232Y-91196571D02*
X136586661Y-91082285D01*
X136586661Y-91082285D02*
X136243804Y-91082285D01*
X136243804Y-91082285D02*
X136015232Y-90968000D01*
X136015232Y-90968000D02*
X135900946Y-90739428D01*
X135900946Y-90739428D02*
X135900946Y-90625142D01*
X135900946Y-90625142D02*
X136015232Y-90396571D01*
X136015232Y-90396571D02*
X136243804Y-90282285D01*
X136243804Y-90282285D02*
X136586661Y-90282285D01*
X136586661Y-90282285D02*
X136815232Y-90396571D01*
X137958089Y-90282285D02*
X137958089Y-92682285D01*
X137958089Y-90396571D02*
X138186661Y-90282285D01*
X138186661Y-90282285D02*
X138643803Y-90282285D01*
X138643803Y-90282285D02*
X138872375Y-90396571D01*
X138872375Y-90396571D02*
X138986661Y-90510857D01*
X138986661Y-90510857D02*
X139100946Y-90739428D01*
X139100946Y-90739428D02*
X139100946Y-91425142D01*
X139100946Y-91425142D02*
X138986661Y-91653714D01*
X138986661Y-91653714D02*
X138872375Y-91768000D01*
X138872375Y-91768000D02*
X138643803Y-91882285D01*
X138643803Y-91882285D02*
X138186661Y-91882285D01*
X138186661Y-91882285D02*
X137958089Y-91768000D01*
X140472375Y-91882285D02*
X140243804Y-91768000D01*
X140243804Y-91768000D02*
X140129518Y-91539428D01*
X140129518Y-91539428D02*
X140129518Y-89482285D01*
X142415233Y-91882285D02*
X142415233Y-90625142D01*
X142415233Y-90625142D02*
X142300947Y-90396571D01*
X142300947Y-90396571D02*
X142072375Y-90282285D01*
X142072375Y-90282285D02*
X141615233Y-90282285D01*
X141615233Y-90282285D02*
X141386661Y-90396571D01*
X142415233Y-91768000D02*
X142186661Y-91882285D01*
X142186661Y-91882285D02*
X141615233Y-91882285D01*
X141615233Y-91882285D02*
X141386661Y-91768000D01*
X141386661Y-91768000D02*
X141272375Y-91539428D01*
X141272375Y-91539428D02*
X141272375Y-91310857D01*
X141272375Y-91310857D02*
X141386661Y-91082285D01*
X141386661Y-91082285D02*
X141615233Y-90968000D01*
X141615233Y-90968000D02*
X142186661Y-90968000D01*
X142186661Y-90968000D02*
X142415233Y-90853714D01*
X143329519Y-90282285D02*
X143900947Y-91882285D01*
X144472376Y-90282285D02*
X143900947Y-91882285D01*
X143900947Y-91882285D02*
X143672376Y-92453714D01*
X143672376Y-92453714D02*
X143558090Y-92568000D01*
X143558090Y-92568000D02*
X143329519Y-92682285D01*
X145272375Y-91768000D02*
X145500947Y-91882285D01*
X145500947Y-91882285D02*
X145958090Y-91882285D01*
X145958090Y-91882285D02*
X146186661Y-91768000D01*
X146186661Y-91768000D02*
X146300947Y-91539428D01*
X146300947Y-91539428D02*
X146300947Y-91425142D01*
X146300947Y-91425142D02*
X146186661Y-91196571D01*
X146186661Y-91196571D02*
X145958090Y-91082285D01*
X145958090Y-91082285D02*
X145615233Y-91082285D01*
X145615233Y-91082285D02*
X145386661Y-90968000D01*
X145386661Y-90968000D02*
X145272375Y-90739428D01*
X145272375Y-90739428D02*
X145272375Y-90625142D01*
X145272375Y-90625142D02*
X145386661Y-90396571D01*
X145386661Y-90396571D02*
X145615233Y-90282285D01*
X145615233Y-90282285D02*
X145958090Y-90282285D01*
X145958090Y-90282285D02*
X146186661Y-90396571D01*
X150529518Y-91882285D02*
X149729518Y-90739428D01*
X149158089Y-91882285D02*
X149158089Y-89482285D01*
X149158089Y-89482285D02*
X150072375Y-89482285D01*
X150072375Y-89482285D02*
X150300946Y-89596571D01*
X150300946Y-89596571D02*
X150415232Y-89710857D01*
X150415232Y-89710857D02*
X150529518Y-89939428D01*
X150529518Y-89939428D02*
X150529518Y-90282285D01*
X150529518Y-90282285D02*
X150415232Y-90510857D01*
X150415232Y-90510857D02*
X150300946Y-90625142D01*
X150300946Y-90625142D02*
X150072375Y-90739428D01*
X150072375Y-90739428D02*
X149158089Y-90739428D01*
X151558089Y-91882285D02*
X151558089Y-90282285D01*
X151558089Y-89482285D02*
X151443803Y-89596571D01*
X151443803Y-89596571D02*
X151558089Y-89710857D01*
X151558089Y-89710857D02*
X151672375Y-89596571D01*
X151672375Y-89596571D02*
X151558089Y-89482285D01*
X151558089Y-89482285D02*
X151558089Y-89710857D01*
X153729518Y-90282285D02*
X153729518Y-92225142D01*
X153729518Y-92225142D02*
X153615232Y-92453714D01*
X153615232Y-92453714D02*
X153500946Y-92568000D01*
X153500946Y-92568000D02*
X153272375Y-92682285D01*
X153272375Y-92682285D02*
X152929518Y-92682285D01*
X152929518Y-92682285D02*
X152700946Y-92568000D01*
X153729518Y-91768000D02*
X153500946Y-91882285D01*
X153500946Y-91882285D02*
X153043803Y-91882285D01*
X153043803Y-91882285D02*
X152815232Y-91768000D01*
X152815232Y-91768000D02*
X152700946Y-91653714D01*
X152700946Y-91653714D02*
X152586660Y-91425142D01*
X152586660Y-91425142D02*
X152586660Y-90739428D01*
X152586660Y-90739428D02*
X152700946Y-90510857D01*
X152700946Y-90510857D02*
X152815232Y-90396571D01*
X152815232Y-90396571D02*
X153043803Y-90282285D01*
X153043803Y-90282285D02*
X153500946Y-90282285D01*
X153500946Y-90282285D02*
X153729518Y-90396571D01*
X156700946Y-91882285D02*
X156700946Y-89482285D01*
X157729518Y-91882285D02*
X157729518Y-90625142D01*
X157729518Y-90625142D02*
X157615232Y-90396571D01*
X157615232Y-90396571D02*
X157386660Y-90282285D01*
X157386660Y-90282285D02*
X157043803Y-90282285D01*
X157043803Y-90282285D02*
X156815232Y-90396571D01*
X156815232Y-90396571D02*
X156700946Y-90510857D01*
X158529518Y-90282285D02*
X159443804Y-90282285D01*
X158872375Y-89482285D02*
X158872375Y-91539428D01*
X158872375Y-91539428D02*
X158986661Y-91768000D01*
X158986661Y-91768000D02*
X159215232Y-91882285D01*
X159215232Y-91882285D02*
X159443804Y-91882285D01*
X160243804Y-90968000D02*
X162072376Y-90968000D01*
X162986662Y-89482285D02*
X163558090Y-91882285D01*
X163558090Y-91882285D02*
X164015233Y-90168000D01*
X164015233Y-90168000D02*
X164472376Y-91882285D01*
X164472376Y-91882285D02*
X165043805Y-89482285D01*
X166986662Y-91882285D02*
X166986662Y-90625142D01*
X166986662Y-90625142D02*
X166872376Y-90396571D01*
X166872376Y-90396571D02*
X166643804Y-90282285D01*
X166643804Y-90282285D02*
X166186662Y-90282285D01*
X166186662Y-90282285D02*
X165958090Y-90396571D01*
X166986662Y-91768000D02*
X166758090Y-91882285D01*
X166758090Y-91882285D02*
X166186662Y-91882285D01*
X166186662Y-91882285D02*
X165958090Y-91768000D01*
X165958090Y-91768000D02*
X165843804Y-91539428D01*
X165843804Y-91539428D02*
X165843804Y-91310857D01*
X165843804Y-91310857D02*
X165958090Y-91082285D01*
X165958090Y-91082285D02*
X166186662Y-90968000D01*
X166186662Y-90968000D02*
X166758090Y-90968000D01*
X166758090Y-90968000D02*
X166986662Y-90853714D01*
X167900948Y-90282285D02*
X168472376Y-91882285D01*
X169043805Y-90282285D02*
X168472376Y-91882285D01*
X168472376Y-91882285D02*
X168243805Y-92453714D01*
X168243805Y-92453714D02*
X168129519Y-92568000D01*
X168129519Y-92568000D02*
X167900948Y-92682285D01*
X169958090Y-90968000D02*
X171786662Y-90968000D01*
X172929519Y-89482285D02*
X172929519Y-91425142D01*
X172929519Y-91425142D02*
X173043805Y-91653714D01*
X173043805Y-91653714D02*
X173158091Y-91768000D01*
X173158091Y-91768000D02*
X173386662Y-91882285D01*
X173386662Y-91882285D02*
X173843805Y-91882285D01*
X173843805Y-91882285D02*
X174072376Y-91768000D01*
X174072376Y-91768000D02*
X174186662Y-91653714D01*
X174186662Y-91653714D02*
X174300948Y-91425142D01*
X174300948Y-91425142D02*
X174300948Y-89482285D01*
X175443805Y-90282285D02*
X175443805Y-92682285D01*
X175443805Y-90396571D02*
X175672377Y-90282285D01*
X175672377Y-90282285D02*
X176129519Y-90282285D01*
X176129519Y-90282285D02*
X176358091Y-90396571D01*
X176358091Y-90396571D02*
X176472377Y-90510857D01*
X176472377Y-90510857D02*
X176586662Y-90739428D01*
X176586662Y-90739428D02*
X176586662Y-91425142D01*
X176586662Y-91425142D02*
X176472377Y-91653714D01*
X176472377Y-91653714D02*
X176358091Y-91768000D01*
X176358091Y-91768000D02*
X176129519Y-91882285D01*
X176129519Y-91882285D02*
X175672377Y-91882285D01*
X175672377Y-91882285D02*
X175443805Y-91768000D01*
D11*
X166505187Y-86896808D02*
X166505187Y-85896808D01*
X166505187Y-85896808D02*
X166743282Y-85896808D01*
X166743282Y-85896808D02*
X166886139Y-85944427D01*
X166886139Y-85944427D02*
X166981377Y-86039665D01*
X166981377Y-86039665D02*
X167028996Y-86134903D01*
X167028996Y-86134903D02*
X167076615Y-86325379D01*
X167076615Y-86325379D02*
X167076615Y-86468236D01*
X167076615Y-86468236D02*
X167028996Y-86658712D01*
X167028996Y-86658712D02*
X166981377Y-86753950D01*
X166981377Y-86753950D02*
X166886139Y-86849189D01*
X166886139Y-86849189D02*
X166743282Y-86896808D01*
X166743282Y-86896808D02*
X166505187Y-86896808D01*
X167505187Y-86896808D02*
X167505187Y-85896808D01*
X168409948Y-86230141D02*
X168409948Y-86896808D01*
X168171853Y-85849189D02*
X167933758Y-86563474D01*
X167933758Y-86563474D02*
X168552805Y-86563474D01*
X166997142Y-94688819D02*
X166663809Y-94212628D01*
X166425714Y-94688819D02*
X166425714Y-93688819D01*
X166425714Y-93688819D02*
X166806666Y-93688819D01*
X166806666Y-93688819D02*
X166901904Y-93736438D01*
X166901904Y-93736438D02*
X166949523Y-93784057D01*
X166949523Y-93784057D02*
X166997142Y-93879295D01*
X166997142Y-93879295D02*
X166997142Y-94022152D01*
X166997142Y-94022152D02*
X166949523Y-94117390D01*
X166949523Y-94117390D02*
X166901904Y-94165009D01*
X166901904Y-94165009D02*
X166806666Y-94212628D01*
X166806666Y-94212628D02*
X166425714Y-94212628D01*
X167378095Y-93784057D02*
X167425714Y-93736438D01*
X167425714Y-93736438D02*
X167520952Y-93688819D01*
X167520952Y-93688819D02*
X167759047Y-93688819D01*
X167759047Y-93688819D02*
X167854285Y-93736438D01*
X167854285Y-93736438D02*
X167901904Y-93784057D01*
X167901904Y-93784057D02*
X167949523Y-93879295D01*
X167949523Y-93879295D02*
X167949523Y-93974533D01*
X167949523Y-93974533D02*
X167901904Y-94117390D01*
X167901904Y-94117390D02*
X167330476Y-94688819D01*
X167330476Y-94688819D02*
X167949523Y-94688819D01*
X168282857Y-93688819D02*
X168949523Y-93688819D01*
X168949523Y-93688819D02*
X168520952Y-94688819D01*
X141390510Y-86896808D02*
X141390510Y-85896808D01*
X141390510Y-85896808D02*
X141628605Y-85896808D01*
X141628605Y-85896808D02*
X141771462Y-85944427D01*
X141771462Y-85944427D02*
X141866700Y-86039665D01*
X141866700Y-86039665D02*
X141914319Y-86134903D01*
X141914319Y-86134903D02*
X141961938Y-86325379D01*
X141961938Y-86325379D02*
X141961938Y-86468236D01*
X141961938Y-86468236D02*
X141914319Y-86658712D01*
X141914319Y-86658712D02*
X141866700Y-86753950D01*
X141866700Y-86753950D02*
X141771462Y-86849189D01*
X141771462Y-86849189D02*
X141628605Y-86896808D01*
X141628605Y-86896808D02*
X141390510Y-86896808D01*
X142390510Y-86896808D02*
X142390510Y-85896808D01*
X142771462Y-85896808D02*
X143390509Y-85896808D01*
X143390509Y-85896808D02*
X143057176Y-86277760D01*
X143057176Y-86277760D02*
X143200033Y-86277760D01*
X143200033Y-86277760D02*
X143295271Y-86325379D01*
X143295271Y-86325379D02*
X143342890Y-86372998D01*
X143342890Y-86372998D02*
X143390509Y-86468236D01*
X143390509Y-86468236D02*
X143390509Y-86706331D01*
X143390509Y-86706331D02*
X143342890Y-86801569D01*
X143342890Y-86801569D02*
X143295271Y-86849189D01*
X143295271Y-86849189D02*
X143200033Y-86896808D01*
X143200033Y-86896808D02*
X142914319Y-86896808D01*
X142914319Y-86896808D02*
X142819081Y-86849189D01*
X142819081Y-86849189D02*
X142771462Y-86801569D01*
X184658095Y-86644819D02*
X184658095Y-85644819D01*
X184658095Y-86121009D02*
X185229523Y-86121009D01*
X185229523Y-86644819D02*
X185229523Y-85644819D01*
X185658095Y-85740057D02*
X185705714Y-85692438D01*
X185705714Y-85692438D02*
X185800952Y-85644819D01*
X185800952Y-85644819D02*
X186039047Y-85644819D01*
X186039047Y-85644819D02*
X186134285Y-85692438D01*
X186134285Y-85692438D02*
X186181904Y-85740057D01*
X186181904Y-85740057D02*
X186229523Y-85835295D01*
X186229523Y-85835295D02*
X186229523Y-85930533D01*
X186229523Y-85930533D02*
X186181904Y-86073390D01*
X186181904Y-86073390D02*
X185610476Y-86644819D01*
X185610476Y-86644819D02*
X186229523Y-86644819D01*
X117942889Y-95893169D02*
X117942889Y-96893169D01*
X117942889Y-96893169D02*
X117704794Y-96893169D01*
X117704794Y-96893169D02*
X117561937Y-96845550D01*
X117561937Y-96845550D02*
X117466699Y-96750312D01*
X117466699Y-96750312D02*
X117419080Y-96655074D01*
X117419080Y-96655074D02*
X117371461Y-96464598D01*
X117371461Y-96464598D02*
X117371461Y-96321741D01*
X117371461Y-96321741D02*
X117419080Y-96131265D01*
X117419080Y-96131265D02*
X117466699Y-96036027D01*
X117466699Y-96036027D02*
X117561937Y-95940789D01*
X117561937Y-95940789D02*
X117704794Y-95893169D01*
X117704794Y-95893169D02*
X117942889Y-95893169D01*
X116942889Y-95893169D02*
X116942889Y-96893169D01*
X116514318Y-96797931D02*
X116466699Y-96845550D01*
X116466699Y-96845550D02*
X116371461Y-96893169D01*
X116371461Y-96893169D02*
X116133366Y-96893169D01*
X116133366Y-96893169D02*
X116038128Y-96845550D01*
X116038128Y-96845550D02*
X115990509Y-96797931D01*
X115990509Y-96797931D02*
X115942890Y-96702693D01*
X115942890Y-96702693D02*
X115942890Y-96607455D01*
X115942890Y-96607455D02*
X115990509Y-96464598D01*
X115990509Y-96464598D02*
X116561937Y-95893169D01*
X116561937Y-95893169D02*
X115942890Y-95893169D01*
X219936433Y-91050830D02*
X219603100Y-90574639D01*
X219365005Y-91050830D02*
X219365005Y-90050830D01*
X219365005Y-90050830D02*
X219745957Y-90050830D01*
X219745957Y-90050830D02*
X219841195Y-90098449D01*
X219841195Y-90098449D02*
X219888814Y-90146068D01*
X219888814Y-90146068D02*
X219936433Y-90241306D01*
X219936433Y-90241306D02*
X219936433Y-90384163D01*
X219936433Y-90384163D02*
X219888814Y-90479401D01*
X219888814Y-90479401D02*
X219841195Y-90527020D01*
X219841195Y-90527020D02*
X219745957Y-90574639D01*
X219745957Y-90574639D02*
X219365005Y-90574639D01*
X220317386Y-90146068D02*
X220365005Y-90098449D01*
X220365005Y-90098449D02*
X220460243Y-90050830D01*
X220460243Y-90050830D02*
X220698338Y-90050830D01*
X220698338Y-90050830D02*
X220793576Y-90098449D01*
X220793576Y-90098449D02*
X220841195Y-90146068D01*
X220841195Y-90146068D02*
X220888814Y-90241306D01*
X220888814Y-90241306D02*
X220888814Y-90336544D01*
X220888814Y-90336544D02*
X220841195Y-90479401D01*
X220841195Y-90479401D02*
X220269767Y-91050830D01*
X220269767Y-91050830D02*
X220888814Y-91050830D01*
X225744819Y-79073333D02*
X226459104Y-79073333D01*
X226459104Y-79073333D02*
X226601961Y-79120952D01*
X226601961Y-79120952D02*
X226697200Y-79216190D01*
X226697200Y-79216190D02*
X226744819Y-79359047D01*
X226744819Y-79359047D02*
X226744819Y-79454285D01*
X226744819Y-78073333D02*
X226744819Y-78644761D01*
X226744819Y-78359047D02*
X225744819Y-78359047D01*
X225744819Y-78359047D02*
X225887676Y-78454285D01*
X225887676Y-78454285D02*
X225982914Y-78549523D01*
X225982914Y-78549523D02*
X226030533Y-78644761D01*
X226800919Y-97477344D02*
X227515204Y-97477344D01*
X227515204Y-97477344D02*
X227658061Y-97524963D01*
X227658061Y-97524963D02*
X227753300Y-97620201D01*
X227753300Y-97620201D02*
X227800919Y-97763058D01*
X227800919Y-97763058D02*
X227800919Y-97858296D01*
X226800919Y-97096391D02*
X226800919Y-96477344D01*
X226800919Y-96477344D02*
X227181871Y-96810677D01*
X227181871Y-96810677D02*
X227181871Y-96667820D01*
X227181871Y-96667820D02*
X227229490Y-96572582D01*
X227229490Y-96572582D02*
X227277109Y-96524963D01*
X227277109Y-96524963D02*
X227372347Y-96477344D01*
X227372347Y-96477344D02*
X227610442Y-96477344D01*
X227610442Y-96477344D02*
X227705680Y-96524963D01*
X227705680Y-96524963D02*
X227753300Y-96572582D01*
X227753300Y-96572582D02*
X227800919Y-96667820D01*
X227800919Y-96667820D02*
X227800919Y-96953534D01*
X227800919Y-96953534D02*
X227753300Y-97048772D01*
X227753300Y-97048772D02*
X227705680Y-97096391D01*
X227831395Y-82855249D02*
X227831395Y-83236201D01*
X227831395Y-83236201D02*
X227031395Y-83236201D01*
X227412347Y-82588582D02*
X227412347Y-82321916D01*
X227831395Y-82207630D02*
X227831395Y-82588582D01*
X227831395Y-82588582D02*
X227031395Y-82588582D01*
X227031395Y-82588582D02*
X227031395Y-82207630D01*
X227831395Y-81864772D02*
X227031395Y-81864772D01*
X227031395Y-81864772D02*
X227031395Y-81674296D01*
X227031395Y-81674296D02*
X227069490Y-81560010D01*
X227069490Y-81560010D02*
X227145680Y-81483820D01*
X227145680Y-81483820D02*
X227221871Y-81445725D01*
X227221871Y-81445725D02*
X227374252Y-81407629D01*
X227374252Y-81407629D02*
X227488538Y-81407629D01*
X227488538Y-81407629D02*
X227640919Y-81445725D01*
X227640919Y-81445725D02*
X227717109Y-81483820D01*
X227717109Y-81483820D02*
X227793300Y-81560010D01*
X227793300Y-81560010D02*
X227831395Y-81674296D01*
X227831395Y-81674296D02*
X227831395Y-81864772D01*
X227831395Y-80645725D02*
X227831395Y-81102868D01*
X227831395Y-80874296D02*
X227031395Y-80874296D01*
X227031395Y-80874296D02*
X227145680Y-80950487D01*
X227145680Y-80950487D02*
X227221871Y-81026677D01*
X227221871Y-81026677D02*
X227259966Y-81102868D01*
X214063110Y-92180580D02*
X214015491Y-92228200D01*
X214015491Y-92228200D02*
X213872634Y-92275819D01*
X213872634Y-92275819D02*
X213777396Y-92275819D01*
X213777396Y-92275819D02*
X213634539Y-92228200D01*
X213634539Y-92228200D02*
X213539301Y-92132961D01*
X213539301Y-92132961D02*
X213491682Y-92037723D01*
X213491682Y-92037723D02*
X213444063Y-91847247D01*
X213444063Y-91847247D02*
X213444063Y-91704390D01*
X213444063Y-91704390D02*
X213491682Y-91513914D01*
X213491682Y-91513914D02*
X213539301Y-91418676D01*
X213539301Y-91418676D02*
X213634539Y-91323438D01*
X213634539Y-91323438D02*
X213777396Y-91275819D01*
X213777396Y-91275819D02*
X213872634Y-91275819D01*
X213872634Y-91275819D02*
X214015491Y-91323438D01*
X214015491Y-91323438D02*
X214063110Y-91371057D01*
X215015491Y-92275819D02*
X214444063Y-92275819D01*
X214729777Y-92275819D02*
X214729777Y-91275819D01*
X214729777Y-91275819D02*
X214634539Y-91418676D01*
X214634539Y-91418676D02*
X214539301Y-91513914D01*
X214539301Y-91513914D02*
X214444063Y-91561533D01*
X219905110Y-92307580D02*
X219857491Y-92355200D01*
X219857491Y-92355200D02*
X219714634Y-92402819D01*
X219714634Y-92402819D02*
X219619396Y-92402819D01*
X219619396Y-92402819D02*
X219476539Y-92355200D01*
X219476539Y-92355200D02*
X219381301Y-92259961D01*
X219381301Y-92259961D02*
X219333682Y-92164723D01*
X219333682Y-92164723D02*
X219286063Y-91974247D01*
X219286063Y-91974247D02*
X219286063Y-91831390D01*
X219286063Y-91831390D02*
X219333682Y-91640914D01*
X219333682Y-91640914D02*
X219381301Y-91545676D01*
X219381301Y-91545676D02*
X219476539Y-91450438D01*
X219476539Y-91450438D02*
X219619396Y-91402819D01*
X219619396Y-91402819D02*
X219714634Y-91402819D01*
X219714634Y-91402819D02*
X219857491Y-91450438D01*
X219857491Y-91450438D02*
X219905110Y-91498057D01*
X220286063Y-91498057D02*
X220333682Y-91450438D01*
X220333682Y-91450438D02*
X220428920Y-91402819D01*
X220428920Y-91402819D02*
X220667015Y-91402819D01*
X220667015Y-91402819D02*
X220762253Y-91450438D01*
X220762253Y-91450438D02*
X220809872Y-91498057D01*
X220809872Y-91498057D02*
X220857491Y-91593295D01*
X220857491Y-91593295D02*
X220857491Y-91688533D01*
X220857491Y-91688533D02*
X220809872Y-91831390D01*
X220809872Y-91831390D02*
X220238444Y-92402819D01*
X220238444Y-92402819D02*
X220857491Y-92402819D01*
X92511566Y-96147169D02*
X92511566Y-97147169D01*
X92511566Y-97147169D02*
X92273471Y-97147169D01*
X92273471Y-97147169D02*
X92130614Y-97099550D01*
X92130614Y-97099550D02*
X92035376Y-97004312D01*
X92035376Y-97004312D02*
X91987757Y-96909074D01*
X91987757Y-96909074D02*
X91940138Y-96718598D01*
X91940138Y-96718598D02*
X91940138Y-96575741D01*
X91940138Y-96575741D02*
X91987757Y-96385265D01*
X91987757Y-96385265D02*
X92035376Y-96290027D01*
X92035376Y-96290027D02*
X92130614Y-96194789D01*
X92130614Y-96194789D02*
X92273471Y-96147169D01*
X92273471Y-96147169D02*
X92511566Y-96147169D01*
X91511566Y-96147169D02*
X91511566Y-97147169D01*
X90511567Y-96147169D02*
X91082995Y-96147169D01*
X90797281Y-96147169D02*
X90797281Y-97147169D01*
X90797281Y-97147169D02*
X90892519Y-97004312D01*
X90892519Y-97004312D02*
X90987757Y-96909074D01*
X90987757Y-96909074D02*
X91082995Y-96861455D01*
X218748596Y-91225666D02*
X218272405Y-91558999D01*
X218748596Y-91797094D02*
X217748596Y-91797094D01*
X217748596Y-91797094D02*
X217748596Y-91416142D01*
X217748596Y-91416142D02*
X217796215Y-91320904D01*
X217796215Y-91320904D02*
X217843834Y-91273285D01*
X217843834Y-91273285D02*
X217939072Y-91225666D01*
X217939072Y-91225666D02*
X218081929Y-91225666D01*
X218081929Y-91225666D02*
X218177167Y-91273285D01*
X218177167Y-91273285D02*
X218224786Y-91320904D01*
X218224786Y-91320904D02*
X218272405Y-91416142D01*
X218272405Y-91416142D02*
X218272405Y-91797094D01*
X218748596Y-90273285D02*
X218748596Y-90844713D01*
X218748596Y-90558999D02*
X217748596Y-90558999D01*
X217748596Y-90558999D02*
X217891453Y-90654237D01*
X217891453Y-90654237D02*
X217986691Y-90749475D01*
X217986691Y-90749475D02*
X218034310Y-90844713D01*
X225744819Y-101933333D02*
X226459104Y-101933333D01*
X226459104Y-101933333D02*
X226601961Y-101980952D01*
X226601961Y-101980952D02*
X226697200Y-102076190D01*
X226697200Y-102076190D02*
X226744819Y-102219047D01*
X226744819Y-102219047D02*
X226744819Y-102314285D01*
X225840057Y-101504761D02*
X225792438Y-101457142D01*
X225792438Y-101457142D02*
X225744819Y-101361904D01*
X225744819Y-101361904D02*
X225744819Y-101123809D01*
X225744819Y-101123809D02*
X225792438Y-101028571D01*
X225792438Y-101028571D02*
X225840057Y-100980952D01*
X225840057Y-100980952D02*
X225935295Y-100933333D01*
X225935295Y-100933333D02*
X226030533Y-100933333D01*
X226030533Y-100933333D02*
X226173390Y-100980952D01*
X226173390Y-100980952D02*
X226744819Y-101552380D01*
X226744819Y-101552380D02*
X226744819Y-100933333D01*
X72898095Y-86644819D02*
X72898095Y-85644819D01*
X72898095Y-86121009D02*
X73469523Y-86121009D01*
X73469523Y-86644819D02*
X73469523Y-85644819D01*
X74469523Y-86644819D02*
X73898095Y-86644819D01*
X74183809Y-86644819D02*
X74183809Y-85644819D01*
X74183809Y-85644819D02*
X74088571Y-85787676D01*
X74088571Y-85787676D02*
X73993333Y-85882914D01*
X73993333Y-85882914D02*
X73898095Y-85930533D01*
X92321142Y-87068819D02*
X91987809Y-86592628D01*
X91749714Y-87068819D02*
X91749714Y-86068819D01*
X91749714Y-86068819D02*
X92130666Y-86068819D01*
X92130666Y-86068819D02*
X92225904Y-86116438D01*
X92225904Y-86116438D02*
X92273523Y-86164057D01*
X92273523Y-86164057D02*
X92321142Y-86259295D01*
X92321142Y-86259295D02*
X92321142Y-86402152D01*
X92321142Y-86402152D02*
X92273523Y-86497390D01*
X92273523Y-86497390D02*
X92225904Y-86545009D01*
X92225904Y-86545009D02*
X92130666Y-86592628D01*
X92130666Y-86592628D02*
X91749714Y-86592628D01*
X92702095Y-86164057D02*
X92749714Y-86116438D01*
X92749714Y-86116438D02*
X92844952Y-86068819D01*
X92844952Y-86068819D02*
X93083047Y-86068819D01*
X93083047Y-86068819D02*
X93178285Y-86116438D01*
X93178285Y-86116438D02*
X93225904Y-86164057D01*
X93225904Y-86164057D02*
X93273523Y-86259295D01*
X93273523Y-86259295D02*
X93273523Y-86354533D01*
X93273523Y-86354533D02*
X93225904Y-86497390D01*
X93225904Y-86497390D02*
X92654476Y-87068819D01*
X92654476Y-87068819D02*
X93273523Y-87068819D01*
X93606857Y-86068819D02*
X94225904Y-86068819D01*
X94225904Y-86068819D02*
X93892571Y-86449771D01*
X93892571Y-86449771D02*
X94035428Y-86449771D01*
X94035428Y-86449771D02*
X94130666Y-86497390D01*
X94130666Y-86497390D02*
X94178285Y-86545009D01*
X94178285Y-86545009D02*
X94225904Y-86640247D01*
X94225904Y-86640247D02*
X94225904Y-86878342D01*
X94225904Y-86878342D02*
X94178285Y-86973580D01*
X94178285Y-86973580D02*
X94130666Y-87021200D01*
X94130666Y-87021200D02*
X94035428Y-87068819D01*
X94035428Y-87068819D02*
X93749714Y-87068819D01*
X93749714Y-87068819D02*
X93654476Y-87021200D01*
X93654476Y-87021200D02*
X93606857Y-86973580D01*
%TO.C,R6*%
D14*
X206085035Y-97804500D02*
X205610519Y-97804500D01*
X206085035Y-96759500D02*
X205610519Y-96759500D01*
%TO.C,R5*%
X209133035Y-97804500D02*
X208658519Y-97804500D01*
X209133035Y-96759500D02*
X208658519Y-96759500D01*
%TO.C,DI4*%
X155216700Y-80865000D02*
X180316700Y-80865000D01*
X180316700Y-102015000D01*
X155216700Y-102015000D01*
X155216700Y-80865000D01*
%TO.C,R27*%
X165101000Y-94387641D02*
X165101000Y-94080359D01*
X165861000Y-94387641D02*
X165861000Y-94080359D01*
%TO.C,DI3*%
X129816700Y-80865000D02*
X154916700Y-80865000D01*
X154916700Y-102015000D01*
X129816700Y-102015000D01*
X129816700Y-80865000D01*
%TO.C,C4*%
X214135357Y-96525000D02*
X213854197Y-96525000D01*
X214135357Y-97545000D02*
X213854197Y-97545000D01*
%TO.C,R10*%
X206131600Y-89596753D02*
X206131600Y-90071269D01*
X207176600Y-89596753D02*
X207176600Y-90071269D01*
%TO.C,R8*%
X204563277Y-86503742D02*
X204563277Y-86978258D01*
X205608277Y-86503742D02*
X205608277Y-86978258D01*
%TO.C,DI2*%
X104416700Y-80865000D02*
X129516700Y-80865000D01*
X129516700Y-102015000D01*
X104416700Y-102015000D01*
X104416700Y-80865000D01*
%TO.C,U2*%
X207604777Y-91658000D02*
X209424777Y-91658000D01*
X207604777Y-91708000D02*
X207604777Y-91658000D01*
X207604777Y-94778000D02*
X207604777Y-94728000D01*
X209424777Y-91658000D02*
X209424777Y-91708000D01*
X209424777Y-94728000D02*
X209424777Y-94778000D01*
X209424777Y-94778000D02*
X207604777Y-94778000D01*
X207064777Y-91708000D02*
X206824777Y-91378000D01*
X207304777Y-91378000D01*
X207064777Y-91708000D01*
G36*
X207064777Y-91708000D02*
G01*
X206824777Y-91378000D01*
X207304777Y-91378000D01*
X207064777Y-91708000D01*
G37*
%TO.C,R9*%
X204556277Y-90026258D02*
X204556277Y-89551742D01*
X205601277Y-90026258D02*
X205601277Y-89551742D01*
%TO.C,R2*%
X219865842Y-86009511D02*
X220340358Y-86009511D01*
X219865842Y-87054511D02*
X220340358Y-87054511D01*
%TO.C,R7*%
X224387519Y-85830500D02*
X224862035Y-85830500D01*
X224387519Y-86875500D02*
X224862035Y-86875500D01*
%TO.C,J1*%
X201870000Y-77410000D02*
X201870000Y-80070000D01*
X222250000Y-77410000D02*
X201870000Y-77410000D01*
X222250000Y-77410000D02*
X222250000Y-80070000D01*
X222250000Y-80070000D02*
X201870000Y-80070000D01*
X224850000Y-78740000D02*
X224850000Y-80070000D01*
X224850000Y-80070000D02*
X223520000Y-80070000D01*
%TO.C,C3*%
X210970100Y-96043431D02*
X210970100Y-96324591D01*
X211990100Y-96043431D02*
X211990100Y-96324591D01*
%TO.C,J3*%
D15*
X212536100Y-89826011D02*
X212536100Y-95826011D01*
X212536100Y-95826011D02*
X221416100Y-95826011D01*
X213716100Y-89826011D02*
X212536100Y-89826011D01*
X222036100Y-89026011D02*
X222036100Y-89826011D01*
X222036100Y-89826011D02*
X216356100Y-89826011D01*
X223216100Y-89026011D02*
X222036100Y-89026011D01*
X224086100Y-95826011D02*
X228036100Y-95826011D01*
X228036100Y-95826011D02*
X228036100Y-91146011D01*
D16*
X227536100Y-86826011D02*
G75*
G02*
X227336100Y-86826011I-100000J0D01*
G01*
X227336100Y-86826011D02*
G75*
G02*
X227536100Y-86826011I100000J0D01*
G01*
%TO.C,LED1*%
D17*
X227050300Y-84883761D02*
X227050300Y-85767261D01*
X227913900Y-85767261D02*
X227913900Y-84883761D01*
%TO.C,R13*%
D14*
X210703600Y-86769269D02*
X210703600Y-86294753D01*
X211748600Y-86769269D02*
X211748600Y-86294753D01*
%TO.C,R3*%
X209133035Y-95235500D02*
X208658519Y-95235500D01*
X209133035Y-96280500D02*
X208658519Y-96280500D01*
%TO.C,R14*%
X209179600Y-86769269D02*
X209179600Y-86294753D01*
X210224600Y-86769269D02*
X210224600Y-86294753D01*
%TO.C,C1*%
X214897357Y-86111000D02*
X214616197Y-86111000D01*
X214897357Y-87131000D02*
X214616197Y-87131000D01*
%TO.C,TP1*%
X206310000Y-85660000D02*
X207710000Y-85660000D01*
X206310000Y-87060000D02*
X206310000Y-85660000D01*
X207710000Y-85660000D02*
X207710000Y-87060000D01*
X207710000Y-87060000D02*
X206310000Y-87060000D01*
%TO.C,U3*%
X208792100Y-88229000D02*
X210612100Y-88229000D01*
X208792100Y-88279000D02*
X208792100Y-88229000D01*
X208792100Y-91349000D02*
X208792100Y-91299000D01*
X210612100Y-88229000D02*
X210612100Y-88279000D01*
X210612100Y-91299000D02*
X210612100Y-91349000D01*
X210612100Y-91349000D02*
X208792100Y-91349000D01*
X208252100Y-88279000D02*
X208012100Y-87949000D01*
X208492100Y-87949000D01*
X208252100Y-88279000D01*
G36*
X208252100Y-88279000D02*
G01*
X208012100Y-87949000D01*
X208492100Y-87949000D01*
X208252100Y-88279000D01*
G37*
%TO.C,R4*%
X206085035Y-95235500D02*
X205610519Y-95235500D01*
X206085035Y-96280500D02*
X205610519Y-96280500D01*
%TO.C,R12*%
X210957600Y-93373269D02*
X210957600Y-92898753D01*
X212002600Y-93373269D02*
X212002600Y-92898753D01*
%TO.C,R11*%
X204563277Y-92644753D02*
X204563277Y-93119269D01*
X205608277Y-92644753D02*
X205608277Y-93119269D01*
%TO.C,C5*%
X217149520Y-96518000D02*
X217430680Y-96518000D01*
X217149520Y-97538000D02*
X217430680Y-97538000D01*
%TO.C,C2*%
X220231357Y-87889000D02*
X219950197Y-87889000D01*
X220231357Y-88909000D02*
X219950197Y-88909000D01*
%TO.C,DI1*%
X79016700Y-80865000D02*
X104116700Y-80865000D01*
X104116700Y-102015000D01*
X79016700Y-102015000D01*
X79016700Y-80865000D01*
%TO.C,R1*%
X217040600Y-87056753D02*
X217040600Y-87531269D01*
X218085600Y-87056753D02*
X218085600Y-87531269D01*
%TO.C,J2*%
X201870000Y-100270000D02*
X201870000Y-102930000D01*
X222250000Y-100270000D02*
X201870000Y-100270000D01*
X222250000Y-100270000D02*
X222250000Y-102930000D01*
X222250000Y-102930000D02*
X201870000Y-102930000D01*
X224850000Y-101600000D02*
X224850000Y-102930000D01*
X224850000Y-102930000D02*
X223520000Y-102930000D01*
%TO.C,R23*%
X92711000Y-88365359D02*
X92711000Y-88672641D01*
X93471000Y-88365359D02*
X93471000Y-88672641D01*
%TD*%
M02*
