%TF.GenerationSoftware,KiCad,Pcbnew,10.0.5*%
%TF.CreationDate,2026-07-29T19:35:32-06:00*%
%TF.ProjectId,pt_thrifty,70745f74-6872-4696-9674-792e6b696361,rev?*%
%TF.SameCoordinates,Original*%
%TF.FileFunction,Paste,Bot*%
%TF.FilePolarity,Positive*%
%FSLAX46Y46*%
G04 Gerber Fmt 4.6, Leading zero omitted, Abs format (unit mm)*
G04 Created by KiCad (PCBNEW 10.0.5) date 2026-07-29 19:35:32*
%MOMM*%
%LPD*%
G01*
G04 APERTURE LIST*
G04 Aperture macros list*
%AMRoundRect*
0 Rectangle with rounded corners*
0 $1 Rounding radius*
0 $2 $3 $4 $5 $6 $7 $8 $9 X,Y pos of 4 corners*
0 Add a 4 corners polygon primitive as box body*
4,1,4,$2,$3,$4,$5,$6,$7,$8,$9,$2,$3,0*
0 Add four circle primitives for the rounded corners*
1,1,$1+$1,$2,$3*
1,1,$1+$1,$4,$5*
1,1,$1+$1,$6,$7*
1,1,$1+$1,$8,$9*
0 Add four rect primitives between the rounded corners*
20,1,$1+$1,$2,$3,$4,$5,0*
20,1,$1+$1,$4,$5,$6,$7,0*
20,1,$1+$1,$6,$7,$8,$9,0*
20,1,$1+$1,$8,$9,$2,$3,0*%
%AMFreePoly0*
4,1,7,1.050000,-0.975000,-1.050000,-0.975000,-1.050000,0.625000,-0.250000,0.625000,-0.250000,0.975000,1.050000,0.975000,1.050000,-0.975000,1.050000,-0.975000,$1*%
%AMFreePoly1*
4,1,7,0.250000,0.625000,1.050000,0.625000,1.050000,-0.975000,-1.050000,-0.975000,-1.050000,0.975000,0.250000,0.975000,0.250000,0.625000,0.250000,0.625000,$1*%
G04 Aperture macros list end*
%ADD10R,0.762000X1.778000*%
%ADD11RoundRect,0.135000X0.185000X-0.135000X0.185000X0.135000X-0.185000X0.135000X-0.185000X-0.135000X0*%
%ADD12RoundRect,0.135000X-0.185000X0.135000X-0.185000X-0.135000X0.185000X-0.135000X0.185000X0.135000X0*%
%ADD13RoundRect,0.200000X0.200000X0.275000X-0.200000X0.275000X-0.200000X-0.275000X0.200000X-0.275000X0*%
%ADD14RoundRect,0.218750X0.218750X0.256250X-0.218750X0.256250X-0.218750X-0.256250X0.218750X-0.256250X0*%
%ADD15RoundRect,0.225000X-0.250000X0.225000X-0.250000X-0.225000X0.250000X-0.225000X0.250000X0.225000X0*%
%ADD16RoundRect,0.200000X-0.275000X0.200000X-0.275000X-0.200000X0.275000X-0.200000X0.275000X0.200000X0*%
%ADD17RoundRect,0.218750X-0.218750X-0.256250X0.218750X-0.256250X0.218750X0.256250X-0.218750X0.256250X0*%
%ADD18RoundRect,0.200000X0.275000X-0.200000X0.275000X0.200000X-0.275000X0.200000X-0.275000X-0.200000X0*%
%ADD19RoundRect,0.200000X-0.200000X-0.275000X0.200000X-0.275000X0.200000X0.275000X-0.200000X0.275000X0*%
%ADD20RoundRect,0.150000X-0.150000X0.512500X-0.150000X-0.512500X0.150000X-0.512500X0.150000X0.512500X0*%
%ADD21RoundRect,0.075000X-0.475000X0.075000X-0.475000X-0.075000X0.475000X-0.075000X0.475000X0.075000X0*%
%ADD22FreePoly0,270.000000*%
%ADD23FreePoly1,270.000000*%
%ADD24RoundRect,0.225000X0.250000X-0.225000X0.250000X0.225000X-0.250000X0.225000X-0.250000X-0.225000X0*%
%ADD25RoundRect,0.225000X0.225000X0.250000X-0.225000X0.250000X-0.225000X-0.250000X0.225000X-0.250000X0*%
G04 APERTURE END LIST*
D10*
%TO.C,U4*%
X163144200Y-96354900D03*
X161874200Y-96354900D03*
X160604200Y-96354900D03*
X159334200Y-96354900D03*
X158064200Y-96354900D03*
X156794200Y-96354900D03*
X155524200Y-96354900D03*
X154254200Y-96354900D03*
X152984200Y-96354900D03*
X151688800Y-96342200D03*
X150418800Y-96342200D03*
X149148800Y-96342200D03*
X147878800Y-96342200D03*
X146608800Y-96342200D03*
X146685000Y-86525100D03*
X147955000Y-86525100D03*
X149225000Y-86525100D03*
X150495000Y-86525100D03*
X151765000Y-86525100D03*
X152984200Y-86525100D03*
X154254200Y-86525100D03*
X155524200Y-86525100D03*
X156845000Y-86525100D03*
X158064200Y-86525100D03*
X159334200Y-86525100D03*
X160604200Y-86525100D03*
X161874200Y-86525100D03*
X163144200Y-86525100D03*
%TD*%
D11*
%TO.C,R24*%
X165481000Y-93724000D03*
X165481000Y-94744000D03*
%TD*%
D12*
%TO.C,R25*%
X155448000Y-98423000D03*
X155448000Y-99443000D03*
%TD*%
D13*
%TO.C,R32*%
X170180000Y-93980000D03*
X168530000Y-93980000D03*
%TD*%
D14*
%TO.C,D1*%
X167094500Y-92202000D03*
X165519500Y-92202000D03*
%TD*%
D13*
%TO.C,R31*%
X168530000Y-92202000D03*
X170180000Y-92202000D03*
%TD*%
D15*
%TO.C,C7*%
X166307000Y-89929000D03*
X166307000Y-88379000D03*
%TD*%
D13*
%TO.C,R30*%
X170180000Y-89916000D03*
X168530000Y-89916000D03*
%TD*%
D11*
%TO.C,R21*%
X104267000Y-84457000D03*
X104267000Y-83437000D03*
%TD*%
D13*
%TO.C,R93*%
X210140000Y-94227000D03*
X208490000Y-94227000D03*
%TD*%
%TO.C,R94*%
X207092000Y-94227000D03*
X205442000Y-94227000D03*
%TD*%
D16*
%TO.C,R84*%
X226314000Y-86043000D03*
X226314000Y-87693000D03*
%TD*%
D17*
%TO.C,D2*%
X91440300Y-90678000D03*
X93015300Y-90678000D03*
%TD*%
D18*
%TO.C,R90*%
X222377000Y-97218000D03*
X222377000Y-95568000D03*
%TD*%
D13*
%TO.C,R82*%
X227393000Y-89408000D03*
X225743000Y-89408000D03*
%TD*%
%TO.C,R17*%
X72942077Y-80518000D03*
X71292077Y-80518000D03*
%TD*%
D19*
%TO.C,R33*%
X88354800Y-92964000D03*
X90004800Y-92964000D03*
%TD*%
D13*
%TO.C,R95*%
X210140000Y-92703000D03*
X208490000Y-92703000D03*
%TD*%
D19*
%TO.C,R81*%
X220917000Y-89662000D03*
X222567000Y-89662000D03*
%TD*%
D13*
%TO.C,R28*%
X90487000Y-95758000D03*
X88837000Y-95758000D03*
%TD*%
D19*
%TO.C,R99*%
X205423000Y-87884000D03*
X207073000Y-87884000D03*
%TD*%
D18*
%TO.C,R83*%
X221036100Y-93188511D03*
X221036100Y-91538511D03*
%TD*%
D11*
%TO.C,R22*%
X105283000Y-84965000D03*
X105283000Y-83945000D03*
%TD*%
D18*
%TO.C,R91*%
X208541000Y-97364000D03*
X208541000Y-95714000D03*
%TD*%
D19*
%TO.C,R97*%
X205423000Y-90932000D03*
X207073000Y-90932000D03*
%TD*%
D13*
%TO.C,R92*%
X207092000Y-95751000D03*
X205442000Y-95751000D03*
%TD*%
%TO.C,R29*%
X90487000Y-97282000D03*
X88837000Y-97282000D03*
%TD*%
D20*
%TO.C,U80*%
X222570000Y-85730500D03*
X223520000Y-85730500D03*
X224470000Y-85730500D03*
X224470000Y-88005500D03*
X222570000Y-88005500D03*
%TD*%
D13*
%TO.C,R96*%
X207092000Y-92703000D03*
X205442000Y-92703000D03*
%TD*%
%TO.C,R18*%
X72942077Y-82550000D03*
X71292077Y-82550000D03*
%TD*%
%TO.C,R15*%
X72948900Y-101092000D03*
X71298900Y-101092000D03*
%TD*%
D15*
%TO.C,C82*%
X226314000Y-83045000D03*
X226314000Y-84595000D03*
%TD*%
D19*
%TO.C,R98*%
X205423000Y-89408000D03*
X207073000Y-89408000D03*
%TD*%
D12*
%TO.C,R26*%
X154305000Y-98042000D03*
X154305000Y-99062000D03*
%TD*%
D21*
%TO.C,J99*%
X214108000Y-89444000D03*
X214108000Y-89944000D03*
X214108000Y-90444000D03*
X214108000Y-90944000D03*
X214108000Y-91444000D03*
X214108000Y-91944000D03*
X214108000Y-92444000D03*
X214108000Y-92944000D03*
X214108000Y-93444000D03*
X214108000Y-93944000D03*
D22*
X215233000Y-87194000D03*
D23*
X215233000Y-96194000D03*
%TD*%
D19*
%TO.C,R34*%
X88227800Y-90678000D03*
X89877800Y-90678000D03*
%TD*%
D24*
%TO.C,C8*%
X92227800Y-94628000D03*
X92227800Y-93078000D03*
%TD*%
D12*
%TO.C,R20*%
X93091000Y-88009000D03*
X93091000Y-89029000D03*
%TD*%
D13*
%TO.C,R16*%
X72948900Y-99060000D03*
X71298900Y-99060000D03*
%TD*%
D25*
%TO.C,C81*%
X226073000Y-90932000D03*
X224523000Y-90932000D03*
%TD*%
D10*
%TO.C,U5*%
X96291400Y-86512400D03*
X97561400Y-86512400D03*
X98831400Y-86512400D03*
X100101400Y-86512400D03*
X101371400Y-86512400D03*
X102641400Y-86512400D03*
X103911400Y-86512400D03*
X105181400Y-86512400D03*
X106451400Y-86512400D03*
X107746800Y-86525100D03*
X109016800Y-86525100D03*
X110286800Y-86525100D03*
X111556800Y-86525100D03*
X112826800Y-86525100D03*
X112750600Y-96342200D03*
X111480600Y-96342200D03*
X110210600Y-96342200D03*
X108940600Y-96342200D03*
X107670600Y-96342200D03*
X106451400Y-96342200D03*
X105181400Y-96342200D03*
X103911400Y-96342200D03*
X102590600Y-96342200D03*
X101371400Y-96342200D03*
X100101400Y-96342200D03*
X98831400Y-96342200D03*
X97561400Y-96342200D03*
X96291400Y-96342200D03*
%TD*%
D19*
%TO.C,R35*%
X88227800Y-88900000D03*
X89877800Y-88900000D03*
%TD*%
M02*
